mtllib materials.mtl
v 0 1.06 -4.768372E-07
v 0.06625009 0.7950001 0.114748
v 0 0.7950001 0.1324997
v 0.1147485 0.7950001 0.06624961
v 0.1325001 0.7950001 -4.768372E-07
v 0.1147484 0.7950001 -0.06625044
v 0.06625009 0.7950001 -0.1147488
v 0 0.7950001 -0.1325006
v -0.06625009 0.7950001 -0.114749
v -0.1147486 0.7950001 -0.06625044
v -0.1325001 0.7950001 -3.576279E-07
v -0.1147486 0.7950001 0.06624967
v -0.06624997 0.7950001 0.1147481
v 1.192093E-07 -1.059999 1.06
v 0.5300002 -1.06 0.9179869
v 0.9179871 -1.06 0.5299998
v 1.06 -1.06 -2.384186E-07
v 0.9179869 -1.06 -0.5300002
v 0.53 -1.06 -0.9179871
v -2.384186E-07 -1.06 -1.06
v -0.5300003 -1.06 -0.9179869
v -0.9179871 -1.06 -0.5299999
v -1.06 -1.06 1.192093E-07
v -0.917987 -1.06 0.53
v -0.5299997 -1.06 0.9179872
v -0.4589937 0 0.2649999
v -0.5737422 -0.2649997 0.33125
v -0.6625004 -0.2649999 -1.192093E-07
v -0.5300002 0 -1.192093E-07
v -0.5737423 -0.2650001 -0.3312504
v -0.4589937 0 -0.2650003
v -0.3312503 -0.2649999 -0.5737424
v -0.2650001 0 -0.4589938
v -2.384186E-07 -0.265 -0.6625009
v -1.192093E-07 0 -0.5300006
v 0.3312503 -0.265 -0.5737424
v 0.2650001 0 -0.4589939
v 0.5737419 -0.2649997 -0.3312505
v 0.4589934 2.384186E-07 -0.2650003
v 0.6625004 -0.2649997 -2.384186E-07
v 0.5300002 2.384186E-07 -3.576279E-07
v 0.5737424 -0.2649999 0.33125
v 0.4589939 2.384186E-07 0.2649997
v 0.3312503 -0.2649996 0.5737419
v 0.2650001 4.768372E-07 0.4589933
v 0 -0.2649995 0.6625002
v 0 4.768372E-07 0.5299999
v -0.3312501 -0.2649997 0.5737422
v -0.2649999 2.384186E-07 0.4589935
v -0.229497 0.5300002 0.1324997
v -0.3442454 0.2650001 0.1987498
v -0.3975003 0.2650001 -1.192093E-07
v -0.2650001 0.5300002 -2.384186E-07
v -0.1324999 0.5300002 0.2294965
v -0.1987499 0.2650003 0.344245
v 0 0.5300002 0.2649998
v 0 0.2650003 0.3974999
v 0.1325001 0.5300002 0.2294965
v 0.19875 0.2650003 0.3442451
v 0.229497 0.5300002 0.1324997
v 0.3442456 0.2650003 0.1987497
v 0.2650001 0.5300002 -4.768372E-07
v 0.3975002 0.2650003 -4.768372E-07
v 0.2294967 0.5300002 -0.1325004
v 0.3442452 0.2650003 -0.1987504
v 0.1325001 0.5300002 -0.2294972
v 0.19875 0.2650001 -0.3442457
v 0 0.5300002 -0.2650006
v 0 0.2650001 -0.3975006
v -0.1325001 0.5300002 -0.2294972
v -0.19875 0.2650001 -0.3442456
v -0.229497 0.5300002 -0.1325004
v -0.3442454 0.2650001 -0.1987504
v -0.6884906 -0.53 -0.3975002
v -0.803239 -0.7949998 -0.4637501
v -0.4637505 -0.7949998 -0.8032389
v -0.3975004 -0.53 -0.6884906
v -0.7950003 -0.5299997 0
v -0.9275004 -0.7949997 0
v -0.6884905 -0.5299997 0.3975
v -0.803239 -0.7949997 0.4637501
v -0.3974999 -0.5299997 0.6884906
v -0.4637499 -0.7949996 0.803239
v 0 -0.5299995 0.7950001
v 0 -0.7949994 0.9275003
v 0.3975003 -0.5299995 0.6884903
v 0.4637504 -0.7949996 0.8032388
v 0.7950003 -0.5299997 -2.384186E-07
v 0.9275005 -0.7949997 -2.384186E-07
v 0.8032391 -0.7949996 0.4637499
v 0.6884906 -0.5299997 0.3974999
v 0.6884904 -0.5299997 -0.3975004
v 0.8032389 -0.7949998 -0.4637505
v 0.3975002 -0.53 -0.6884906
v 0.4637504 -0.7949998 -0.8032391
v -2.384186E-07 -0.53 -0.7950006
v -2.384186E-07 -0.795 -0.9275006
vn 0.2330615 0.4348984 0.8697963
vn 0.6367351 0.4348985 0.6367352
vn 0.8697968 0.4348983 0.23306
vn 0.8697963 0.4348982 -0.2330622
vn 0.6367362 0.4348981 -0.6367344
vn 0.2330628 0.4348985 -0.869796
vn -0.2330621 0.4348986 -0.8697961
vn -0.636735 0.4348986 -0.6367352
vn -0.8697971 0.4348985 -0.2330588
vn -0.8697969 0.4348986 0.2330589
vn -0.6367337 0.4348987 0.6367366
vn -0.2330607 0.4348985 0.8697966
vn -4.656261E-10 -1 1.748456E-07
vn -0.8697962 0.4348989 0.2330613
vn -0.8697962 0.4348988 -0.2330611
vn -0.6367352 0.4348988 -0.636735
vn -0.2330619 0.4348988 -0.869796
vn 0.2330614 0.4348986 -0.8697962
vn 0.6367348 0.4348988 -0.6367353
vn 0.869796 0.434899 -0.2330615
vn 0.8697962 0.4348993 0.2330606
vn 0.6367351 0.4348989 0.636735
vn 0.2330613 0.4348989 0.8697962
vn -0.233061 0.4348992 0.8697961
vn -0.636735 0.434899 0.636735
vn -0.8697965 0.4348984 0.2330611
vn -0.6367348 0.4348985 0.6367356
vn -0.2330614 0.4348986 0.8697964
vn 0.233061 0.4348987 0.8697963
vn 0.6367349 0.4348986 0.6367354
vn 0.8697967 0.4348985 0.2330599
vn 0.8697963 0.4348984 -0.233062
vn 0.6367354 0.4348982 -0.6367351
vn 0.2330614 0.4348982 -0.8697966
vn -0.2330617 0.434898 -0.8697965
vn -0.6367351 0.434898 -0.6367356
vn -0.8697965 0.4348983 -0.2330609
vn -0.6367354 0.4348986 -0.6367349
vn -0.8697965 0.4348985 -0.2330612
vn -0.8697964 0.4348987 0.2330612
vn -0.636735 0.4348987 0.6367352
vn -0.2330611 0.4348989 0.8697962
vn 0.2330612 0.4348989 0.8697963
vn 0.8697963 0.4348986 0.233061
vn 0.6367353 0.4348988 0.6367349
vn 0.8697963 0.4348986 -0.2330615
vn 0.6367351 0.4348985 -0.6367352
vn 0.2330611 0.4348984 -0.8697965
vn -0.2330614 0.4348986 -0.8697963
vn -0.233062 0.4348979 -0.8697965
vn -0.6367353 0.4348978 -0.6367357
vn -0.8697968 0.4348978 -0.2330611
vn -0.8697967 0.4348978 0.2330613
vn -0.6367353 0.4348981 0.6367354
vn -0.2330613 0.4348983 0.8697965
vn 0.2330611 0.4348982 0.8697966
vn 0.6367353 0.4348981 0.6367354
vn 0.8697969 0.4348979 0.2330603
vn 0.8697966 0.434898 -0.2330615
vn 0.6367351 0.4348979 -0.6367356
vn 0.2330616 0.434898 -0.8697966
vn 0.6367354 0.4348976 -0.6367355
vn 0.2330614 0.4348978 -0.8697968
vn -0.2330617 0.4348976 -0.8697967
vn 0.8697967 0.4348976 -0.2330617
vn 0.8697969 0.4348977 0.2330611
vn 0.6367355 0.4348981 0.6367351
vn 0.2330614 0.4348982 0.8697966
vn -0.2330612 0.434898 0.8697966
vn -0.6367354 0.4348979 0.6367353
vn -0.8697967 0.434898 0.2330613
vn -0.8697966 0.434898 -0.2330613
vn -0.6367357 0.4348979 -0.6367351
vn -0.6367358 0.434897 -0.6367355
vn -0.869797 0.4348972 -0.2330614
vn -0.8697969 0.4348974 0.2330615
vn -0.6367354 0.4348974 0.6367357
vn -0.2330612 0.4348972 0.869797
vn 0.2330616 0.4348973 0.8697969
vn 0.6367358 0.4348972 0.6367355
vn 0.8697971 0.4348972 0.2330612
vn 0.8697969 0.4348972 -0.2330617
vn 0.6367354 0.4348972 -0.6367357
vn 0.2330612 0.434897 -0.8697972
vn -0.2330617 0.4348969 -0.8697971
vn -0.6367353 0.4348981 -0.6367353
vn -0.8697967 0.4348983 -0.2330603
vn -0.8697967 0.4348984 0.2330605
vn -0.2330615 0.434898 -0.8697966
vn 0.233062 0.4348983 -0.8697964
vn -0.6367345 0.4348983 0.636736
vn -0.2330611 0.4348985 0.8697965
vn 0.636735 0.4348986 0.6367353
vn 0.2330613 0.4348986 0.8697963
vn 0.8697967 0.4348986 0.2330602
vn 0.8697962 0.4348985 -0.2330622
vn 0.6367359 0.4348983 -0.6367346
vt 0.2118041 0.296838
vt 0.1836413 0.2876362
vt 0.1865118 0.281407
vt 0.2177499 0.248875
vt 0.1884173 0.2447017
vt 0.1901629 0.2380688
vt 0.2182402 0.1663138
vt 0.1886123 0.1663138
vt 0.1894062 0.1595012
vt 0.2182402 0.03206785
vt 0.1894062 0.03888046
vt 0.1886123 0.03206786
vt -0.2076748 0.05614616
vt -0.1785703 0.05060187
vt -0.1780753 0.05744268
vt -0.1988312 0.1737867
vt -0.1707791 0.1642527
vt -0.1693386 0.1709585
vt -0.1829255 0.2655654
vt -0.1567542 0.2516774
vt -0.154262 0.2580673
vt -0.1529155 0.3267809
vt -0.1304445 0.3074711
vt -0.1266065 0.3131555
vt -0.09123051 0.3633265
vt -0.07669341 0.3375101
vt -0.07114674 0.3415445
vt 0.02196228 0.3741821
vt 0.02132043 0.3445611
vt 0.02814864 0.3452072
vt 0.1364693 0.348833
vt 0.1197737 0.3243571
vt 0.125849 0.3211739
vt 0.1921674 0.3222262
vt 0.167199 0.3062766
vt 0.1715355 0.3009627
vt 0.05758084 0.1493333
vt 0.06203268 0.2040221
vt 0.03854372 0.2536099
vt -0.006592195 0.2848096
vt -0.06128093 0.2892615
vt -0.1108687 0.2657726
vt -0.1420685 0.2206366
vt -0.1465203 0.1659479
vt -0.1230314 0.1163601
vt -0.07789547 0.08516034
vt -0.02320674 0.08070849
vt 0.02638106 0.1041975
vt 0.01939535 0.2556982
vt 0.01875343 0.2260773
vt 0.05289448 0.2293078
vt 0.04670817 0.2582826
vt -0.03308241 0.2600609
vt -0.01854529 0.2342446
vt 0.009188059 0.2544165
vt -0.01089575 0.2761985
vt -0.06303146 0.2495418
vt -0.04056045 0.230232
vt -0.02137069 0.2586539
vt -0.04767965 0.2722793
vt -0.07824029 0.2100133
vt -0.05206901 0.1961253
vt -0.03960833 0.228075
vt -0.06827175 0.235573
vt -0.08662301 0.1356511
vt -0.05857099 0.126117
vt -0.05136808 0.1596456
vt -0.08086069 0.1624739
vt -0.09125648 0.03396928
vt -0.06215193 0.02842504
vt -0.05967705 0.06262913
vt -0.08927658 0.06133255
vt 0.1029046 0.05931737
vt 0.07407062 0.06613033
vt 0.07010083 0.03206731
vt 0.09972873 0.03206698
vt 0.09972866 0.1663137
vt 0.07010075 0.1663138
vt 0.07407006 0.1322507
vt 0.1029041 0.1390633
vt 0.1004198 0.2321818
vt 0.07108723 0.2280085
vt 0.07981507 0.1948442
vt 0.107402 0.2056503
vt 0.09915316 0.2600306
vt 0.07099042 0.2508288
vt 0.08534283 0.2196831
vt 0.1106351 0.2351141
vt 0.09229362 0.2584278
vt 0.06732518 0.2424782
vt 0.08900747 0.215909
vt 0.1096394 0.2371725
vt 0.06968651 0.2509295
vt 0.05299091 0.2264536
vt 0.08336754 0.2105379
vt 0.0939878 0.2381969
vt 0.02067911 0.3149402
vt 0.0200372 0.2853192
vt 0.04052181 0.2872575
vt 0.03433551 0.3162324
vt 0.1030778 0.2998813
vt 0.08638224 0.2754054
vt 0.1046082 0.2658559
vt 0.1152285 0.293515
vt 0.1422305 0.290327
vt 0.1172621 0.2743774
vt 0.1302715 0.2584359
vt 0.1509034 0.2796994
vt 0.1554786 0.2784343
vt 0.1273159 0.2692325
vt 0.1359273 0.2505451
vt 0.1612195 0.265976
vt 0.1590848 0.2405284
vt 0.1297523 0.2363552
vt 0.134989 0.2164566
vt 0.1625759 0.2272627
vt 0.1589845 0.1663137
vt 0.1293565 0.1663137
vt 0.1317382 0.1458759
vt 0.1605722 0.1526885
vt 0.1605723 0.04569274
vt 0.1317383 0.05250542
vt 0.1293566 0.03206762
vt 0.1589845 0.03206754
vt -0.1494657 0.04505786
vt -0.1203612 0.03951356
vt -0.1188762 0.06003604
vt -0.1484757 0.05873949
vt -0.1427272 0.1547192
vt -0.1146751 0.1451852
vt -0.1103534 0.1653023
vt -0.139846 0.1681306
vt -0.130583 0.2377894
vt -0.1044117 0.2239014
vt -0.09693531 0.2430712
vt -0.1255987 0.2505692
vt -0.1079736 0.2881613
vt -0.08550261 0.2688516
vt -0.07398874 0.2859047
vt -0.1002977 0.2995301
vt -0.06215668 0.3116937
vt -0.04761955 0.2858773
vt -0.03097954 0.2979805
vt -0.05106334 0.3197625
vt -0.01808948 0.2109223
vt 0.004381501 0.1916126
vt 0.03124719 0.2314031
vt 0.004938254 0.2450285
vt -0.0040082 0.2084282
vt 0.01052893 0.1826119
vt 0.04935558 0.2108527
vt 0.0292718 0.2326346
vt 0.0181115 0.1964564
vt 0.0174696 0.1668354
vt 0.06526705 0.1713581
vt 0.05908074 0.2003329
vt 0.03629535 0.2019777
vt 0.01959976 0.1775018
vt 0.06212703 0.1552198
vt 0.0727473 0.1828789
vt 0.04235679 0.2265286
vt 0.01738836 0.210579
vt 0.04774356 0.1733821
vt 0.06837553 0.1946455
vt 0.04282772 0.2416269
vt 0.01466499 0.2324251
vt 0.03475837 0.1888211
vt 0.0600506 0.2042521
vt 0.04047284 0.166314
vt 0.01084493 0.166314
vt 0.01640204 0.1186257
vt 0.04523606 0.1254383
vt 0.04175477 0.2238352
vt 0.01242226 0.219662
vt 0.02464119 0.1732319
vt 0.05222816 0.184038
vt 0.04523639 0.0729435
vt 0.01640239 0.07975628
vt 0.01084498 0.03206805
vt 0.04047288 0.03206788
vt -0.0330475 0.02288075
vt -0.003942972 0.0173365
vt -0.0004780658 0.06522225
vt -0.0300776 0.06392568
vt -0.03051902 0.1165832
vt -0.002467008 0.1070492
vt 0.007617076 0.1539892
vt -0.02187552 0.1568175
vt -0.02589779 0.1822373
vt 0.0002734706 0.1683493
vt 0.01771843 0.2130787
vt -0.01094499 0.2205768
vt -0.1044117 0.2239014
vt -0.07824044 0.2100134
vt -0.06827189 0.2355731
vt -0.09693531 0.2430712
vt -0.08550266 0.2688516
vt -0.06303164 0.2495418
vt -0.04767983 0.2722793
vt -0.07398879 0.2859047
vt -0.04761962 0.2858773
vt -0.03308248 0.2600609
vt -0.01089582 0.2761985
vt -0.03097962 0.2979805
vt 0.02003721 0.2853191
vt 0.01939531 0.2556982
vt 0.04670813 0.2582826
vt 0.04052182 0.2872575
vt 0.0863822 0.2754053
vt 0.06968658 0.2509295
vt 0.09398787 0.2381969
vt 0.1046082 0.2658559
vt 0.1172621 0.2743774
vt 0.09229369 0.2584278
vt 0.1096395 0.2371724
vt 0.1302715 0.2584359
vt 0.1273159 0.2692325
vt 0.09915319 0.2600307
vt 0.1106351 0.2351141
vt 0.1359273 0.2505451
vt 0.1297523 0.2363552
vt 0.1004198 0.2321819
vt 0.1074021 0.2056504
vt 0.134989 0.2164566
vt 0.1293565 0.1663139
vt 0.09972862 0.1663139
vt 0.1029041 0.1390635
vt 0.1317382 0.1458761
vt 0.131738 0.05250652
vt 0.102904 0.059319
vt 0.09972858 0.03206856
vt 0.1293565 0.0320687
vt -0.1203612 0.0395138
vt -0.09125669 0.03396951
vt -0.08927674 0.06133278
vt -0.1188763 0.06003628
vt -0.1146751 0.1451852
vt -0.08662314 0.1356511
vt -0.08086079 0.162474
vt -0.1103534 0.1653023
vt -0.06215224 0.02842519
vt -0.03304773 0.02288087
vt -0.03007774 0.06392579
vt -0.05967726 0.06262928
vt -0.05857115 0.1261172
vt -0.03051915 0.1165832
vt -0.02187562 0.1568175
vt -0.05136821 0.1596458
vt -0.05206922 0.1961254
vt -0.02589794 0.1822374
vt -0.01094512 0.2205769
vt -0.03960852 0.228075
vt 0.07406972 0.0661318
vt 0.04523562 0.07294412
vt 0.04047273 0.03206842
vt 0.07010063 0.0320687
vt 0.0701007 0.1663141
vt 0.04047281 0.1663141
vt 0.04523611 0.1254385
vt 0.07407011 0.1322511
vt 0.07108728 0.2280086
vt 0.04175478 0.2238353
vt 0.05222819 0.1840381
vt 0.07981513 0.1948442
vt 0.07099046 0.2508288
vt 0.04282775 0.241627
vt 0.06005063 0.2042521
vt 0.08534287 0.2196831
vt 0.06732527 0.2424782
vt 0.04235684 0.2265286
vt 0.06837557 0.1946455
vt 0.08900756 0.215909
vt 0.05299096 0.2264535
vt 0.03629536 0.2019777
vt 0.07274731 0.1828788
vt 0.08336759 0.2105378
vt 0.0187534 0.2260773
vt 0.01811149 0.1964563
vt 0.05908073 0.2003329
vt 0.05289444 0.2293077
vt -0.01854538 0.2342446
vt -0.00400826 0.2084282
vt 0.02927173 0.2326346
vt 0.00918796 0.2544166
vt -0.04056055 0.2302321
vt -0.01808957 0.2109224
vt 0.004938169 0.2450286
vt -0.02137079 0.258654
vt 0.004381289 0.1916127
vt 0.02685228 0.1723029
vt 0.0575559 0.2177778
vt 0.03124697 0.2314032
vt 0.01052881 0.1826119
vt 0.02506595 0.1567956
vt 0.06943922 0.1890708
vt 0.04935544 0.2108527
vt 0.0174696 0.1668354
vt 0.0168277 0.1372145
vt 0.07145334 0.1423832
vt 0.06526705 0.171358
vt 0.01959982 0.1775018
vt 0.002904233 0.1530259
vt 0.0515068 0.1275607
vt 0.06212708 0.1552198
vt 0.01738847 0.210579
vt -0.007579965 0.1946294
vt 0.02711169 0.1521187
vt 0.04774366 0.1733821
vt 0.01466507 0.2324252
vt -0.01349763 0.2232233
vt 0.009466218 0.1733902
vt 0.03475846 0.1888212
vt 0.01242232 0.219662
vt -0.01691017 0.2154887
vt -0.002945628 0.1624258
vt 0.0246413 0.173232
vt 0.01084489 0.1663141
vt -0.01878298 0.166314
vt -0.01243186 0.1118132
vt 0.01640213 0.1186259
vt 0.01640117 0.07975657
vt -0.01243294 0.08656871
vt -0.01878311 0.03206777
vt 0.01084477 0.03206822
vt -0.003943325 0.01733661
vt 0.02516116 0.01179225
vt 0.02912124 0.0665188
vt -0.0004782634 0.06522234
vt -0.002467289 0.1070493
vt 0.0255847 0.09751529
vt 0.03710943 0.151161
vt 0.007616856 0.1539893
vt 0.0002732029 0.1683494
vt 0.02644446 0.1544614
vt 0.04638157 0.2055808
vt 0.01771818 0.2130789
vt -0.1304446 0.3074711
vt -0.1079736 0.2881614
vt -0.1002977 0.2995301
vt -0.1266066 0.3131555
vt -0.0766937 0.33751
vt -0.06215659 0.3116937
vt -0.05106325 0.3197625
vt -0.07114702 0.3415444
vt 0.02132083 0.3445611
vt 0.02067895 0.3149402
vt 0.03433535 0.3162324
vt 0.02814903 0.3452072
vt -0.1567543 0.2516773
vt -0.130583 0.2377893
vt -0.1255987 0.2505692
vt -0.1542621 0.2580673
vt -0.1707792 0.164253
vt -0.1427272 0.154719
vt -0.139846 0.1681304
vt -0.1693386 0.1709587
vt 0.1197735 0.3243571
vt 0.1030779 0.2998812
vt 0.1152286 0.2935149
vt 0.1258489 0.321174
vt 0.167199 0.3062766
vt 0.1422305 0.290327
vt 0.1509035 0.2796994
vt 0.1715354 0.3009628
vt 0.1884173 0.2447017
vt 0.1590848 0.2405284
vt 0.1625759 0.2272627
vt 0.1901629 0.2380688
vt 0.1836413 0.2876362
vt 0.1554786 0.2784343
vt 0.1612196 0.265976
vt 0.1865118 0.281407
vt 0.1886124 0.1663137
vt 0.1589845 0.1663137
vt 0.1605722 0.1526885
vt 0.1894062 0.1595011
vt 0.1894063 0.03887959
vt 0.1605723 0.04569234
vt 0.1589845 0.03206714
vt 0.1886124 0.03206699
vt -0.1785702 0.0506019
vt -0.1494657 0.04505762
vt -0.1484757 0.05873926
vt -0.1780752 0.05744271
o group1117373465
g mesh1117373465
usemtl mat21
f 3/3/1 2/2/1 1/1/1
f 2/6/2 4/5/2 1/4/2
f 4/9/3 5/8/3 1/7/3
f 5/12/4 6/11/4 1/10/4
f 6/15/5 7/14/5 1/13/5
f 7/18/6 8/17/6 1/16/6
f 8/21/7 9/20/7 1/19/7
f 9/24/8 10/23/8 1/22/8
f 10/27/9 11/26/9 1/25/9
f 11/30/10 12/29/10 1/28/10
f 12/33/11 13/32/11 1/31/11
f 13/36/12 3/35/12 1/34/12
f 25/48/13 24/47/13 23/46/13 22/45/13 21/44/13 20/43/13 19/42/13 18/41/13 17/40/13 16/39/13 15/38/13 14/37/13
f 29/52/14 28/51/14 27/50/14 26/49/14
f 31/56/15 30/55/15 28/54/15 29/53/15
f 33/60/16 32/59/16 30/58/16 31/57/16
f 35/64/17 34/63/17 32/62/17 33/61/17
f 37/68/18 36/67/18 34/66/18 35/65/18
f 39/72/19 38/71/19 36/70/19 37/69/19
f 41/76/20 40/75/20 38/74/20 39/73/20
f 43/80/21 42/79/21 40/78/21 41/77/21
f 45/84/22 44/83/22 42/82/22 43/81/22
f 47/88/23 46/87/23 44/86/23 45/85/23
f 49/92/24 48/91/24 46/90/24 47/89/24
f 26/96/25 27/95/25 48/94/25 49/93/25
f 53/100/26 52/99/26 51/98/26 50/97/26
f 50/104/27 51/103/27 55/102/27 54/101/27
f 54/108/28 55/107/28 57/106/28 56/105/28
f 56/112/29 57/111/29 59/110/29 58/109/29
f 58/116/30 59/115/30 61/114/30 60/113/30
f 60/120/31 61/119/31 63/118/31 62/117/31
f 62/124/32 63/123/32 65/122/32 64/121/32
f 64/128/33 65/127/33 67/126/33 66/125/33
f 66/132/34 67/131/34 69/130/34 68/129/34
f 68/136/35 69/135/35 71/134/35 70/133/35
f 70/140/36 71/139/36 73/138/36 72/137/36
f 72/144/37 73/143/37 52/142/37 53/141/37
f 77/148/38 76/147/38 75/146/38 74/145/38
f 74/152/39 75/151/39 79/150/39 78/149/39
f 78/156/40 79/155/40 81/154/40 80/153/40
f 80/160/41 81/159/41 83/158/41 82/157/41
f 82/164/42 83/163/42 85/162/42 84/161/42
f 84/168/43 85/167/43 87/166/43 86/165/43
f 91/172/44 90/171/44 89/170/44 88/169/44
f 86/176/45 87/175/45 90/174/45 91/173/45
f 88/180/46 89/179/46 93/178/46 92/177/46
f 92/184/47 93/183/47 95/182/47 94/181/47
f 94/188/48 95/187/48 97/186/48 96/185/48
f 96/192/49 97/191/49 76/190/49 77/189/49
f 69/196/50 35/195/50 33/194/50 71/193/50
f 71/200/51 33/199/51 31/198/51 73/197/51
f 73/204/52 31/203/52 29/202/52 52/201/52
f 52/208/53 29/207/53 26/206/53 51/205/53
f 51/212/54 26/211/54 49/210/54 55/209/54
f 55/216/55 49/215/55 47/214/55 57/213/55
f 57/220/56 47/219/56 45/218/56 59/217/56
f 59/224/57 45/223/57 43/222/57 61/221/57
f 61/228/58 43/227/58 41/226/58 63/225/58
f 63/232/59 41/231/59 39/230/59 65/229/59
f 65/236/60 39/235/60 37/234/60 67/233/60
f 67/240/61 37/239/61 35/238/61 69/237/61
f 38/244/62 92/243/62 94/242/62 36/241/62
f 36/248/63 94/247/63 96/246/63 34/245/63
f 34/252/64 96/251/64 77/250/64 32/249/64
f 40/256/65 88/255/65 92/254/65 38/253/65
f 42/260/66 91/259/66 88/258/66 40/257/66
f 44/264/67 86/263/67 91/262/67 42/261/67
f 46/268/68 84/267/68 86/266/68 44/265/68
f 48/272/69 82/271/69 84/270/69 46/269/69
f 27/276/70 80/275/70 82/274/70 48/273/70
f 28/280/71 78/279/71 80/278/71 27/277/71
f 30/284/72 74/283/72 78/282/72 28/281/72
f 32/288/73 77/287/73 74/286/73 30/285/73
f 76/292/74 21/291/74 22/290/74 75/289/74
f 75/296/75 22/295/75 23/294/75 79/293/75
f 79/300/76 23/299/76 24/298/76 81/297/76
f 81/304/77 24/303/77 25/302/77 83/301/77
f 83/308/78 25/307/78 14/306/78 85/305/78
f 85/312/79 14/311/79 15/310/79 87/309/79
f 87/316/80 15/315/80 16/314/80 90/313/80
f 90/320/81 16/319/81 17/318/81 89/317/81
f 89/324/82 17/323/82 18/322/82 93/321/82
f 93/328/83 18/327/83 19/326/83 95/325/83
f 95/332/84 19/331/84 20/330/84 97/329/84
f 97/336/85 20/335/85 21/334/85 76/333/85
f 9/340/86 70/339/86 72/338/86 10/337/86
f 10/344/87 72/343/87 53/342/87 11/341/87
f 11/348/88 53/347/88 50/346/88 12/345/88
f 8/352/89 68/351/89 70/350/89 9/349/89
f 7/356/90 66/355/90 68/354/90 8/353/90
f 12/360/91 50/359/91 54/358/91 13/357/91
f 13/364/92 54/363/92 56/362/92 3/361/92
f 2/368/93 58/367/93 60/366/93 4/365/93
f 3/372/94 56/371/94 58/370/94 2/369/94
f 4/376/95 60/375/95 62/374/95 5/373/95
f 5/380/96 62/379/96 64/378/96 6/377/96
f 6/384/97 64/383/97 66/382/97 7/381/97
