# Created by Kenney (www.kenney.nl)

mtllib gate.mtl

g door

v 0.3 2.255973E-17 -8.940654E-09 1 1 1
v -0.3 4.511946E-17 8.940658E-09 1 1 1
v 0.3 0.6 -8.940654E-09 1 1 1
v -0.3 0.6 8.940658E-09 1 1 1
v 0.35 0.75 -0.1 1 1 1
v 0.35 0.75 0.09999999 1 1 1
v -0.35 0.75 -0.09999999 1 1 1
v -0.35 0.75 0.1 1 1 1
v -0.4 0 -0.09999999 1 1 1
v 0.4 0 -0.1 1 1 1
v -0.4 0.7 -0.09999999 1 1 1
v 0.4 0.7 -0.1 1 1 1
v -0.3 4.511946E-17 0.1 1 1 1
v -0.4 0 0.1 1 1 1
v 0.3 2.255973E-17 0.09999999 1 1 1
v 0.4 0 0.09999999 1 1 1
v -0.4 0.7 0.1 1 1 1
v 0.3 0.6 0.09999999 1 1 1
v -0.3 0.6 0.1 1 1 1
v 0.4 0.7 0.09999999 1 1 1
v 0.3000001 4.511946E-17 0.04999998 1 1 1
v -0.3 4.511946E-17 0.05 1 1 1
v 0.3000001 0.1 0.04999998 1 1 1
v -0.3 0.1 0.05 1 1 1
v -0.3 0.1 0 1 1 1
v 0.3000001 0.1 -1.788131E-08 1 1 1
v -0.3 4.511946E-17 0 1 1 1
v 0.3000001 4.511946E-17 -1.788131E-08 1 1 1
v 0.3000001 0.3 0.04999998 1 1 1
v -0.3 0.3 0.05 1 1 1
v 0.3000001 0.4 0.04999998 1 1 1
v -0.3 0.4 0.05 1 1 1
v -0.3 0.4 0 1 1 1
v 0.3000001 0.4 -1.788131E-08 1 1 1
v -0.3 0.3 0 1 1 1
v 0.3000001 0.3 -1.788131E-08 1 1 1
v 0.087 0.1787823 0.05000003 1 1 1
v 0.087 0.3043799 0.01634623 1 1 1
v 0.087 0.1637708 -0.006023668 1 1 1
v 0.087 0.2893685 -0.03967747 1 1 1
v -0.04302829 0.2212557 0.03861932 1 1 1
v -0.04302829 0.2062442 -0.01740438 1 1 1
v 0.04302829 0.2212557 0.03861932 1 1 1
v 0.04302829 0.2062442 -0.01740438 1 1 1
v -0.04302829 0.2893685 -0.03967746 1 1 1
v -0.087 0.2893685 -0.03967746 1 1 1
v -0.087 0.1637708 -0.006023662 1 1 1
v 0.04302829 0.2893685 -0.03967746 1 1 1
v -0.087 0.3043799 0.01634624 1 1 1
v -0.04302829 0.3043799 0.01634624 1 1 1
v 0.04302829 0.3043799 0.01634623 1 1 1
v -0.087 0.1787823 0.05000004 1 1 1

vn 0 0 1
vn 0.3826834 0.9238795 0
vn 0.3826834 0.9238795 0
vn -0.3826834 0.9238795 0
vn -0.3826834 0.9238795 0
vn 0 0 -1
vn 0 -1 0
vn -0.9238795 0.3826834 0
vn 1 0 0
vn 0.9238795 0.3826834 0
vn -1 0 0
vn 2.980219E-08 0 1
vn 0 1 0
vn 1 0 -2.980219E-08
vn -7.713374E-09 0.9659258 -0.258819
vn -2.87867E-08 -0.258819 -0.9659258
vn -1 0 2.980219E-08
vn 2.87867E-08 0.258819 0.9659258
vn 7.713374E-09 -0.9659258 0.258819

vt 0.21875 0.025
vt 0.21875 0.185
vt 0.09375 0.225
vt 0.09375 0.025
vt 0.09375 0.2116666
vt 0.09375 0.185
vt 0.09375 0.105
vt 0.09375 0.0463521
vt 0.09375 0.2036479
vt 0.09375 0.1067655
vt 0.09375 0.08541343

usemtl colormap

f 3/2/1 2/1/1 1/1/1
f 2/1/1 3/2/1 4/2/1
f 7/3/4 6/3/3 5/3/2
f 6/3/3 7/3/4 8/3/5
f 11/5/6 10/4/6 9/4/6
f 10/4/6 11/5/6 12/5/6
f 12/5/6 11/5/6 7/3/6
f 12/5/6 7/3/6 5/3/6
f 14/4/7 2/4/7 13/4/7
f 9/4/7 2/4/7 14/4/7
f 9/4/7 1/4/7 2/4/7
f 10/4/7 1/4/7 9/4/7
f 10/4/7 15/4/7 1/4/7
f 15/4/7 10/4/7 16/4/7
f 17/5/8 7/3/4 11/5/8
f 7/3/4 17/5/8 8/3/5
f 19/6/7 3/6/7 18/6/7
f 3/6/7 19/6/7 4/6/7
f 12/5/10 16/4/9 10/4/9
f 16/4/9 12/5/10 20/5/10
f 19/6/9 2/4/9 4/6/9
f 2/4/9 19/6/9 13/4/9
f 14/4/11 11/5/8 9/4/11
f 11/5/8 14/4/11 17/5/8
f 15/4/11 3/6/11 1/4/11
f 3/6/11 15/4/11 18/6/11
f 5/3/2 20/5/10 12/5/10
f 20/5/10 5/3/2 6/3/3
f 20/5/1 15/4/1 16/4/1
f 15/4/1 20/5/1 18/6/1
f 18/6/1 20/5/1 19/6/1
f 17/5/1 19/6/1 20/5/1
f 17/5/1 20/5/1 6/3/1
f 17/5/1 6/3/1 8/3/1
f 17/5/1 13/4/1 19/6/1
f 13/4/1 17/5/1 14/4/1
f 23/7/12 22/4/12 21/4/12
f 22/4/12 23/7/12 24/7/12
f 24/7/13 26/7/13 25/7/13
f 26/7/13 24/7/13 23/7/13
f 28/4/7 22/4/7 27/4/7
f 22/4/7 28/4/7 21/4/7
f 31/7/12 30/4/12 29/4/12
f 30/4/12 31/7/12 32/7/12
f 32/7/13 34/7/13 33/7/13
f 34/7/13 32/7/13 31/7/13
f 36/4/7 30/4/7 35/4/7
f 30/4/7 36/4/7 29/4/7
f 39/4/14 38/3/14 37/8/14
f 38/3/14 39/4/14 40/9/14
f 43/10/15 42/11/15 41/10/15
f 42/11/15 43/10/15 44/11/15
f 42/11/16 46/9/16 45/9/16
f 42/11/16 47/4/16 46/9/16
f 47/4/16 42/11/16 39/4/16
f 44/11/16 39/4/16 42/11/16
f 39/4/16 44/11/16 40/9/16
f 40/9/16 44/11/16 48/9/16
f 50/3/15 46/9/15 49/3/15
f 46/9/15 50/3/15 45/9/15
f 42/11/14 50/3/14 41/10/14
f 50/3/14 42/11/14 45/9/14
f 51/3/17 44/11/17 43/10/17
f 44/11/17 51/3/17 48/9/17
f 43/10/18 38/3/18 51/3/18
f 43/10/18 37/8/18 38/3/18
f 37/8/18 43/10/18 52/8/18
f 41/10/18 52/8/18 43/10/18
f 52/8/18 41/10/18 49/3/18
f 49/3/18 41/10/18 50/3/18
f 49/3/17 47/4/17 52/8/17
f 47/4/17 49/3/17 46/9/17
f 51/3/15 40/9/15 48/9/15
f 40/9/15 51/3/15 38/3/15
f 39/4/19 52/8/19 47/4/19
f 52/8/19 39/4/19 37/8/19

