# Created by Kenney (www.kenney.nl)

mtllib rocks.mtl

g rocks

v 0.3567054 0.4 0.03862847 1 1 1
v 0.3533196 0.437 0.02599274 1 1 1
v 0.3937054 0.4 -0.02545741 1 1 1
v 0.3810696 0.437 -0.02207167 1 1 1
v 0.3296195 0.4 -0.06245741 1 1 1
v 0.3330052 0.437 -0.04982167 1 1 1
v 0.2926195 0.4 0.001628472 1 1 1
v 0.3052552 0.437 -0.001757263 1 1 1
v 0.1815975 0.4 -0.1367067 1 1 1
v 0.253076 0.4 -0.1175541 1 1 1
v 0.1881382 0.437 -0.1253778 1 1 1
v 0.2417471 0.437 -0.1110134 1 1 1
v 0.1624449 0.4 -0.06522822 1 1 1
v 0.1737738 0.437 -0.07176897 1 1 1
v 0.2339234 0.4 -0.04607562 1 1 1
v 0.2273826 0.437 -0.05740451 1 1 1
v -0.1308017 0.437 0.1492105 1 1 1
v -0.02358393 0.437 0.1204815 1 1 1
v -0.1020728 0.437 0.2564282 1 1 1
v 0.005144991 0.437 0.2276993 1 1 1
v 0.02780276 0.4 0.2407808 1 1 1
v -0.1151543 0.4 0.279086 1 1 1
v -0.01050245 0.4 0.09782377 1 1 1
v -0.1534595 0.4 0.136129 1 1 1
v 0.008646175 0.4 -0.3462028 1 1 1
v -0.003989562 0.437 -0.3495885 1 1 1
v -0.02835383 0.4 -0.4102887 1 1 1
v -0.03173957 0.437 -0.3976529 1 1 1
v -0.07980398 0.437 -0.3699029 1 1 1
v -0.05205398 0.437 -0.3218385 1 1 1
v -0.0554397 0.4 -0.3092028 1 1 1
v -0.0924397 0.4 -0.3732886 1 1 1
v 0.100061 0.4 0.3990616 1 1 1
v 0.0887321 0.437 0.3925208 1 1 1
v 0.08090839 0.4 0.327583 1 1 1
v 0.07436764 0.437 0.3389119 1 1 1
v 0.02858248 0.4 0.4182142 1 1 1
v 0.009429872 0.4 0.3467357 1 1 1
v 0.03512321 0.437 0.4068853 1 1 1
v 0.02075876 0.437 0.3532764 1 1 1
v 0.15 0.4 0.45 1 1 1
v 0.15 0 0.45 1 1 1
v 0.1 0.4 0.5 1 1 1
v 0.1 0 0.5 1 1 1
v -0.45 0 -0.15 1 1 1
v -0.45 0.4 -0.15 1 1 1
v -0.5 0 -0.1 1 1 1
v -0.5 0.4 -0.1 1 1 1
v 0.45 0 -0.15 1 1 1
v 0.5 0 -0.1 1 1 1
v 0.45 0.4 -0.15 1 1 1
v 0.5 0.4 -0.1 1 1 1
v 0.1 0 -0.5 1 1 1
v 0.15 0 -0.45 1 1 1
v 0.1 0.4 -0.5 1 1 1
v 0.15 0.4 -0.45 1 1 1
v -0.45 0 -0.45 1 1 1
v -0.45 0.5 -0.45 1 1 1
v -0.5 0 -0.3 1 1 1
v -0.5 0.5 -0.3 1 1 1
v 0.45 0 0.45 1 1 1
v 0.3 0 0.5 1 1 1
v 0.45 0.5 0.45 1 1 1
v 0.3 0.5 0.5 1 1 1
v -0.45 0 0.15 1 1 1
v -0.5 0 0.1 1 1 1
v -0.45 0.4 0.15 1 1 1
v -0.5 0.4 0.1 1 1 1
v -0.1 0 0.5 1 1 1
v -0.15 0 0.45 1 1 1
v -0.1 0.4 0.5 1 1 1
v -0.15 0.4 0.45 1 1 1
v 0.3 0 -0.5 1 1 1
v 0.45 0 -0.45 1 1 1
v 0.3 0.45 -0.5 1 1 1
v 0.45 0.45 -0.45 1 1 1
v 0.5 0.4 0.1 1 1 1
v 0.5 0 0.1 1 1 1
v 0.45 0.4 0.15 1 1 1
v 0.45 0 0.15 1 1 1
v -0.1 0 -0.5 1 1 1
v -0.1 0.4 -0.5 1 1 1
v -0.15 0 -0.45 1 1 1
v -0.15 0.4 -0.45 1 1 1
v -0.45 0 0.45 1 1 1
v -0.5 0 0.3 1 1 1
v -0.3 0 -0.5 1 1 1
v -0.3 0 0.5 1 1 1
v 0.5 0 -0.3 1 1 1
v 0.5 0 0.3 1 1 1
v -0.15 0.45 0.45 1 1 1
v -0.3 0.45 0.5 1 1 1
v -0.2 0.45 0.2 1 1 1
v -0.45 0.45 0.15 1 1 1
v -0.45 0.45 0.45 1 1 1
v -0.5 0.45 0.3 1 1 1
v 0.5 0.45 -0.3 1 1 1
v 0.45 0.45 -0.15 1 1 1
v 0.2 0.45 -0.2 1 1 1
v 0.15 0.45 -0.45 1 1 1
v 0.5 0.5 0.3 1 1 1
v 0.45 0.5 0.15 1 1 1
v 0.2 0.5 0.2 1 1 1
v 0.15 0.5 0.45 1 1 1
v -0.15 0.5 -0.45 1 1 1
v -0.2 0.5 -0.2 1 1 1
v -0.3 0.5 -0.5 1 1 1
v -0.45 0.5 -0.15 1 1 1
v 0.2 0.4 0.2 1 1 1
v 0.2 0.4 -0.2 1 1 1
v -0.2 0.4 0.2 1 1 1
v -0.2 0.4 -0.2 1 1 1

vn 0.2440169 0.3333334 0.9106836
vn 0.1842486 0.7022992 0.6876251
vn 0.9106836 0.3333334 -0.2440169
vn 0.6876251 0.7022992 -0.1842486
vn -0.2440169 0.3333334 -0.9106836
vn -0.1842486 0.7022992 -0.6876251
vn -0.9106836 0.3333334 0.2440169
vn -0.6876251 0.7022992 0.1842486
vn -0.4714045 0.3333333 -0.8164966
vn 0.8164966 0.3333334 -0.4714046
vn -0.355941 0.7022993 -0.6165078
vn 0.6165078 0.7022993 -0.355941
vn -0.8164966 0.3333334 0.4714046
vn -0.6165078 0.7022993 0.355941
vn 0.4714045 0.3333333 0.8164966
vn 0.355941 0.7022993 0.6165078
vn -0.5202672 0.7994348 -0.3003764
vn 0.3003764 0.7994348 -0.5202672
vn -0.3003764 0.7994348 0.5202672
vn 0.5202672 0.7994348 0.3003764
vn 0.7071068 0.5773503 0.4082483
vn -0.4082483 0.5773503 0.7071068
vn 0.4082483 0.5773503 -0.7071068
vn -0.7071068 0.5773503 -0.4082483
vn 0.9106836 0.3333334 0.2440169
vn 0.6876251 0.7022992 0.1842486
vn 0.2440169 0.3333334 -0.9106836
vn 0.1842486 0.7022992 -0.6876251
vn -0.6876251 0.7022992 -0.1842486
vn -0.1842486 0.7022992 0.6876251
vn -0.2440169 0.3333334 0.9106836
vn -0.9106836 0.3333334 -0.2440169
vn 0.8164966 0.3333333 0.4714045
vn 0.6165078 0.7022993 0.355941
vn 0.4714045 0.3333333 -0.8164966
vn 0.355941 0.7022993 -0.6165078
vn -0.4714045 0.3333333 0.8164966
vn -0.8164966 0.3333333 -0.4714045
vn -0.355941 0.7022993 0.6165078
vn -0.6165078 0.7022993 -0.355941
vn 0.7071068 0 0.7071068
vn 0.3826834 0 0.9238795
vn -0.7071068 0 -0.7071068
vn -0.9238795 0 -0.3826834
vn 0.7071068 0 -0.7071068
vn 0.9238795 0 -0.3826834
vn 0.3826834 0 -0.9238795
vn -0.9486833 0 -0.3162278
vn 0.3162278 0 0.9486833
vn -0.7071068 0 0.7071068
vn -0.9238795 0 0.3826834
vn -0.3826834 0 0.9238795
vn 0.3162278 0 -0.9486833
vn 0.9238795 0 0.3826834
vn -0.3826834 0 -0.9238795
vn 0 -1 0
vn 0 1 0
vn -0.3162278 0 0.9486833
vn -0.3162278 0 -0.9486833
vn 0.9486833 0 -0.3162278
vn 0.9486833 0 0.3162278
vn -0.9486833 0 0.3162278
vn -0.9805807 0 -0.1961161
vn -0.1961161 0 -0.9805807
vn 0.9805807 0 -0.1961161
vn 0.1961161 0 -0.9805807
vn -0.1961161 0 0.9805807
vn 0.1961161 0 0.9805807
vn -0.9805807 0 0.1961161
vn 0.9805807 0 0.1961161

vt 0.46875 0.145
vt 0.46875 0.225
vt 0.46875 0.185
vt 0.46875 0.025
vt 0.46875 0.205

usemtl colormap

f 3/1/3 2/2/2 1/1/1
f 2/2/2 3/1/3 4/2/4
f 6/2/6 3/1/3 5/1/5
f 3/1/3 6/2/6 4/2/4
f 8/2/8 5/1/5 7/1/7
f 5/1/5 8/2/8 6/2/6
f 2/2/2 6/2/6 8/2/8
f 6/2/6 2/2/2 4/2/4
f 2/2/2 7/1/7 1/1/1
f 7/1/7 2/2/2 8/2/8
f 11/2/11 10/1/10 9/1/9
f 10/1/10 11/2/11 12/2/12
f 14/2/14 9/1/9 13/1/13
f 9/1/9 14/2/14 11/2/11
f 10/1/10 16/2/16 15/1/15
f 16/2/16 10/1/10 12/2/12
f 16/2/16 11/2/11 14/2/14
f 11/2/11 16/2/16 12/2/12
f 16/2/16 13/1/13 15/1/15
f 13/1/13 16/2/16 14/2/14
f 19/2/19 18/2/18 17/2/17
f 18/2/18 19/2/19 20/2/20
f 20/2/20 22/1/22 21/1/21
f 22/1/22 20/2/20 19/2/19
f 23/1/23 20/2/20 21/1/21
f 20/2/20 23/1/23 18/2/18
f 19/2/19 24/1/24 22/1/22
f 24/1/24 19/2/19 17/2/17
f 17/2/17 23/1/23 24/1/24
f 23/1/23 17/2/17 18/2/18
f 27/1/27 26/2/26 25/1/25
f 26/2/26 27/1/27 28/2/28
f 30/2/30 28/2/28 29/2/29
f 28/2/28 30/2/30 26/2/26
f 30/2/30 32/1/32 31/1/31
f 32/1/32 30/2/30 29/2/29
f 29/2/29 27/1/27 32/1/32
f 27/1/27 29/2/29 28/2/28
f 26/2/26 31/1/31 25/1/25
f 31/1/31 26/2/26 30/2/30
f 35/1/35 34/2/34 33/1/33
f 34/2/34 35/1/35 36/2/36
f 39/2/39 38/1/38 37/1/37
f 38/1/38 39/2/39 40/2/40
f 34/2/34 37/1/37 33/1/33
f 37/1/37 34/2/34 39/2/39
f 39/2/39 36/2/36 40/2/40
f 36/2/36 39/2/39 34/2/34
f 40/2/40 35/1/35 38/1/38
f 35/1/35 40/2/40 36/2/36
f 43/3/42 42/4/41 41/3/41
f 42/4/41 43/3/42 44/4/42
f 47/4/44 46/3/43 45/4/43
f 46/3/43 47/4/44 48/3/44
f 51/3/45 50/4/46 49/4/45
f 50/4/46 51/3/45 52/3/46
f 55/3/47 54/4/45 53/4/47
f 54/4/45 55/3/47 56/3/45
f 59/4/48 58/2/43 57/4/43
f 58/2/43 59/4/48 60/2/48
f 63/2/41 62/4/49 61/4/41
f 62/4/49 63/2/41 64/2/49
f 67/3/50 66/4/51 65/4/50
f 66/4/51 67/3/50 68/3/51
f 71/3/52 70/4/50 69/4/52
f 70/4/50 71/3/52 72/3/50
f 75/5/53 74/4/45 73/4/53
f 74/4/45 75/5/53 76/5/45
f 79/3/41 78/4/54 77/3/54
f 78/4/54 79/3/41 80/4/41
f 83/4/43 82/3/55 81/4/55
f 82/3/55 83/4/43 84/3/43
f 66/4/51 48/3/44 47/4/44
f 48/3/44 66/4/51 68/3/51
f 86/4/56 65/4/56 85/4/56
f 87/4/56 85/4/56 65/4/56
f 87/4/56 88/4/56 85/4/56
f 83/4/56 88/4/56 87/4/56
f 83/4/56 70/4/56 88/4/56
f 81/4/56 70/4/56 83/4/56
f 81/4/56 69/4/56 70/4/56
f 53/4/56 69/4/56 81/4/56
f 53/4/56 44/4/56 69/4/56
f 54/4/56 44/4/56 53/4/56
f 54/4/56 42/4/56 44/4/56
f 73/4/56 42/4/56 54/4/56
f 73/4/56 62/4/56 42/4/56
f 87/4/56 65/4/56 57/4/56
f 74/4/56 62/4/56 73/4/56
f 57/4/56 65/4/56 45/4/56
f 57/4/56 45/4/56 59/4/56
f 66/4/56 45/4/56 65/4/56
f 45/4/56 66/4/56 47/4/56
f 49/4/56 62/4/56 74/4/56
f 74/4/56 89/4/56 49/4/56
f 80/4/56 62/4/56 49/4/56
f 50/4/56 80/4/56 49/4/56
f 80/4/56 50/4/56 78/4/56
f 80/4/56 61/4/56 62/4/56
f 61/4/56 80/4/56 90/4/56
f 43/3/42 69/4/52 44/4/42
f 69/4/52 43/3/42 71/3/52
f 93/5/57 92/5/57 91/5/57
f 92/5/57 93/5/57 94/5/57
f 92/5/57 94/5/57 95/5/57
f 95/5/57 94/5/57 96/5/57
f 76/5/57 98/5/57 97/5/57
f 98/5/57 76/5/57 99/5/57
f 99/5/57 76/5/57 75/5/57
f 99/5/57 75/5/57 100/5/57
f 102/2/57 63/2/57 101/2/57
f 63/2/57 102/2/57 64/2/57
f 64/2/57 102/2/57 103/2/57
f 64/2/57 103/2/57 104/2/57
f 107/2/57 106/2/57 105/2/57
f 106/2/57 107/2/57 108/2/57
f 108/2/57 107/2/57 58/2/57
f 108/2/57 58/2/57 60/2/57
f 77/3/54 50/4/46 52/3/46
f 50/4/46 77/3/54 78/4/54
f 92/5/58 85/4/50 88/4/58
f 85/4/50 92/5/58 95/5/50
f 56/3/59 73/4/59 54/4/59
f 73/4/59 56/3/59 75/5/59
f 75/5/59 56/3/59 100/5/59
f 97/5/60 74/4/45 76/5/45
f 74/4/45 97/5/60 89/4/60
f 101/2/60 79/3/60 102/2/60
f 79/3/60 101/2/60 80/4/60
f 80/4/60 101/2/60 90/4/60
f 98/5/61 89/4/61 97/5/61
f 89/4/61 98/5/61 49/4/61
f 49/4/61 98/5/61 51/3/61
f 72/3/49 88/4/49 70/4/49
f 88/4/49 72/3/49 92/5/49
f 92/5/49 72/3/49 91/5/49
f 64/2/58 42/4/58 62/4/58
f 42/4/58 64/2/58 41/3/58
f 41/3/58 64/2/58 104/2/58
f 86/4/48 67/3/48 65/4/48
f 67/3/48 86/4/48 94/5/48
f 94/5/48 86/4/48 96/5/48
f 45/4/62 60/2/62 59/4/62
f 60/2/62 45/4/62 108/2/62
f 108/2/62 45/4/62 46/3/62
f 107/2/53 83/4/53 87/4/53
f 83/4/53 107/2/53 84/3/53
f 84/3/53 107/2/53 105/2/53
f 52/3/57 79/3/57 77/3/57
f 79/3/57 52/3/57 51/3/57
f 79/3/57 51/3/57 109/3/57
f 109/3/57 51/3/57 110/3/57
f 109/3/57 110/3/57 41/3/57
f 41/3/57 110/3/57 56/3/57
f 41/3/57 56/3/57 43/3/57
f 43/3/57 56/3/57 55/3/57
f 43/3/57 55/3/57 71/3/57
f 71/3/57 55/3/57 82/3/57
f 71/3/57 82/3/57 72/3/57
f 72/3/57 82/3/57 84/3/57
f 72/3/57 84/3/57 111/3/57
f 111/3/57 84/3/57 112/3/57
f 111/3/57 112/3/57 67/3/57
f 67/3/57 112/3/57 46/3/57
f 67/3/57 46/3/57 68/3/57
f 68/3/57 46/3/57 48/3/57
f 41/3/63 103/2/43 109/3/43
f 103/2/43 41/3/63 104/2/63
f 82/3/55 53/4/47 81/4/55
f 53/4/47 82/3/55 55/3/47
f 103/2/43 79/3/64 109/3/43
f 79/3/64 103/2/43 102/2/64
f 58/2/43 87/4/59 57/4/43
f 87/4/59 58/2/43 107/2/59
f 91/5/65 111/3/45 93/5/45
f 111/3/45 91/5/65 72/3/65
f 94/5/66 111/3/45 67/3/66
f 111/3/45 94/5/66 93/5/45
f 85/4/50 96/5/62 86/4/62
f 96/5/62 85/4/50 95/5/50
f 63/2/41 90/4/61 101/2/61
f 90/4/61 63/2/41 61/4/41
f 98/5/67 110/3/50 51/3/67
f 110/3/50 98/5/67 99/5/50
f 106/2/41 46/3/68 112/3/41
f 46/3/68 106/2/41 108/2/68
f 110/3/50 100/5/69 56/3/69
f 100/5/69 110/3/50 99/5/50
f 106/2/41 84/3/70 105/2/70
f 84/3/70 106/2/41 112/3/41

g rocks




usemtl colormap

f 3/1/3 2/2/2 1/1/1
f 2/2/2 3/1/3 4/2/4
f 6/2/6 3/1/3 5/1/5
f 3/1/3 6/2/6 4/2/4
f 8/2/8 5/1/5 7/1/7
f 5/1/5 8/2/8 6/2/6
f 2/2/2 6/2/6 8/2/8
f 6/2/6 2/2/2 4/2/4
f 2/2/2 7/1/7 1/1/1
f 7/1/7 2/2/2 8/2/8
f 11/2/11 10/1/10 9/1/9
f 10/1/10 11/2/11 12/2/12
f 14/2/14 9/1/9 13/1/13
f 9/1/9 14/2/14 11/2/11
f 10/1/10 16/2/16 15/1/15
f 16/2/16 10/1/10 12/2/12
f 16/2/16 11/2/11 14/2/14
f 11/2/11 16/2/16 12/2/12
f 16/2/16 13/1/13 15/1/15
f 13/1/13 16/2/16 14/2/14
f 19/2/19 18/2/18 17/2/17
f 18/2/18 19/2/19 20/2/20
f 20/2/20 22/1/22 21/1/21
f 22/1/22 20/2/20 19/2/19
f 23/1/23 20/2/20 21/1/21
f 20/2/20 23/1/23 18/2/18
f 19/2/19 24/1/24 22/1/22
f 24/1/24 19/2/19 17/2/17
f 17/2/17 23/1/23 24/1/24
f 23/1/23 17/2/17 18/2/18
f 27/1/27 26/2/26 25/1/25
f 26/2/26 27/1/27 28/2/28
f 30/2/30 28/2/28 29/2/29
f 28/2/28 30/2/30 26/2/26
f 30/2/30 32/1/32 31/1/31
f 32/1/32 30/2/30 29/2/29
f 29/2/29 27/1/27 32/1/32
f 27/1/27 29/2/29 28/2/28
f 26/2/26 31/1/31 25/1/25
f 31/1/31 26/2/26 30/2/30
f 35/1/35 34/2/34 33/1/33
f 34/2/34 35/1/35 36/2/36
f 39/2/39 38/1/38 37/1/37
f 38/1/38 39/2/39 40/2/40
f 34/2/34 37/1/37 33/1/33
f 37/1/37 34/2/34 39/2/39
f 39/2/39 36/2/36 40/2/40
f 36/2/36 39/2/39 34/2/34
f 40/2/40 35/1/35 38/1/38
f 35/1/35 40/2/40 36/2/36
f 43/3/42 42/4/41 41/3/41
f 42/4/41 43/3/42 44/4/42
f 47/4/44 46/3/43 45/4/43
f 46/3/43 47/4/44 48/3/44
f 51/3/45 50/4/46 49/4/45
f 50/4/46 51/3/45 52/3/46
f 55/3/47 54/4/45 53/4/47
f 54/4/45 55/3/47 56/3/45
f 59/4/48 58/2/43 57/4/43
f 58/2/43 59/4/48 60/2/48
f 63/2/41 62/4/49 61/4/41
f 62/4/49 63/2/41 64/2/49
f 67/3/50 66/4/51 65/4/50
f 66/4/51 67/3/50 68/3/51
f 71/3/52 70/4/50 69/4/52
f 70/4/50 71/3/52 72/3/50
f 75/5/53 74/4/45 73/4/53
f 74/4/45 75/5/53 76/5/45
f 79/3/41 78/4/54 77/3/54
f 78/4/54 79/3/41 80/4/41
f 83/4/43 82/3/55 81/4/55
f 82/3/55 83/4/43 84/3/43
f 66/4/51 48/3/44 47/4/44
f 48/3/44 66/4/51 68/3/51
f 86/4/56 65/4/56 85/4/56
f 87/4/56 85/4/56 65/4/56
f 87/4/56 88/4/56 85/4/56
f 83/4/56 88/4/56 87/4/56
f 83/4/56 70/4/56 88/4/56
f 81/4/56 70/4/56 83/4/56
f 81/4/56 69/4/56 70/4/56
f 53/4/56 69/4/56 81/4/56
f 53/4/56 44/4/56 69/4/56
f 54/4/56 44/4/56 53/4/56
f 54/4/56 42/4/56 44/4/56
f 73/4/56 42/4/56 54/4/56
f 73/4/56 62/4/56 42/4/56
f 87/4/56 65/4/56 57/4/56
f 74/4/56 62/4/56 73/4/56
f 57/4/56 65/4/56 45/4/56
f 57/4/56 45/4/56 59/4/56
f 66/4/56 45/4/56 65/4/56
f 45/4/56 66/4/56 47/4/56
f 49/4/56 62/4/56 74/4/56
f 74/4/56 89/4/56 49/4/56
f 80/4/56 62/4/56 49/4/56
f 50/4/56 80/4/56 49/4/56
f 80/4/56 50/4/56 78/4/56
f 80/4/56 61/4/56 62/4/56
f 61/4/56 80/4/56 90/4/56
f 43/3/42 69/4/52 44/4/42
f 69/4/52 43/3/42 71/3/52
f 93/5/57 92/5/57 91/5/57
f 92/5/57 93/5/57 94/5/57
f 92/5/57 94/5/57 95/5/57
f 95/5/57 94/5/57 96/5/57
f 76/5/57 98/5/57 97/5/57
f 98/5/57 76/5/57 99/5/57
f 99/5/57 76/5/57 75/5/57
f 99/5/57 75/5/57 100/5/57
f 102/2/57 63/2/57 101/2/57
f 63/2/57 102/2/57 64/2/57
f 64/2/57 102/2/57 103/2/57
f 64/2/57 103/2/57 104/2/57
f 107/2/57 106/2/57 105/2/57
f 106/2/57 107/2/57 108/2/57
f 108/2/57 107/2/57 58/2/57
f 108/2/57 58/2/57 60/2/57
f 77/3/54 50/4/46 52/3/46
f 50/4/46 77/3/54 78/4/54
f 92/5/58 85/4/50 88/4/58
f 85/4/50 92/5/58 95/5/50
f 56/3/59 73/4/59 54/4/59
f 73/4/59 56/3/59 75/5/59
f 75/5/59 56/3/59 100/5/59
f 97/5/60 74/4/45 76/5/45
f 74/4/45 97/5/60 89/4/60
f 101/2/60 79/3/60 102/2/60
f 79/3/60 101/2/60 80/4/60
f 80/4/60 101/2/60 90/4/60
f 98/5/61 89/4/61 97/5/61
f 89/4/61 98/5/61 49/4/61
f 49/4/61 98/5/61 51/3/61
f 72/3/49 88/4/49 70/4/49
f 88/4/49 72/3/49 92/5/49
f 92/5/49 72/3/49 91/5/49
f 64/2/58 42/4/58 62/4/58
f 42/4/58 64/2/58 41/3/58
f 41/3/58 64/2/58 104/2/58
f 86/4/48 67/3/48 65/4/48
f 67/3/48 86/4/48 94/5/48
f 94/5/48 86/4/48 96/5/48
f 45/4/62 60/2/62 59/4/62
f 60/2/62 45/4/62 108/2/62
f 108/2/62 45/4/62 46/3/62
f 107/2/53 83/4/53 87/4/53
f 83/4/53 107/2/53 84/3/53
f 84/3/53 107/2/53 105/2/53
f 52/3/57 79/3/57 77/3/57
f 79/3/57 52/3/57 51/3/57
f 79/3/57 51/3/57 109/3/57
f 109/3/57 51/3/57 110/3/57
f 109/3/57 110/3/57 41/3/57
f 41/3/57 110/3/57 56/3/57
f 41/3/57 56/3/57 43/3/57
f 43/3/57 56/3/57 55/3/57
f 43/3/57 55/3/57 71/3/57
f 71/3/57 55/3/57 82/3/57
f 71/3/57 82/3/57 72/3/57
f 72/3/57 82/3/57 84/3/57
f 72/3/57 84/3/57 111/3/57
f 111/3/57 84/3/57 112/3/57
f 111/3/57 112/3/57 67/3/57
f 67/3/57 112/3/57 46/3/57
f 67/3/57 46/3/57 68/3/57
f 68/3/57 46/3/57 48/3/57
f 41/3/63 103/2/43 109/3/43
f 103/2/43 41/3/63 104/2/63
f 82/3/55 53/4/47 81/4/55
f 53/4/47 82/3/55 55/3/47
f 103/2/43 79/3/64 109/3/43
f 79/3/64 103/2/43 102/2/64
f 58/2/43 87/4/59 57/4/43
f 87/4/59 58/2/43 107/2/59
f 91/5/65 111/3/45 93/5/45
f 111/3/45 91/5/65 72/3/65
f 94/5/66 111/3/45 67/3/66
f 111/3/45 94/5/66 93/5/45
f 85/4/50 96/5/62 86/4/62
f 96/5/62 85/4/50 95/5/50
f 63/2/41 90/4/61 101/2/61
f 90/4/61 63/2/41 61/4/41
f 98/5/67 110/3/50 51/3/67
f 110/3/50 98/5/67 99/5/50
f 106/2/41 46/3/68 112/3/41
f 46/3/68 106/2/41 108/2/68
f 110/3/50 100/5/69 56/3/69
f 100/5/69 110/3/50 99/5/50
f 106/2/41 84/3/70 105/2/70
f 84/3/70 106/2/41 112/3/41

