# Created by Kenney (www.kenney.nl)

mtllib stones.mtl

g stones

v -0.446208 3.609557E-16 0.1450789 1 1 1
v -0.446208 3.609557E-16 0.2409589 1 1 1
v -0.3631735 3.609557E-16 0.09713891 1 1 1
v -0.3631735 3.609557E-16 0.2888989 1 1 1
v -0.280139 3.609557E-16 0.1450789 1 1 1
v -0.280139 3.609557E-16 0.2409589 1 1 1
v -0.4146549 0.07598691 0.2227417 1 1 1
v -0.4146549 0.07598691 0.1632961 1 1 1
v -0.3631735 0.07598691 0.2524645 1 1 1
v -0.3631735 0.07598691 0.1335733 1 1 1
v -0.3116921 0.07598691 0.2227417 1 1 1
v -0.3116921 0.07598691 0.1632961 1 1 1
v 0.446208 3.158362E-16 0.007998139 1 1 1
v 0.3983955 0.0822375 -0.0159081 1 1 1
v 0.446208 3.158362E-16 -0.1832518 1 1 1
v 0.3983955 0.0822375 -0.1593456 1 1 1
v 0.350583 3.158362E-16 0.1036231 1 1 1
v 0.3266768 0.0822375 0.05581064 1 1 1
v 0.159333 3.158362E-16 0.1036231 1 1 1
v 0.06370801 3.158362E-16 0.007998139 1 1 1
v 0.1832393 0.0822375 0.05581064 1 1 1
v 0.1115205 0.0822375 -0.0159081 1 1 1
v 0.06370801 3.158362E-16 -0.1832518 1 1 1
v 0.1115205 0.0822375 -0.1593456 1 1 1
v 0.350583 3.158362E-16 -0.2788769 1 1 1
v 0.3266768 0.0822375 -0.2310643 1 1 1
v 0.1832393 0.0822375 -0.2310643 1 1 1
v 0.159333 3.158362E-16 -0.2788769 1 1 1
v 0.3569358 4.308909E-16 -0.1153914 1 1 1
v 0.3091232 0.19125 -0.1392976 1 1 1
v 0.3569358 4.308909E-16 -0.3066413 1 1 1
v 0.3091232 0.19125 -0.2827351 1 1 1
v 0.2613107 4.308909E-16 -0.01976637 1 1 1
v 0.2374045 0.19125 -0.06757887 1 1 1
v 0.07006075 4.308909E-16 -0.01976637 1 1 1
v -0.02556426 4.308909E-16 -0.1153914 1 1 1
v 0.09396699 0.19125 -0.06757887 1 1 1
v 0.02224825 0.19125 -0.1392976 1 1 1
v -0.02556426 4.308909E-16 -0.3066413 1 1 1
v 0.02224825 0.19125 -0.2827351 1 1 1
v 0.2613107 4.308909E-16 -0.4022664 1 1 1
v 0.2374045 0.19125 -0.3544538 1 1 1
v 0.09396699 0.19125 -0.3544538 1 1 1
v 0.07006075 4.308909E-16 -0.4022664 1 1 1
v -0.02978099 0 0.313098 1 1 1
v -0.02978099 0 0.3725436 1 1 1
v 0.02170041 0 0.2833752 1 1 1
v 0.02170041 0 0.4022664 1 1 1
v 0.07318181 0 0.313098 1 1 1
v 0.07318181 0 0.3725436 1 1 1
v -0.01021806 0.04711188 0.3612489 1 1 1
v -0.01021806 0.04711188 0.3243926 1 1 1
v 0.02170041 0.04711188 0.379677 1 1 1
v 0.02170041 0.04711188 0.3059645 1 1 1
v 0.05361888 0.04711188 0.3612489 1 1 1
v 0.05361888 0.04711188 0.3243926 1 1 1
v 0.1435655 0.2383619 -0.2552307 1 1 1
v 0.1435655 0.2383619 -0.292087 1 1 1
v 0.1754839 0.2383619 -0.2368025 1 1 1
v 0.1754839 0.2383619 -0.3105151 1 1 1
v 0.2074024 0.2383619 -0.2552307 1 1 1
v 0.2074024 0.2383619 -0.292087 1 1 1
v 0.2269653 0.19125 -0.243936 1 1 1
v 0.1754839 0.19125 -0.2142132 1 1 1
v 0.2269653 0.19125 -0.3033816 1 1 1
v 0.1240025 0.19125 -0.243936 1 1 1
v 0.1754839 0.19125 -0.3331044 1 1 1
v 0.1240025 0.19125 -0.3033816 1 1 1
v 0.1068126 7.219114E-16 0.2025123 1 1 1
v 0.1068126 7.219114E-16 0.2983924 1 1 1
v 0.1898471 7.219114E-16 0.1545723 1 1 1
v 0.1898471 7.219114E-16 0.3463323 1 1 1
v 0.2728816 7.219114E-16 0.2025123 1 1 1
v 0.2728816 7.219114E-16 0.2983924 1 1 1
v 0.1383657 0.07598691 0.2801751 1 1 1
v 0.1383657 0.07598691 0.2207295 1 1 1
v 0.1898471 0.07598691 0.3098979 1 1 1
v 0.1898471 0.07598691 0.1910067 1 1 1
v 0.2413285 0.07598691 0.2801751 1 1 1
v 0.2413285 0.07598691 0.2207295 1 1 1
v -0.01509476 1.804779E-16 -0.094376 1 1 1
v -0.06290731 0.0822375 -0.1182822 1 1 1
v -0.01509476 1.804779E-16 -0.285626 1 1 1
v -0.06290731 0.0822375 -0.2617197 1 1 1
v -0.1107198 1.804779E-16 0.001249009 1 1 1
v -0.134626 0.0822375 -0.04656349 1 1 1
v -0.3019698 1.804779E-16 0.001249009 1 1 1
v -0.3975948 1.804779E-16 -0.094376 1 1 1
v -0.2780635 0.0822375 -0.04656349 1 1 1
v -0.3497823 0.0822375 -0.1182822 1 1 1
v -0.3975948 1.804779E-16 -0.285626 1 1 1
v -0.3497823 0.0822375 -0.2617197 1 1 1
v -0.1107198 1.804779E-16 -0.381251 1 1 1
v -0.134626 0.0822375 -0.3334385 1 1 1
v -0.2780635 0.0822375 -0.3334385 1 1 1
v -0.3019698 1.804779E-16 -0.381251 1 1 1
v 0.1495214 3.158362E-16 -0.02174629 1 1 1
v 0.1176464 0.4539 -0.03768378 1 1 1
v 0.1495214 3.158362E-16 -0.1492463 1 1 1
v 0.1176464 0.4539 -0.1333088 1 1 1
v 0.08577137 3.158362E-16 0.04200372 1 1 1
v 0.06983389 0.4539 0.01012872 1 1 1
v -0.04172862 3.158362E-16 0.04200372 1 1 1
v -0.1054786 3.158362E-16 -0.02174629 1 1 1
v -0.02579112 0.4539 0.01012872 1 1 1
v -0.07360363 0.4539 -0.03768378 1 1 1
v -0.1054786 3.158362E-16 -0.1492463 1 1 1
v -0.07360363 0.4539 -0.1333088 1 1 1
v 0.08577137 3.158362E-16 -0.2129963 1 1 1
v 0.06983389 0.4539 -0.1811213 1 1 1
v -0.02579112 0.4539 -0.1811213 1 1 1
v -0.04172862 3.158362E-16 -0.2129963 1 1 1
v -0.4065754 0.04711188 -0.257946 1 1 1
v -0.4065754 0.04711188 -0.2948022 1 1 1
v -0.3746569 0.04711188 -0.2395178 1 1 1
v -0.3746569 0.04711188 -0.3132304 1 1 1
v -0.3427385 0.04711188 -0.257946 1 1 1
v -0.3427385 0.04711188 -0.2948022 1 1 1
v -0.3231755 0 -0.2466513 1 1 1
v -0.3746569 0 -0.2169285 1 1 1
v -0.3231755 0 -0.3060969 1 1 1
v -0.4261383 0 -0.2466513 1 1 1
v -0.3746569 0 -0.3358197 1 1 1
v -0.4261383 0 -0.3060969 1 1 1
v 0.03614303 3.541878E-16 0.1364957 1 1 1
v -0.01166952 0.3075725 0.1125895 1 1 1
v 0.03614303 3.541878E-16 -0.05475427 1 1 1
v -0.01166952 0.3075725 -0.03084804 1 1 1
v -0.05948201 3.541878E-16 0.2321207 1 1 1
v -0.08338824 0.3075725 0.1843082 1 1 1
v -0.250732 3.541878E-16 0.2321207 1 1 1
v -0.346357 3.541878E-16 0.1364957 1 1 1
v -0.2268257 0.3075725 0.1843082 1 1 1
v -0.2985445 0.3075725 0.1125895 1 1 1
v -0.346357 3.541878E-16 -0.05475427 1 1 1
v -0.2985445 0.3075725 -0.03084804 1 1 1
v -0.05948201 3.541878E-16 -0.1503793 1 1 1
v -0.08338824 0.3075725 -0.1025668 1 1 1
v -0.2268257 0.3075725 -0.1025668 1 1 1
v -0.250732 3.541878E-16 -0.1503793 1 1 1

vn 0 -1 0
vn 0 1 0
vn 0.7808995 0.4323518 0.4508525
vn 1.058907E-13 0.4323518 0.901705
vn 0.7808995 0.4323518 -0.4508525
vn -0.7808995 0.4323518 0.4508525
vn -1.058907E-13 0.4323518 -0.901705
vn -0.7808995 0.4323518 -0.4508525
vn 0.774796 0.5440667 0.3219978
vn 0.7756088 0.5440011 0.3201464
vn 0.774796 0.5440667 -0.3219978
vn 0.7756088 0.5440011 -0.3201464
vn 0.3219978 0.5440667 0.7747959
vn 0.3201464 0.5440011 0.7756088
vn -0.3219978 0.5440667 0.7747959
vn -0.774796 0.5440667 0.3219978
vn -0.3201464 0.5440011 0.7756088
vn -0.7756088 0.5440011 0.3201464
vn -0.774796 0.5440667 -0.3219978
vn -0.7756088 0.5440011 -0.3201464
vn 0.3219978 0.5440667 -0.7747959
vn 0.3201464 0.5440011 -0.7756088
vn -0.3219978 0.5440667 -0.7747959
vn -0.3201464 0.5440011 -0.7756088
vn 0.8894994 0.2685832 0.3696674
vn 0.8903983 0.2685406 0.3675279
vn 0.8894994 0.2685832 -0.3696674
vn 0.8903983 0.2685406 -0.3675279
vn 0.3696674 0.2685832 0.8894994
vn 0.3675279 0.2685406 0.8903983
vn -0.3696674 0.2685832 0.8894994
vn -0.8894994 0.2685832 0.3696674
vn -0.3675279 0.2685406 0.8903983
vn -0.8903983 0.2685406 0.3675279
vn -0.8894994 0.2685832 -0.3696674
vn -0.8903983 0.2685406 -0.3675279
vn 0.3696674 0.2685832 -0.8894994
vn 0.3675279 0.2685406 -0.8903983
vn -0.3696674 0.2685832 -0.8894994
vn -0.3675279 0.2685406 -0.8903983
vn 0.7808995 0.4323519 0.4508525
vn 1.058907E-13 0.4323519 0.901705
vn 0.7808995 0.4323519 -0.4508525
vn -0.7808995 0.4323519 0.4508525
vn -1.058907E-13 0.4323519 -0.901705
vn -0.7808995 0.4323519 -0.4508525
vn -0.7808995 -0.4323519 -0.4508525
vn -1.058907E-13 -0.4323519 -0.901705
vn -0.7808995 -0.4323519 0.4508525
vn 0.7808995 -0.4323519 -0.4508525
vn 1.058907E-13 -0.4323519 0.901705
vn 0.7808995 -0.4323519 0.4508525
vn 0.9206099 0.07808344 0.3825967
vn 0.9215301 0.07807016 0.3803781
vn 0.9206099 0.07808344 -0.3825967
vn 0.9215301 0.07807016 -0.3803781
vn 0.3825967 0.07808345 0.92061
vn 0.3803781 0.07807016 0.9215301
vn -0.3825967 0.07808345 0.92061
vn -0.9206099 0.07808344 0.3825967
vn -0.3803781 0.07807016 0.9215301
vn -0.9215301 0.07807016 0.3803781
vn -0.9206099 0.07808344 -0.3825967
vn -0.9215301 0.07807016 -0.3803781
vn 0.3825967 0.07808345 -0.92061
vn 0.3803781 0.07807016 -0.9215301
vn -0.3825967 0.07808345 -0.92061
vn -0.3803781 0.07807016 -0.9215301
vn 0.9098557 0.1708283 0.3781273
vn 0.9107686 0.1707999 0.3759361
vn 0.9098557 0.1708283 -0.3781273
vn 0.9107686 0.1707999 -0.3759361
vn 0.3781273 0.1708283 0.9098557
vn 0.3759361 0.1707999 0.9107686
vn -0.3781273 0.1708283 0.9098557
vn -0.9098557 0.1708283 0.3781273
vn -0.3759361 0.1707999 0.9107686
vn -0.9107686 0.1707999 0.3759361
vn -0.9098557 0.1708283 -0.3781273
vn -0.9107686 0.1707999 -0.3759361
vn 0.3781273 0.1708283 -0.9098557
vn 0.3759361 0.1707999 -0.9107686
vn -0.3781273 0.1708283 -0.9098557
vn -0.3759361 0.1707999 -0.9107686

vt 0.46875 0.08923646
vt 0.46875 0.1856818
vt 0.46875 0.1654555
vt 0.46875 0.1404649
vt 0.46875 0.1473358
vt 0.46875 0.1586129
vt 0.46875 0.130325
vt 0.46875 0.2025067
vt 0.46875 0.1360938
vt 0.46875 0.1314519
vt 0.46875 0.1085563
vt 0.46875 0.1361343
vt 0.46875 0.1728856
vt 0.46875 0.2057888
vt 0.46875 0.1002974
vt 0.46875 0.1738098
vt 0.46875 0.1378088
vt 0.46875 0.09503735
vt 0.46875 0.08739617
vt 0.46875 0.2199863

usemtl colormap

f 3/1/1 2/1/1 1/1/1
f 2/1/1 3/1/1 4/1/1
f 4/1/1 3/1/1 5/1/1
f 4/1/1 5/1/1 6/1/1
f 9/2/2 8/2/2 7/2/2
f 8/2/2 9/2/2 10/2/2
f 10/2/2 9/2/2 11/2/2
f 10/2/2 11/2/2 12/2/2
f 11/2/3 4/1/4 6/1/3
f 4/1/4 11/2/3 9/2/4
f 5/1/5 11/2/3 6/1/3
f 11/2/3 5/1/5 12/2/5
f 9/2/4 2/1/6 4/1/4
f 2/1/6 9/2/4 7/2/6
f 10/2/7 5/1/5 3/1/7
f 5/1/5 10/2/7 12/2/5
f 7/2/6 1/1/8 2/1/6
f 1/1/8 7/2/6 8/2/8
f 8/2/8 3/1/7 1/1/8
f 3/1/7 8/2/8 10/2/7
f 15/3/11 14/4/10 13/3/9
f 14/4/10 15/3/11 16/4/12
f 14/4/10 17/3/13 13/3/9
f 17/3/13 14/4/10 18/4/14
f 21/4/17 20/3/16 19/3/15
f 20/3/16 21/4/17 22/4/18
f 22/4/18 23/3/19 20/3/16
f 23/3/19 22/4/18 24/4/20
f 26/4/22 15/3/11 25/3/21
f 15/3/11 26/4/22 16/4/12
f 21/4/2 24/4/2 22/4/2
f 24/4/2 21/4/2 27/4/2
f 27/4/2 21/4/2 18/4/2
f 27/4/2 18/4/2 26/4/2
f 26/4/2 18/4/2 14/4/2
f 26/4/2 14/4/2 16/4/2
f 28/3/1 20/3/1 23/3/1
f 20/3/1 28/3/1 19/3/1
f 19/3/1 28/3/1 25/3/1
f 19/3/1 25/3/1 17/3/1
f 17/3/1 25/3/1 15/3/1
f 17/3/1 15/3/1 13/3/1
f 27/4/24 25/3/21 28/3/23
f 25/3/21 27/4/24 26/4/22
f 24/4/20 28/3/23 23/3/19
f 28/3/23 24/4/20 27/4/24
f 18/4/14 19/3/15 17/3/13
f 19/3/15 18/4/14 21/4/17
f 31/5/27 30/6/26 29/5/25
f 30/6/26 31/5/27 32/6/28
f 30/6/26 33/5/29 29/5/25
f 33/5/29 30/6/26 34/6/30
f 37/6/33 36/5/32 35/5/31
f 36/5/32 37/6/33 38/6/34
f 38/6/34 39/5/35 36/5/32
f 39/5/35 38/6/34 40/6/36
f 42/6/38 31/5/27 41/5/37
f 31/5/27 42/6/38 32/6/28
f 37/6/2 40/6/2 38/6/2
f 40/6/2 37/6/2 43/6/2
f 43/6/2 37/6/2 34/6/2
f 43/6/2 34/6/2 42/6/2
f 42/6/2 34/6/2 30/6/2
f 42/6/2 30/6/2 32/6/2
f 44/5/1 36/5/1 39/5/1
f 36/5/1 44/5/1 35/5/1
f 35/5/1 44/5/1 41/5/1
f 35/5/1 41/5/1 33/5/1
f 33/5/1 41/5/1 31/5/1
f 33/5/1 31/5/1 29/5/1
f 43/6/40 41/5/37 44/5/39
f 41/5/37 43/6/40 42/6/38
f 40/6/36 44/5/39 39/5/35
f 44/5/39 40/6/36 43/6/40
f 34/6/30 35/5/31 33/5/29
f 35/5/31 34/6/30 37/6/33
f 47/7/1 46/7/1 45/7/1
f 46/7/1 47/7/1 48/7/1
f 48/7/1 47/7/1 49/7/1
f 48/7/1 49/7/1 50/7/1
f 53/8/2 52/8/2 51/8/2
f 52/8/2 53/8/2 54/8/2
f 54/8/2 53/8/2 55/8/2
f 54/8/2 55/8/2 56/8/2
f 55/8/41 48/7/42 50/7/41
f 48/7/42 55/8/41 53/8/42
f 49/7/43 55/8/41 50/7/41
f 55/8/41 49/7/43 56/8/43
f 53/8/42 46/7/44 48/7/42
f 46/7/44 53/8/42 51/8/44
f 54/8/45 49/7/43 47/7/45
f 49/7/43 54/8/45 56/8/43
f 51/8/44 45/7/46 46/7/44
f 45/7/46 51/8/44 52/8/46
f 52/8/46 47/7/45 45/7/46
f 47/7/45 52/8/46 54/8/45
f 59/9/2 58/9/2 57/9/2
f 58/9/2 59/9/2 60/9/2
f 60/9/2 59/9/2 61/9/2
f 60/9/2 61/9/2 62/9/2
f 61/9/41 64/10/42 63/10/41
f 64/10/42 61/9/41 59/9/42
f 63/10/47 64/10/48 61/9/47
f 59/9/48 61/9/47 64/10/48
f 65/10/43 61/9/41 63/10/41
f 61/9/41 65/10/43 62/9/43
f 63/10/47 61/9/47 65/10/49
f 62/9/49 65/10/49 61/9/47
f 59/9/42 66/10/44 64/10/42
f 66/10/44 59/9/42 57/9/44
f 64/10/48 66/10/50 59/9/48
f 57/9/50 59/9/48 66/10/50
f 60/9/45 65/10/43 67/10/45
f 65/10/43 60/9/45 62/9/43
f 67/10/51 65/10/49 60/9/51
f 62/9/49 60/9/51 65/10/49
f 57/9/44 68/10/46 66/10/44
f 68/10/46 57/9/44 58/9/46
f 66/10/50 68/10/52 57/9/50
f 58/9/52 57/9/50 68/10/52
f 58/9/46 67/10/45 68/10/46
f 67/10/45 58/9/46 60/9/45
f 68/10/52 67/10/51 58/9/52
f 60/9/51 58/9/52 67/10/51
f 71/11/1 70/11/1 69/11/1
f 70/11/1 71/11/1 72/11/1
f 72/11/1 71/11/1 73/11/1
f 72/11/1 73/11/1 74/11/1
f 77/12/2 76/12/2 75/12/2
f 76/12/2 77/12/2 78/12/2
f 78/12/2 77/12/2 79/12/2
f 78/12/2 79/12/2 80/12/2
f 79/12/3 72/11/4 74/11/3
f 72/11/4 79/12/3 77/12/4
f 73/11/5 79/12/3 74/11/3
f 79/12/3 73/11/5 80/12/5
f 77/12/4 70/11/6 72/11/4
f 70/11/6 77/12/4 75/12/6
f 78/12/7 73/11/5 71/11/7
f 73/11/5 78/12/7 80/12/5
f 75/12/6 69/11/8 70/11/6
f 69/11/8 75/12/6 76/12/8
f 76/12/8 71/11/7 69/11/8
f 71/11/7 76/12/8 78/12/7
f 83/13/11 82/14/10 81/13/9
f 82/14/10 83/13/11 84/14/12
f 82/14/10 85/13/13 81/13/9
f 85/13/13 82/14/10 86/14/14
f 89/14/17 88/13/16 87/13/15
f 88/13/16 89/14/17 90/14/18
f 90/14/18 91/13/19 88/13/16
f 91/13/19 90/14/18 92/14/20
f 94/14/22 83/13/11 93/13/21
f 83/13/11 94/14/22 84/14/12
f 89/14/2 92/14/2 90/14/2
f 92/14/2 89/14/2 95/14/2
f 95/14/2 89/14/2 86/14/2
f 95/14/2 86/14/2 94/14/2
f 94/14/2 86/14/2 82/14/2
f 94/14/2 82/14/2 84/14/2
f 95/14/24 93/13/21 96/13/23
f 93/13/21 95/14/24 94/14/22
f 92/14/20 96/13/23 91/13/19
f 96/13/23 92/14/20 95/14/24
f 86/14/14 87/13/15 85/13/13
f 87/13/15 86/14/14 89/14/17
f 96/13/1 88/13/1 91/13/1
f 88/13/1 96/13/1 87/13/1
f 87/13/1 96/13/1 93/13/1
f 87/13/1 93/13/1 85/13/1
f 85/13/1 93/13/1 83/13/1
f 85/13/1 83/13/1 81/13/1
f 99/15/55 98/16/54 97/15/53
f 98/16/54 99/15/55 100/16/56
f 98/16/54 101/15/57 97/15/53
f 101/15/57 98/16/54 102/16/58
f 105/16/61 104/15/60 103/15/59
f 104/15/60 105/16/61 106/16/62
f 106/16/62 107/15/63 104/15/60
f 107/15/63 106/16/62 108/16/64
f 110/16/66 99/15/55 109/15/65
f 99/15/55 110/16/66 100/16/56
f 105/16/2 108/16/2 106/16/2
f 108/16/2 105/16/2 111/16/2
f 111/16/2 105/16/2 102/16/2
f 111/16/2 102/16/2 110/16/2
f 110/16/2 102/16/2 98/16/2
f 110/16/2 98/16/2 100/16/2
f 112/15/1 104/15/1 107/15/1
f 104/15/1 112/15/1 103/15/1
f 103/15/1 112/15/1 109/15/1
f 103/15/1 109/15/1 101/15/1
f 101/15/1 109/15/1 99/15/1
f 101/15/1 99/15/1 97/15/1
f 111/16/68 109/15/65 112/15/67
f 109/15/65 111/16/68 110/16/66
f 108/16/64 112/15/67 107/15/63
f 112/15/67 108/16/64 111/16/68
f 102/16/58 103/15/59 101/15/57
f 103/15/59 102/16/58 105/16/61
f 115/17/2 114/17/2 113/17/2
f 114/17/2 115/17/2 116/17/2
f 116/17/2 115/17/2 117/17/2
f 116/17/2 117/17/2 118/17/2
f 117/17/41 120/18/42 119/18/41
f 120/18/42 117/17/41 115/17/42
f 121/18/43 117/17/41 119/18/41
f 117/17/41 121/18/43 118/17/43
f 115/17/42 122/18/44 120/18/42
f 122/18/44 115/17/42 113/17/44
f 116/17/45 121/18/43 123/18/45
f 121/18/43 116/17/45 118/17/43
f 113/17/44 124/18/46 122/18/44
f 124/18/46 113/17/44 114/17/46
f 114/17/46 123/18/45 124/18/46
f 123/18/45 114/17/46 116/17/45
f 123/18/1 122/18/1 124/18/1
f 122/18/1 123/18/1 120/18/1
f 120/18/1 123/18/1 121/18/1
f 120/18/1 121/18/1 119/18/1
f 127/19/71 126/20/70 125/19/69
f 126/20/70 127/19/71 128/20/72
f 126/20/70 129/19/73 125/19/69
f 129/19/73 126/20/70 130/20/74
f 133/20/77 132/19/76 131/19/75
f 132/19/76 133/20/77 134/20/78
f 134/20/78 135/19/79 132/19/76
f 135/19/79 134/20/78 136/20/80
f 138/20/82 127/19/71 137/19/81
f 127/19/71 138/20/82 128/20/72
f 133/20/2 136/20/2 134/20/2
f 136/20/2 133/20/2 139/20/2
f 139/20/2 133/20/2 130/20/2
f 139/20/2 130/20/2 138/20/2
f 138/20/2 130/20/2 126/20/2
f 138/20/2 126/20/2 128/20/2
f 140/19/1 132/19/1 135/19/1
f 132/19/1 140/19/1 131/19/1
f 131/19/1 140/19/1 137/19/1
f 131/19/1 137/19/1 129/19/1
f 129/19/1 137/19/1 127/19/1
f 129/19/1 127/19/1 125/19/1
f 139/20/84 137/19/81 140/19/83
f 137/19/81 139/20/84 138/20/82
f 136/20/80 140/19/83 135/19/79
f 140/19/83 136/20/80 139/20/84
f 130/20/74 131/19/75 129/19/73
f 131/19/75 130/20/74 133/20/77

g stones




usemtl colormap

f 3/1/1 2/1/1 1/1/1
f 2/1/1 3/1/1 4/1/1
f 4/1/1 3/1/1 5/1/1
f 4/1/1 5/1/1 6/1/1
f 9/2/2 8/2/2 7/2/2
f 8/2/2 9/2/2 10/2/2
f 10/2/2 9/2/2 11/2/2
f 10/2/2 11/2/2 12/2/2
f 11/2/3 4/1/4 6/1/3
f 4/1/4 11/2/3 9/2/4
f 5/1/5 11/2/3 6/1/3
f 11/2/3 5/1/5 12/2/5
f 9/2/4 2/1/6 4/1/4
f 2/1/6 9/2/4 7/2/6
f 10/2/7 5/1/5 3/1/7
f 5/1/5 10/2/7 12/2/5
f 7/2/6 1/1/8 2/1/6
f 1/1/8 7/2/6 8/2/8
f 8/2/8 3/1/7 1/1/8
f 3/1/7 8/2/8 10/2/7
f 15/3/11 14/4/10 13/3/9
f 14/4/10 15/3/11 16/4/12
f 14/4/10 17/3/13 13/3/9
f 17/3/13 14/4/10 18/4/14
f 21/4/17 20/3/16 19/3/15
f 20/3/16 21/4/17 22/4/18
f 22/4/18 23/3/19 20/3/16
f 23/3/19 22/4/18 24/4/20
f 26/4/22 15/3/11 25/3/21
f 15/3/11 26/4/22 16/4/12
f 21/4/2 24/4/2 22/4/2
f 24/4/2 21/4/2 27/4/2
f 27/4/2 21/4/2 18/4/2
f 27/4/2 18/4/2 26/4/2
f 26/4/2 18/4/2 14/4/2
f 26/4/2 14/4/2 16/4/2
f 28/3/1 20/3/1 23/3/1
f 20/3/1 28/3/1 19/3/1
f 19/3/1 28/3/1 25/3/1
f 19/3/1 25/3/1 17/3/1
f 17/3/1 25/3/1 15/3/1
f 17/3/1 15/3/1 13/3/1
f 27/4/24 25/3/21 28/3/23
f 25/3/21 27/4/24 26/4/22
f 24/4/20 28/3/23 23/3/19
f 28/3/23 24/4/20 27/4/24
f 18/4/14 19/3/15 17/3/13
f 19/3/15 18/4/14 21/4/17
f 31/5/27 30/6/26 29/5/25
f 30/6/26 31/5/27 32/6/28
f 30/6/26 33/5/29 29/5/25
f 33/5/29 30/6/26 34/6/30
f 37/6/33 36/5/32 35/5/31
f 36/5/32 37/6/33 38/6/34
f 38/6/34 39/5/35 36/5/32
f 39/5/35 38/6/34 40/6/36
f 42/6/38 31/5/27 41/5/37
f 31/5/27 42/6/38 32/6/28
f 37/6/2 40/6/2 38/6/2
f 40/6/2 37/6/2 43/6/2
f 43/6/2 37/6/2 34/6/2
f 43/6/2 34/6/2 42/6/2
f 42/6/2 34/6/2 30/6/2
f 42/6/2 30/6/2 32/6/2
f 44/5/1 36/5/1 39/5/1
f 36/5/1 44/5/1 35/5/1
f 35/5/1 44/5/1 41/5/1
f 35/5/1 41/5/1 33/5/1
f 33/5/1 41/5/1 31/5/1
f 33/5/1 31/5/1 29/5/1
f 43/6/40 41/5/37 44/5/39
f 41/5/37 43/6/40 42/6/38
f 40/6/36 44/5/39 39/5/35
f 44/5/39 40/6/36 43/6/40
f 34/6/30 35/5/31 33/5/29
f 35/5/31 34/6/30 37/6/33
f 47/7/1 46/7/1 45/7/1
f 46/7/1 47/7/1 48/7/1
f 48/7/1 47/7/1 49/7/1
f 48/7/1 49/7/1 50/7/1
f 53/8/2 52/8/2 51/8/2
f 52/8/2 53/8/2 54/8/2
f 54/8/2 53/8/2 55/8/2
f 54/8/2 55/8/2 56/8/2
f 55/8/41 48/7/42 50/7/41
f 48/7/42 55/8/41 53/8/42
f 49/7/43 55/8/41 50/7/41
f 55/8/41 49/7/43 56/8/43
f 53/8/42 46/7/44 48/7/42
f 46/7/44 53/8/42 51/8/44
f 54/8/45 49/7/43 47/7/45
f 49/7/43 54/8/45 56/8/43
f 51/8/44 45/7/46 46/7/44
f 45/7/46 51/8/44 52/8/46
f 52/8/46 47/7/45 45/7/46
f 47/7/45 52/8/46 54/8/45
f 59/9/2 58/9/2 57/9/2
f 58/9/2 59/9/2 60/9/2
f 60/9/2 59/9/2 61/9/2
f 60/9/2 61/9/2 62/9/2
f 61/9/41 64/10/42 63/10/41
f 64/10/42 61/9/41 59/9/42
f 63/10/47 64/10/48 61/9/47
f 59/9/48 61/9/47 64/10/48
f 65/10/43 61/9/41 63/10/41
f 61/9/41 65/10/43 62/9/43
f 63/10/47 61/9/47 65/10/49
f 62/9/49 65/10/49 61/9/47
f 59/9/42 66/10/44 64/10/42
f 66/10/44 59/9/42 57/9/44
f 64/10/48 66/10/50 59/9/48
f 57/9/50 59/9/48 66/10/50
f 60/9/45 65/10/43 67/10/45
f 65/10/43 60/9/45 62/9/43
f 67/10/51 65/10/49 60/9/51
f 62/9/49 60/9/51 65/10/49
f 57/9/44 68/10/46 66/10/44
f 68/10/46 57/9/44 58/9/46
f 66/10/50 68/10/52 57/9/50
f 58/9/52 57/9/50 68/10/52
f 58/9/46 67/10/45 68/10/46
f 67/10/45 58/9/46 60/9/45
f 68/10/52 67/10/51 58/9/52
f 60/9/51 58/9/52 67/10/51
f 71/11/1 70/11/1 69/11/1
f 70/11/1 71/11/1 72/11/1
f 72/11/1 71/11/1 73/11/1
f 72/11/1 73/11/1 74/11/1
f 77/12/2 76/12/2 75/12/2
f 76/12/2 77/12/2 78/12/2
f 78/12/2 77/12/2 79/12/2
f 78/12/2 79/12/2 80/12/2
f 79/12/3 72/11/4 74/11/3
f 72/11/4 79/12/3 77/12/4
f 73/11/5 79/12/3 74/11/3
f 79/12/3 73/11/5 80/12/5
f 77/12/4 70/11/6 72/11/4
f 70/11/6 77/12/4 75/12/6
f 78/12/7 73/11/5 71/11/7
f 73/11/5 78/12/7 80/12/5
f 75/12/6 69/11/8 70/11/6
f 69/11/8 75/12/6 76/12/8
f 76/12/8 71/11/7 69/11/8
f 71/11/7 76/12/8 78/12/7
f 83/13/11 82/14/10 81/13/9
f 82/14/10 83/13/11 84/14/12
f 82/14/10 85/13/13 81/13/9
f 85/13/13 82/14/10 86/14/14
f 89/14/17 88/13/16 87/13/15
f 88/13/16 89/14/17 90/14/18
f 90/14/18 91/13/19 88/13/16
f 91/13/19 90/14/18 92/14/20
f 94/14/22 83/13/11 93/13/21
f 83/13/11 94/14/22 84/14/12
f 89/14/2 92/14/2 90/14/2
f 92/14/2 89/14/2 95/14/2
f 95/14/2 89/14/2 86/14/2
f 95/14/2 86/14/2 94/14/2
f 94/14/2 86/14/2 82/14/2
f 94/14/2 82/14/2 84/14/2
f 95/14/24 93/13/21 96/13/23
f 93/13/21 95/14/24 94/14/22
f 92/14/20 96/13/23 91/13/19
f 96/13/23 92/14/20 95/14/24
f 86/14/14 87/13/15 85/13/13
f 87/13/15 86/14/14 89/14/17
f 96/13/1 88/13/1 91/13/1
f 88/13/1 96/13/1 87/13/1
f 87/13/1 96/13/1 93/13/1
f 87/13/1 93/13/1 85/13/1
f 85/13/1 93/13/1 83/13/1
f 85/13/1 83/13/1 81/13/1
f 99/15/55 98/16/54 97/15/53
f 98/16/54 99/15/55 100/16/56
f 98/16/54 101/15/57 97/15/53
f 101/15/57 98/16/54 102/16/58
f 105/16/61 104/15/60 103/15/59
f 104/15/60 105/16/61 106/16/62
f 106/16/62 107/15/63 104/15/60
f 107/15/63 106/16/62 108/16/64
f 110/16/66 99/15/55 109/15/65
f 99/15/55 110/16/66 100/16/56
f 105/16/2 108/16/2 106/16/2
f 108/16/2 105/16/2 111/16/2
f 111/16/2 105/16/2 102/16/2
f 111/16/2 102/16/2 110/16/2
f 110/16/2 102/16/2 98/16/2
f 110/16/2 98/16/2 100/16/2
f 112/15/1 104/15/1 107/15/1
f 104/15/1 112/15/1 103/15/1
f 103/15/1 112/15/1 109/15/1
f 103/15/1 109/15/1 101/15/1
f 101/15/1 109/15/1 99/15/1
f 101/15/1 99/15/1 97/15/1
f 111/16/68 109/15/65 112/15/67
f 109/15/65 111/16/68 110/16/66
f 108/16/64 112/15/67 107/15/63
f 112/15/67 108/16/64 111/16/68
f 102/16/58 103/15/59 101/15/57
f 103/15/59 102/16/58 105/16/61
f 115/17/2 114/17/2 113/17/2
f 114/17/2 115/17/2 116/17/2
f 116/17/2 115/17/2 117/17/2
f 116/17/2 117/17/2 118/17/2
f 117/17/41 120/18/42 119/18/41
f 120/18/42 117/17/41 115/17/42
f 121/18/43 117/17/41 119/18/41
f 117/17/41 121/18/43 118/17/43
f 115/17/42 122/18/44 120/18/42
f 122/18/44 115/17/42 113/17/44
f 116/17/45 121/18/43 123/18/45
f 121/18/43 116/17/45 118/17/43
f 113/17/44 124/18/46 122/18/44
f 124/18/46 113/17/44 114/17/46
f 114/17/46 123/18/45 124/18/46
f 123/18/45 114/17/46 116/17/45
f 123/18/1 122/18/1 124/18/1
f 122/18/1 123/18/1 120/18/1
f 120/18/1 123/18/1 121/18/1
f 120/18/1 121/18/1 119/18/1
f 127/19/71 126/20/70 125/19/69
f 126/20/70 127/19/71 128/20/72
f 126/20/70 129/19/73 125/19/69
f 129/19/73 126/20/70 130/20/74
f 133/20/77 132/19/76 131/19/75
f 132/19/76 133/20/77 134/20/78
f 134/20/78 135/19/79 132/19/76
f 135/19/79 134/20/78 136/20/80
f 138/20/82 127/19/71 137/19/81
f 127/19/71 138/20/82 128/20/72
f 133/20/2 136/20/2 134/20/2
f 136/20/2 133/20/2 139/20/2
f 139/20/2 133/20/2 130/20/2
f 139/20/2 130/20/2 138/20/2
f 138/20/2 130/20/2 126/20/2
f 138/20/2 126/20/2 128/20/2
f 140/19/1 132/19/1 135/19/1
f 132/19/1 140/19/1 131/19/1
f 131/19/1 140/19/1 137/19/1
f 131/19/1 137/19/1 129/19/1
f 129/19/1 137/19/1 127/19/1
f 129/19/1 127/19/1 125/19/1
f 139/20/84 137/19/81 140/19/83
f 137/19/81 139/20/84 138/20/82
f 136/20/80 140/19/83 135/19/79
f 140/19/83 136/20/80 139/20/84
f 130/20/74 131/19/75 129/19/73
f 131/19/75 130/20/74 133/20/77

