# Created by Kenney (www.kenney.nl)

mtllib wall.mtl

g wall

v 0.3 0.7 -0.4 1 1 1
v 0.3 0.7 -0.45 1 1 1
v -0.3 0.7 -0.4 1 1 1
v -0.3 0.7 -0.45 1 1 1
v -0.4 0.7 0.3 1 1 1
v -0.4 0.7 -0.3 1 1 1
v -0.45 0.7 0.3 1 1 1
v -0.45 0.7 -0.3 1 1 1
v -0.45 0.9 -0.3 1 1 1
v -0.45 0.9 0.3 1 1 1
v -0.4 0 0.3 1 1 1
v -0.5 1.237562E-15 0.3 1 1 1
v -0.5 0.9 0.3 1 1 1
v 0.3 0.7 0.4 1 1 1
v -0.3 0.7 0.4 1 1 1
v 0.3 0.7 0.45 1 1 1
v -0.3 0.7 0.45 1 1 1
v -0.4 0 -0.3 1 1 1
v -0.5 1.237562E-15 -0.3 1 1 1
v -0.5 0.9 -0.3 1 1 1
v 0.3 0.9 0.45 1 1 1
v -0.3 0.9 0.45 1 1 1
v 0.3 0.9 0.5 1 1 1
v -0.3 0.9 0.5 1 1 1
v 0.3 0 0.4 1 1 1
v 0.3 1.237562E-15 0.5 1 1 1
v 0.5 1.237562E-15 0.5 1 1 1
v 0.5 1.1 0.5 1 1 1
v 0.3 1 0.5 1 1 1
v 0.3 1.1 0.5 1 1 1
v -0.3 1 0.5 1 1 1
v -0.5 1.1 0.5 1 1 1
v -0.3 1.1 0.5 1 1 1
v -0.5 1.237562E-15 0.5 1 1 1
v -0.3 1.237562E-15 0.5 1 1 1
v -0.3 0 0.4 1 1 1
v 0.5 0.9 0.3 1 1 1
v 0.5 0.9 -0.3 1 1 1
v 0.45 0.9 0.3 1 1 1
v 0.45 0.9 -0.3 1 1 1
v 0.45 0.7 0.3 1 1 1
v 0.45 0.7 -0.3 1 1 1
v 0.4 0.7 0.3 1 1 1
v 0.4 0.7 -0.3 1 1 1
v 0.5 1.1 0.3 1 1 1
v 0.5 1 0.3 1 1 1
v 0.5 1.237562E-15 0.3 1 1 1
v 0.5 1 -0.3 1 1 1
v 0.5 1.1 -0.3 1 1 1
v 0.5 1.237562E-15 -0.5 1 1 1
v 0.5 1.237562E-15 -0.3 1 1 1
v 0.5 1.1 -0.5 1 1 1
v 0.4 0 0.3 1 1 1
v 0.4 0 -0.3 1 1 1
v -0.3 0.9 -0.45 1 1 1
v 0.3 0.9 -0.45 1 1 1
v 0.3 0.9 -0.5 1 1 1
v -0.3 0.9 -0.5 1 1 1
v 0.3 1.263345E-15 -0.5 1 1 1
v 0.3 2.578255E-17 -0.4 1 1 1
v -0.3 1.263345E-15 -0.5 1 1 1
v -0.3 2.578255E-17 -0.4 1 1 1
v -0.5 1.237562E-15 -0.5 1 1 1
v -0.5 1.1 -0.5 1 1 1
v -0.3 1 -0.5 1 1 1
v -0.3 1.1 -0.5 1 1 1
v 0.3 1 -0.5 1 1 1
v 0.3 1.1 -0.5 1 1 1
v 0.3 1 -0.3 1 1 1
v -0.3 1 -0.3 1 1 1
v -0.5 1 -0.3 1 1 1
v -0.5 1 0.3 1 1 1
v -0.3 1 0.3 1 1 1
v 0.3 1 0.3 1 1 1
v 0.3 0.9 -0.3 1 1 1
v 0.3 0.9 0.3 1 1 1
v -0.3 0.9 -0.3 1 1 1
v -0.3 0.9 0.3 1 1 1
v 0.3 1.1 0.3 1 1 1
v -0.3 1.1 0.3 1 1 1
v -0.5 1.1 0.3 1 1 1
v -0.3 1.1 -0.3 1 1 1
v -0.5 1.1 -0.3 1 1 1
v 0.3 1.1 -0.3 1 1 1
v -0.2 0.7 0.45 1 1 1
v -0.15 0.7 0.5 1 1 1
v 0.2 0.7 0.45 1 1 1
v 0.15 0.7 0.5 1 1 1
v -0.15 0.9 0.5 1 1 1
v -0.2 0.9 0.45 1 1 1
v 0.15 0.9 0.5 1 1 1
v 0.2 0.9 0.45 1 1 1
v -0.45 0.7 -0.2 1 1 1
v -0.5 0.7 -0.15 1 1 1
v -0.45 0.7 0.2 1 1 1
v -0.5 0.7 0.15 1 1 1
v -0.5 0.9 -0.15 1 1 1
v -0.45 0.9 -0.2 1 1 1
v -0.5 0.9 0.15 1 1 1
v -0.45 0.9 0.2 1 1 1
v 0.2 0.7 -0.45 1 1 1
v 0.15 0.7 -0.5 1 1 1
v -0.2 0.7 -0.45 1 1 1
v -0.15 0.7 -0.5 1 1 1
v 0.15 0.9 -0.5 1 1 1
v 0.2 0.9 -0.45 1 1 1
v -0.15 0.9 -0.5 1 1 1
v -0.2 0.9 -0.45 1 1 1
v 0.45 0.7 0.2 1 1 1
v 0.5 0.7 0.15 1 1 1
v 0.45 0.7 -0.2 1 1 1
v 0.5 0.7 -0.15 1 1 1
v 0.5 0.9 0.15 1 1 1
v 0.45 0.9 0.2 1 1 1
v 0.5 0.9 -0.15 1 1 1
v 0.45 0.9 -0.2 1 1 1

vn 0 -1 0
vn 0 -0.7071068 -0.7071068
vn -0.7071068 -0.7071068 0
vn -1 0 0
vn 0 0 -1
vn 0 -0.7071068 0.7071068
vn 0 0 1
vn 1 0 0
vn 0.7071068 -0.7071068 0
vn 0 1 0
vn -0.7071068 0 0.7071068
vn -0.7071068 0 -0.7071068
vn 0.7071068 0 0.7071068
vn 0.7071068 0 -0.7071068
vn -0.3826835 0 0.9238796
vn -0.7071068 0 0.7071068
vn 0.3826835 0 0.9238796
vn 0.7071068 0 0.7071068
vn -0.9238796 0 -0.3826833
vn -0.7071068 0 -0.7071067
vn -0.9238795 0 0.3826835
vn -0.7071067 0 0.7071068
vn 0.3826835 0 -0.9238796
vn 0.7071068 0 -0.7071068
vn -0.3826835 0 -0.9238796
vn -0.7071068 0 -0.7071068
vn 0.9238795 0 0.3826835
vn 0.7071067 0 0.7071068
vn 0.9238796 0 -0.3826833
vn 0.7071068 0 -0.7071067

vt 0.71875 0.1522727
vt 0.71875 0.1886363
vt 0.71875 0.025
vt 0.71875 0.225
vt 0.71875 0.2068182
vt 0.46875 0.025
vt 0.46875 0.1522727
vt 0.46875 0.1886363

usemtl colormap

f 3/1/1 2/1/2 1/1/1
f 2/1/2 3/1/1 4/1/2
f 7/1/3 6/1/1 5/1/1
f 6/1/1 7/1/3 8/1/3
f 7/1/3 9/2/4 8/1/3
f 9/2/4 7/1/3 10/2/4
f 12/3/5 5/1/5 11/3/5
f 5/1/5 12/3/5 7/1/5
f 7/1/5 12/3/5 13/2/5
f 7/1/5 13/2/5 10/2/5
f 16/1/6 15/1/1 14/1/1
f 15/1/1 16/1/6 17/1/6
f 6/1/7 19/3/7 18/3/7
f 19/3/7 6/1/7 8/1/7
f 19/3/7 8/1/7 20/2/7
f 20/2/7 8/1/7 9/2/7
f 21/2/7 17/1/6 16/1/6
f 17/1/6 21/2/7 22/2/7
f 23/2/1 22/2/1 21/2/1
f 22/2/1 23/2/1 24/2/1
f 26/3/4 14/1/4 25/3/4
f 14/1/4 26/3/4 16/1/4
f 23/2/4 16/1/4 26/3/4
f 16/1/4 23/2/4 21/2/4
f 28/4/7 26/3/7 27/3/7
f 26/3/7 28/4/7 23/2/7
f 23/2/7 28/4/7 29/5/7
f 29/5/7 28/4/7 30/4/7
f 23/2/7 29/5/7 24/2/7
f 31/5/7 24/2/7 29/5/7
f 32/4/7 24/2/7 31/5/7
f 32/4/7 31/5/7 33/4/7
f 34/3/7 24/2/7 32/4/7
f 24/2/7 34/3/7 35/3/7
f 24/2/8 17/1/8 22/2/8
f 35/3/8 17/1/8 24/2/8
f 36/3/8 17/1/8 35/3/8
f 17/1/8 36/3/8 15/1/8
f 39/2/1 38/2/1 37/2/1
f 38/2/1 39/2/1 40/2/1
f 43/1/1 42/1/9 41/1/9
f 42/1/9 43/1/1 44/1/1
f 39/2/8 42/1/9 40/2/8
f 42/1/9 39/2/8 41/1/9
f 28/4/8 46/5/8 45/4/8
f 27/3/8 46/5/8 28/4/8
f 47/3/8 46/5/8 27/3/8
f 37/2/8 46/5/8 47/3/8
f 37/2/8 48/5/8 46/5/8
f 38/2/8 48/5/8 37/2/8
f 38/2/8 49/4/8 48/5/8
f 50/3/8 49/4/8 38/2/8
f 51/3/8 50/3/8 38/2/8
f 49/4/8 50/3/8 52/4/8
f 43/1/5 47/3/5 53/3/5
f 47/3/5 43/1/5 41/1/5
f 47/3/5 41/1/5 37/2/5
f 37/2/5 41/1/5 39/2/5
f 51/3/7 44/1/7 54/3/7
f 44/1/7 51/3/7 42/1/7
f 42/1/7 51/3/7 38/2/7
f 42/1/7 38/2/7 40/2/7
f 55/2/5 2/1/2 4/1/2
f 2/1/2 55/2/5 56/2/5
f 55/2/1 57/2/1 56/2/1
f 57/2/1 55/2/1 58/2/1
f 60/3/4 57/2/4 59/3/4
f 57/2/4 60/3/4 2/1/4
f 2/1/4 60/3/4 1/1/4
f 56/2/4 57/2/4 2/1/4
f 55/2/8 61/3/8 58/2/8
f 61/3/8 55/2/8 4/1/8
f 4/1/8 62/3/8 61/3/8
f 62/3/8 4/1/8 3/1/8
f 64/4/5 61/3/5 63/3/5
f 61/3/5 64/4/5 58/2/5
f 58/2/5 64/4/5 65/5/5
f 65/5/5 64/4/5 66/4/5
f 58/2/5 65/5/5 57/2/5
f 67/5/5 57/2/5 65/5/5
f 52/4/5 57/2/5 67/5/5
f 52/4/5 67/5/5 68/4/5
f 52/4/5 59/3/5 57/2/5
f 59/3/5 52/4/5 50/3/5
f 65/5/10 69/5/10 67/5/10
f 69/5/10 65/5/10 70/5/10
f 72/5/10 70/5/10 71/5/10
f 70/5/10 72/5/10 73/5/10
f 29/5/10 73/5/10 31/5/10
f 73/5/10 29/5/10 74/5/10
f 74/5/10 48/5/10 69/5/10
f 48/5/10 74/5/10 46/5/10
f 76/2/12 69/5/11 75/2/11
f 69/5/11 76/2/12 74/5/12
f 69/5/11 77/2/13 75/2/11
f 77/2/13 69/5/11 70/5/13
f 73/5/14 77/2/13 70/5/13
f 77/2/13 73/5/14 78/2/14
f 73/5/14 76/2/12 78/2/14
f 76/2/12 73/5/14 74/5/12
f 79/4/10 28/4/10 45/4/10
f 28/4/10 79/4/10 30/4/10
f 79/4/5 46/5/5 74/5/5
f 46/5/5 79/4/5 45/4/5
f 29/5/4 79/4/4 74/5/4
f 79/4/4 29/5/4 30/4/4
f 81/4/10 33/4/10 80/4/10
f 33/4/10 81/4/10 32/4/10
f 33/4/8 73/5/8 80/4/8
f 73/5/8 33/4/8 31/5/8
f 81/4/5 73/5/5 72/5/5
f 73/5/5 81/4/5 80/4/5
f 64/4/10 82/4/10 66/4/10
f 82/4/10 64/4/10 83/4/10
f 82/4/7 71/5/7 70/5/7
f 71/5/7 82/4/7 83/4/7
f 82/4/8 65/5/8 66/4/8
f 65/5/8 82/4/8 70/5/8
f 68/4/10 49/4/10 52/4/10
f 49/4/10 68/4/10 84/4/10
f 69/5/4 68/4/4 67/5/4
f 68/4/4 69/5/4 84/4/4
f 49/4/7 69/5/7 48/5/7
f 69/5/7 49/4/7 84/4/7
f 34/3/4 13/2/4 12/3/4
f 13/2/4 34/3/4 72/5/4
f 72/5/4 20/2/4 13/2/4
f 72/5/4 34/3/4 81/4/4
f 81/4/4 34/3/4 32/4/4
f 71/5/4 20/2/4 72/5/4
f 71/5/4 19/3/4 20/2/4
f 64/4/4 19/3/4 71/5/4
f 83/4/4 64/4/4 71/5/4
f 19/3/4 64/4/4 63/3/4
f 13/2/1 9/2/1 10/2/1
f 9/2/1 13/2/1 20/2/1
f 18/3/10 12/3/10 11/3/10
f 12/3/10 18/3/10 19/3/10
f 59/3/10 62/3/10 60/3/10
f 62/3/10 59/3/10 61/3/10
f 51/3/10 53/3/10 47/3/10
f 53/3/10 51/3/10 54/3/10
f 36/3/10 26/3/10 25/3/10
f 26/3/10 36/3/10 35/3/10
f 87/3/1 86/3/1 85/3/1
f 86/3/1 87/3/1 88/3/1
f 90/4/16 86/3/15 89/4/15
f 86/3/15 90/4/16 85/3/16
f 91/4/17 86/3/15 88/3/17
f 86/3/15 91/4/17 89/4/15
f 92/4/18 88/3/17 87/3/18
f 88/3/17 92/4/18 91/4/17
f 95/3/1 94/3/1 93/3/1
f 94/3/1 95/3/1 96/3/1
f 98/4/20 94/3/19 97/4/19
f 94/3/19 98/4/20 93/3/20
f 99/4/21 94/3/19 96/3/21
f 94/3/19 99/4/21 97/4/19
f 100/4/22 96/3/21 95/3/22
f 96/3/21 100/4/22 99/4/21
f 103/3/1 102/3/1 101/3/1
f 102/3/1 103/3/1 104/3/1
f 106/4/24 102/3/23 105/4/23
f 102/3/23 106/4/24 101/3/24
f 107/4/25 102/3/23 104/3/25
f 102/3/23 107/4/25 105/4/23
f 108/4/26 104/3/25 103/3/26
f 104/3/25 108/4/26 107/4/25
f 111/3/1 110/3/1 109/3/1
f 110/3/1 111/3/1 112/3/1
f 114/4/28 110/3/27 113/4/27
f 110/3/27 114/4/28 109/3/28
f 115/4/29 110/3/27 112/3/29
f 110/3/27 115/4/29 113/4/27
f 116/4/30 112/3/29 111/3/30
f 112/3/29 116/4/30 115/4/29
f 3/7/5 60/6/5 62/6/5
f 60/6/5 3/7/5 1/7/5
f 14/7/7 36/6/7 25/6/7
f 36/6/7 14/7/7 15/7/7
f 11/6/4 6/7/4 18/6/4
f 6/7/4 11/6/4 5/7/4
f 43/7/8 54/6/8 44/7/8
f 54/6/8 43/7/8 53/6/8
f 75/8/10 78/8/10 76/8/10
f 78/8/10 75/8/10 77/8/10

g wall




usemtl colormap

f 3/1/1 2/1/2 1/1/1
f 2/1/2 3/1/1 4/1/2
f 7/1/3 6/1/1 5/1/1
f 6/1/1 7/1/3 8/1/3
f 7/1/3 9/2/4 8/1/3
f 9/2/4 7/1/3 10/2/4
f 12/3/5 5/1/5 11/3/5
f 5/1/5 12/3/5 7/1/5
f 7/1/5 12/3/5 13/2/5
f 7/1/5 13/2/5 10/2/5
f 16/1/6 15/1/1 14/1/1
f 15/1/1 16/1/6 17/1/6
f 6/1/7 19/3/7 18/3/7
f 19/3/7 6/1/7 8/1/7
f 19/3/7 8/1/7 20/2/7
f 20/2/7 8/1/7 9/2/7
f 21/2/7 17/1/6 16/1/6
f 17/1/6 21/2/7 22/2/7
f 23/2/1 22/2/1 21/2/1
f 22/2/1 23/2/1 24/2/1
f 26/3/4 14/1/4 25/3/4
f 14/1/4 26/3/4 16/1/4
f 23/2/4 16/1/4 26/3/4
f 16/1/4 23/2/4 21/2/4
f 28/4/7 26/3/7 27/3/7
f 26/3/7 28/4/7 23/2/7
f 23/2/7 28/4/7 29/5/7
f 29/5/7 28/4/7 30/4/7
f 23/2/7 29/5/7 24/2/7
f 31/5/7 24/2/7 29/5/7
f 32/4/7 24/2/7 31/5/7
f 32/4/7 31/5/7 33/4/7
f 34/3/7 24/2/7 32/4/7
f 24/2/7 34/3/7 35/3/7
f 24/2/8 17/1/8 22/2/8
f 35/3/8 17/1/8 24/2/8
f 36/3/8 17/1/8 35/3/8
f 17/1/8 36/3/8 15/1/8
f 39/2/1 38/2/1 37/2/1
f 38/2/1 39/2/1 40/2/1
f 43/1/1 42/1/9 41/1/9
f 42/1/9 43/1/1 44/1/1
f 39/2/8 42/1/9 40/2/8
f 42/1/9 39/2/8 41/1/9
f 28/4/8 46/5/8 45/4/8
f 27/3/8 46/5/8 28/4/8
f 47/3/8 46/5/8 27/3/8
f 37/2/8 46/5/8 47/3/8
f 37/2/8 48/5/8 46/5/8
f 38/2/8 48/5/8 37/2/8
f 38/2/8 49/4/8 48/5/8
f 50/3/8 49/4/8 38/2/8
f 51/3/8 50/3/8 38/2/8
f 49/4/8 50/3/8 52/4/8
f 43/1/5 47/3/5 53/3/5
f 47/3/5 43/1/5 41/1/5
f 47/3/5 41/1/5 37/2/5
f 37/2/5 41/1/5 39/2/5
f 51/3/7 44/1/7 54/3/7
f 44/1/7 51/3/7 42/1/7
f 42/1/7 51/3/7 38/2/7
f 42/1/7 38/2/7 40/2/7
f 55/2/5 2/1/2 4/1/2
f 2/1/2 55/2/5 56/2/5
f 55/2/1 57/2/1 56/2/1
f 57/2/1 55/2/1 58/2/1
f 60/3/4 57/2/4 59/3/4
f 57/2/4 60/3/4 2/1/4
f 2/1/4 60/3/4 1/1/4
f 56/2/4 57/2/4 2/1/4
f 55/2/8 61/3/8 58/2/8
f 61/3/8 55/2/8 4/1/8
f 4/1/8 62/3/8 61/3/8
f 62/3/8 4/1/8 3/1/8
f 64/4/5 61/3/5 63/3/5
f 61/3/5 64/4/5 58/2/5
f 58/2/5 64/4/5 65/5/5
f 65/5/5 64/4/5 66/4/5
f 58/2/5 65/5/5 57/2/5
f 67/5/5 57/2/5 65/5/5
f 52/4/5 57/2/5 67/5/5
f 52/4/5 67/5/5 68/4/5
f 52/4/5 59/3/5 57/2/5
f 59/3/5 52/4/5 50/3/5
f 65/5/10 69/5/10 67/5/10
f 69/5/10 65/5/10 70/5/10
f 72/5/10 70/5/10 71/5/10
f 70/5/10 72/5/10 73/5/10
f 29/5/10 73/5/10 31/5/10
f 73/5/10 29/5/10 74/5/10
f 74/5/10 48/5/10 69/5/10
f 48/5/10 74/5/10 46/5/10
f 76/2/12 69/5/11 75/2/11
f 69/5/11 76/2/12 74/5/12
f 69/5/11 77/2/13 75/2/11
f 77/2/13 69/5/11 70/5/13
f 73/5/14 77/2/13 70/5/13
f 77/2/13 73/5/14 78/2/14
f 73/5/14 76/2/12 78/2/14
f 76/2/12 73/5/14 74/5/12
f 79/4/10 28/4/10 45/4/10
f 28/4/10 79/4/10 30/4/10
f 79/4/5 46/5/5 74/5/5
f 46/5/5 79/4/5 45/4/5
f 29/5/4 79/4/4 74/5/4
f 79/4/4 29/5/4 30/4/4
f 81/4/10 33/4/10 80/4/10
f 33/4/10 81/4/10 32/4/10
f 33/4/8 73/5/8 80/4/8
f 73/5/8 33/4/8 31/5/8
f 81/4/5 73/5/5 72/5/5
f 73/5/5 81/4/5 80/4/5
f 64/4/10 82/4/10 66/4/10
f 82/4/10 64/4/10 83/4/10
f 82/4/7 71/5/7 70/5/7
f 71/5/7 82/4/7 83/4/7
f 82/4/8 65/5/8 66/4/8
f 65/5/8 82/4/8 70/5/8
f 68/4/10 49/4/10 52/4/10
f 49/4/10 68/4/10 84/4/10
f 69/5/4 68/4/4 67/5/4
f 68/4/4 69/5/4 84/4/4
f 49/4/7 69/5/7 48/5/7
f 69/5/7 49/4/7 84/4/7
f 34/3/4 13/2/4 12/3/4
f 13/2/4 34/3/4 72/5/4
f 72/5/4 20/2/4 13/2/4
f 72/5/4 34/3/4 81/4/4
f 81/4/4 34/3/4 32/4/4
f 71/5/4 20/2/4 72/5/4
f 71/5/4 19/3/4 20/2/4
f 64/4/4 19/3/4 71/5/4
f 83/4/4 64/4/4 71/5/4
f 19/3/4 64/4/4 63/3/4
f 13/2/1 9/2/1 10/2/1
f 9/2/1 13/2/1 20/2/1
f 18/3/10 12/3/10 11/3/10
f 12/3/10 18/3/10 19/3/10
f 59/3/10 62/3/10 60/3/10
f 62/3/10 59/3/10 61/3/10
f 51/3/10 53/3/10 47/3/10
f 53/3/10 51/3/10 54/3/10
f 36/3/10 26/3/10 25/3/10
f 26/3/10 36/3/10 35/3/10
f 87/3/1 86/3/1 85/3/1
f 86/3/1 87/3/1 88/3/1
f 90/4/16 86/3/15 89/4/15
f 86/3/15 90/4/16 85/3/16
f 91/4/17 86/3/15 88/3/17
f 86/3/15 91/4/17 89/4/15
f 92/4/18 88/3/17 87/3/18
f 88/3/17 92/4/18 91/4/17
f 95/3/1 94/3/1 93/3/1
f 94/3/1 95/3/1 96/3/1
f 98/4/20 94/3/19 97/4/19
f 94/3/19 98/4/20 93/3/20
f 99/4/21 94/3/19 96/3/21
f 94/3/19 99/4/21 97/4/19
f 100/4/22 96/3/21 95/3/22
f 96/3/21 100/4/22 99/4/21
f 103/3/1 102/3/1 101/3/1
f 102/3/1 103/3/1 104/3/1
f 106/4/24 102/3/23 105/4/23
f 102/3/23 106/4/24 101/3/24
f 107/4/25 102/3/23 104/3/25
f 102/3/23 107/4/25 105/4/23
f 108/4/26 104/3/25 103/3/26
f 104/3/25 108/4/26 107/4/25
f 111/3/1 110/3/1 109/3/1
f 110/3/1 111/3/1 112/3/1
f 114/4/28 110/3/27 113/4/27
f 110/3/27 114/4/28 109/3/28
f 115/4/29 110/3/27 112/3/29
f 110/3/27 115/4/29 113/4/27
f 116/4/30 112/3/29 111/3/30
f 112/3/29 116/4/30 115/4/29
f 3/7/5 60/6/5 62/6/5
f 60/6/5 3/7/5 1/7/5
f 14/7/7 36/6/7 25/6/7
f 36/6/7 14/7/7 15/7/7
f 11/6/4 6/7/4 18/6/4
f 6/7/4 11/6/4 5/7/4
f 43/7/8 54/6/8 44/7/8
f 54/6/8 43/7/8 53/6/8
f 75/8/10 78/8/10 76/8/10
f 78/8/10 75/8/10 77/8/10

