# Created by Kenney (www.kenney.nl)

mtllib weapon-spear.mtl

g weapon-spear

v 0.025875 0 0.025875 1 1 1
v 0.025875 0 -0.025875 1 1 1
v -0.025875 0 0.025875 1 1 1
v -0.025875 0 -0.025875 1 1 1
v 0.0345 0.3 -0.0345 1 1 1
v 0.0345 0.3 0.0345 1 1 1
v -0.0345 0.3 -0.0345 1 1 1
v -0.0345 0.3 0.0345 1 1 1
v 0.0295 0.3 0.0595 1 1 1
v -0.0295 0.3 0.0595 1 1 1
v 0.0295 0.4 0.0595 1 1 1
v -0.0295 0.4 0.0595 1 1 1
v -0.0595 0.3 0.0295 1 1 1
v -0.0595 0.4 0.0295 1 1 1
v 0.0595 0.4 -0.0295 1 1 1
v 0.0595 0.3 -0.0295 1 1 1
v 0.0595 0.4 0.0295 1 1 1
v 0.0595 0.3 0.0295 1 1 1
v 0.0295 0.4 -0.0595 1 1 1
v -0.0295 0.4 -0.0595 1 1 1
v -0.0595 0.4 -0.0295 1 1 1
v 0.0295 0.3 -0.0595 1 1 1
v -0.0295 0.3 -0.0595 1 1 1
v -0.0595 0.3 -0.0295 1 1 1
v 0.01725 0.6 -0.01725 1 1 1
v 0.01725 0.6 0.01725 1 1 1
v -0.01725 0.6 -0.01725 1 1 1
v -0.01725 0.6 0.01725 1 1 1
v -0.0345 0.4 -0.0345 1 1 1
v -0.07314 0.5 -0.0345 1 1 1
v -0.0345 0.4 0.0345 1 1 1
v -0.07314 0.5 0.0345 1 1 1
v 0.07314 0.5 -0.0345 1 1 1
v 0.0345 0.4 -0.0345 1 1 1
v 0.07314 0.5 0.0345 1 1 1
v 0.0345 0.4 0.0345 1 1 1

vn 0 -1 0
vn 0 1 0
vn 0.999587 -0.02873812 0
vn 0 -0.02873812 -0.999587
vn 0 -0.02873812 0.999587
vn -0.999587 -0.02873812 0
vn 0.3826834 0 0.9238795
vn -0.3826834 0 0.9238795
vn -0.9238795 0 0.3826834
vn 0.9238795 0 -0.3826834
vn 0.9238795 0 0.3826834
vn -0.3826834 0 -0.9238795
vn 0.3826834 0 -0.9238795
vn -0.9238795 0 -0.3826834
vn -0.9327868 -0.3604288 0
vn -0.9988956 0.04698283 0
vn -0.587067 -0.2268427 0.7771065
vn -0.7654312 0.08732641 0.637565
vn 0.9988956 0.04698283 0
vn 0.9327868 -0.3604288 0
vn 0 0 1
vn 0 0.08024128 0.9967754
vn 0 0 -1
vn 0 0.08024128 -0.9967754
vn 0 0.1699894 0.9854459
vn 0.872915 0.4878722 0
vn 0 0.1699894 -0.9854459
vn -0.872915 0.4878722 0

vt 0.21875 0.225
vt 0.21875 0.025
vt 0.71875 0.075
vt 0.71875 0.175
vt 0.71875 0.125

usemtl colormap

f 3/1/1 2/1/1 1/1/1
f 2/1/1 3/1/1 4/1/1
f 7/2/2 6/2/2 5/2/2
f 6/2/2 7/2/2 8/2/2
f 6/2/3 2/1/3 5/2/3
f 2/1/3 6/2/3 1/1/3
f 7/2/4 2/1/4 4/1/4
f 2/1/4 7/2/4 5/2/4
f 6/2/5 3/1/5 1/1/5
f 3/1/5 6/2/5 8/2/5
f 4/1/6 8/2/6 7/2/6
f 8/2/6 4/1/6 3/1/6
f 11/4/7 10/3/8 9/3/7
f 10/3/8 11/4/7 12/4/8
f 10/3/8 14/4/9 13/3/9
f 14/4/9 10/3/8 12/4/8
f 17/4/11 16/3/10 15/4/10
f 16/3/10 17/4/11 18/3/11
f 11/4/7 18/3/11 17/4/11
f 18/3/11 11/4/7 9/3/7
f 19/4/2 17/4/2 15/4/2
f 17/4/2 19/4/2 11/4/2
f 11/4/2 19/4/2 20/4/2
f 11/4/2 20/4/2 12/4/2
f 12/4/2 20/4/2 21/4/2
f 12/4/2 21/4/2 14/4/2
f 9/3/1 16/3/1 18/3/1
f 16/3/1 9/3/1 22/3/1
f 22/3/1 9/3/1 10/3/1
f 22/3/1 10/3/1 23/3/1
f 23/3/1 10/3/1 13/3/1
f 23/3/1 13/3/1 24/3/1
f 20/4/12 22/3/13 23/3/12
f 22/3/13 20/4/12 19/4/13
f 15/4/10 22/3/13 19/4/13
f 22/3/13 15/4/10 16/3/10
f 13/3/9 21/4/14 24/3/14
f 21/4/14 13/3/9 14/4/9
f 24/3/14 20/4/12 23/3/12
f 20/4/12 24/3/14 21/4/14
f 27/4/2 26/4/2 25/4/2
f 26/4/2 27/4/2 28/4/2
f 31/3/17 30/5/16 29/3/15
f 30/5/16 31/3/17 32/5/18
f 35/5/19 34/3/20 33/5/19
f 34/3/20 35/5/19 36/3/20
f 35/5/22 31/3/17 36/3/21
f 31/3/17 35/5/22 32/5/18
f 30/5/24 34/3/23 29/3/23
f 34/3/23 30/5/24 33/5/24
f 26/4/25 32/5/18 35/5/22
f 32/5/18 26/4/25 28/4/25
f 25/4/26 35/5/19 33/5/19
f 35/5/19 25/4/26 26/4/26
f 27/4/27 33/5/24 30/5/24
f 33/5/24 27/4/27 25/4/27
f 32/5/18 27/4/28 30/5/16
f 27/4/28 32/5/18 28/4/28

g weapon-spear




usemtl colormap

f 3/1/1 2/1/1 1/1/1
f 2/1/1 3/1/1 4/1/1
f 7/2/2 6/2/2 5/2/2
f 6/2/2 7/2/2 8/2/2
f 6/2/3 2/1/3 5/2/3
f 2/1/3 6/2/3 1/1/3
f 7/2/4 2/1/4 4/1/4
f 2/1/4 7/2/4 5/2/4
f 6/2/5 3/1/5 1/1/5
f 3/1/5 6/2/5 8/2/5
f 4/1/6 8/2/6 7/2/6
f 8/2/6 4/1/6 3/1/6
f 11/4/7 10/3/8 9/3/7
f 10/3/8 11/4/7 12/4/8
f 10/3/8 14/4/9 13/3/9
f 14/4/9 10/3/8 12/4/8
f 17/4/11 16/3/10 15/4/10
f 16/3/10 17/4/11 18/3/11
f 11/4/7 18/3/11 17/4/11
f 18/3/11 11/4/7 9/3/7
f 19/4/2 17/4/2 15/4/2
f 17/4/2 19/4/2 11/4/2
f 11/4/2 19/4/2 20/4/2
f 11/4/2 20/4/2 12/4/2
f 12/4/2 20/4/2 21/4/2
f 12/4/2 21/4/2 14/4/2
f 9/3/1 16/3/1 18/3/1
f 16/3/1 9/3/1 22/3/1
f 22/3/1 9/3/1 10/3/1
f 22/3/1 10/3/1 23/3/1
f 23/3/1 10/3/1 13/3/1
f 23/3/1 13/3/1 24/3/1
f 20/4/12 22/3/13 23/3/12
f 22/3/13 20/4/12 19/4/13
f 15/4/10 22/3/13 19/4/13
f 22/3/13 15/4/10 16/3/10
f 13/3/9 21/4/14 24/3/14
f 21/4/14 13/3/9 14/4/9
f 24/3/14 20/4/12 23/3/12
f 20/4/12 24/3/14 21/4/14
f 27/4/2 26/4/2 25/4/2
f 26/4/2 27/4/2 28/4/2
f 31/3/17 30/5/16 29/3/15
f 30/5/16 31/3/17 32/5/18
f 35/5/19 34/3/20 33/5/19
f 34/3/20 35/5/19 36/3/20
f 35/5/22 31/3/17 36/3/21
f 31/3/17 35/5/22 32/5/18
f 30/5/24 34/3/23 29/3/23
f 34/3/23 30/5/24 33/5/24
f 26/4/25 32/5/18 35/5/22
f 32/5/18 26/4/25 28/4/25
f 25/4/26 35/5/19 33/5/19
f 35/5/19 25/4/26 26/4/26
f 27/4/27 33/5/24 30/5/24
f 33/5/24 27/4/27 25/4/27
f 32/5/18 27/4/28 30/5/16
f 27/4/28 32/5/18 28/4/28

