# Created by Kenney (www.kenney.nl)

mtllib wood-support.mtl

g wood-support

v -0.425 0.8 0.05 1 1 1
v -0.425 0.9 0.05 1 1 1
v 0.425 0.8 0.05 1 1 1
v 0.425 0.9 0.05 1 1 1
v -0.425 0.8 -0.05 1 1 1
v 0.425 0.8 -0.05 1 1 1
v -0.425 0.9 -0.05 1 1 1
v 0.425 0.9 -0.05 1 1 1
v -0.425 0 0.075 1 1 1
v -0.425 0 -0.075 1 1 1
v -0.5 0 0.075 1 1 1
v -0.5 0 -0.075 1 1 1
v -0.35 1 -0.075 1 1 1
v -0.35 1 0.075 1 1 1
v -0.5 1 -0.075 1 1 1
v -0.5 1 0.075 1 1 1
v 0.5 1.602965E-31 0.075 1 1 1
v 0.5 1.602965E-31 -0.075 1 1 1
v 0.425 1.602965E-31 0.075 1 1 1
v 0.425 1.602965E-31 -0.075 1 1 1
v 0.5 1 -0.075 1 1 1
v 0.5 1 0.075 1 1 1
v 0.35 1 -0.075 1 1 1
v 0.35 1 0.075 1 1 1
v 0.4 0.4928932 -0.025 1 1 1
v 0.09289324 0.8 -0.025 1 1 1
v 0.4 0.4928932 0.025 1 1 1
v 0.09289324 0.8 0.025 1 1 1
v 0.4 0.6343145 -0.025 1 1 1
v 0.2343146 0.8 -0.025 1 1 1
v 0.4 0.6343145 0.025 1 1 1
v 0.2343146 0.8 0.025 1 1 1
v -0.4 0.4928932 -0.025 1 1 1
v -0.09289325 0.8 -0.025 1 1 1
v -0.4 0.6343145 -0.025 1 1 1
v -0.2343146 0.8 -0.025 1 1 1
v -0.4 0.6343145 0.025 1 1 1
v -0.2343146 0.8 0.025 1 1 1
v -0.4 0.4928932 0.025 1 1 1
v -0.09289325 0.8 0.025 1 1 1

vn 1.28038E-12 0 1
vn 0 -1 0
vn -1.28038E-12 0 -1
vn 0 1 0
vn 0 0 -1
vn -1 0 0
vn 0 0 1
vn 0.9971993 -0.07478995 0
vn 1 0 0
vn -0.9971993 -0.07478995 0
vn -0.7071068 -0.7071068 0
vn 0.7071068 0.7071068 0
vn -0.7071068 0.7071068 0
vn 0.7071068 -0.7071068 0

vt 0.90625 0.125
vt 0.96875 0.075
vt 0.96875 0.175
vt 0.96875 0.1289504
vt 0.96875 0.075

usemtl colormap

f 3/1/1 2/1/1 1/1/1
f 2/1/1 3/1/1 4/1/1
f 6/1/2 1/1/2 5/1/2
f 1/1/2 6/1/2 3/1/2
f 7/1/3 6/1/3 5/1/3
f 6/1/3 7/1/3 8/1/3
f 4/1/4 7/1/4 2/1/4
f 7/1/4 4/1/4 8/1/4
f 11/2/2 10/2/2 9/2/2
f 10/2/2 11/2/2 12/2/2
f 15/3/4 14/3/4 13/3/4
f 14/3/4 15/3/4 16/3/4
f 15/3/5 10/2/5 12/2/5
f 10/2/5 15/3/5 13/3/5
f 11/2/6 15/3/6 12/2/6
f 15/3/6 11/2/6 16/3/6
f 14/3/7 11/2/7 9/2/7
f 11/2/7 14/3/7 16/3/7
f 14/3/8 10/2/8 13/3/8
f 10/2/8 14/3/8 9/2/8
f 19/2/2 18/2/2 17/2/2
f 18/2/2 19/2/2 20/2/2
f 23/3/4 22/3/4 21/3/4
f 22/3/4 23/3/4 24/3/4
f 22/3/9 18/2/9 21/3/9
f 18/2/9 22/3/9 17/2/9
f 23/3/5 18/2/5 20/2/5
f 18/2/5 23/3/5 21/3/5
f 19/2/10 23/3/10 20/2/10
f 23/3/10 19/2/10 24/3/10
f 22/3/7 19/2/7 17/2/7
f 19/2/7 22/3/7 24/3/7
f 27/3/11 26/2/11 25/3/11
f 26/2/11 27/3/11 28/2/11
f 26/2/5 29/4/5 25/3/5
f 29/4/5 26/2/5 30/5/5
f 31/4/7 28/2/7 27/3/7
f 28/2/7 31/4/7 32/5/7
f 30/5/12 31/4/12 29/4/12
f 31/4/12 30/5/12 32/5/12
f 35/4/5 34/2/5 33/3/5
f 34/2/5 35/4/5 36/5/5
f 37/4/13 36/5/13 35/4/13
f 36/5/13 37/4/13 38/5/13
f 40/2/7 37/4/7 39/3/7
f 37/4/7 40/2/7 38/5/7
f 34/2/14 39/3/14 33/3/14
f 39/3/14 34/2/14 40/2/14

g wood-support




usemtl colormap

f 3/1/1 2/1/1 1/1/1
f 2/1/1 3/1/1 4/1/1
f 6/1/2 1/1/2 5/1/2
f 1/1/2 6/1/2 3/1/2
f 7/1/3 6/1/3 5/1/3
f 6/1/3 7/1/3 8/1/3
f 4/1/4 7/1/4 2/1/4
f 7/1/4 4/1/4 8/1/4
f 11/2/2 10/2/2 9/2/2
f 10/2/2 11/2/2 12/2/2
f 15/3/4 14/3/4 13/3/4
f 14/3/4 15/3/4 16/3/4
f 15/3/5 10/2/5 12/2/5
f 10/2/5 15/3/5 13/3/5
f 11/2/6 15/3/6 12/2/6
f 15/3/6 11/2/6 16/3/6
f 14/3/7 11/2/7 9/2/7
f 11/2/7 14/3/7 16/3/7
f 14/3/8 10/2/8 13/3/8
f 10/2/8 14/3/8 9/2/8
f 19/2/2 18/2/2 17/2/2
f 18/2/2 19/2/2 20/2/2
f 23/3/4 22/3/4 21/3/4
f 22/3/4 23/3/4 24/3/4
f 22/3/9 18/2/9 21/3/9
f 18/2/9 22/3/9 17/2/9
f 23/3/5 18/2/5 20/2/5
f 18/2/5 23/3/5 21/3/5
f 19/2/10 23/3/10 20/2/10
f 23/3/10 19/2/10 24/3/10
f 22/3/7 19/2/7 17/2/7
f 19/2/7 22/3/7 24/3/7
f 27/3/11 26/2/11 25/3/11
f 26/2/11 27/3/11 28/2/11
f 26/2/5 29/4/5 25/3/5
f 29/4/5 26/2/5 30/5/5
f 31/4/7 28/2/7 27/3/7
f 28/2/7 31/4/7 32/5/7
f 30/5/12 31/4/12 29/4/12
f 31/4/12 30/5/12 32/5/12
f 35/4/5 34/2/5 33/3/5
f 34/2/5 35/4/5 36/5/5
f 37/4/13 36/5/13 35/4/13
f 36/5/13 37/4/13 38/5/13
f 40/2/7 37/4/7 39/3/7
f 37/4/7 40/2/7 38/5/7
f 34/2/14 39/3/14 33/3/14
f 39/3/14 34/2/14 40/2/14

