# Created by Kenney (www.kenney.nl)

mtllib bedroll-frame.mtl

g bedroll-frame

v -0.1242763 0 -0.2647256 1 1 1
v 0 0.05847999 -0.2647256 1 1 1
v -0.1361237 0.025177 -0.2647256 1 1 1
v -0.03267562 0.07385597 -0.2647256 1 1 1
v 0.03267562 0.07385597 -0.2647256 1 1 1
v -0.1361237 0.1225349 -0.2647257 1 1 1
v 0.1361237 0.025177 -0.2647256 1 1 1
v 0.1242763 0 -0.2647256 1 1 1
v 0 0.08923195 -0.2647256 1 1 1
v -0.1242763 0.1477119 -0.2647257 1 1 1
v 0.1361237 0.1225349 -0.2647256 1 1 1
v 0.1242763 0.1477119 -0.2647256 1 1 1
v 0.1242763 6.046627E-10 -0.2347256 1 1 1
v 0 0.05847999 -0.2347256 1 1 1
v 0.1361237 0.025177 -0.2347256 1 1 1
v 0.03267562 0.07385597 -0.2347256 1 1 1
v -0.03267562 0.07385597 -0.2347256 1 1 1
v 0.1361237 0.1225349 -0.2347256 1 1 1
v -0.1361237 0.025177 -0.2347256 1 1 1
v -0.1242763 6.046627E-10 -0.2347256 1 1 1
v 0 0.08923195 -0.2347256 1 1 1
v 0.1242763 0.1477119 -0.2347256 1 1 1
v -0.1361237 0.1225349 -0.2347256 1 1 1
v -0.1242763 0.1477119 -0.2347256 1 1 1
v -0.1242763 0 0.2347256 1 1 1
v 0 0.05847999 0.2347256 1 1 1
v -0.1361237 0.025177 0.2347256 1 1 1
v -0.03267562 0.07385597 0.2347256 1 1 1
v 0.03267562 0.07385597 0.2347256 1 1 1
v -0.1361237 0.1225349 0.2347256 1 1 1
v 0.1361237 0.025177 0.2347256 1 1 1
v 0.1242763 0 0.2347256 1 1 1
v 0 0.08923195 0.2347256 1 1 1
v -0.1242763 0.1477119 0.2347256 1 1 1
v 0.1361237 0.1225349 0.2347256 1 1 1
v 0.1242763 0.1477119 0.2347256 1 1 1
v 0.1242763 6.046627E-10 0.2647256 1 1 1
v 0 0.05847999 0.2647256 1 1 1
v 0.1361237 0.025177 0.2647256 1 1 1
v 0.03267562 0.07385597 0.2647256 1 1 1
v -0.03267562 0.07385597 0.2647256 1 1 1
v 0.1361237 0.1225349 0.2647256 1 1 1
v -0.1361237 0.025177 0.2647257 1 1 1
v -0.1242763 6.046627E-10 0.2647257 1 1 1
v 0 0.08923195 0.2647256 1 1 1
v 0.1242763 0.1477119 0.2647256 1 1 1
v -0.1361237 0.1225349 0.2647256 1 1 1
v -0.1242763 0.1477119 0.2647256 1 1 1
v 0.01037598 0.06347999 0.303791 1 1 1
v -0.01037598 0.06347999 0.303791 1 1 1
v 0.01037598 0.08423195 0.303791 1 1 1
v -0.01037598 0.08423195 0.303791 1 1 1
v -0.01037598 0.06347999 -0.303791 1 1 1
v 0.01037598 0.06347999 -0.303791 1 1 1
v -0.01037598 0.08423195 -0.303791 1 1 1
v 0.01037598 0.08423195 -0.303791 1 1 1

vn 0 0 -1
vn 0 0 1
vn 0.4257793 -0.9048271 0
vn 0.4257793 0.9048271 0
vn 0.9048271 -0.4257793 0
vn -0.4257793 -0.9048271 0
vn -0.9048271 -0.4257793 0
vn -0.4257793 0.9048271 0
vn -0.9048271 0.4257793 0
vn 0.9048271 0.4257793 0
vn 0 2.229053E-19 1
vn 0 -2.229053E-19 -1
vn 0 1 -2.229053E-19
vn 1 0 0
vn 0 -1 2.229053E-19
vn -1 0 0

vt 0.59375 0.025
vt 0.59375 0.1041811
vt 0.59375 0.05908932
vt 0.59375 0.125
vt 0.59375 0.1909107
vt 0.59375 0.1458189
vt 0.59375 0.225

usemtl colormap

f 3/3/1 2/2/1 1/1/1
f 2/2/1 3/3/1 4/4/1
f 5/4/1 2/2/1 4/4/1
f 5/4/1 4/4/1 6/5/1
f 7/3/1 2/2/1 5/4/1
f 2/2/1 7/3/1 8/1/1
f 5/4/1 6/5/1 9/6/1
f 9/6/1 6/5/1 10/7/1
f 9/6/1 11/5/1 5/4/1
f 11/5/1 9/6/1 12/7/1
f 15/3/2 14/2/2 13/1/2
f 14/2/2 15/3/2 16/4/2
f 17/4/2 14/2/2 16/4/2
f 17/4/2 16/4/2 18/5/2
f 19/3/2 14/2/2 17/4/2
f 14/2/2 19/3/2 20/1/2
f 17/4/2 18/5/2 21/6/2
f 21/6/2 18/5/2 22/7/2
f 21/6/2 23/5/2 17/4/2
f 23/5/2 21/6/2 24/7/2
f 16/4/3 11/5/3 18/5/3
f 11/5/3 16/4/3 5/4/3
f 5/4/4 15/3/4 7/3/4
f 15/3/4 5/4/4 16/4/4
f 7/3/5 13/1/5 8/1/5
f 13/1/5 7/3/5 15/3/5
f 14/2/6 8/1/6 13/1/6
f 8/1/6 14/2/6 2/2/6
f 20/1/3 2/2/3 14/2/3
f 2/2/3 20/1/3 1/1/3
f 20/1/7 3/3/7 1/1/7
f 3/3/7 20/1/7 19/3/7
f 3/3/8 17/4/8 4/4/8
f 17/4/8 3/3/8 19/3/8
f 23/5/6 4/4/6 17/4/6
f 4/4/6 23/5/6 6/5/6
f 23/5/9 10/7/9 6/5/9
f 10/7/9 23/5/9 24/7/9
f 10/7/4 21/6/4 9/6/4
f 21/6/4 10/7/4 24/7/4
f 9/6/8 22/7/8 12/7/8
f 22/7/8 9/6/8 21/6/8
f 12/7/10 18/5/10 11/5/10
f 18/5/10 12/7/10 22/7/10
f 27/3/1 26/2/1 25/1/1
f 26/2/1 27/3/1 28/4/1
f 29/4/1 26/2/1 28/4/1
f 29/4/1 28/4/1 30/5/1
f 31/3/1 26/2/1 29/4/1
f 26/2/1 31/3/1 32/1/1
f 29/4/1 30/5/1 33/6/1
f 33/6/1 30/5/1 34/7/1
f 33/6/1 35/5/1 29/4/1
f 35/5/1 33/6/1 36/7/1
f 39/3/2 38/2/2 37/1/2
f 38/2/2 39/3/2 40/4/2
f 41/4/2 38/2/2 40/4/2
f 41/4/2 40/4/2 42/5/2
f 43/3/2 38/2/2 41/4/2
f 38/2/2 43/3/2 44/1/2
f 41/4/2 42/5/2 45/6/2
f 45/6/2 42/5/2 46/7/2
f 45/6/2 47/5/2 41/4/2
f 47/5/2 45/6/2 48/7/2
f 40/4/3 35/5/3 42/5/3
f 35/5/3 40/4/3 29/4/3
f 29/4/4 39/3/4 31/3/4
f 39/3/4 29/4/4 40/4/4
f 31/3/5 37/1/5 32/1/5
f 37/1/5 31/3/5 39/3/5
f 38/2/6 32/1/6 37/1/6
f 32/1/6 38/2/6 26/2/6
f 44/1/3 26/2/3 38/2/3
f 26/2/3 44/1/3 25/1/3
f 44/1/7 27/3/7 25/1/7
f 27/3/7 44/1/7 43/3/7
f 27/3/8 41/4/8 28/4/8
f 41/4/8 27/3/8 43/3/8
f 47/5/6 28/4/6 41/4/6
f 28/4/6 47/5/6 30/5/6
f 47/5/9 34/7/9 30/5/9
f 34/7/9 47/5/9 48/7/9
f 34/7/4 45/6/4 33/6/4
f 45/6/4 34/7/4 48/7/4
f 33/6/8 46/7/8 36/7/8
f 46/7/8 33/6/8 45/6/8
f 36/7/10 42/5/10 35/5/10
f 42/5/10 36/7/10 46/7/10
f 51/4/11 50/1/11 49/1/11
f 50/1/11 51/4/11 52/4/11
f 55/4/12 54/1/12 53/1/12
f 54/1/12 55/4/12 56/4/12
f 55/4/13 51/4/13 56/4/13
f 51/4/13 55/4/13 52/4/13
f 51/4/14 54/1/14 56/4/14
f 54/1/14 51/4/14 49/1/14
f 50/1/15 54/1/15 49/1/15
f 54/1/15 50/1/15 53/1/15
f 50/1/16 55/4/16 53/1/16
f 55/4/16 50/1/16 52/4/16

g bedroll-frame




usemtl colormap

f 3/3/1 2/2/1 1/1/1
f 2/2/1 3/3/1 4/4/1
f 5/4/1 2/2/1 4/4/1
f 5/4/1 4/4/1 6/5/1
f 7/3/1 2/2/1 5/4/1
f 2/2/1 7/3/1 8/1/1
f 5/4/1 6/5/1 9/6/1
f 9/6/1 6/5/1 10/7/1
f 9/6/1 11/5/1 5/4/1
f 11/5/1 9/6/1 12/7/1
f 15/3/2 14/2/2 13/1/2
f 14/2/2 15/3/2 16/4/2
f 17/4/2 14/2/2 16/4/2
f 17/4/2 16/4/2 18/5/2
f 19/3/2 14/2/2 17/4/2
f 14/2/2 19/3/2 20/1/2
f 17/4/2 18/5/2 21/6/2
f 21/6/2 18/5/2 22/7/2
f 21/6/2 23/5/2 17/4/2
f 23/5/2 21/6/2 24/7/2
f 16/4/3 11/5/3 18/5/3
f 11/5/3 16/4/3 5/4/3
f 5/4/4 15/3/4 7/3/4
f 15/3/4 5/4/4 16/4/4
f 7/3/5 13/1/5 8/1/5
f 13/1/5 7/3/5 15/3/5
f 14/2/6 8/1/6 13/1/6
f 8/1/6 14/2/6 2/2/6
f 20/1/3 2/2/3 14/2/3
f 2/2/3 20/1/3 1/1/3
f 20/1/7 3/3/7 1/1/7
f 3/3/7 20/1/7 19/3/7
f 3/3/8 17/4/8 4/4/8
f 17/4/8 3/3/8 19/3/8
f 23/5/6 4/4/6 17/4/6
f 4/4/6 23/5/6 6/5/6
f 23/5/9 10/7/9 6/5/9
f 10/7/9 23/5/9 24/7/9
f 10/7/4 21/6/4 9/6/4
f 21/6/4 10/7/4 24/7/4
f 9/6/8 22/7/8 12/7/8
f 22/7/8 9/6/8 21/6/8
f 12/7/10 18/5/10 11/5/10
f 18/5/10 12/7/10 22/7/10
f 27/3/1 26/2/1 25/1/1
f 26/2/1 27/3/1 28/4/1
f 29/4/1 26/2/1 28/4/1
f 29/4/1 28/4/1 30/5/1
f 31/3/1 26/2/1 29/4/1
f 26/2/1 31/3/1 32/1/1
f 29/4/1 30/5/1 33/6/1
f 33/6/1 30/5/1 34/7/1
f 33/6/1 35/5/1 29/4/1
f 35/5/1 33/6/1 36/7/1
f 39/3/2 38/2/2 37/1/2
f 38/2/2 39/3/2 40/4/2
f 41/4/2 38/2/2 40/4/2
f 41/4/2 40/4/2 42/5/2
f 43/3/2 38/2/2 41/4/2
f 38/2/2 43/3/2 44/1/2
f 41/4/2 42/5/2 45/6/2
f 45/6/2 42/5/2 46/7/2
f 45/6/2 47/5/2 41/4/2
f 47/5/2 45/6/2 48/7/2
f 40/4/3 35/5/3 42/5/3
f 35/5/3 40/4/3 29/4/3
f 29/4/4 39/3/4 31/3/4
f 39/3/4 29/4/4 40/4/4
f 31/3/5 37/1/5 32/1/5
f 37/1/5 31/3/5 39/3/5
f 38/2/6 32/1/6 37/1/6
f 32/1/6 38/2/6 26/2/6
f 44/1/3 26/2/3 38/2/3
f 26/2/3 44/1/3 25/1/3
f 44/1/7 27/3/7 25/1/7
f 27/3/7 44/1/7 43/3/7
f 27/3/8 41/4/8 28/4/8
f 41/4/8 27/3/8 43/3/8
f 47/5/6 28/4/6 41/4/6
f 28/4/6 47/5/6 30/5/6
f 47/5/9 34/7/9 30/5/9
f 34/7/9 47/5/9 48/7/9
f 34/7/4 45/6/4 33/6/4
f 45/6/4 34/7/4 48/7/4
f 33/6/8 46/7/8 36/7/8
f 46/7/8 33/6/8 45/6/8
f 36/7/10 42/5/10 35/5/10
f 42/5/10 36/7/10 46/7/10
f 51/4/11 50/1/11 49/1/11
f 50/1/11 51/4/11 52/4/11
f 55/4/12 54/1/12 53/1/12
f 54/1/12 55/4/12 56/4/12
f 55/4/13 51/4/13 56/4/13
f 51/4/13 55/4/13 52/4/13
f 51/4/14 54/1/14 56/4/14
f 54/1/14 51/4/14 49/1/14
f 50/1/15 54/1/15 49/1/15
f 54/1/15 50/1/15 53/1/15
f 50/1/16 55/4/16 53/1/16
f 55/4/16 50/1/16 52/4/16

