# Created by Kenney (www.kenney.nl)

mtllib bedroll.mtl

g bedroll

v 0.1302 0.04484 -0.2647256 1 1 1
v 0.1302 0.04484 0.2647256 1 1 1
v 0.118758 0.04484 -0.292349 1 1 1
v 0.118758 0.04484 0.292349 1 1 1
v 0.09113464 0.04484 -0.303791 1 1 1
v 0.09113464 0.04484 -0.2647256 1 1 1
v 0.09113464 0.04484 -0.1547256 1 1 1
v 0.09113464 0.04484 0.303791 1 1 1
v -0.09113464 0.04484 -0.2647256 1 1 1
v -0.09113464 0.04484 -0.303791 1 1 1
v -0.09113464 0.04484 -0.1547256 1 1 1
v -0.118758 0.04484 -0.292349 1 1 1
v -0.09113464 0.04484 0.303791 1 1 1
v -0.118758 0.04484 0.292349 1 1 1
v -0.1302 0.04484 -0.2647256 1 1 1
v -0.1302 0.04484 0.2647256 1 1 1
v 0.09113464 4.511946E-17 0.303791 1 1 1
v -0.09113464 4.511946E-17 0.303791 1 1 1
v -0.1302 0 -0.2647256 1 1 1
v -0.1302 0 -0.1327731 1 1 1
v -0.1302 2.255973E-17 -0.08627307 1 1 1
v -0.1302 2.255973E-17 0.08112694 1 1 1
v -0.1302 2.255973E-17 0.1276269 1 1 1
v -0.1302 4.511946E-17 0.2647256 1 1 1
v -0.118758 0 -0.292349 1 1 1
v -0.09113464 0 -0.303791 1 1 1
v 0.09113464 0 -0.303791 1 1 1
v 0.118758 4.511946E-17 0.292349 1 1 1
v -0.118758 4.511946E-17 0.292349 1 1 1
v 0.1302 4.511946E-17 0.2647256 1 1 1
v 0.118758 0 -0.292349 1 1 1
v 0.1302 0 -0.2647256 1 1 1
v 0.1302 2.255973E-17 -0.1327731 1 1 1
v 0.1302 2.255973E-17 -0.08627307 1 1 1
v 0.1302 2.255973E-17 0.08112694 1 1 1
v 0.1302 2.255973E-17 0.1276269 1 1 1
v -0.08293252 0.07484 -0.2597756 1 1 1
v -0.08293252 0.07484 -0.1596756 1 1 1
v 0.08293252 0.07484 -0.2597756 1 1 1
v 0.08293252 0.07484 -0.1596756 1 1 1

vn 0 1 0
vn 0.1950903 0 0.9807853
vn -0.1950903 0 0.9807853
vn -0.9807853 0 -0.1950903
vn -1 0 0
vn -0.9807853 0 0.1950903
vn -0.7071068 0 -0.7071068
vn -0.1950903 0 -0.9807853
vn 0.1950903 0 -0.9807853
vn 0.7071068 0 0.7071068
vn -0.7071068 0 0.7071068
vn 0.9807853 0 0.1950903
vn 0.7071068 0 -0.7071068
vn 0.9807853 0 -0.1950903
vn 1 0 0
vn 0 -1 0
vn -0.6933466 0.2978326 -0.6561755
vn -0.6478209 0.2931342 -0.7031361
vn -0.6933466 0.2978326 0.6561755
vn -0.6478209 0.2931342 0.7031361
vn 0.6933466 0.2978326 -0.6561755
vn 0.6933466 0.2978326 0.6561755
vn 0.6478209 0.2931342 -0.7031361
vn 0.6478209 0.2931342 0.7031361

vt 0.84375 0.1448289
vt 0.84375 0.025
vt 0.46875 0.3948289
vt 0.46875 0.475

usemtl colormap

f 3/1/1 2/1/1 1/1/1
f 2/1/1 3/1/1 4/1/1
f 4/1/1 3/1/1 5/1/1
f 4/1/1 5/1/1 6/1/1
f 7/1/1 4/1/1 6/1/1
f 4/1/1 7/1/1 8/1/1
f 6/1/1 5/1/1 9/1/1
f 9/1/1 5/1/1 10/1/1
f 8/1/1 7/1/1 11/1/1
f 9/1/1 10/1/1 12/1/1
f 9/1/1 12/1/1 11/1/1
f 8/1/1 11/1/1 13/1/1
f 11/1/1 12/1/1 13/1/1
f 13/1/1 12/1/1 14/1/1
f 14/1/1 12/1/1 15/1/1
f 14/1/1 15/1/1 16/1/1
f 8/1/2 18/2/3 17/2/2
f 18/2/3 8/1/2 13/1/3
f 20/2/5 15/1/4 19/2/4
f 15/1/4 20/2/5 16/1/6
f 16/1/6 20/2/5 21/2/5
f 16/1/6 21/2/5 22/2/5
f 16/1/6 22/2/5 23/2/5
f 16/1/6 23/2/5 24/2/6
f 19/2/4 12/1/7 25/2/7
f 12/1/7 19/2/4 15/1/4
f 10/1/8 27/2/9 26/2/8
f 27/2/9 10/1/8 5/1/9
f 12/1/7 26/2/8 25/2/7
f 26/2/8 12/1/7 10/1/8
f 4/1/10 17/2/2 28/2/10
f 17/2/2 4/1/10 8/1/2
f 29/2/11 16/1/6 24/2/6
f 16/1/6 29/2/11 14/1/11
f 4/1/10 30/2/12 2/1/12
f 30/2/12 4/1/10 28/2/10
f 5/1/9 31/2/13 27/2/9
f 31/2/13 5/1/9 3/1/13
f 13/1/3 29/2/11 18/2/3
f 29/2/11 13/1/3 14/1/11
f 1/1/14 31/2/13 3/1/13
f 31/2/13 1/1/14 32/2/14
f 2/1/12 32/2/14 1/1/14
f 32/2/14 2/1/12 33/2/15
f 33/2/15 2/1/12 34/2/15
f 34/2/15 2/1/12 35/2/15
f 35/2/15 2/1/12 36/2/15
f 36/2/15 2/1/12 30/2/12
f 28/2/16 36/2/16 30/2/16
f 36/2/16 28/2/16 35/2/16
f 35/2/16 28/2/16 34/2/16
f 34/2/16 28/2/16 33/2/16
f 33/2/16 28/2/16 32/2/16
f 32/2/16 28/2/16 31/2/16
f 31/2/16 28/2/16 17/2/16
f 31/2/16 17/2/16 27/2/16
f 27/2/16 17/2/16 18/2/16
f 27/2/16 18/2/16 26/2/16
f 26/2/16 18/2/16 29/2/16
f 26/2/16 29/2/16 25/2/16
f 25/2/16 29/2/16 24/2/16
f 25/2/16 24/2/16 19/2/16
f 19/2/16 24/2/16 23/2/16
f 19/2/16 23/2/16 22/2/16
f 19/2/16 22/2/16 21/2/16
f 19/2/16 21/2/16 20/2/16
f 11/3/19 37/4/18 9/3/17
f 37/4/18 11/3/19 38/4/20
f 39/4/23 7/3/22 6/3/21
f 7/3/22 39/4/23 40/4/24
f 37/4/1 40/4/1 39/4/1
f 40/4/1 37/4/1 38/4/1
f 37/4/18 6/3/21 9/3/17
f 6/3/21 37/4/18 39/4/23
f 40/4/24 11/3/19 7/3/22
f 11/3/19 40/4/24 38/4/20

g bedroll




usemtl colormap

f 3/1/1 2/1/1 1/1/1
f 2/1/1 3/1/1 4/1/1
f 4/1/1 3/1/1 5/1/1
f 4/1/1 5/1/1 6/1/1
f 7/1/1 4/1/1 6/1/1
f 4/1/1 7/1/1 8/1/1
f 6/1/1 5/1/1 9/1/1
f 9/1/1 5/1/1 10/1/1
f 8/1/1 7/1/1 11/1/1
f 9/1/1 10/1/1 12/1/1
f 9/1/1 12/1/1 11/1/1
f 8/1/1 11/1/1 13/1/1
f 11/1/1 12/1/1 13/1/1
f 13/1/1 12/1/1 14/1/1
f 14/1/1 12/1/1 15/1/1
f 14/1/1 15/1/1 16/1/1
f 8/1/2 18/2/3 17/2/2
f 18/2/3 8/1/2 13/1/3
f 20/2/5 15/1/4 19/2/4
f 15/1/4 20/2/5 16/1/6
f 16/1/6 20/2/5 21/2/5
f 16/1/6 21/2/5 22/2/5
f 16/1/6 22/2/5 23/2/5
f 16/1/6 23/2/5 24/2/6
f 19/2/4 12/1/7 25/2/7
f 12/1/7 19/2/4 15/1/4
f 10/1/8 27/2/9 26/2/8
f 27/2/9 10/1/8 5/1/9
f 12/1/7 26/2/8 25/2/7
f 26/2/8 12/1/7 10/1/8
f 4/1/10 17/2/2 28/2/10
f 17/2/2 4/1/10 8/1/2
f 29/2/11 16/1/6 24/2/6
f 16/1/6 29/2/11 14/1/11
f 4/1/10 30/2/12 2/1/12
f 30/2/12 4/1/10 28/2/10
f 5/1/9 31/2/13 27/2/9
f 31/2/13 5/1/9 3/1/13
f 13/1/3 29/2/11 18/2/3
f 29/2/11 13/1/3 14/1/11
f 1/1/14 31/2/13 3/1/13
f 31/2/13 1/1/14 32/2/14
f 2/1/12 32/2/14 1/1/14
f 32/2/14 2/1/12 33/2/15
f 33/2/15 2/1/12 34/2/15
f 34/2/15 2/1/12 35/2/15
f 35/2/15 2/1/12 36/2/15
f 36/2/15 2/1/12 30/2/12
f 28/2/16 36/2/16 30/2/16
f 36/2/16 28/2/16 35/2/16
f 35/2/16 28/2/16 34/2/16
f 34/2/16 28/2/16 33/2/16
f 33/2/16 28/2/16 32/2/16
f 32/2/16 28/2/16 31/2/16
f 31/2/16 28/2/16 17/2/16
f 31/2/16 17/2/16 27/2/16
f 27/2/16 17/2/16 18/2/16
f 27/2/16 18/2/16 26/2/16
f 26/2/16 18/2/16 29/2/16
f 26/2/16 29/2/16 25/2/16
f 25/2/16 29/2/16 24/2/16
f 25/2/16 24/2/16 19/2/16
f 19/2/16 24/2/16 23/2/16
f 19/2/16 23/2/16 22/2/16
f 19/2/16 22/2/16 21/2/16
f 19/2/16 21/2/16 20/2/16
f 11/3/19 37/4/18 9/3/17
f 37/4/18 11/3/19 38/4/20
f 39/4/23 7/3/22 6/3/21
f 7/3/22 39/4/23 40/4/24
f 37/4/1 40/4/1 39/4/1
f 40/4/1 37/4/1 38/4/1
f 37/4/18 6/3/21 9/3/17
f 6/3/21 37/4/18 39/4/23
f 40/4/24 11/3/19 7/3/22
f 11/3/19 40/4/24 38/4/20

g blanket

v 0.1302 0.06984 -0.1047256 1 1 1
v 0.1302 0.06984 0.2647256 1 1 1
v -0.1302 0.06984 -0.1047256 1 1 1
v -0.1302 0.06984 0.2647256 1 1 1
v 0.1302 0.04484 0.2647256 1 1 1
v 0.1302 0.04484 -0.1047256 1 1 1
v -0.1302 0.04484 0.2647256 1 1 1
v -0.1302 0.04484 -0.1047256 1 1 1
v -0.1552 0.04484 -0.1047256 1 1 1
v -0.1478777 0.06251767 -0.1047256 1 1 1
v -0.1552 0.04484 0.2647256 1 1 1
v -0.1478777 0.06251767 0.2647256 1 1 1
v 0.1478777 0.06251767 -0.1047256 1 1 1
v 0.1552 0.04484 -0.1047256 1 1 1
v 0.1478777 0.06251767 0.2647256 1 1 1
v 0.1552 0.04484 0.2647256 1 1 1
v 0.1302 0 -0.1047256 1 1 1
v 0.1302 -0.03727907 -0.01568642 1 1 1
v 0.1302 -0.05 0.08 1 1 1
v 0.1302 -0.03727907 0.1756864 1 1 1
v 0.1302 0 0.2647256 1 1 1
v 0.1552 0 0.2647256 1 1 1
v -0.1552 0 0.2647256 1 1 1
v -0.1302 0 0.2647256 1 1 1
v -0.1552 0 -0.1047256 1 1 1
v -0.1302 0 -0.1047256 1 1 1
v 0.1552 0 -0.1047256 1 1 1
v 0.1552 -0.03727907 -0.01568642 1 1 1
v 0.1552 -0.05 0.08 1 1 1
v 0.1552 -0.03727907 0.1756864 1 1 1
v -0.1552 -0.03727907 -0.01568642 1 1 1
v -0.1552 -0.05 0.08 1 1 1
v -0.1552 -0.03727907 0.1756864 1 1 1
v -0.1302 -0.03727907 -0.01568642 1 1 1
v -0.1302 -0.05 0.08 1 1 1
v -0.1302 -0.03727907 0.1756864 1 1 1

vn 0.1950903 0.9807853 0
vn -0.1950903 0.9807853 0
vn -0.9807853 0.1950903 0
vn -0.7071068 0.7071068 0
vn 0.7071068 0.7071068 0
vn 0.9807853 0.1950903 0
vn 0 0 1
vn 0 0 -1
vn 0 -0.9224157 0.3861984
vn 0 -0.9652658 0.2612701
vn 0 -0.9652658 -0.2612701
vn 0 -0.9224157 -0.3861984

vt 0.46875 0.435
vt 0.46875 0.4632843
vt 0.46875 0.363256
vt 0.46875 0.3036095
vt 0.46875 0.283256

usemtl colormap

f 43/4/26 42/4/25 41/4/25
f 42/4/25 43/4/26 44/4/26
f 47/5/16 46/5/16 45/5/16
f 46/5/16 47/5/16 48/5/16
f 51/5/27 50/6/28 49/5/27
f 50/6/28 51/5/27 52/6/28
f 50/6/28 44/4/26 43/4/26
f 44/4/26 50/6/28 52/6/28
f 55/6/29 54/5/30 53/6/29
f 54/5/30 55/6/29 56/5/30
f 41/4/25 55/6/29 53/6/29
f 55/6/29 41/4/25 42/4/25
f 58/8/5 46/5/5 57/7/5
f 46/5/5 58/8/5 45/5/5
f 45/5/5 58/8/5 59/9/5
f 45/5/5 59/9/5 60/8/5
f 45/5/5 60/8/5 61/7/5
f 56/5/31 61/7/31 62/7/31
f 61/7/31 56/5/31 45/5/31
f 45/5/31 56/5/31 55/6/31
f 45/5/31 55/6/31 47/5/31
f 47/5/31 55/6/31 51/5/31
f 63/7/31 47/5/31 51/5/31
f 47/5/31 63/7/31 64/7/31
f 51/5/31 55/6/31 52/6/31
f 52/6/31 55/6/31 42/4/31
f 52/6/31 42/4/31 44/4/31
f 49/5/32 66/7/32 65/7/32
f 66/7/32 49/5/32 48/5/32
f 48/5/32 49/5/32 50/6/32
f 48/5/32 50/6/32 46/5/32
f 46/5/32 50/6/32 54/5/32
f 67/7/32 46/5/32 54/5/32
f 46/5/32 67/7/32 57/7/32
f 54/5/32 50/6/32 53/6/32
f 53/6/32 50/6/32 43/4/32
f 53/6/32 43/4/32 41/4/32
f 56/5/30 67/7/15 54/5/30
f 67/7/15 56/5/30 68/8/15
f 68/8/15 56/5/30 69/9/15
f 69/9/15 56/5/30 70/8/15
f 70/8/15 56/5/30 62/7/15
f 61/7/33 70/8/34 62/7/33
f 70/8/34 61/7/33 60/8/34
f 60/8/34 69/9/16 70/8/34
f 69/9/16 60/8/34 59/9/16
f 59/9/16 68/8/35 69/9/16
f 68/8/35 59/9/16 58/8/35
f 58/8/35 67/7/36 68/8/35
f 67/7/36 58/8/35 57/7/36
f 49/5/27 63/7/5 51/5/27
f 63/7/5 49/5/27 65/7/5
f 71/8/5 63/7/5 65/7/5
f 63/7/5 71/8/5 72/9/5
f 63/7/5 72/9/5 73/8/5
f 47/5/15 66/7/15 48/5/15
f 66/7/15 47/5/15 74/8/15
f 74/8/15 47/5/15 75/9/15
f 75/9/15 47/5/15 76/8/15
f 76/8/15 47/5/15 64/7/15
f 63/7/33 76/8/34 64/7/33
f 76/8/34 63/7/33 73/8/34
f 74/8/35 65/7/36 66/7/36
f 65/7/36 74/8/35 71/8/35
f 75/9/16 71/8/35 74/8/35
f 71/8/35 75/9/16 72/9/16
f 76/8/34 72/9/16 75/9/16
f 72/9/16 76/8/34 73/8/34

