# Created by Kenney (www.kenney.nl)

mtllib bottle-large.mtl

g bottle-large

v 0.03622368 0.0770616 -0.02091375 1 1 1
v 0.03622368 0.06742197 -0.02091375 1 1 1
v 0.03622368 0.0770616 0.02091375 1 1 1
v 0.03622368 0.02904363 -0.02091375 1 1 1
v 0.03622368 0.0049896 -0.02091375 1 1 1
v 0.03622368 0.0049896 0.02091375 1 1 1
v 0.03622368 0.06742197 0.02091375 1 1 1
v 0.03622368 0.02904363 0.02091375 1 1 1
v 6.232778E-10 0.0049896 0.0418275 1 1 1
v 4.817329E-10 0 0.03232857 1 1 1
v -0.03622368 0.0049896 0.02091375 1 1 1
v -0.02799737 0 0.01616429 1 1 1
v -6.232785E-10 0.0049896 -0.0418275 1 1 1
v -6.232785E-10 0.02904363 -0.0418275 1 1 1
v 2.369591E-10 0.09342193 0.01590205 1 1 1
v -0.01377158 0.09342193 0.007951028 1 1 1
v 2.824027E-10 0.1247192 0.01895187 1 1 1
v -0.0164128 0.1247192 0.009475936 1 1 1
v 6.232778E-10 0.02904363 0.0418275 1 1 1
v 6.232778E-10 0.06742197 0.0418275 1 1 1
v -0.03622368 0.06742197 0.02091375 1 1 1
v 6.232778E-10 0.0770616 0.0418275 1 1 1
v -0.03622368 0.0770616 0.02091375 1 1 1
v -0.01377158 0.09342193 -0.007951027 1 1 1
v -2.369588E-10 0.09342193 -0.01590205 1 1 1
v -0.0164128 0.1247192 -0.009475936 1 1 1
v -2.82407E-10 0.1247192 -0.01895187 1 1 1
v -0.03622368 0.02904363 0.02091375 1 1 1
v 0.02799737 0 -0.01616429 1 1 1
v -4.817329E-10 0 -0.03232857 1 1 1
v -0.03622368 0.0049896 -0.02091375 1 1 1
v -0.03622368 0.02904363 -0.02091375 1 1 1
v 0.0164128 0.1247192 -0.009475936 1 1 1
v 0.01377158 0.09342193 -0.007951028 1 1 1
v 0.0164128 0.1247192 0.009475936 1 1 1
v 0.01377158 0.09342193 0.007951027 1 1 1
v 0.02799737 0 0.01616429 1 1 1
v -0.03622368 0.06742197 -0.02091375 1 1 1
v -0.03622368 0.0770616 -0.02091375 1 1 1
v -0.02799737 0 -0.01616429 1 1 1
v -6.232785E-10 0.06742197 -0.0418275 1 1 1
v -6.232785E-10 0.0770616 -0.0418275 1 1 1
v -0.01121485 0.1438686 -0.006474897 1 1 1
v -0.01121485 0.1438686 0.006474897 1 1 1
v -0.00975692 0.1222942 -0.00563316 1 1 1
v -0.00975692 0.1222942 0.00563316 1 1 1
v 0.01121485 0.1438686 -0.006474897 1 1 1
v 0.00975692 0.1222942 -0.00563316 1 1 1
v 0.01121485 0.1438686 0.006474897 1 1 1
v 0.00975692 0.1222942 0.00563316 1 1 1
v 1.929666E-10 0.1438686 0.01294979 1 1 1
v -1.929673E-10 0.1438686 -0.01294979 1 1 1
v -1.678816E-10 0.1222942 -0.01126632 1 1 1
v 1.678809E-10 0.1222942 0.01126632 1 1 1
v 0.03622368 0.02904363 0.02091375 1 1 1
v 6.232778E-10 0.02904363 0.0418275 1 1 1
v 0.03622368 0.06742197 0.02091375 1 1 1
v 6.232778E-10 0.06742197 0.0418275 1 1 1
v -0.03622368 0.02904363 0.02091375 1 1 1
v -0.03622368 0.06742197 0.02091375 1 1 1
v -0.03622368 0.06742197 -0.02091375 1 1 1
v -0.03622368 0.02904363 -0.02091375 1 1 1
v -6.232782E-10 0.02904363 -0.0418275 1 1 1
v -6.232782E-10 0.06742197 -0.0418275 1 1 1
v 0.03622368 0.02904363 -0.02091375 1 1 1
v 0.03622368 0.06742197 -0.02091375 1 1 1

vn 0.8660254 0 -0.5
vn 0.9449112 0 -0.3273269
vn 0.8660254 0 0.5
vn 0.9449112 0 0.3273268
vn 0 -0.8852957 0.4650286
vn -0.4027265 -0.8852957 0.2325143
vn 0 0 -1
vn 0 -0.09698738 0.9952857
vn -0.8619426 -0.09698738 0.4976428
vn 0 0 1
vn -0.8660254 0 0.5
vn -0.8619426 -0.09698737 -0.4976428
vn 0 -0.09698738 -0.9952857
vn 0.4027265 -0.8852957 -0.2325143
vn 0 -0.8852957 -0.4650286
vn -0.8660254 0 -0.5
vn 0.8619426 -0.09698738 -0.4976428
vn 0.8619426 -0.09698737 0.4976428
vn 0 1 0
vn 0.4027266 -0.8852957 0.2325143
vn -0.4027266 -0.8852957 -0.2325143
vn 0 -1 0
vn 0.4621762 0.8456896 0.2668375
vn 0 0.8456896 0.5336751
vn -0.4621762 0.8456896 0.2668376
vn 0 0.8456896 -0.5336751
vn -0.4621762 0.8456896 -0.2668375
vn 0.4621762 0.8456896 -0.2668376
vn -0.8634009 -0.07779431 -0.4984847
vn -0.8634008 -0.07779431 0.4984847
vn 0.8634008 -0.07779431 -0.4984847
vn 0.8634009 -0.07779431 0.4984847
vn 0 -0.07779431 -0.9969694
vn 0 -0.07779431 0.9969694
vn 0.5 0 0.8660254
vn -0.8660254 0 0.5
vn -0.8660254 0 -0.5
vn 0.5 0 -0.8660254

vt 0.59375 0.1485762
vt 0.59375 0.133118
vt 0.59375 0.07157443
vt 0.59375 0.03300133
vt 0.59375 0.025
vt 0.59375 0.1748116
vt 0.59375 0.225
vt 0.59375 0.125
vt 0.46875 0.025
vt 0.46875 0.225

usemtl colormap

f 3/1/3 2/2/2 1/1/1
f 2/2/2 3/1/3 4/3/2
f 4/3/2 3/1/3 5/4/1
f 5/4/1 3/1/3 6/4/3
f 6/4/3 3/1/3 7/2/4
f 6/4/3 7/2/4 8/3/4
f 11/4/6 10/5/5 9/4/5
f 10/5/5 11/4/6 12/5/6
f 14/3/7 5/4/1 13/4/7
f 5/4/1 14/3/7 4/3/2
f 17/7/8 16/6/9 15/6/8
f 16/6/9 17/7/8 18/7/9
f 8/3/4 9/4/10 6/4/3
f 9/4/10 8/3/4 19/3/10
f 22/1/10 21/2/11 20/2/10
f 21/2/11 22/1/10 23/1/11
f 26/7/12 25/6/13 24/6/12
f 25/6/13 26/7/12 27/7/13
f 19/3/10 11/4/11 9/4/10
f 11/4/11 19/3/10 28/3/11
f 29/5/14 13/4/15 5/4/14
f 13/4/15 29/5/14 30/5/15
f 11/4/11 32/3/16 31/4/16
f 32/3/16 11/4/11 28/3/11
f 35/7/18 34/6/17 33/7/17
f 34/6/17 35/7/18 36/6/18
f 33/7/19 17/7/19 35/7/19
f 17/7/19 33/7/19 27/7/19
f 17/7/19 27/7/19 18/7/19
f 18/7/19 27/7/19 26/7/19
f 37/5/20 5/4/14 6/4/20
f 5/4/14 37/5/20 29/5/14
f 3/1/3 20/2/10 7/2/4
f 20/2/10 3/1/3 22/1/10
f 24/6/12 18/7/9 26/7/12
f 18/7/9 24/6/12 16/6/9
f 21/2/11 39/1/16 38/2/16
f 39/1/16 21/2/11 23/1/11
f 40/5/21 13/4/15 30/5/15
f 13/4/15 40/5/21 31/4/21
f 10/5/22 29/5/22 37/5/22
f 29/5/22 10/5/22 30/5/22
f 30/5/22 10/5/22 12/5/22
f 30/5/22 12/5/22 40/5/22
f 42/1/7 2/2/2 41/2/7
f 2/2/2 42/1/7 1/1/1
f 35/7/18 15/6/8 36/6/18
f 15/6/8 35/7/18 17/7/8
f 39/1/16 41/2/7 38/2/16
f 41/2/7 39/1/16 42/1/7
f 32/3/16 13/4/7 31/4/16
f 13/4/7 32/3/16 14/3/7
f 27/7/13 34/6/17 25/6/13
f 34/6/17 27/7/13 33/7/17
f 9/4/5 37/5/20 6/4/20
f 37/5/20 9/4/5 10/5/5
f 11/4/6 40/5/21 12/5/6
f 40/5/21 11/4/6 31/4/21
f 22/1/24 3/1/23 36/6/23
f 15/6/24 22/1/24 36/6/23
f 23/1/25 22/1/24 15/6/24
f 23/1/25 15/6/24 16/6/25
f 39/1/27 24/6/27 42/1/26
f 24/6/27 25/6/26 42/1/26
f 42/1/26 25/6/26 1/1/28
f 25/6/26 34/6/28 1/1/28
f 1/1/28 36/6/23 3/1/23
f 36/6/23 1/1/28 34/6/28
f 24/6/27 23/1/25 16/6/25
f 23/1/25 24/6/27 39/1/27
f 45/5/29 44/8/30 43/8/29
f 44/8/30 45/5/29 46/5/30
f 49/8/32 48/5/31 47/8/31
f 48/5/31 49/8/32 50/5/32
f 47/8/19 51/8/19 49/8/19
f 51/8/19 47/8/19 52/8/19
f 51/8/19 52/8/19 44/8/19
f 44/8/19 52/8/19 43/8/19
f 43/8/29 53/5/33 45/5/29
f 53/5/33 43/8/29 52/8/33
f 49/8/32 54/5/34 50/5/32
f 54/5/34 49/8/32 51/8/34
f 51/8/34 46/5/30 54/5/34
f 46/5/30 51/8/34 44/8/30
f 52/8/33 48/5/31 53/5/33
f 48/5/31 52/8/33 47/8/31
f 57/10/35 56/9/10 55/9/35
f 56/9/10 57/10/35 58/10/10
f 58/10/10 59/9/36 56/9/10
f 59/9/36 58/10/10 60/10/36
f 61/10/37 59/9/36 60/10/36
f 59/9/36 61/10/37 62/9/37
f 61/10/37 63/9/7 62/9/37
f 63/9/7 61/10/37 64/10/7
f 64/10/7 65/9/38 63/9/7
f 65/9/38 64/10/7 66/10/38

g bottle-large




usemtl colormap

f 3/1/3 2/2/2 1/1/1
f 2/2/2 3/1/3 4/3/2
f 4/3/2 3/1/3 5/4/1
f 5/4/1 3/1/3 6/4/3
f 6/4/3 3/1/3 7/2/4
f 6/4/3 7/2/4 8/3/4
f 11/4/6 10/5/5 9/4/5
f 10/5/5 11/4/6 12/5/6
f 14/3/7 5/4/1 13/4/7
f 5/4/1 14/3/7 4/3/2
f 17/7/8 16/6/9 15/6/8
f 16/6/9 17/7/8 18/7/9
f 8/3/4 9/4/10 6/4/3
f 9/4/10 8/3/4 19/3/10
f 22/1/10 21/2/11 20/2/10
f 21/2/11 22/1/10 23/1/11
f 26/7/12 25/6/13 24/6/12
f 25/6/13 26/7/12 27/7/13
f 19/3/10 11/4/11 9/4/10
f 11/4/11 19/3/10 28/3/11
f 29/5/14 13/4/15 5/4/14
f 13/4/15 29/5/14 30/5/15
f 11/4/11 32/3/16 31/4/16
f 32/3/16 11/4/11 28/3/11
f 35/7/18 34/6/17 33/7/17
f 34/6/17 35/7/18 36/6/18
f 33/7/19 17/7/19 35/7/19
f 17/7/19 33/7/19 27/7/19
f 17/7/19 27/7/19 18/7/19
f 18/7/19 27/7/19 26/7/19
f 37/5/20 5/4/14 6/4/20
f 5/4/14 37/5/20 29/5/14
f 3/1/3 20/2/10 7/2/4
f 20/2/10 3/1/3 22/1/10
f 24/6/12 18/7/9 26/7/12
f 18/7/9 24/6/12 16/6/9
f 21/2/11 39/1/16 38/2/16
f 39/1/16 21/2/11 23/1/11
f 40/5/21 13/4/15 30/5/15
f 13/4/15 40/5/21 31/4/21
f 10/5/22 29/5/22 37/5/22
f 29/5/22 10/5/22 30/5/22
f 30/5/22 10/5/22 12/5/22
f 30/5/22 12/5/22 40/5/22
f 42/1/7 2/2/2 41/2/7
f 2/2/2 42/1/7 1/1/1
f 35/7/18 15/6/8 36/6/18
f 15/6/8 35/7/18 17/7/8
f 39/1/16 41/2/7 38/2/16
f 41/2/7 39/1/16 42/1/7
f 32/3/16 13/4/7 31/4/16
f 13/4/7 32/3/16 14/3/7
f 27/7/13 34/6/17 25/6/13
f 34/6/17 27/7/13 33/7/17
f 9/4/5 37/5/20 6/4/20
f 37/5/20 9/4/5 10/5/5
f 11/4/6 40/5/21 12/5/6
f 40/5/21 11/4/6 31/4/21
f 22/1/24 3/1/23 36/6/23
f 15/6/24 22/1/24 36/6/23
f 23/1/25 22/1/24 15/6/24
f 23/1/25 15/6/24 16/6/25
f 39/1/27 24/6/27 42/1/26
f 24/6/27 25/6/26 42/1/26
f 42/1/26 25/6/26 1/1/28
f 25/6/26 34/6/28 1/1/28
f 1/1/28 36/6/23 3/1/23
f 36/6/23 1/1/28 34/6/28
f 24/6/27 23/1/25 16/6/25
f 23/1/25 24/6/27 39/1/27
f 45/5/29 44/8/30 43/8/29
f 44/8/30 45/5/29 46/5/30
f 49/8/32 48/5/31 47/8/31
f 48/5/31 49/8/32 50/5/32
f 47/8/19 51/8/19 49/8/19
f 51/8/19 47/8/19 52/8/19
f 51/8/19 52/8/19 44/8/19
f 44/8/19 52/8/19 43/8/19
f 43/8/29 53/5/33 45/5/29
f 53/5/33 43/8/29 52/8/33
f 49/8/32 54/5/34 50/5/32
f 54/5/34 49/8/32 51/8/34
f 51/8/34 46/5/30 54/5/34
f 46/5/30 51/8/34 44/8/30
f 52/8/33 48/5/31 53/5/33
f 48/5/31 52/8/33 47/8/31
f 57/10/35 56/9/10 55/9/35
f 56/9/10 57/10/35 58/10/10
f 58/10/10 59/9/36 56/9/10
f 59/9/36 58/10/10 60/10/36
f 61/10/37 59/9/36 60/10/36
f 59/9/36 61/10/37 62/9/37
f 61/10/37 63/9/7 62/9/37
f 63/9/7 61/10/37 64/10/7
f 64/10/7 65/9/38 63/9/7
f 65/9/38 64/10/7 66/10/38

