# Created by Kenney (www.kenney.nl)

mtllib campfire-stand.mtl

g campfire-stand

v 0.173 0.275598 0.03959798 1 1 1
v 0.173 0.2529705 0.0622254 1 1 1
v 0.141 0.275598 0.03959798 1 1 1
v 0.141 0.2529705 0.0622254 1 1 1
v 0.173 0.275598 -0.03959798 1 1 1
v 0.173 0.236 1.082867E-15 1 1 1
v 0.141 0.275598 -0.03959798 1 1 1
v 0.141 0.236 1.082867E-15 1 1 1
v 0.173 2.932765E-16 0.0128 1 1 1
v 0.173 0 -0.0128 1 1 1
v 0.141 2.932765E-16 0.0128 1 1 1
v 0.141 0 -0.0128 1 1 1
v 0.173 0.2529705 -0.0622254 1 1 1
v 0.141 0.2529705 -0.0622254 1 1 1
v 0.141 0.2067451 -0.016 1 1 1
v 0.141 0.2067451 0.016 1 1 1
v 0.173 0.2067451 -0.016 1 1 1
v 0.173 0.2067451 0.016 1 1 1
v -0.141 0.275598 0.03959798 1 1 1
v -0.141 0.2529705 0.0622254 1 1 1
v -0.173 0.275598 0.03959798 1 1 1
v -0.173 0.2529705 0.0622254 1 1 1
v -0.141 0.275598 -0.03959798 1 1 1
v -0.141 0.236 1.082867E-15 1 1 1
v -0.173 0.275598 -0.03959798 1 1 1
v -0.173 0.236 1.082867E-15 1 1 1
v -0.141 2.932765E-16 0.0128 1 1 1
v -0.141 0 -0.0128 1 1 1
v -0.173 2.932765E-16 0.0128 1 1 1
v -0.173 0 -0.0128 1 1 1
v -0.141 0.2529705 -0.0622254 1 1 1
v -0.173 0.2529705 -0.0622254 1 1 1
v -0.173 0.2067451 -0.016 1 1 1
v -0.173 0.2067451 0.016 1 1 1
v -0.141 0.2067451 -0.016 1 1 1
v -0.141 0.2067451 0.016 1 1 1
v 0.205 0.251 0.015 1 1 1
v 0.205 0.251 -0.015 1 1 1
v -0.205 0.251 0.015 1 1 1
v -0.205 0.251 -0.015 1 1 1
v 0.205 0.281 -0.015 1 1 1
v 0.205 0.281 0.015 1 1 1
v -0.205 0.281 -0.015 1 1 1
v -0.205 0.281 0.015 1 1 1

vn 0 0.7071068 0.7071068
vn 0 0.7071068 -0.7071068
vn 0 -1 0
vn -1 0 0
vn 0 -0.01547614 -0.9998802
vn 1 0 0
vn 0 -0.7071068 -0.7071068
vn 0 -0.7071068 0.7071068
vn 0 -0.01547614 0.9998802
vn 0 1 0
vn 0 0 -1
vn 0 0 1

vt 0.59375 0.225
vt 0.59375 0.2085794
vt 0.59375 0.1962639
vt 0.59375 0.025
vt 0.59375 0.1750339
vt 0.59375 0.125

usemtl colormap

f 3/1/1 2/2/1 1/1/1
f 2/2/1 3/1/1 4/2/1
f 7/1/1 6/3/1 5/1/1
f 6/3/1 7/1/1 8/3/1
f 3/1/2 6/3/2 8/3/2
f 6/3/2 3/1/2 1/1/2
f 11/4/3 10/4/3 9/4/3
f 10/4/3 11/4/3 12/4/3
f 14/2/2 5/1/2 13/2/2
f 5/1/2 14/2/2 7/1/2
f 15/5/4 7/1/4 14/2/4
f 7/1/4 15/5/4 8/3/4
f 8/3/4 15/5/4 12/4/4
f 8/3/4 12/4/4 11/4/4
f 8/3/4 11/4/4 16/5/4
f 8/3/4 16/5/4 3/1/4
f 3/1/4 16/5/4 4/2/4
f 15/5/5 10/4/5 12/4/5
f 10/4/5 15/5/5 17/5/5
f 5/1/6 17/5/6 13/2/6
f 17/5/6 5/1/6 6/3/6
f 17/5/6 6/3/6 10/4/6
f 10/4/6 6/3/6 9/4/6
f 9/4/6 6/3/6 18/5/6
f 18/5/6 6/3/6 1/1/6
f 18/5/6 1/1/6 2/2/6
f 15/5/7 13/2/7 17/5/7
f 13/2/7 15/5/7 14/2/7
f 2/2/8 16/5/8 18/5/8
f 16/5/8 2/2/8 4/2/8
f 18/5/9 11/4/9 9/4/9
f 11/4/9 18/5/9 16/5/9
f 21/1/1 20/2/1 19/1/1
f 20/2/1 21/1/1 22/2/1
f 25/1/1 24/3/1 23/1/1
f 24/3/1 25/1/1 26/3/1
f 21/1/2 24/3/2 26/3/2
f 24/3/2 21/1/2 19/1/2
f 29/4/3 28/4/3 27/4/3
f 28/4/3 29/4/3 30/4/3
f 32/2/2 23/1/2 31/2/2
f 23/1/2 32/2/2 25/1/2
f 33/5/4 25/1/4 32/2/4
f 25/1/4 33/5/4 26/3/4
f 26/3/4 33/5/4 30/4/4
f 26/3/4 30/4/4 29/4/4
f 26/3/4 29/4/4 34/5/4
f 26/3/4 34/5/4 21/1/4
f 21/1/4 34/5/4 22/2/4
f 33/5/5 28/4/5 30/4/5
f 28/4/5 33/5/5 35/5/5
f 23/1/6 35/5/6 31/2/6
f 35/5/6 23/1/6 24/3/6
f 35/5/6 24/3/6 28/4/6
f 28/4/6 24/3/6 27/4/6
f 27/4/6 24/3/6 36/5/6
f 36/5/6 24/3/6 19/1/6
f 36/5/6 19/1/6 20/2/6
f 33/5/7 31/2/7 35/5/7
f 31/2/7 33/5/7 32/2/7
f 20/2/8 34/5/8 36/5/8
f 34/5/8 20/2/8 22/2/8
f 36/5/9 29/4/9 27/4/9
f 29/4/9 36/5/9 34/5/9
f 39/4/3 38/4/3 37/4/3
f 38/4/3 39/4/3 40/4/3
f 43/6/10 42/6/10 41/6/10
f 42/6/10 43/6/10 44/6/10
f 43/6/11 38/4/11 40/4/11
f 38/4/11 43/6/11 41/6/11
f 42/6/6 38/4/6 41/6/6
f 38/4/6 42/6/6 37/4/6
f 42/6/12 39/4/12 37/4/12
f 39/4/12 42/6/12 44/6/12
f 39/4/4 43/6/4 40/4/4
f 43/6/4 39/4/4 44/6/4

g campfire-stand




usemtl colormap

f 3/1/1 2/2/1 1/1/1
f 2/2/1 3/1/1 4/2/1
f 7/1/1 6/3/1 5/1/1
f 6/3/1 7/1/1 8/3/1
f 3/1/2 6/3/2 8/3/2
f 6/3/2 3/1/2 1/1/2
f 11/4/3 10/4/3 9/4/3
f 10/4/3 11/4/3 12/4/3
f 14/2/2 5/1/2 13/2/2
f 5/1/2 14/2/2 7/1/2
f 15/5/4 7/1/4 14/2/4
f 7/1/4 15/5/4 8/3/4
f 8/3/4 15/5/4 12/4/4
f 8/3/4 12/4/4 11/4/4
f 8/3/4 11/4/4 16/5/4
f 8/3/4 16/5/4 3/1/4
f 3/1/4 16/5/4 4/2/4
f 15/5/5 10/4/5 12/4/5
f 10/4/5 15/5/5 17/5/5
f 5/1/6 17/5/6 13/2/6
f 17/5/6 5/1/6 6/3/6
f 17/5/6 6/3/6 10/4/6
f 10/4/6 6/3/6 9/4/6
f 9/4/6 6/3/6 18/5/6
f 18/5/6 6/3/6 1/1/6
f 18/5/6 1/1/6 2/2/6
f 15/5/7 13/2/7 17/5/7
f 13/2/7 15/5/7 14/2/7
f 2/2/8 16/5/8 18/5/8
f 16/5/8 2/2/8 4/2/8
f 18/5/9 11/4/9 9/4/9
f 11/4/9 18/5/9 16/5/9
f 21/1/1 20/2/1 19/1/1
f 20/2/1 21/1/1 22/2/1
f 25/1/1 24/3/1 23/1/1
f 24/3/1 25/1/1 26/3/1
f 21/1/2 24/3/2 26/3/2
f 24/3/2 21/1/2 19/1/2
f 29/4/3 28/4/3 27/4/3
f 28/4/3 29/4/3 30/4/3
f 32/2/2 23/1/2 31/2/2
f 23/1/2 32/2/2 25/1/2
f 33/5/4 25/1/4 32/2/4
f 25/1/4 33/5/4 26/3/4
f 26/3/4 33/5/4 30/4/4
f 26/3/4 30/4/4 29/4/4
f 26/3/4 29/4/4 34/5/4
f 26/3/4 34/5/4 21/1/4
f 21/1/4 34/5/4 22/2/4
f 33/5/5 28/4/5 30/4/5
f 28/4/5 33/5/5 35/5/5
f 23/1/6 35/5/6 31/2/6
f 35/5/6 23/1/6 24/3/6
f 35/5/6 24/3/6 28/4/6
f 28/4/6 24/3/6 27/4/6
f 27/4/6 24/3/6 36/5/6
f 36/5/6 24/3/6 19/1/6
f 36/5/6 19/1/6 20/2/6
f 33/5/7 31/2/7 35/5/7
f 31/2/7 33/5/7 32/2/7
f 20/2/8 34/5/8 36/5/8
f 34/5/8 20/2/8 22/2/8
f 36/5/9 29/4/9 27/4/9
f 29/4/9 36/5/9 34/5/9
f 39/4/3 38/4/3 37/4/3
f 38/4/3 39/4/3 40/4/3
f 43/6/10 42/6/10 41/6/10
f 42/6/10 43/6/10 44/6/10
f 43/6/11 38/4/11 40/4/11
f 38/4/11 43/6/11 41/6/11
f 42/6/6 38/4/6 41/6/6
f 38/4/6 42/6/6 37/4/6
f 42/6/12 39/4/12 37/4/12
f 39/4/12 42/6/12 44/6/12
f 39/4/4 43/6/4 40/4/4
f 43/6/4 39/4/4 44/6/4

