# Created by Kenney (www.kenney.nl)

mtllib floor-old.mtl

g floor-old

v -0.2055416 0.02 0.2533231 1 1 1
v -0.2055416 0.02 -0.2466769 1 1 1
v -0.2553475 0.02 0.2533231 1 1 1
v -0.2553475 0.02 -0.2466769 1 1 1
v -0.2553475 0.0512 -0.2466769 1 1 1
v -0.2055416 0.0512 -0.2466769 1 1 1
v -0.2055416 0.0512 0.2533231 1 1 1
v -0.2553475 0.0512 0.2533231 1 1 1
v -0.1798299 0.02 -0.2466769 1 1 1
v -0.08021808 0.02 -0.2466769 1 1 1
v -0.1798299 0.0356 -0.2466769 1 1 1
v -0.08021808 0.0356 -0.2466769 1 1 1
v -0.1798299 0.02 0.2533231 1 1 1
v -0.1798299 0.0512 0.2533231 1 1 1
v -0.08021808 0.02 0.2533231 1 1 1
v -0.08021808 0.0512 0.2533231 1 1 1
v -0.05515338 0.02 -0.2466769 1 1 1
v 0.04445839 0.02 -0.2466769 1 1 1
v -0.05515338 0.0512 -0.2466769 1 1 1
v 0.04445839 0.0512 -0.2466769 1 1 1
v 0.04445839 0.02 0.2533231 1 1 1
v -0.05515338 0.02 0.2533231 1 1 1
v 0.04445839 0.0512 0.2533231 1 1 1
v -0.05515338 0.0512 0.2533231 1 1 1
v 0.1691349 0.02 0.2533231 1 1 1
v 0.1691349 0.02 -0.2466769 1 1 1
v 0.06952309 0.02 0.2533231 1 1 1
v 0.06952309 0.02 -0.2466769 1 1 1
v 0.06952309 0.0512 -0.2466769 1 1 1
v 0.06952309 0.0356 0.2533231 1 1 1
v 0.1691349 0.0356 0.2533231 1 1 1
v 0.1691349 0.0512 -0.2466769 1 1 1
v 0.2446525 0.02 0.2533231 1 1 1
v 0.1948466 0.02 0.2533231 1 1 1
v 0.2446525 0.0512 0.2533231 1 1 1
v 0.1948466 0.0512 0.2533231 1 1 1
v 0.1948466 0.02 -0.2466769 1 1 1
v 0.2446525 0.02 -0.2466769 1 1 1
v 0.1948466 0.0512 -0.2466769 1 1 1
v 0.2446525 0.0512 -0.2466769 1 1 1
v 0.2446525 0 0.1208503 1 1 1
v -0.2553475 0 0.1208503 1 1 1
v 0.2446525 0 0.1870867 1 1 1
v -0.2553475 0 0.1870867 1 1 1
v 0.2446525 0.02 0.1208503 1 1 1
v 0.2446525 0.02 0.1870867 1 1 1
v -0.2553475 0.02 0.1870867 1 1 1
v -0.2553475 0.02 0.1208503 1 1 1
v 0.2446525 0 -0.1142041 1 1 1
v -0.2553475 0 -0.1142041 1 1 1
v 0.2446525 0.02 -0.1142041 1 1 1
v -0.2553475 0.02 -0.1142041 1 1 1
v -0.2553475 0 -0.1804405 1 1 1
v -0.2553475 0.02 -0.1804405 1 1 1
v 0.2446525 0 -0.1804405 1 1 1
v 0.2446525 0.02 -0.1804405 1 1 1

vn 0 -1 0
vn 0 0 -1
vn 0 0 1
vn -1 0 0
vn 0 1 0
vn 1 0 0
vn 0 0.9995136 -0.03118483
vn 0 0.9995136 0.03118483

vt 0.59375 0.025
vt 0.59375 0.225
vt 0.59375 0.125

usemtl colormap

f 3/1/1 2/1/1 1/1/1
f 2/1/1 3/1/1 4/1/1
f 5/2/2 2/1/2 4/1/2
f 2/1/2 5/2/2 6/2/2
f 7/2/3 3/1/3 1/1/3
f 3/1/3 7/2/3 8/2/3
f 3/1/4 5/2/4 4/1/4
f 5/2/4 3/1/4 8/2/4
f 5/2/5 7/2/5 6/2/5
f 7/2/5 5/2/5 8/2/5
f 7/2/6 2/1/6 6/2/6
f 2/1/6 7/2/6 1/1/6
f 11/3/2 10/1/2 9/1/2
f 10/1/2 11/3/2 12/3/2
f 13/1/4 11/3/4 9/1/4
f 11/3/4 13/1/4 14/2/4
f 16/2/3 13/1/3 15/1/3
f 13/1/3 16/2/3 14/2/3
f 13/1/1 10/1/1 15/1/1
f 10/1/1 13/1/1 9/1/1
f 16/2/6 10/1/6 12/3/6
f 10/1/6 16/2/6 15/1/6
f 11/3/7 16/2/7 12/3/7
f 16/2/7 11/3/7 14/2/7
f 19/2/2 18/1/2 17/1/2
f 18/1/2 19/2/2 20/2/2
f 22/1/1 18/1/1 21/1/1
f 18/1/1 22/1/1 17/1/1
f 19/2/5 23/2/5 20/2/5
f 23/2/5 19/2/5 24/2/5
f 23/2/3 22/1/3 21/1/3
f 22/1/3 23/2/3 24/2/3
f 23/2/6 18/1/6 20/2/6
f 18/1/6 23/2/6 21/1/6
f 22/1/4 19/2/4 17/1/4
f 19/2/4 22/1/4 24/2/4
f 27/1/1 26/1/1 25/1/1
f 26/1/1 27/1/1 28/1/1
f 27/1/4 29/2/4 28/1/4
f 29/2/4 27/1/4 30/3/4
f 31/3/3 27/1/3 25/1/3
f 27/1/3 31/3/3 30/3/3
f 29/2/2 26/1/2 28/1/2
f 26/1/2 29/2/2 32/2/2
f 31/3/6 26/1/6 32/2/6
f 26/1/6 31/3/6 25/1/6
f 29/2/8 31/3/8 32/2/8
f 31/3/8 29/2/8 30/3/8
f 35/2/3 34/1/3 33/1/3
f 34/1/3 35/2/3 36/2/3
f 39/2/2 38/1/2 37/1/2
f 38/1/2 39/2/2 40/2/2
f 39/2/5 35/2/5 40/2/5
f 35/2/5 39/2/5 36/2/5
f 35/2/6 38/1/6 40/2/6
f 38/1/6 35/2/6 33/1/6
f 34/1/4 39/2/4 37/1/4
f 39/2/4 34/1/4 36/2/4
f 34/1/1 38/1/1 33/1/1
f 38/1/1 34/1/1 37/1/1
f 43/1/1 42/1/1 41/1/1
f 42/1/1 43/1/1 44/1/1
f 46/3/6 41/1/6 45/3/6
f 41/1/6 46/3/6 43/1/6
f 46/3/3 44/1/3 43/1/3
f 44/1/3 46/3/3 47/3/3
f 48/3/2 41/1/2 42/1/2
f 41/1/2 48/3/2 45/3/2
f 48/3/5 46/3/5 45/3/5
f 46/3/5 48/3/5 47/3/5
f 44/1/4 48/3/4 42/1/4
f 48/3/4 44/1/4 47/3/4
f 51/3/3 50/1/3 49/1/3
f 50/1/3 51/3/3 52/3/3
f 50/1/4 54/3/4 53/1/4
f 54/3/4 50/1/4 52/3/4
f 49/1/1 53/1/1 55/1/1
f 53/1/1 49/1/1 50/1/1
f 54/3/5 51/3/5 56/3/5
f 51/3/5 54/3/5 52/3/5
f 54/3/2 55/1/2 53/1/2
f 55/1/2 54/3/2 56/3/2
f 51/3/6 55/1/6 56/3/6
f 55/1/6 51/3/6 49/1/6

g floor-old




usemtl colormap

f 3/1/1 2/1/1 1/1/1
f 2/1/1 3/1/1 4/1/1
f 5/2/2 2/1/2 4/1/2
f 2/1/2 5/2/2 6/2/2
f 7/2/3 3/1/3 1/1/3
f 3/1/3 7/2/3 8/2/3
f 3/1/4 5/2/4 4/1/4
f 5/2/4 3/1/4 8/2/4
f 5/2/5 7/2/5 6/2/5
f 7/2/5 5/2/5 8/2/5
f 7/2/6 2/1/6 6/2/6
f 2/1/6 7/2/6 1/1/6
f 11/3/2 10/1/2 9/1/2
f 10/1/2 11/3/2 12/3/2
f 13/1/4 11/3/4 9/1/4
f 11/3/4 13/1/4 14/2/4
f 16/2/3 13/1/3 15/1/3
f 13/1/3 16/2/3 14/2/3
f 13/1/1 10/1/1 15/1/1
f 10/1/1 13/1/1 9/1/1
f 16/2/6 10/1/6 12/3/6
f 10/1/6 16/2/6 15/1/6
f 11/3/7 16/2/7 12/3/7
f 16/2/7 11/3/7 14/2/7
f 19/2/2 18/1/2 17/1/2
f 18/1/2 19/2/2 20/2/2
f 22/1/1 18/1/1 21/1/1
f 18/1/1 22/1/1 17/1/1
f 19/2/5 23/2/5 20/2/5
f 23/2/5 19/2/5 24/2/5
f 23/2/3 22/1/3 21/1/3
f 22/1/3 23/2/3 24/2/3
f 23/2/6 18/1/6 20/2/6
f 18/1/6 23/2/6 21/1/6
f 22/1/4 19/2/4 17/1/4
f 19/2/4 22/1/4 24/2/4
f 27/1/1 26/1/1 25/1/1
f 26/1/1 27/1/1 28/1/1
f 27/1/4 29/2/4 28/1/4
f 29/2/4 27/1/4 30/3/4
f 31/3/3 27/1/3 25/1/3
f 27/1/3 31/3/3 30/3/3
f 29/2/2 26/1/2 28/1/2
f 26/1/2 29/2/2 32/2/2
f 31/3/6 26/1/6 32/2/6
f 26/1/6 31/3/6 25/1/6
f 29/2/8 31/3/8 32/2/8
f 31/3/8 29/2/8 30/3/8
f 35/2/3 34/1/3 33/1/3
f 34/1/3 35/2/3 36/2/3
f 39/2/2 38/1/2 37/1/2
f 38/1/2 39/2/2 40/2/2
f 39/2/5 35/2/5 40/2/5
f 35/2/5 39/2/5 36/2/5
f 35/2/6 38/1/6 40/2/6
f 38/1/6 35/2/6 33/1/6
f 34/1/4 39/2/4 37/1/4
f 39/2/4 34/1/4 36/2/4
f 34/1/1 38/1/1 33/1/1
f 38/1/1 34/1/1 37/1/1
f 43/1/1 42/1/1 41/1/1
f 42/1/1 43/1/1 44/1/1
f 46/3/6 41/1/6 45/3/6
f 41/1/6 46/3/6 43/1/6
f 46/3/3 44/1/3 43/1/3
f 44/1/3 46/3/3 47/3/3
f 48/3/2 41/1/2 42/1/2
f 41/1/2 48/3/2 45/3/2
f 48/3/5 46/3/5 45/3/5
f 46/3/5 48/3/5 47/3/5
f 44/1/4 48/3/4 42/1/4
f 48/3/4 44/1/4 47/3/4
f 51/3/3 50/1/3 49/1/3
f 50/1/3 51/3/3 52/3/3
f 50/1/4 54/3/4 53/1/4
f 54/3/4 50/1/4 52/3/4
f 49/1/1 53/1/1 55/1/1
f 53/1/1 49/1/1 50/1/1
f 54/3/5 51/3/5 56/3/5
f 51/3/5 54/3/5 52/3/5
f 54/3/2 55/1/2 53/1/2
f 55/1/2 54/3/2 56/3/2
f 51/3/6 55/1/6 56/3/6
f 55/1/6 51/3/6 49/1/6

