# Created by Kenney (www.kenney.nl)

mtllib grass-large.mtl

g grass-large

v -0.130974 0.0675 0.2336541 1 1 1
v -0.2309999 0.0675 0.1759041 1 1 1
v -0.1929901 0.1425 0.2255691 1 1 1
v -0.130974 1.804779E-16 0.2231541 1 1 1
v -0.2219067 1.804779E-16 0.1706541 1 1 1
v -0.2365374 0.0675 0.1342799 1 1 1
v -0.1365115 0.0675 0.07652992 1 1 1
v -0.1985276 0.1425 0.08461493 1 1 1
v -0.2274442 1.804779E-16 0.1395299 1 1 1
v -0.1365115 1.804779E-16 0.08702993 1 1 1
v -0.05537727 0.0432 0.1188258 1 1 1
v -0.1554032 0.0432 0.1765758 1 1 1
v -0.09338713 0.09119999 0.1684908 1 1 1
v -0.06447053 0 0.1135758 1 1 1
v -0.1554032 0 0.1660758 1 1 1
v -0.1020774 0.0432 0.01389664 1 1 1
v -0.002051439 0.0432 0.07164664 1 1 1
v -0.04006129 0.09119999 0.02198164 1 1 1
v -0.1020774 0 0.02439664 1 1 1
v -0.0111447 0 0.07689664 1 1 1
v -0.1483691 0.0432 -0.02365413 1 1 1
v -0.1980341 0.09119999 0.01435573 1 1 1
v -0.2061191 0.0432 0.0763718 1 1 1
v -0.1431191 1.804779E-16 -0.01456087 1 1 1
v -0.1956191 1.804779E-16 0.0763718 1 1 1
v -0.1379226 0.0432 -0.02817531 1 1 1
v -0.2379486 0.0432 -0.08592531 1 1 1
v -0.1999387 0.09119999 -0.03626031 1 1 1
v -0.1379226 1.804779E-16 -0.03867531 1 1 1
v -0.2288553 1.804779E-16 -0.09117531 1 1 1
v -0.1426478 0.0432 -0.232243 1 1 1
v -0.1923128 0.09119999 -0.1942331 1 1 1
v -0.2003978 0.0432 -0.1322171 1 1 1
v -0.1373978 0 -0.2231497 1 1 1
v -0.1898978 0 -0.1322171 1 1 1
v -0.1456072 0.0675 -0.1993192 1 1 1
v -0.03010719 0.0675 -0.1993192 1 1 1
v -0.08785719 0.1425 -0.2233255 1 1 1
v -0.1403572 1.804779E-16 -0.190226 1 1 1
v -0.03535719 1.804779E-16 -0.190226 1 1 1
v -0.04580366 0.09119999 -0.1409073 1 1 1
v -0.09546866 0.0432 -0.1789172 1 1 1
v -0.03771866 0.0432 -0.07889123 1 1 1
v -0.1007187 0 -0.1698239 1 1 1
v -0.04821866 0 -0.07889123 1 1 1
v -0.1377645 0.0675 -0.09778293 1 1 1
v -0.1296795 0.1425 -0.03576685 1 1 1
v -0.08001452 0.0675 0.002243005 1 1 1
v -0.1272645 1.804779E-16 -0.09778292 1 1 1
v -0.07476452 1.804779E-16 -0.006850261 1 1 1
v 0.01127469 0.1425 -0.04130437 1 1 1
v 0.01935969 0.0675 -0.1033204 1 1 1
v -0.03839031 0.0675 -0.00329452 1 1 1
v 0.008859692 1.804779E-16 -0.1033204 1 1 1
v -0.04364031 1.804779E-16 -0.01238778 1 1 1
v -0.01096896 0.1425 0.1264372 1 1 1
v -0.03497519 0.0675 0.06868725 1 1 1
v -0.03497519 0.0675 0.1841872 1 1 1
v -0.04406846 1.804779E-16 0.07393725 1 1 1
v -0.04406846 1.804779E-16 0.1789372 1 1 1
v 0.00346256 0.0675 0.1442799 1 1 1
v 0.1034885 0.0675 0.08652993 1 1 1
v 0.04147241 0.1425 0.09461492 1 1 1
v 0.01255582 1.804779E-16 0.1495299 1 1 1
v 0.1034885 1.804779E-16 0.09702992 1 1 1
v 0.09163087 0.0432 -0.01365413 1 1 1
v 0.04196587 0.09119999 0.02435572 1 1 1
v 0.03388087 0.0432 0.08637181 1 1 1
v 0.09688087 1.804779E-16 -0.004560865 1 1 1
v 0.04438087 1.804779E-16 0.0863718 1 1 1
v 0.1846227 0.0432 0.1288258 1 1 1
v 0.08459681 0.0432 0.1865758 1 1 1
v 0.1466129 0.09119999 0.1784908 1 1 1
v 0.1755295 0 0.1235758 1 1 1
v 0.08459681 0 0.1760758 1 1 1
v 0.109026 0.0675 0.2436541 1 1 1
v 0.009000085 0.0675 0.1859041 1 1 1
v 0.04700994 0.1425 0.2355691 1 1 1
v 0.109026 1.804779E-16 0.2331541 1 1 1
v 0.01809335 1.804779E-16 0.1806541 1 1 1
v 0.1379226 0.0432 0.02389664 1 1 1
v 0.2379486 0.0432 0.08164664 1 1 1
v 0.1999387 0.09119999 0.03198164 1 1 1
v 0.1379226 0 0.03439664 1 1 1
v 0.2288553 0 0.08689664 1 1 1
v 0.1322469 0.0432 -0.01715309 1 1 1
v 0.03222098 0.0432 -0.07490309 1 1 1
v 0.07023083 0.09119999 -0.02523809 1 1 1
v 0.1322469 9.023893E-17 -0.02765309 1 1 1
v 0.04131424 9.023893E-17 -0.08015309 1 1 1
v 0.1994452 0.09119999 -0.02435572 1 1 1
v 0.2075302 0.0432 -0.08637181 1 1 1
v 0.1497802 0.0432 0.01365413 1 1 1
v 0.1970302 1.804779E-16 -0.0863718 1 1 1
v 0.1445303 1.804779E-16 0.004560865 1 1 1
v 0.2379486 0.0675 -0.1442799 1 1 1
v 0.1379226 0.0675 -0.08652993 1 1 1
v 0.1999387 0.1425 -0.09461492 1 1 1
v 0.2288553 1.804779E-16 -0.1495299 1 1 1
v 0.1379226 1.804779E-16 -0.09702992 1 1 1
v 0.0567884 0.0432 -0.1288258 1 1 1
v 0.1568143 0.0432 -0.1865758 1 1 1
v 0.09479825 0.09119999 -0.1784908 1 1 1
v 0.06588167 0 -0.1235758 1 1 1
v 0.1568143 0 -0.1760758 1 1 1
v 0.1323851 0.0675 -0.2436541 1 1 1
v 0.232411 0.0675 -0.1859041 1 1 1
v 0.1944012 0.1425 -0.2355691 1 1 1
v 0.1323851 1.804779E-16 -0.2331541 1 1 1
v 0.2233178 1.804779E-16 -0.1806541 1 1 1
v 0.03638631 0.0675 -0.1941873 1 1 1
v 0.01238009 0.1425 -0.1364373 1 1 1
v 0.03638631 0.0675 -0.07868725 1 1 1
v 0.04547958 1.804779E-16 -0.1889372 1 1 1
v 0.04547958 1.804779E-16 -0.08393726 1 1 1
v 0.229031 0.1425 0.1364373 1 1 1
v 0.2050248 0.0675 0.07868725 1 1 1
v 0.2050248 0.0675 0.1941873 1 1 1
v 0.1959315 1.804779E-16 0.08393726 1 1 1
v 0.1959315 1.804779E-16 0.1889372 1 1 1

vn -0.4898641 -0.2003314 0.8484694
vn -0.4762006 -0.3048474 0.8248036
vn 0.4762006 0.3048474 -0.8248036
vn 0.4898641 0.2003314 -0.8484694
vn -0.4955238 -0.133509 0.8582724
vn 0.4955238 0.133509 -0.8582724
vn -0.4898641 -0.2003314 -0.8484694
vn -0.4762006 -0.3048474 -0.8248036
vn 0.4762006 0.3048474 0.8248036
vn 0.4898641 0.2003314 0.8484694
vn -0.4955238 -0.133509 -0.8582724
vn 0.4955238 0.133509 0.8582724
vn 0.4784821 -0.290206 0.8287554
vn 0.4471904 -0.4473064 0.7745565
vn -0.4471904 0.4473064 -0.7745565
vn -0.4784821 0.290206 -0.8287554
vn 0.4892783 -0.2059786 0.8474547
vn -0.4892783 0.2059786 -0.8474547
vn 0.4784821 -0.290206 -0.8287554
vn 0.4471904 -0.4473064 -0.7745565
vn -0.4471904 0.4473064 0.7745565
vn -0.4784821 0.290206 0.8287554
vn 0.4892783 -0.2059786 -0.8474547
vn -0.4892783 0.2059786 0.8474547
vn -0.8287554 -0.290206 -0.4784821
vn -0.7745565 -0.4473064 -0.4471904
vn 0.8287554 0.290206 0.4784821
vn 0.7745565 0.4473064 0.4471904
vn -0.8474547 -0.2059786 -0.4892782
vn 0.8474547 0.2059786 0.4892782
vn -0.4784821 -0.290206 0.8287554
vn -0.4471904 -0.4473064 0.7745565
vn 0.4471904 0.4473064 -0.7745565
vn 0.4784821 0.290206 -0.8287554
vn -0.4892783 -0.2059786 0.8474547
vn 0.4892783 0.2059786 -0.8474547
vn -0.8287553 -0.290206 -0.4784822
vn -0.7745565 -0.4473064 -0.4471904
vn 0.8287553 0.290206 0.4784822
vn 0.7745565 0.4473064 0.4471904
vn -0.8474547 -0.2059786 -0.4892783
vn 0.8474547 0.2059786 0.4892783
vn 0 -0.2003314 -0.9797282
vn 0 -0.3048474 -0.9524012
vn 0 0.3048474 0.9524012
vn 0 0.2003314 0.9797282
vn 0 -0.133509 -0.9910476
vn 0 0.133509 0.9910476
vn 0.7745565 -0.4473064 -0.4471904
vn 0.8287554 -0.290206 -0.4784821
vn -0.8287554 0.290206 0.4784821
vn -0.7745565 0.4473064 0.4471904
vn 0.8474547 -0.2059786 -0.4892782
vn -0.8474547 0.2059786 0.4892782
vn -0.8484694 -0.2003314 0.4898641
vn -0.8248037 -0.3048474 0.4762006
vn 0.8484694 0.2003314 -0.4898641
vn 0.8248037 0.3048474 -0.4762006
vn -0.8582724 -0.1335091 0.4955238
vn 0.8582724 0.1335091 -0.4955238
vn 0.8248036 -0.3048474 0.4762006
vn 0.8484694 -0.2003314 0.4898641
vn -0.8484694 0.2003314 -0.4898641
vn -0.8248036 0.3048474 -0.4762006
vn 0.8582724 -0.1335091 0.4955238
vn -0.8582724 0.1335091 -0.4955238
vn 0.9524012 -0.3048474 0
vn 0.9797282 -0.2003314 0
vn -0.9797282 0.2003314 0
vn -0.9524012 0.3048474 0
vn 0.9910476 -0.133509 0
vn -0.9910476 0.133509 0
vn 0.7745565 -0.4473064 0.4471904
vn 0.8287554 -0.290206 0.4784821
vn -0.8287554 0.290206 -0.4784821
vn -0.7745565 0.4473064 -0.4471904
vn 0.8474547 -0.2059786 0.4892782
vn -0.8474547 0.2059786 -0.4892782
vn 0.4898641 -0.2003314 0.8484694
vn 0.4762006 -0.3048474 0.8248036
vn -0.4762006 0.3048474 -0.8248036
vn -0.4898641 0.2003314 -0.8484694
vn 0.4955238 -0.133509 0.8582724
vn -0.4955238 0.133509 -0.8582724
vn -0.4784821 -0.290206 -0.8287554
vn -0.4471904 -0.4473064 -0.7745565
vn 0.4471904 0.4473064 0.7745565
vn 0.4784821 0.290206 0.8287554
vn -0.4892783 -0.2059786 -0.8474547
vn 0.4892783 0.2059786 0.8474547
vn 0.4898641 -0.2003314 -0.8484694
vn 0.4762006 -0.3048474 -0.8248036
vn -0.4762006 0.3048474 0.8248036
vn -0.4898641 0.2003314 0.8484694
vn 0.4955238 -0.133509 -0.8582724
vn -0.4955238 0.133509 0.8582724
vn -0.9797282 -0.2003314 0
vn -0.9524012 -0.3048474 0
vn 0.9797282 0.2003314 0
vn 0.9524012 0.3048474 0
vn -0.9910476 -0.133509 0
vn 0.9910476 0.133509 0

vt 0.09375 0.3431042
vt 0.09375 0.3855031
vt 0.09375 0.3049453
vt 0.09375 0.4039181
vt 0.09375 0.4162727
vt 0.09375 0.392799
vt 0.09375 0.3983676
vt 0.09375 0.3835572
vt 0.09375 0.4116969
vt 0.09375 0.397665
vt 0.09375 0.4269961
vt 0.09375 0.3712671
vt 0.09375 0.3746301
vt 0.09375 0.3735859
vt 0.09375 0.3755699
vt 0.09375 0.4018281
vt 0.09375 0.3995571
vt 0.09375 0.403872
vt 0.09375 0.3670239
vt 0.09375 0.3389865
vt 0.09375 0.3922575
vt 0.09375 0.3853024
vt 0.09375 0.3951405
vt 0.09375 0.3764481
vt 0.09375 0.4025374
vt 0.09375 0.3854086
vt 0.09375 0.3699927
vt 0.09375 0.3898547
vt 0.09375 0.3851925
vt 0.09375 0.3940506
vt 0.09375 0.4607977
vt 0.09375 0.3665518
vt 0.09375 0.2817305
vt 0.09375 0.4571885
vt 0.09375 0.3655308
vt 0.09375 0.2830389
vt 0.09375 0.32511
vt 0.09375 0.3763301
vt 0.09375 0.2790118
vt 0.09375 0.3520336
vt 0.09375 0.4128594
vt 0.09375 0.2972903
vt 0.09375 0.4386383
vt 0.09375 0.4716722
vt 0.09375 0.4089079
vt 0.09375 0.3490896
vt 0.09375 0.4097263
vt 0.09375 0.2945166
vt 0.09375 0.3695346
vt 0.09375 0.3590315
vt 0.09375 0.3789874
vt 0.09375 0.3810866
vt 0.09375 0.3333414
vt 0.09375 0.4240573
vt 0.09375 0.3790455
vt 0.09375 0.3493953
vt 0.09375 0.32271
vt 0.09375 0.3679086
vt 0.09375 0.3666082
vt 0.09375 0.369079
vt 0.09375 0.365392
vt 0.09375 0.3552602
vt 0.09375 0.3745106
vt 0.09375 0.3393457
vt 0.09375 0.4048893
vt 0.09375 0.2803563
vt 0.09375 0.4024285
vt 0.09375 0.3823767
vt 0.09375 0.4204752
vt 0.09375 0.4530425
vt 0.09375 0.4352308
vt 0.09375 0.4192002

usemtl colormap

f 3/2/2 2/1/1 1/1/1
f 1/1/4 2/1/4 3/2/3
f 1/1/1 5/3/5 4/3/5
f 5/3/5 1/1/1 2/1/1
f 4/3/6 5/3/6 1/1/4
f 2/1/4 1/1/4 5/3/6
f 8/5/8 7/4/7 6/4/7
f 6/4/10 7/4/10 8/5/9
f 6/4/7 10/6/11 9/6/11
f 10/6/11 6/4/7 7/4/7
f 9/6/12 10/6/12 6/4/10
f 7/4/10 6/4/10 10/6/12
f 13/8/14 12/7/13 11/7/13
f 11/7/16 12/7/16 13/8/15
f 11/7/13 15/9/17 14/9/17
f 15/9/17 11/7/13 12/7/13
f 14/9/18 15/9/18 11/7/16
f 12/7/16 11/7/16 15/9/18
f 18/11/20 17/10/19 16/10/19
f 16/10/22 17/10/22 18/11/21
f 16/10/19 20/12/23 19/12/23
f 20/12/23 16/10/19 17/10/19
f 19/12/24 20/12/24 16/10/22
f 17/10/22 16/10/22 20/12/24
f 23/13/25 22/14/26 21/13/25
f 21/13/27 22/14/28 23/13/27
f 24/15/29 23/13/25 21/13/25
f 23/13/25 24/15/29 25/15/29
f 21/13/27 23/13/27 24/15/30
f 25/15/30 24/15/30 23/13/27
f 28/17/32 27/16/31 26/16/31
f 26/16/34 27/16/34 28/17/33
f 26/16/31 30/18/35 29/18/35
f 30/18/35 26/16/31 27/16/31
f 29/18/36 30/18/36 26/16/34
f 27/16/34 26/16/34 30/18/36
f 33/19/37 32/20/38 31/19/37
f 31/19/39 32/20/40 33/19/39
f 34/21/41 33/19/37 31/19/37
f 33/19/37 34/21/41 35/21/41
f 31/19/39 33/19/39 34/21/42
f 35/21/42 34/21/42 33/19/39
f 38/23/44 37/22/43 36/22/43
f 36/22/46 37/22/46 38/23/45
f 36/22/43 40/24/47 39/24/47
f 40/24/47 36/22/43 37/22/43
f 39/24/48 40/24/48 36/22/46
f 37/22/46 36/22/46 40/24/48
f 43/26/50 42/26/50 41/25/49
f 41/25/52 42/26/51 43/26/51
f 43/26/50 44/27/53 42/26/50
f 44/27/53 43/26/50 45/27/53
f 42/26/51 44/27/54 43/26/51
f 45/27/54 43/26/51 44/27/54
f 48/28/55 47/29/56 46/28/55
f 46/28/57 47/29/58 48/28/57
f 49/30/59 48/28/55 46/28/55
f 48/28/55 49/30/59 50/30/59
f 46/28/57 48/28/57 49/30/60
f 50/30/60 49/30/60 48/28/57
f 53/32/62 52/32/62 51/31/61
f 51/31/64 52/32/63 53/32/63
f 52/32/62 55/33/65 54/33/65
f 55/33/65 52/32/62 53/32/62
f 54/33/66 55/33/66 52/32/63
f 53/32/63 52/32/63 55/33/66
f 58/35/68 57/35/68 56/34/67
f 56/34/70 57/35/69 58/35/69
f 58/35/68 59/36/71 57/35/68
f 59/36/71 58/35/68 60/36/71
f 57/35/69 59/36/72 58/35/69
f 60/36/72 58/35/69 59/36/72
f 63/38/8 62/37/7 61/37/7
f 61/37/10 62/37/10 63/38/9
f 61/37/7 65/39/11 64/39/11
f 65/39/11 61/37/7 62/37/7
f 64/39/12 65/39/12 61/37/10
f 62/37/10 61/37/10 65/39/12
f 68/40/25 67/41/26 66/40/25
f 66/40/27 67/41/28 68/40/27
f 69/42/29 68/40/25 66/40/25
f 68/40/25 69/42/29 70/42/29
f 66/40/27 68/40/27 69/42/30
f 70/42/30 69/42/30 68/40/27
f 73/44/14 72/43/13 71/43/13
f 71/43/16 72/43/16 73/44/15
f 71/43/13 75/45/17 74/45/17
f 75/45/17 71/43/13 72/43/13
f 74/45/18 75/45/18 71/43/16
f 72/43/16 71/43/16 75/45/18
f 78/47/2 77/46/1 76/46/1
f 76/46/4 77/46/4 78/47/3
f 76/46/1 80/48/5 79/48/5
f 80/48/5 76/46/1 77/46/1
f 79/48/6 80/48/6 76/46/4
f 77/46/4 76/46/4 80/48/6
f 83/50/20 82/49/19 81/49/19
f 81/49/22 82/49/22 83/50/21
f 81/49/19 85/51/23 84/51/23
f 85/51/23 81/49/19 82/49/19
f 84/51/24 85/51/24 81/49/22
f 82/49/22 81/49/22 85/51/24
f 88/53/32 87/52/31 86/52/31
f 86/52/34 87/52/34 88/53/33
f 86/52/31 90/54/35 89/54/35
f 90/54/35 86/52/31 87/52/31
f 89/54/36 90/54/36 86/52/34
f 87/52/34 86/52/34 90/54/36
f 93/56/74 92/56/74 91/55/73
f 91/55/76 92/56/75 93/56/75
f 93/56/74 94/57/77 92/56/74
f 94/57/77 93/56/74 95/57/77
f 92/56/75 94/57/78 93/56/75
f 95/57/78 93/56/75 94/57/78
f 98/59/80 97/58/79 96/58/79
f 96/58/82 97/58/82 98/59/81
f 96/58/79 100/60/83 99/60/83
f 100/60/83 96/58/79 97/58/79
f 99/60/84 100/60/84 96/58/82
f 97/58/82 96/58/82 100/60/84
f 103/62/86 102/61/85 101/61/85
f 101/61/88 102/61/88 103/62/87
f 101/61/85 105/63/89 104/63/89
f 105/63/89 101/61/85 102/61/85
f 104/63/90 105/63/90 101/61/88
f 102/61/88 101/61/88 105/63/90
f 108/65/92 107/64/91 106/64/91
f 106/64/94 107/64/94 108/65/93
f 106/64/91 110/66/95 109/66/95
f 110/66/95 106/64/91 107/64/91
f 109/66/96 110/66/96 106/64/94
f 107/64/94 106/64/94 110/66/96
f 113/67/97 112/68/98 111/67/97
f 111/67/99 112/68/100 113/67/99
f 114/69/101 113/67/97 111/67/97
f 113/67/97 114/69/101 115/69/101
f 111/67/99 113/67/99 114/69/102
f 115/69/102 114/69/102 113/67/99
f 118/71/68 117/71/68 116/70/67
f 116/70/70 117/71/69 118/71/69
f 118/71/68 119/72/71 117/71/68
f 119/72/71 118/71/68 120/72/71
f 117/71/69 119/72/72 118/71/69
f 120/72/72 118/71/69 119/72/72

g grass-large




usemtl colormap

f 3/2/2 2/1/1 1/1/1
f 1/1/4 2/1/4 3/2/3
f 1/1/1 5/3/5 4/3/5
f 5/3/5 1/1/1 2/1/1
f 4/3/6 5/3/6 1/1/4
f 2/1/4 1/1/4 5/3/6
f 8/5/8 7/4/7 6/4/7
f 6/4/10 7/4/10 8/5/9
f 6/4/7 10/6/11 9/6/11
f 10/6/11 6/4/7 7/4/7
f 9/6/12 10/6/12 6/4/10
f 7/4/10 6/4/10 10/6/12
f 13/8/14 12/7/13 11/7/13
f 11/7/16 12/7/16 13/8/15
f 11/7/13 15/9/17 14/9/17
f 15/9/17 11/7/13 12/7/13
f 14/9/18 15/9/18 11/7/16
f 12/7/16 11/7/16 15/9/18
f 18/11/20 17/10/19 16/10/19
f 16/10/22 17/10/22 18/11/21
f 16/10/19 20/12/23 19/12/23
f 20/12/23 16/10/19 17/10/19
f 19/12/24 20/12/24 16/10/22
f 17/10/22 16/10/22 20/12/24
f 23/13/25 22/14/26 21/13/25
f 21/13/27 22/14/28 23/13/27
f 24/15/29 23/13/25 21/13/25
f 23/13/25 24/15/29 25/15/29
f 21/13/27 23/13/27 24/15/30
f 25/15/30 24/15/30 23/13/27
f 28/17/32 27/16/31 26/16/31
f 26/16/34 27/16/34 28/17/33
f 26/16/31 30/18/35 29/18/35
f 30/18/35 26/16/31 27/16/31
f 29/18/36 30/18/36 26/16/34
f 27/16/34 26/16/34 30/18/36
f 33/19/37 32/20/38 31/19/37
f 31/19/39 32/20/40 33/19/39
f 34/21/41 33/19/37 31/19/37
f 33/19/37 34/21/41 35/21/41
f 31/19/39 33/19/39 34/21/42
f 35/21/42 34/21/42 33/19/39
f 38/23/44 37/22/43 36/22/43
f 36/22/46 37/22/46 38/23/45
f 36/22/43 40/24/47 39/24/47
f 40/24/47 36/22/43 37/22/43
f 39/24/48 40/24/48 36/22/46
f 37/22/46 36/22/46 40/24/48
f 43/26/50 42/26/50 41/25/49
f 41/25/52 42/26/51 43/26/51
f 43/26/50 44/27/53 42/26/50
f 44/27/53 43/26/50 45/27/53
f 42/26/51 44/27/54 43/26/51
f 45/27/54 43/26/51 44/27/54
f 48/28/55 47/29/56 46/28/55
f 46/28/57 47/29/58 48/28/57
f 49/30/59 48/28/55 46/28/55
f 48/28/55 49/30/59 50/30/59
f 46/28/57 48/28/57 49/30/60
f 50/30/60 49/30/60 48/28/57
f 53/32/62 52/32/62 51/31/61
f 51/31/64 52/32/63 53/32/63
f 52/32/62 55/33/65 54/33/65
f 55/33/65 52/32/62 53/32/62
f 54/33/66 55/33/66 52/32/63
f 53/32/63 52/32/63 55/33/66
f 58/35/68 57/35/68 56/34/67
f 56/34/70 57/35/69 58/35/69
f 58/35/68 59/36/71 57/35/68
f 59/36/71 58/35/68 60/36/71
f 57/35/69 59/36/72 58/35/69
f 60/36/72 58/35/69 59/36/72
f 63/38/8 62/37/7 61/37/7
f 61/37/10 62/37/10 63/38/9
f 61/37/7 65/39/11 64/39/11
f 65/39/11 61/37/7 62/37/7
f 64/39/12 65/39/12 61/37/10
f 62/37/10 61/37/10 65/39/12
f 68/40/25 67/41/26 66/40/25
f 66/40/27 67/41/28 68/40/27
f 69/42/29 68/40/25 66/40/25
f 68/40/25 69/42/29 70/42/29
f 66/40/27 68/40/27 69/42/30
f 70/42/30 69/42/30 68/40/27
f 73/44/14 72/43/13 71/43/13
f 71/43/16 72/43/16 73/44/15
f 71/43/13 75/45/17 74/45/17
f 75/45/17 71/43/13 72/43/13
f 74/45/18 75/45/18 71/43/16
f 72/43/16 71/43/16 75/45/18
f 78/47/2 77/46/1 76/46/1
f 76/46/4 77/46/4 78/47/3
f 76/46/1 80/48/5 79/48/5
f 80/48/5 76/46/1 77/46/1
f 79/48/6 80/48/6 76/46/4
f 77/46/4 76/46/4 80/48/6
f 83/50/20 82/49/19 81/49/19
f 81/49/22 82/49/22 83/50/21
f 81/49/19 85/51/23 84/51/23
f 85/51/23 81/49/19 82/49/19
f 84/51/24 85/51/24 81/49/22
f 82/49/22 81/49/22 85/51/24
f 88/53/32 87/52/31 86/52/31
f 86/52/34 87/52/34 88/53/33
f 86/52/31 90/54/35 89/54/35
f 90/54/35 86/52/31 87/52/31
f 89/54/36 90/54/36 86/52/34
f 87/52/34 86/52/34 90/54/36
f 93/56/74 92/56/74 91/55/73
f 91/55/76 92/56/75 93/56/75
f 93/56/74 94/57/77 92/56/74
f 94/57/77 93/56/74 95/57/77
f 92/56/75 94/57/78 93/56/75
f 95/57/78 93/56/75 94/57/78
f 98/59/80 97/58/79 96/58/79
f 96/58/82 97/58/82 98/59/81
f 96/58/79 100/60/83 99/60/83
f 100/60/83 96/58/79 97/58/79
f 99/60/84 100/60/84 96/58/82
f 97/58/82 96/58/82 100/60/84
f 103/62/86 102/61/85 101/61/85
f 101/61/88 102/61/88 103/62/87
f 101/61/85 105/63/89 104/63/89
f 105/63/89 101/61/85 102/61/85
f 104/63/90 105/63/90 101/61/88
f 102/61/88 101/61/88 105/63/90
f 108/65/92 107/64/91 106/64/91
f 106/64/94 107/64/94 108/65/93
f 106/64/91 110/66/95 109/66/95
f 110/66/95 106/64/91 107/64/91
f 109/66/96 110/66/96 106/64/94
f 107/64/94 106/64/94 110/66/96
f 113/67/97 112/68/98 111/67/97
f 111/67/99 112/68/100 113/67/99
f 114/69/101 113/67/97 111/67/97
f 113/67/97 114/69/101 115/69/101
f 111/67/99 113/67/99 114/69/102
f 115/69/102 114/69/102 113/67/99
f 118/71/68 117/71/68 116/70/67
f 116/70/70 117/71/69 118/71/69
f 118/71/68 119/72/71 117/71/68
f 119/72/71 118/71/68 120/72/71
f 117/71/69 119/72/72 118/71/69
f 120/72/72 118/71/69 119/72/72

