# Created by Kenney (www.kenney.nl)

mtllib grass.mtl

g grass

v 0.01721707 0.0432 -0.09110336 1 1 1
v 0.117243 0.0432 -0.03335336 1 1 1
v 0.07923314 0.09119999 -0.08301836 1 1 1
v 0.01721707 0 -0.08060335 1 1 1
v 0.1081497 0 -0.02810336 1 1 1
v 0.1083255 0.1425 0.02143725 1 1 1
v 0.08431925 0.0675 -0.03631274 1 1 1
v 0.08431925 0.0675 0.07918725 1 1 1
v 0.07522599 1.804779E-16 -0.03106275 1 1 1
v 0.07522599 1.804779E-16 0.07393725 1 1 1
v 0.06391717 0.0432 0.01382578 1 1 1
v -0.03610876 0.0432 0.07157578 1 1 1
v 0.02590731 0.09119999 0.06349078 1 1 1
v 0.05482391 0 0.008575782 1 1 1
v -0.03610876 0 0.06107578 1 1 1
v -0.02907469 0.0432 -0.1286541 1 1 1
v -0.07873969 0.09119999 -0.09064428 1 1 1
v -0.08682469 0.0432 -0.0286282 1 1 1
v -0.02382469 1.804779E-16 -0.1195609 1 1 1
v -0.07632469 1.804779E-16 -0.0286282 1 1 1
v -0.117243 0.0675 0.02927992 1 1 1
v -0.01721707 0.0675 -0.02847008 1 1 1
v -0.07923314 0.1425 -0.02038508 1 1 1
v -0.1081497 1.804779E-16 0.03452992 1 1 1
v -0.01721707 1.804779E-16 -0.01797008 1 1 1
v -0.01167955 0.0675 0.1286541 1 1 1
v -0.1117055 0.0675 0.07090413 1 1 1
v -0.07369563 0.1425 0.1205691 1 1 1
v -0.01167955 1.804779E-16 0.1181541 1 1 1
v -0.1026122 1.804779E-16 0.06565413 1 1 1

vn 0.4784821 -0.290206 -0.8287554
vn 0.4471904 -0.4473064 -0.7745565
vn -0.4471904 0.4473064 0.7745565
vn -0.4784821 0.290206 0.8287554
vn 0.4892783 -0.2059786 -0.8474547
vn -0.4892783 0.2059786 0.8474547
vn 0.9524012 -0.3048474 0
vn 0.9797282 -0.2003314 0
vn -0.9797282 0.2003314 0
vn -0.9524012 0.3048474 0
vn 0.9910476 -0.133509 0
vn -0.9910476 0.133509 0
vn 0.4784821 -0.290206 0.8287554
vn 0.4471904 -0.4473064 0.7745565
vn -0.4471904 0.4473064 -0.7745565
vn -0.4784821 0.290206 -0.8287554
vn 0.4892783 -0.2059786 0.8474547
vn -0.4892783 0.2059786 -0.8474547
vn -0.8287554 -0.290206 -0.4784821
vn -0.7745565 -0.4473064 -0.4471904
vn 0.8287554 0.290206 0.4784821
vn 0.7745565 0.4473064 0.4471904
vn -0.8474547 -0.2059786 -0.4892782
vn 0.8474547 0.2059786 0.4892782
vn -0.4898641 -0.2003314 -0.8484694
vn -0.4762006 -0.3048474 -0.8248036
vn 0.4762006 0.3048474 0.8248036
vn 0.4898641 0.2003314 0.8484694
vn -0.4955238 -0.133509 -0.8582724
vn 0.4955238 0.133509 0.8582724
vn -0.4898641 -0.2003314 0.8484694
vn -0.4762006 -0.3048474 0.8248036
vn 0.4762006 0.3048474 -0.8248036
vn 0.4898641 0.2003314 -0.8484694
vn -0.4955238 -0.133509 0.8582724
vn 0.4955238 0.133509 -0.8582724

vt 0.09375 0.3700276
vt 0.09375 0.4102259
vt 0.09375 0.3338491
vt 0.09375 0.3836406
vt 0.09375 0.3609864
vt 0.09375 0.3405975
vt 0.09375 0.4070147
vt 0.09375 0.3960421
vt 0.09375 0.41689
vt 0.09375 0.3532392
vt 0.09375 0.4304284
vt 0.09375 0.283769
vt 0.09375 0.3428042
vt 0.09375 0.3758138
vt 0.09375 0.3130956
vt 0.09375 0.3687216
vt 0.09375 0.4304405
vt 0.09375 0.3131747

usemtl colormap

f 3/2/2 2/1/1 1/1/1
f 1/1/4 2/1/4 3/2/3
f 1/1/1 5/3/5 4/3/5
f 5/3/5 1/1/1 2/1/1
f 4/3/6 5/3/6 1/1/4
f 2/1/4 1/1/4 5/3/6
f 8/5/8 7/5/8 6/4/7
f 6/4/10 7/5/9 8/5/9
f 8/5/8 9/6/11 7/5/8
f 9/6/11 8/5/8 10/6/11
f 7/5/9 9/6/12 8/5/9
f 10/6/12 8/5/9 9/6/12
f 13/8/14 12/7/13 11/7/13
f 11/7/16 12/7/16 13/8/15
f 11/7/13 15/9/17 14/9/17
f 15/9/17 11/7/13 12/7/13
f 14/9/18 15/9/18 11/7/16
f 12/7/16 11/7/16 15/9/18
f 18/10/19 17/11/20 16/10/19
f 16/10/21 17/11/22 18/10/21
f 19/12/23 18/10/19 16/10/19
f 18/10/19 19/12/23 20/12/23
f 16/10/21 18/10/21 19/12/24
f 20/12/24 19/12/24 18/10/21
f 23/14/26 22/13/25 21/13/25
f 21/13/28 22/13/28 23/14/27
f 21/13/25 25/15/29 24/15/29
f 25/15/29 21/13/25 22/13/25
f 24/15/30 25/15/30 21/13/28
f 22/13/28 21/13/28 25/15/30
f 28/17/32 27/16/31 26/16/31
f 26/16/34 27/16/34 28/17/33
f 26/16/31 30/18/35 29/18/35
f 30/18/35 26/16/31 27/16/31
f 29/18/36 30/18/36 26/16/34
f 27/16/34 26/16/34 30/18/36

g grass




usemtl colormap

f 3/2/2 2/1/1 1/1/1
f 1/1/4 2/1/4 3/2/3
f 1/1/1 5/3/5 4/3/5
f 5/3/5 1/1/1 2/1/1
f 4/3/6 5/3/6 1/1/4
f 2/1/4 1/1/4 5/3/6
f 8/5/8 7/5/8 6/4/7
f 6/4/10 7/5/9 8/5/9
f 8/5/8 9/6/11 7/5/8
f 9/6/11 8/5/8 10/6/11
f 7/5/9 9/6/12 8/5/9
f 10/6/12 8/5/9 9/6/12
f 13/8/14 12/7/13 11/7/13
f 11/7/16 12/7/16 13/8/15
f 11/7/13 15/9/17 14/9/17
f 15/9/17 11/7/13 12/7/13
f 14/9/18 15/9/18 11/7/16
f 12/7/16 11/7/16 15/9/18
f 18/10/19 17/11/20 16/10/19
f 16/10/21 17/11/22 18/10/21
f 19/12/23 18/10/19 16/10/19
f 18/10/19 19/12/23 20/12/23
f 16/10/21 18/10/21 19/12/24
f 20/12/24 19/12/24 18/10/21
f 23/14/26 22/13/25 21/13/25
f 21/13/28 22/13/28 23/14/27
f 21/13/25 25/15/29 24/15/29
f 25/15/29 21/13/25 22/13/25
f 24/15/30 25/15/30 21/13/28
f 22/13/28 21/13/28 25/15/30
f 28/17/32 27/16/31 26/16/31
f 26/16/34 27/16/34 28/17/33
f 26/16/31 30/18/35 29/18/35
f 30/18/35 26/16/31 27/16/31
f 29/18/36 30/18/36 26/16/34
f 27/16/34 26/16/34 30/18/36

