# Created by Kenney (www.kenney.nl)

mtllib metal-panel-screws-half.mtl

g metal-panel-screws-half

v 0.075 1.054893E-13 1.508795E-13 1 1 1
v 0.1 1.589108E-13 -0.025 1 1 1
v 0.075 0.25 -1.508795E-13 1 1 1
v 0.1 0.25 -0.025 1 1 1
v 0.25 0.25 -0.025 1 1 1
v 0.25 0.25 -5.991865E-14 1 1 1
v 0.225 0.25 -0.025 1 1 1
v 0.2353553 0.25 -5.991865E-14 1 1 1
v 0.2103553 0.25 0.025 1 1 1
v 0.2 0.25 -1.508795E-13 1 1 1
v 0.1646447 0.25 0.025 1 1 1
v 0.175 0.25 -1.508795E-13 1 1 1
v 0.15 0.25 -0.025 1 1 1
v 0.1396447 0.25 3.320792E-14 1 1 1
v 0.1103553 0.25 3.320792E-14 1 1 1
v 0.08535534 0.25 0.025 1 1 1
v 0.03964466 0.25 0.025 1 1 1
v 0.05 0.25 -1.508795E-13 1 1 1
v 0.025 0.25 -0.025 1 1 1
v 0.01464466 0.25 -1.667615E-13 1 1 1
v -0.025 0.25 -0.025 1 1 1
v -0.01464466 0.25 -5.991865E-14 1 1 1
v -0.03964466 0.25 0.025 1 1 1
v -0.05 0.25 -1.508795E-13 1 1 1
v -0.08535534 0.25 0.025 1 1 1
v -0.075 0.25 -1.508795E-13 1 1 1
v -0.1 0.25 -0.025 1 1 1
v -0.1103553 0.25 3.320792E-14 1 1 1
v -0.15 0.25 -0.025 1 1 1
v -0.1396447 0.25 3.320792E-14 1 1 1
v -0.1646447 0.25 0.025 1 1 1
v -0.175 0.25 -1.508795E-13 1 1 1
v -0.2103553 0.25 0.025 1 1 1
v -0.2 0.25 -1.508795E-13 1 1 1
v -0.225 0.25 -0.025 1 1 1
v -0.2353553 0.25 -1.667615E-13 1 1 1
v -0.25 0.25 -0.025 1 1 1
v -0.25 0.25 -1.667615E-13 1 1 1
v 0.025 2.108884E-13 -0.025 1 1 1
v 0.05 2.108884E-13 1.508795E-13 1 1 1
v -0.25 1.589108E-13 -0.025 1 1 1
v -0.225 1.589108E-13 -0.025 1 1 1
v -0.25 1.589108E-13 1.508795E-13 1 1 1
v -0.2353553 1.502478E-13 1.508795E-13 1 1 1
v -0.15 1.040455E-13 -0.025 1 1 1
v -0.1 1.589108E-13 -0.025 1 1 1
v 0.1396447 1.935625E-13 1.508795E-13 1 1 1
v 0.1646447 2.050228E-13 0.025 1 1 1
v -0.1103553 1.386972E-13 1.508795E-13 1 1 1
v -0.1396447 8.671961E-14 1.508795E-13 1 1 1
v 0.2353553 1.935625E-13 1.508795E-13 1 1 1
v 0.2103553 1.299441E-13 0.025 1 1 1
v 0.15 2.108884E-13 -0.025 1 1 1
v 0.2 1.589108E-13 1.508795E-13 1 1 1
v 0.175 2.123322E-13 1.508795E-13 1 1 1
v 0.1103553 1.386972E-13 1.508795E-13 1 1 1
v 0.08535534 5.342144E-14 0.025 1 1 1
v 0.01464466 2.036693E-13 1.508795E-13 1 1 1
v -0.01464466 1.401411E-13 1.508795E-13 1 1 1
v 0.25 2.657536E-13 -0.025 1 1 1
v 0.25 2.397648E-13 1.508795E-13 1 1 1
v 0.03964466 2.050228E-13 0.025 1 1 1
v -0.1646447 0 0.025 1 1 1
v 0.225 2.123322E-13 -0.025 1 1 1
v -0.2 1.589108E-13 1.508795E-13 1 1 1
v -0.03964466 7.652261E-14 0.025 1 1 1
v -0.2103553 1.501576E-13 0.025 1 1 1
v -0.025 1.589108E-13 -0.025 1 1 1
v -0.05 1.069331E-13 1.508795E-13 1 1 1
v -0.075 1.589108E-13 1.508795E-13 1 1 1
v -0.08535534 1.516014E-13 0.025 1 1 1
v -0.175 5.206786E-14 1.508795E-13 1 1 1
v -0.1875 0.1690641 0.0375 1 1 1
v -0.2007582 0.1823223 0.0375 1 1 1
v -0.1742418 0.1823223 0.0375 1 1 1
v -0.1875 0.1955806 0.0375 1 1 1
v 0.1875 0.2 0.025 1 1 1
v 0.1875 0.1955806 0.0375 1 1 1
v 0.1698223 0.1823223 0.025 1 1 1
v 0.1742418 0.1823223 0.0375 1 1 1
v -0.2051777 0.06767767 0.025 1 1 1
v -0.2007582 0.06767767 0.0375 1 1 1
v -0.1875 0.05 0.025 1 1 1
v -0.1875 0.05441942 0.0375 1 1 1
v 0.1875 0.1690641 0.0375 1 1 1
v 0.2007582 0.1823223 0.0375 1 1 1
v -0.1698223 0.1823223 0.025 1 1 1
v -0.1875 0.1646447 0.025 1 1 1
v -0.1698223 0.06767767 0.025 1 1 1
v -0.1742418 0.06767767 0.0375 1 1 1
v 0.1875 0.08535534 0.025 1 1 1
v 0.2051777 0.06767767 0.025 1 1 1
v 0.1875 0.08093593 0.0375 1 1 1
v 0.2007582 0.06767767 0.0375 1 1 1
v 0.1698223 0.06767767 0.025 1 1 1
v 0.1742418 0.06767767 0.0375 1 1 1
v 0.1875 0.05441942 0.0375 1 1 1
v 0.1875 0.05 0.025 1 1 1
v -0.1875 0.08535534 0.025 1 1 1
v -0.1875 0.08093593 0.0375 1 1 1
v -0.2051777 0.1823223 0.025 1 1 1
v -0.1875 0.2 0.025 1 1 1
v 0.1875 0.1646447 0.025 1 1 1
v 0.2051777 0.1823223 0.025 1 1 1

vn -0.3826834 0 -0.9238795
vn 0.3826834 0 0.9238795
vn 0 1 0
vn 0 -1 0
vn 0.3826834 0 -0.9238795
vn -0.3826834 0 0.9238795
vn 0 0 -1
vn 0 0 1
vn -1 0 0
vn 1 0 0
vn 0 0.9428091 0.3333334
vn -0.9428091 0 0.3333334
vn 0 -0.9428091 0.3333334
vn 0.9428091 0 0.3333334

vt 0.34375 0.025
vt 0.34375 0.225
vt 0.46875 0.275
vt 0.46875 0.475
vt 0.21875 0.1837521
vt 0.21875 0.2014298
vt 0.21875 0.2191074
vt 0.21875 0.225
vt 0.21875 0.04857023
vt 0.21875 0.025
vt 0.21875 0.03089256
vt 0.21875 0.1778595
vt 0.21875 0.07214045
vt 0.21875 0.0662479

usemtl colormap

f 3/2/1 2/1/1 1/1/1
f 2/1/1 3/2/1 4/2/1
f 1/1/2 2/1/2 3/2/2
f 4/2/2 3/2/2 2/1/2
f 7/2/3 6/2/3 5/2/3
f 6/2/3 7/2/3 8/2/3
f 8/2/3 7/2/3 9/2/3
f 9/2/3 7/2/3 10/2/3
f 9/2/3 10/2/3 11/2/3
f 11/2/3 10/2/3 12/2/3
f 11/2/3 12/2/3 13/2/3
f 11/2/3 13/2/3 14/2/3
f 14/2/3 13/2/3 4/2/3
f 14/2/3 4/2/3 15/2/3
f 15/2/3 4/2/3 16/2/3
f 16/2/3 4/2/3 3/2/3
f 16/2/3 3/2/3 17/2/3
f 17/2/3 3/2/3 18/2/3
f 17/2/3 18/2/3 19/2/3
f 17/2/3 19/2/3 20/2/3
f 20/2/3 19/2/3 21/2/3
f 20/2/3 21/2/3 22/2/3
f 22/2/3 21/2/3 23/2/3
f 23/2/3 21/2/3 24/2/3
f 23/2/3 24/2/3 25/2/3
f 25/2/3 24/2/3 26/2/3
f 25/2/3 26/2/3 27/2/3
f 25/2/3 27/2/3 28/2/3
f 28/2/3 27/2/3 29/2/3
f 28/2/3 29/2/3 30/2/3
f 30/2/3 29/2/3 31/2/3
f 31/2/3 29/2/3 32/2/3
f 31/2/3 32/2/3 33/2/3
f 33/2/3 32/2/3 34/2/3
f 33/2/3 34/2/3 35/2/3
f 33/2/3 35/2/3 36/2/3
f 36/2/3 35/2/3 37/2/3
f 36/2/3 37/2/3 38/2/3
f 5/2/4 6/2/4 7/2/4
f 8/2/4 7/2/4 6/2/4
f 9/2/4 7/2/4 8/2/4
f 10/2/4 7/2/4 9/2/4
f 11/2/4 10/2/4 9/2/4
f 12/2/4 10/2/4 11/2/4
f 13/2/4 12/2/4 11/2/4
f 14/2/4 13/2/4 11/2/4
f 4/2/4 13/2/4 14/2/4
f 15/2/4 4/2/4 14/2/4
f 16/2/4 4/2/4 15/2/4
f 3/2/4 4/2/4 16/2/4
f 17/2/4 3/2/4 16/2/4
f 18/2/4 3/2/4 17/2/4
f 19/2/4 18/2/4 17/2/4
f 20/2/4 19/2/4 17/2/4
f 21/2/4 19/2/4 20/2/4
f 22/2/4 21/2/4 20/2/4
f 23/2/4 21/2/4 22/2/4
f 24/2/4 21/2/4 23/2/4
f 25/2/4 24/2/4 23/2/4
f 26/2/4 24/2/4 25/2/4
f 27/2/4 26/2/4 25/2/4
f 28/2/4 27/2/4 25/2/4
f 29/2/4 27/2/4 28/2/4
f 30/2/4 29/2/4 28/2/4
f 31/2/4 29/2/4 30/2/4
f 32/2/4 29/2/4 31/2/4
f 33/2/4 32/2/4 31/2/4
f 34/2/4 32/2/4 33/2/4
f 35/2/4 34/2/4 33/2/4
f 36/2/4 35/2/4 33/2/4
f 37/2/4 35/2/4 36/2/4
f 38/2/4 37/2/4 36/2/4
f 18/2/5 39/1/5 19/2/5
f 39/1/5 18/2/5 40/1/5
f 19/2/6 39/1/6 18/2/6
f 40/1/6 18/2/6 39/1/6
f 37/2/7 42/1/5 41/1/7
f 42/1/5 37/2/7 35/2/5
f 41/1/8 42/1/6 37/2/8
f 35/2/6 37/2/8 42/1/6
f 44/1/5 43/1/7 36/2/5
f 38/2/7 36/2/5 43/1/7
f 29/2/1 46/1/5 45/1/1
f 46/1/5 29/2/1 27/2/5
f 45/1/2 46/1/6 29/2/2
f 27/2/6 29/2/2 46/1/6
f 14/2/5 11/2/5 47/1/5
f 48/1/5 47/1/5 11/2/5
f 50/1/1 30/2/1 49/1/5
f 28/2/5 49/1/5 30/2/1
f 41/1/9 38/2/9 37/2/9
f 38/2/9 41/1/9 43/1/9
f 37/2/10 38/2/10 41/1/10
f 43/1/10 41/1/10 38/2/10
f 8/2/1 51/1/1 9/2/1
f 52/1/1 9/2/1 51/1/1
f 4/2/1 53/1/5 2/1/1
f 53/1/5 4/2/1 13/2/5
f 2/1/2 53/1/6 4/2/2
f 13/2/6 4/2/2 53/1/6
f 55/1/5 10/2/1 54/1/1
f 10/2/1 55/1/5 12/2/5
f 54/1/2 10/2/2 55/1/6
f 12/2/6 55/1/6 10/2/2
f 57/1/1 16/2/1 56/1/1
f 15/2/1 56/1/1 16/2/1
f 59/1/1 22/2/1 58/1/5
f 20/2/5 58/1/5 22/2/1
f 6/2/10 60/1/10 5/2/10
f 60/1/10 6/2/10 61/1/10
f 5/2/9 60/1/9 6/2/9
f 61/1/9 6/2/9 60/1/9
f 12/2/5 53/1/5 13/2/5
f 53/1/5 12/2/5 55/1/5
f 13/2/6 53/1/6 12/2/6
f 55/1/6 12/2/6 53/1/6
f 57/1/1 62/1/5 16/2/1
f 17/2/5 16/2/1 62/1/5
f 52/1/1 48/1/5 9/2/1
f 11/2/5 9/2/1 48/1/5
f 63/1/1 31/2/1 50/1/1
f 30/2/1 50/1/1 31/2/1
f 64/1/1 10/2/1 7/2/1
f 10/2/1 64/1/1 54/1/1
f 7/2/2 10/2/2 64/1/2
f 54/1/2 64/1/2 10/2/2
f 34/2/5 42/1/5 35/2/5
f 42/1/5 34/2/5 65/1/5
f 35/2/6 42/1/6 34/2/6
f 65/1/6 34/2/6 42/1/6
f 51/1/1 8/2/1 61/1/7
f 6/2/7 61/1/7 8/2/1
f 22/2/1 59/1/1 23/2/1
f 66/1/1 23/2/1 59/1/1
f 67/1/5 44/1/5 33/2/5
f 36/2/5 33/2/5 44/1/5
f 68/1/1 24/2/1 21/2/1
f 24/2/1 68/1/1 69/1/1
f 21/2/2 24/2/2 68/1/2
f 69/1/2 68/1/2 24/2/2
f 70/1/5 24/2/1 69/1/1
f 24/2/1 70/1/5 26/2/5
f 69/1/2 24/2/2 70/1/6
f 26/2/6 70/1/6 24/2/2
f 61/1/4 64/1/4 60/1/4
f 64/1/4 61/1/4 51/1/4
f 64/1/4 51/1/4 52/1/4
f 64/1/4 52/1/4 54/1/4
f 54/1/4 52/1/4 48/1/4
f 54/1/4 48/1/4 55/1/4
f 55/1/4 48/1/4 53/1/4
f 53/1/4 48/1/4 47/1/4
f 53/1/4 47/1/4 2/1/4
f 2/1/4 47/1/4 56/1/4
f 2/1/4 56/1/4 57/1/4
f 2/1/4 57/1/4 1/1/4
f 1/1/4 57/1/4 62/1/4
f 1/1/4 62/1/4 40/1/4
f 40/1/4 62/1/4 39/1/4
f 39/1/4 62/1/4 58/1/4
f 39/1/4 58/1/4 68/1/4
f 68/1/4 58/1/4 59/1/4
f 68/1/4 59/1/4 66/1/4
f 68/1/4 66/1/4 69/1/4
f 69/1/4 66/1/4 71/1/4
f 69/1/4 71/1/4 70/1/4
f 70/1/4 71/1/4 46/1/4
f 46/1/4 71/1/4 49/1/4
f 46/1/4 49/1/4 45/1/4
f 45/1/4 49/1/4 50/1/4
f 45/1/4 50/1/4 63/1/4
f 45/1/4 63/1/4 72/1/4
f 72/1/4 63/1/4 67/1/4
f 72/1/4 67/1/4 65/1/4
f 65/1/4 67/1/4 42/1/4
f 42/1/4 67/1/4 44/1/4
f 42/1/4 44/1/4 41/1/4
f 41/1/4 44/1/4 43/1/4
f 60/1/3 64/1/3 61/1/3
f 51/1/3 61/1/3 64/1/3
f 52/1/3 51/1/3 64/1/3
f 54/1/3 52/1/3 64/1/3
f 48/1/3 52/1/3 54/1/3
f 55/1/3 48/1/3 54/1/3
f 53/1/3 48/1/3 55/1/3
f 47/1/3 48/1/3 53/1/3
f 2/1/3 47/1/3 53/1/3
f 56/1/3 47/1/3 2/1/3
f 57/1/3 56/1/3 2/1/3
f 1/1/3 57/1/3 2/1/3
f 62/1/3 57/1/3 1/1/3
f 40/1/3 62/1/3 1/1/3
f 39/1/3 62/1/3 40/1/3
f 58/1/3 62/1/3 39/1/3
f 68/1/3 58/1/3 39/1/3
f 59/1/3 58/1/3 68/1/3
f 66/1/3 59/1/3 68/1/3
f 69/1/3 66/1/3 68/1/3
f 71/1/3 66/1/3 69/1/3
f 70/1/3 71/1/3 69/1/3
f 46/1/3 71/1/3 70/1/3
f 49/1/3 71/1/3 46/1/3
f 45/1/3 49/1/3 46/1/3
f 50/1/3 49/1/3 45/1/3
f 63/1/3 50/1/3 45/1/3
f 72/1/3 63/1/3 45/1/3
f 67/1/3 63/1/3 72/1/3
f 65/1/3 67/1/3 72/1/3
f 42/1/3 67/1/3 65/1/3
f 44/1/3 67/1/3 42/1/3
f 41/1/3 44/1/3 42/1/3
f 43/1/3 44/1/3 41/1/3
f 58/1/5 20/2/5 62/1/5
f 17/2/5 62/1/5 20/2/5
f 40/1/5 3/2/1 1/1/1
f 3/2/1 40/1/5 18/2/5
f 1/1/2 3/2/2 40/1/6
f 18/2/6 40/1/6 3/2/2
f 21/2/1 39/1/5 68/1/1
f 39/1/5 21/2/1 19/2/5
f 68/1/2 39/1/6 21/2/2
f 19/2/6 21/2/2 39/1/6
f 28/2/5 25/2/5 49/1/5
f 71/1/5 49/1/5 25/2/5
f 32/2/1 45/1/1 72/1/1
f 45/1/1 32/2/1 29/2/1
f 72/1/2 45/1/2 32/2/2
f 29/2/2 32/2/2 45/1/2
f 7/2/1 60/1/7 64/1/1
f 60/1/7 7/2/1 5/2/7
f 64/1/2 60/1/8 7/2/2
f 5/2/8 7/2/2 60/1/8
f 63/1/1 67/1/5 31/2/1
f 33/2/5 31/2/1 67/1/5
f 26/2/5 46/1/5 27/2/5
f 46/1/5 26/2/5 70/1/5
f 27/2/6 46/1/6 26/2/6
f 70/1/6 26/2/6 46/1/6
f 66/1/1 71/1/5 23/2/1
f 25/2/5 23/2/1 71/1/5
f 65/1/5 32/2/1 72/1/1
f 32/2/1 65/1/5 34/2/5
f 72/1/2 32/2/2 65/1/6
f 34/2/6 65/1/6 32/2/2
f 56/1/1 15/2/1 47/1/5
f 14/2/5 47/1/5 15/2/1
f 36/4/6 43/3/8 44/3/6
f 43/3/8 36/4/6 38/4/8
f 47/3/6 11/4/6 14/4/6
f 11/4/6 47/3/6 48/3/6
f 49/3/6 30/4/2 50/3/2
f 30/4/2 49/3/6 28/4/6
f 9/4/2 51/3/2 8/4/2
f 51/3/2 9/4/2 52/3/2
f 56/3/2 16/4/2 57/3/2
f 16/4/2 56/3/2 15/4/2
f 58/3/6 22/4/2 59/3/2
f 22/4/2 58/3/6 20/4/6
f 16/4/2 62/3/6 57/3/2
f 62/3/6 16/4/2 17/4/6
f 9/4/2 48/3/6 52/3/2
f 48/3/6 9/4/2 11/4/6
f 50/3/2 31/4/2 63/3/2
f 31/4/2 50/3/2 30/4/2
f 61/3/8 8/4/2 51/3/2
f 8/4/2 61/3/8 6/4/8
f 23/4/2 59/3/2 22/4/2
f 59/3/2 23/4/2 66/3/2
f 33/4/6 44/3/6 67/3/6
f 44/3/6 33/4/6 36/4/6
f 62/3/6 20/4/6 58/3/6
f 20/4/6 62/3/6 17/4/6
f 49/3/6 25/4/6 28/4/6
f 25/4/6 49/3/6 71/3/6
f 31/4/2 67/3/6 63/3/2
f 67/3/6 31/4/2 33/4/6
f 23/4/2 71/3/6 66/3/2
f 71/3/6 23/4/2 25/4/6
f 47/3/6 15/4/2 56/3/2
f 15/4/2 47/3/6 14/4/6
f 75/6/8 74/6/8 73/5/8
f 74/6/8 75/6/8 76/7/8
f 79/6/12 78/7/11 77/8/11
f 78/7/11 79/6/12 80/6/12
f 83/10/13 82/9/12 81/9/12
f 82/9/12 83/10/13 84/11/13
f 86/6/8 80/6/8 85/5/8
f 80/6/8 86/6/8 78/7/8
f 75/6/14 88/12/13 87/6/14
f 88/12/13 75/6/14 73/5/13
f 90/9/14 83/10/13 89/9/14
f 83/10/13 90/9/14 84/11/13
f 93/14/11 92/9/14 91/13/11
f 92/9/14 93/14/11 94/9/14
f 95/9/12 93/14/11 91/13/11
f 93/14/11 95/9/12 96/9/12
f 94/9/8 96/9/8 97/11/8
f 96/9/8 94/9/8 93/14/8
f 98/10/13 96/9/12 95/9/12
f 96/9/12 98/10/13 97/11/13
f 100/14/11 89/9/14 99/13/11
f 89/9/14 100/14/11 90/9/14
f 90/9/8 82/9/8 84/11/8
f 82/9/8 90/9/8 100/14/8
f 88/12/13 74/6/12 101/6/12
f 74/6/12 88/12/13 73/5/13
f 81/9/12 100/14/11 99/13/11
f 100/14/11 81/9/12 82/9/12
f 101/6/12 76/7/11 102/8/11
f 76/7/11 101/6/12 74/6/12
f 76/7/11 87/6/14 102/8/11
f 87/6/14 76/7/11 75/6/14
f 103/12/13 80/6/12 79/6/12
f 80/6/12 103/12/13 85/5/13
f 94/9/14 98/10/13 92/9/14
f 98/10/13 94/9/14 97/11/13
f 78/7/11 104/6/14 77/8/11
f 104/6/14 78/7/11 86/6/14
f 86/6/14 103/12/13 104/6/14
f 103/12/13 86/6/14 85/5/13

g metal-panel-screws-half




usemtl colormap

f 3/2/1 2/1/1 1/1/1
f 2/1/1 3/2/1 4/2/1
f 1/1/2 2/1/2 3/2/2
f 4/2/2 3/2/2 2/1/2
f 7/2/3 6/2/3 5/2/3
f 6/2/3 7/2/3 8/2/3
f 8/2/3 7/2/3 9/2/3
f 9/2/3 7/2/3 10/2/3
f 9/2/3 10/2/3 11/2/3
f 11/2/3 10/2/3 12/2/3
f 11/2/3 12/2/3 13/2/3
f 11/2/3 13/2/3 14/2/3
f 14/2/3 13/2/3 4/2/3
f 14/2/3 4/2/3 15/2/3
f 15/2/3 4/2/3 16/2/3
f 16/2/3 4/2/3 3/2/3
f 16/2/3 3/2/3 17/2/3
f 17/2/3 3/2/3 18/2/3
f 17/2/3 18/2/3 19/2/3
f 17/2/3 19/2/3 20/2/3
f 20/2/3 19/2/3 21/2/3
f 20/2/3 21/2/3 22/2/3
f 22/2/3 21/2/3 23/2/3
f 23/2/3 21/2/3 24/2/3
f 23/2/3 24/2/3 25/2/3
f 25/2/3 24/2/3 26/2/3
f 25/2/3 26/2/3 27/2/3
f 25/2/3 27/2/3 28/2/3
f 28/2/3 27/2/3 29/2/3
f 28/2/3 29/2/3 30/2/3
f 30/2/3 29/2/3 31/2/3
f 31/2/3 29/2/3 32/2/3
f 31/2/3 32/2/3 33/2/3
f 33/2/3 32/2/3 34/2/3
f 33/2/3 34/2/3 35/2/3
f 33/2/3 35/2/3 36/2/3
f 36/2/3 35/2/3 37/2/3
f 36/2/3 37/2/3 38/2/3
f 5/2/4 6/2/4 7/2/4
f 8/2/4 7/2/4 6/2/4
f 9/2/4 7/2/4 8/2/4
f 10/2/4 7/2/4 9/2/4
f 11/2/4 10/2/4 9/2/4
f 12/2/4 10/2/4 11/2/4
f 13/2/4 12/2/4 11/2/4
f 14/2/4 13/2/4 11/2/4
f 4/2/4 13/2/4 14/2/4
f 15/2/4 4/2/4 14/2/4
f 16/2/4 4/2/4 15/2/4
f 3/2/4 4/2/4 16/2/4
f 17/2/4 3/2/4 16/2/4
f 18/2/4 3/2/4 17/2/4
f 19/2/4 18/2/4 17/2/4
f 20/2/4 19/2/4 17/2/4
f 21/2/4 19/2/4 20/2/4
f 22/2/4 21/2/4 20/2/4
f 23/2/4 21/2/4 22/2/4
f 24/2/4 21/2/4 23/2/4
f 25/2/4 24/2/4 23/2/4
f 26/2/4 24/2/4 25/2/4
f 27/2/4 26/2/4 25/2/4
f 28/2/4 27/2/4 25/2/4
f 29/2/4 27/2/4 28/2/4
f 30/2/4 29/2/4 28/2/4
f 31/2/4 29/2/4 30/2/4
f 32/2/4 29/2/4 31/2/4
f 33/2/4 32/2/4 31/2/4
f 34/2/4 32/2/4 33/2/4
f 35/2/4 34/2/4 33/2/4
f 36/2/4 35/2/4 33/2/4
f 37/2/4 35/2/4 36/2/4
f 38/2/4 37/2/4 36/2/4
f 18/2/5 39/1/5 19/2/5
f 39/1/5 18/2/5 40/1/5
f 19/2/6 39/1/6 18/2/6
f 40/1/6 18/2/6 39/1/6
f 37/2/7 42/1/5 41/1/7
f 42/1/5 37/2/7 35/2/5
f 41/1/8 42/1/6 37/2/8
f 35/2/6 37/2/8 42/1/6
f 44/1/5 43/1/7 36/2/5
f 38/2/7 36/2/5 43/1/7
f 29/2/1 46/1/5 45/1/1
f 46/1/5 29/2/1 27/2/5
f 45/1/2 46/1/6 29/2/2
f 27/2/6 29/2/2 46/1/6
f 14/2/5 11/2/5 47/1/5
f 48/1/5 47/1/5 11/2/5
f 50/1/1 30/2/1 49/1/5
f 28/2/5 49/1/5 30/2/1
f 41/1/9 38/2/9 37/2/9
f 38/2/9 41/1/9 43/1/9
f 37/2/10 38/2/10 41/1/10
f 43/1/10 41/1/10 38/2/10
f 8/2/1 51/1/1 9/2/1
f 52/1/1 9/2/1 51/1/1
f 4/2/1 53/1/5 2/1/1
f 53/1/5 4/2/1 13/2/5
f 2/1/2 53/1/6 4/2/2
f 13/2/6 4/2/2 53/1/6
f 55/1/5 10/2/1 54/1/1
f 10/2/1 55/1/5 12/2/5
f 54/1/2 10/2/2 55/1/6
f 12/2/6 55/1/6 10/2/2
f 57/1/1 16/2/1 56/1/1
f 15/2/1 56/1/1 16/2/1
f 59/1/1 22/2/1 58/1/5
f 20/2/5 58/1/5 22/2/1
f 6/2/10 60/1/10 5/2/10
f 60/1/10 6/2/10 61/1/10
f 5/2/9 60/1/9 6/2/9
f 61/1/9 6/2/9 60/1/9
f 12/2/5 53/1/5 13/2/5
f 53/1/5 12/2/5 55/1/5
f 13/2/6 53/1/6 12/2/6
f 55/1/6 12/2/6 53/1/6
f 57/1/1 62/1/5 16/2/1
f 17/2/5 16/2/1 62/1/5
f 52/1/1 48/1/5 9/2/1
f 11/2/5 9/2/1 48/1/5
f 63/1/1 31/2/1 50/1/1
f 30/2/1 50/1/1 31/2/1
f 64/1/1 10/2/1 7/2/1
f 10/2/1 64/1/1 54/1/1
f 7/2/2 10/2/2 64/1/2
f 54/1/2 64/1/2 10/2/2
f 34/2/5 42/1/5 35/2/5
f 42/1/5 34/2/5 65/1/5
f 35/2/6 42/1/6 34/2/6
f 65/1/6 34/2/6 42/1/6
f 51/1/1 8/2/1 61/1/7
f 6/2/7 61/1/7 8/2/1
f 22/2/1 59/1/1 23/2/1
f 66/1/1 23/2/1 59/1/1
f 67/1/5 44/1/5 33/2/5
f 36/2/5 33/2/5 44/1/5
f 68/1/1 24/2/1 21/2/1
f 24/2/1 68/1/1 69/1/1
f 21/2/2 24/2/2 68/1/2
f 69/1/2 68/1/2 24/2/2
f 70/1/5 24/2/1 69/1/1
f 24/2/1 70/1/5 26/2/5
f 69/1/2 24/2/2 70/1/6
f 26/2/6 70/1/6 24/2/2
f 61/1/4 64/1/4 60/1/4
f 64/1/4 61/1/4 51/1/4
f 64/1/4 51/1/4 52/1/4
f 64/1/4 52/1/4 54/1/4
f 54/1/4 52/1/4 48/1/4
f 54/1/4 48/1/4 55/1/4
f 55/1/4 48/1/4 53/1/4
f 53/1/4 48/1/4 47/1/4
f 53/1/4 47/1/4 2/1/4
f 2/1/4 47/1/4 56/1/4
f 2/1/4 56/1/4 57/1/4
f 2/1/4 57/1/4 1/1/4
f 1/1/4 57/1/4 62/1/4
f 1/1/4 62/1/4 40/1/4
f 40/1/4 62/1/4 39/1/4
f 39/1/4 62/1/4 58/1/4
f 39/1/4 58/1/4 68/1/4
f 68/1/4 58/1/4 59/1/4
f 68/1/4 59/1/4 66/1/4
f 68/1/4 66/1/4 69/1/4
f 69/1/4 66/1/4 71/1/4
f 69/1/4 71/1/4 70/1/4
f 70/1/4 71/1/4 46/1/4
f 46/1/4 71/1/4 49/1/4
f 46/1/4 49/1/4 45/1/4
f 45/1/4 49/1/4 50/1/4
f 45/1/4 50/1/4 63/1/4
f 45/1/4 63/1/4 72/1/4
f 72/1/4 63/1/4 67/1/4
f 72/1/4 67/1/4 65/1/4
f 65/1/4 67/1/4 42/1/4
f 42/1/4 67/1/4 44/1/4
f 42/1/4 44/1/4 41/1/4
f 41/1/4 44/1/4 43/1/4
f 60/1/3 64/1/3 61/1/3
f 51/1/3 61/1/3 64/1/3
f 52/1/3 51/1/3 64/1/3
f 54/1/3 52/1/3 64/1/3
f 48/1/3 52/1/3 54/1/3
f 55/1/3 48/1/3 54/1/3
f 53/1/3 48/1/3 55/1/3
f 47/1/3 48/1/3 53/1/3
f 2/1/3 47/1/3 53/1/3
f 56/1/3 47/1/3 2/1/3
f 57/1/3 56/1/3 2/1/3
f 1/1/3 57/1/3 2/1/3
f 62/1/3 57/1/3 1/1/3
f 40/1/3 62/1/3 1/1/3
f 39/1/3 62/1/3 40/1/3
f 58/1/3 62/1/3 39/1/3
f 68/1/3 58/1/3 39/1/3
f 59/1/3 58/1/3 68/1/3
f 66/1/3 59/1/3 68/1/3
f 69/1/3 66/1/3 68/1/3
f 71/1/3 66/1/3 69/1/3
f 70/1/3 71/1/3 69/1/3
f 46/1/3 71/1/3 70/1/3
f 49/1/3 71/1/3 46/1/3
f 45/1/3 49/1/3 46/1/3
f 50/1/3 49/1/3 45/1/3
f 63/1/3 50/1/3 45/1/3
f 72/1/3 63/1/3 45/1/3
f 67/1/3 63/1/3 72/1/3
f 65/1/3 67/1/3 72/1/3
f 42/1/3 67/1/3 65/1/3
f 44/1/3 67/1/3 42/1/3
f 41/1/3 44/1/3 42/1/3
f 43/1/3 44/1/3 41/1/3
f 58/1/5 20/2/5 62/1/5
f 17/2/5 62/1/5 20/2/5
f 40/1/5 3/2/1 1/1/1
f 3/2/1 40/1/5 18/2/5
f 1/1/2 3/2/2 40/1/6
f 18/2/6 40/1/6 3/2/2
f 21/2/1 39/1/5 68/1/1
f 39/1/5 21/2/1 19/2/5
f 68/1/2 39/1/6 21/2/2
f 19/2/6 21/2/2 39/1/6
f 28/2/5 25/2/5 49/1/5
f 71/1/5 49/1/5 25/2/5
f 32/2/1 45/1/1 72/1/1
f 45/1/1 32/2/1 29/2/1
f 72/1/2 45/1/2 32/2/2
f 29/2/2 32/2/2 45/1/2
f 7/2/1 60/1/7 64/1/1
f 60/1/7 7/2/1 5/2/7
f 64/1/2 60/1/8 7/2/2
f 5/2/8 7/2/2 60/1/8
f 63/1/1 67/1/5 31/2/1
f 33/2/5 31/2/1 67/1/5
f 26/2/5 46/1/5 27/2/5
f 46/1/5 26/2/5 70/1/5
f 27/2/6 46/1/6 26/2/6
f 70/1/6 26/2/6 46/1/6
f 66/1/1 71/1/5 23/2/1
f 25/2/5 23/2/1 71/1/5
f 65/1/5 32/2/1 72/1/1
f 32/2/1 65/1/5 34/2/5
f 72/1/2 32/2/2 65/1/6
f 34/2/6 65/1/6 32/2/2
f 56/1/1 15/2/1 47/1/5
f 14/2/5 47/1/5 15/2/1
f 36/4/6 43/3/8 44/3/6
f 43/3/8 36/4/6 38/4/8
f 47/3/6 11/4/6 14/4/6
f 11/4/6 47/3/6 48/3/6
f 49/3/6 30/4/2 50/3/2
f 30/4/2 49/3/6 28/4/6
f 9/4/2 51/3/2 8/4/2
f 51/3/2 9/4/2 52/3/2
f 56/3/2 16/4/2 57/3/2
f 16/4/2 56/3/2 15/4/2
f 58/3/6 22/4/2 59/3/2
f 22/4/2 58/3/6 20/4/6
f 16/4/2 62/3/6 57/3/2
f 62/3/6 16/4/2 17/4/6
f 9/4/2 48/3/6 52/3/2
f 48/3/6 9/4/2 11/4/6
f 50/3/2 31/4/2 63/3/2
f 31/4/2 50/3/2 30/4/2
f 61/3/8 8/4/2 51/3/2
f 8/4/2 61/3/8 6/4/8
f 23/4/2 59/3/2 22/4/2
f 59/3/2 23/4/2 66/3/2
f 33/4/6 44/3/6 67/3/6
f 44/3/6 33/4/6 36/4/6
f 62/3/6 20/4/6 58/3/6
f 20/4/6 62/3/6 17/4/6
f 49/3/6 25/4/6 28/4/6
f 25/4/6 49/3/6 71/3/6
f 31/4/2 67/3/6 63/3/2
f 67/3/6 31/4/2 33/4/6
f 23/4/2 71/3/6 66/3/2
f 71/3/6 23/4/2 25/4/6
f 47/3/6 15/4/2 56/3/2
f 15/4/2 47/3/6 14/4/6
f 75/6/8 74/6/8 73/5/8
f 74/6/8 75/6/8 76/7/8
f 79/6/12 78/7/11 77/8/11
f 78/7/11 79/6/12 80/6/12
f 83/10/13 82/9/12 81/9/12
f 82/9/12 83/10/13 84/11/13
f 86/6/8 80/6/8 85/5/8
f 80/6/8 86/6/8 78/7/8
f 75/6/14 88/12/13 87/6/14
f 88/12/13 75/6/14 73/5/13
f 90/9/14 83/10/13 89/9/14
f 83/10/13 90/9/14 84/11/13
f 93/14/11 92/9/14 91/13/11
f 92/9/14 93/14/11 94/9/14
f 95/9/12 93/14/11 91/13/11
f 93/14/11 95/9/12 96/9/12
f 94/9/8 96/9/8 97/11/8
f 96/9/8 94/9/8 93/14/8
f 98/10/13 96/9/12 95/9/12
f 96/9/12 98/10/13 97/11/13
f 100/14/11 89/9/14 99/13/11
f 89/9/14 100/14/11 90/9/14
f 90/9/8 82/9/8 84/11/8
f 82/9/8 90/9/8 100/14/8
f 88/12/13 74/6/12 101/6/12
f 74/6/12 88/12/13 73/5/13
f 81/9/12 100/14/11 99/13/11
f 100/14/11 81/9/12 82/9/12
f 101/6/12 76/7/11 102/8/11
f 76/7/11 101/6/12 74/6/12
f 76/7/11 87/6/14 102/8/11
f 87/6/14 76/7/11 75/6/14
f 103/12/13 80/6/12 79/6/12
f 80/6/12 103/12/13 85/5/13
f 94/9/14 98/10/13 92/9/14
f 98/10/13 94/9/14 97/11/13
f 78/7/11 104/6/14 77/8/11
f 104/6/14 78/7/11 86/6/14
f 86/6/14 103/12/13 104/6/14
f 103/12/13 86/6/14 85/5/13

