# Created by Kenney (www.kenney.nl)

mtllib patch-grass-large.mtl

g patch-grass-large

v -0.7 0 -4.47036E-09 1 1 1
v -0.7 0 -0.2 1 1 1
v -0.6732051 0 0.09999999 1 1 1
v -0.6732051 0 -0.3 1 1 1
v -0.6 0 0.1732051 1 1 1
v -0.6 0 -0.3732051 1 1 1
v -0.5 0 0.2 1 1 1
v -0.5 0 -0.4 1 1 1
v -0.5 0 0.4 1 1 1
v -0.4732051 0 0.5 1 1 1
v -0.4732051 0 -0.5 1 1 1
v -0.4 0 0.5732051 1 1 1
v -0.4 0 -0.5732051 1 1 1
v -0.3 0 0.6 1 1 1
v -0.3 0 -0.6 1 1 1
v -0.2 0 -0.5732051 1 1 1
v -0.1267949 0 -0.5 1 1 1
v -0.1 0 -0.4 1 1 1
v -0.09999999 0 0.6 1 1 1
v -0.07320508 0 -0.3 1 1 1
v -2.980248E-09 0 -0.2267949 1 1 1
v 5.161928E-09 0 0.5732051 1 1 1
v 0.07320508 0 0.5 1 1 1
v 0.09999999 0 0.4 1 1 1
v 0.09999999 0 -0.2 1 1 1
v 0.2 0 0.3732051 1 1 1
v 0.2732051 0 0.3 1 1 1
v 0.3 0 0.2 1 1 1
v 0.5 0 -0.2 1 1 1
v 0.5 0 0.2 1 1 1
v 0.6 0 -0.1732051 1 1 1
v 0.6 0 0.1732051 1 1 1
v 0.6732051 0 0.09999999 1 1 1
v 0.6732051 0 -0.1 1 1 1
v 0.7 0 -1.043085E-08 1 1 1

vn 0 1 0

vt 0.09375 0.275

usemtl colormap

f 3/1/1 2/1/1 1/1/1
f 3/1/1 4/1/1 2/1/1
f 5/1/1 4/1/1 3/1/1
f 5/1/1 6/1/1 4/1/1
f 7/1/1 6/1/1 5/1/1
f 6/1/1 7/1/1 8/1/1
f 9/1/1 8/1/1 7/1/1
f 10/1/1 8/1/1 9/1/1
f 10/1/1 11/1/1 8/1/1
f 12/1/1 11/1/1 10/1/1
f 12/1/1 13/1/1 11/1/1
f 14/1/1 13/1/1 12/1/1
f 14/1/1 15/1/1 13/1/1
f 14/1/1 16/1/1 15/1/1
f 14/1/1 17/1/1 16/1/1
f 14/1/1 18/1/1 17/1/1
f 19/1/1 18/1/1 14/1/1
f 19/1/1 20/1/1 18/1/1
f 19/1/1 21/1/1 20/1/1
f 22/1/1 21/1/1 19/1/1
f 23/1/1 21/1/1 22/1/1
f 24/1/1 21/1/1 23/1/1
f 24/1/1 25/1/1 21/1/1
f 26/1/1 25/1/1 24/1/1
f 27/1/1 25/1/1 26/1/1
f 28/1/1 25/1/1 27/1/1
f 28/1/1 29/1/1 25/1/1
f 30/1/1 29/1/1 28/1/1
f 30/1/1 31/1/1 29/1/1
f 32/1/1 31/1/1 30/1/1
f 33/1/1 31/1/1 32/1/1
f 33/1/1 34/1/1 31/1/1
f 34/1/1 33/1/1 35/1/1

g patch-grass-large




usemtl colormap

f 3/1/1 2/1/1 1/1/1
f 3/1/1 4/1/1 2/1/1
f 5/1/1 4/1/1 3/1/1
f 5/1/1 6/1/1 4/1/1
f 7/1/1 6/1/1 5/1/1
f 6/1/1 7/1/1 8/1/1
f 9/1/1 8/1/1 7/1/1
f 10/1/1 8/1/1 9/1/1
f 10/1/1 11/1/1 8/1/1
f 12/1/1 11/1/1 10/1/1
f 12/1/1 13/1/1 11/1/1
f 14/1/1 13/1/1 12/1/1
f 14/1/1 15/1/1 13/1/1
f 14/1/1 16/1/1 15/1/1
f 14/1/1 17/1/1 16/1/1
f 14/1/1 18/1/1 17/1/1
f 19/1/1 18/1/1 14/1/1
f 19/1/1 20/1/1 18/1/1
f 19/1/1 21/1/1 20/1/1
f 22/1/1 21/1/1 19/1/1
f 23/1/1 21/1/1 22/1/1
f 24/1/1 21/1/1 23/1/1
f 24/1/1 25/1/1 21/1/1
f 26/1/1 25/1/1 24/1/1
f 27/1/1 25/1/1 26/1/1
f 28/1/1 25/1/1 27/1/1
f 28/1/1 29/1/1 25/1/1
f 30/1/1 29/1/1 28/1/1
f 30/1/1 31/1/1 29/1/1
f 32/1/1 31/1/1 30/1/1
f 33/1/1 31/1/1 32/1/1
f 33/1/1 34/1/1 31/1/1
f 34/1/1 33/1/1 35/1/1

