# Created by Kenney (www.kenney.nl)

mtllib resource-wood.mtl

g resource-wood

v 0.1025059 0 -0.01088999 1 1 1
v 0.1025059 0.026136 -0.01088999 1 1 1
v 0.05226178 2.417163E-14 -0.01089 1 1 1
v 0.05226178 0.026136 -0.01089 1 1 1
v -0.02625306 0.026136 -0.01089 1 1 1
v -0.02222377 0.062436 -0.006860698 1 1 1
v -0.02625306 0.026136 0.01089 1 1 1
v -0.02222377 0.062436 0.006860702 1 1 1
v 0.04651187 0.00574992 -0.03509 1 1 1
v 0.04651187 0.02038608 -0.03509 1 1 1
v 0.0318757 0.00574992 -0.03509 1 1 1
v 0.0318757 0.02038608 -0.03509 1 1 1
v 0.02612578 3.67899E-14 -0.01089 1 1 1
v 0.02612578 0.026136 -0.01089 1 1 1
v 0.1025059 0 0.01089001 1 1 1
v -0.04425764 8.984899E-14 0.01089 1 1 1
v 0.1025059 0.026136 0.01089001 1 1 1
v -0.004473065 0.026136 0.01089 1 1 1
v -0.04425764 0.026136 0.01089 1 1 1
v -0.1025059 1.178731E-13 0.02176937 1 1 1
v -0.08508186 1.094894E-13 0.04354937 1 1 1
v -0.07529414 1.047806E-13 2.916988E-10 1 1 1
v -0.08508186 1.094894E-13 -0.04354937 1 1 1
v -0.1025059 1.178731E-13 -0.02176937 1 1 1
v -0.04425764 8.984899E-14 -0.01089 1 1 1
v -0.04425764 0.026136 -0.01089 1 1 1
v -0.08508186 0.026136 -0.04354937 1 1 1
v -0.004473064 0.026136 -0.01089 1 1 1
v -0.008502363 0.062436 -0.006860697 1 1 1
v -0.008502364 0.062436 0.006860702 1 1 1
v -0.07529414 0.026136 2.916988E-10 1 1 1
v -0.1025059 0.026136 -0.02176937 1 1 1
v -0.08508186 0.026136 0.04354937 1 1 1
v -0.1025059 0.026136 0.02176937 1 1 1

vn 0 0 -1
vn -0.9938958 0.1103224 0
vn -0.689186 0.7245845 0
vn 0.6608875 0 -0.7504851
vn -0.6608875 0 -0.7504851
vn -0.9729146 0 -0.2311645
vn 0 0 1
vn 0 0.0350647 0.999385
vn 0 0.9975718 -0.0696462
vn 0 0.9729148 -0.2311645
vn 0 -1 0
vn 0 -0.9975718 -0.0696462
vn 0.6246951 0 -0.7808688
vn -0.1104315 0 -0.9938837
vn 0 0.0350647 -0.999385
vn 0.9938958 0.1103224 0
vn 0.689186 0.7245845 0
vn 0 1 0
vn 0 0.1103224 0.9938958
vn -0.6246951 0 0.7808688
vn -0.9938837 0 0.1104315
vn 1 0 0
vn 0 0.1103224 -0.9938958
vn 0 -0.9729148 -0.2311645
vn -0.624695 0 -0.7808689
vn -0.9938837 0 -0.1104316
vn -0.1104316 0 0.9938837
vn 0.624695 0 0.7808689
vn 0.9729148 0 -0.2311645

vt 0.59375 0.025
vt 0.59375 0.1087209
vt 0.59375 0.225
vt 0.59375 0.0434186
vt 0.59375 0.09030233

usemtl colormap

f 3/1/1 2/2/1 1/1/1
f 2/2/1 3/1/1 4/2/1
f 7/2/2 6/3/3 5/2/2
f 6/3/3 7/2/2 8/3/3
f 11/4/5 10/5/4 9/4/4
f 10/5/4 11/4/5 12/5/5
f 13/1/6 12/5/5 11/4/5
f 12/5/5 13/1/6 14/2/6
f 17/2/7 16/1/7 15/1/7
f 16/1/7 17/2/7 18/2/8
f 16/1/7 18/2/8 7/2/8
f 16/1/7 7/2/8 19/2/7
f 10/5/10 14/2/9 4/2/9
f 14/2/9 10/5/10 12/5/10
f 22/1/11 21/1/11 20/1/11
f 21/1/11 22/1/11 16/1/11
f 23/1/11 16/1/11 22/1/11
f 23/1/11 22/1/11 24/1/11
f 25/1/11 16/1/11 23/1/11
f 13/1/12 16/1/11 25/1/11
f 3/1/12 16/1/11 13/1/12
f 3/1/12 15/1/11 16/1/11
f 15/1/11 3/1/12 1/1/11
f 23/1/14 26/2/13 25/1/13
f 26/2/13 23/1/14 27/2/14
f 25/1/1 14/2/1 13/1/1
f 14/2/1 25/1/1 5/2/15
f 5/2/15 25/1/1 26/2/1
f 14/2/1 5/2/15 28/2/15
f 29/3/17 18/2/16 28/2/16
f 18/2/16 29/3/17 30/3/17
f 26/2/18 7/2/18 5/2/18
f 7/2/18 26/2/18 19/2/18
f 19/2/18 26/2/18 27/2/18
f 19/2/18 27/2/18 31/2/18
f 31/2/18 27/2/18 32/2/18
f 31/2/18 33/2/18 19/2/18
f 33/2/18 31/2/18 34/2/18
f 30/3/19 7/2/8 18/2/8
f 7/2/8 30/3/19 8/3/19
f 31/2/20 24/1/21 22/1/20
f 24/1/21 31/2/20 32/2/21
f 6/3/3 30/3/17 29/3/17
f 30/3/17 6/3/3 8/3/3
f 2/2/22 15/1/22 1/1/22
f 15/1/22 2/2/22 17/2/22
f 5/2/15 29/3/23 28/2/15
f 29/3/23 5/2/15 6/3/23
f 13/1/12 9/4/24 3/1/12
f 9/4/24 13/1/12 11/4/24
f 24/1/21 27/2/14 23/1/14
f 27/2/14 24/1/21 32/2/21
f 20/1/26 31/2/25 22/1/25
f 31/2/25 20/1/26 34/2/26
f 20/1/26 33/2/27 34/2/26
f 33/2/27 20/1/26 21/1/27
f 19/2/28 21/1/27 16/1/28
f 21/1/27 19/2/28 33/2/27
f 4/2/9 17/2/18 2/2/18
f 17/2/18 4/2/9 18/2/18
f 18/2/18 4/2/9 14/2/9
f 18/2/18 14/2/9 28/2/18
f 4/2/29 9/4/4 10/5/4
f 9/4/4 4/2/29 3/1/29

g resource-wood




usemtl colormap

f 3/1/1 2/2/1 1/1/1
f 2/2/1 3/1/1 4/2/1
f 7/2/2 6/3/3 5/2/2
f 6/3/3 7/2/2 8/3/3
f 11/4/5 10/5/4 9/4/4
f 10/5/4 11/4/5 12/5/5
f 13/1/6 12/5/5 11/4/5
f 12/5/5 13/1/6 14/2/6
f 17/2/7 16/1/7 15/1/7
f 16/1/7 17/2/7 18/2/8
f 16/1/7 18/2/8 7/2/8
f 16/1/7 7/2/8 19/2/7
f 10/5/10 14/2/9 4/2/9
f 14/2/9 10/5/10 12/5/10
f 22/1/11 21/1/11 20/1/11
f 21/1/11 22/1/11 16/1/11
f 23/1/11 16/1/11 22/1/11
f 23/1/11 22/1/11 24/1/11
f 25/1/11 16/1/11 23/1/11
f 13/1/12 16/1/11 25/1/11
f 3/1/12 16/1/11 13/1/12
f 3/1/12 15/1/11 16/1/11
f 15/1/11 3/1/12 1/1/11
f 23/1/14 26/2/13 25/1/13
f 26/2/13 23/1/14 27/2/14
f 25/1/1 14/2/1 13/1/1
f 14/2/1 25/1/1 5/2/15
f 5/2/15 25/1/1 26/2/1
f 14/2/1 5/2/15 28/2/15
f 29/3/17 18/2/16 28/2/16
f 18/2/16 29/3/17 30/3/17
f 26/2/18 7/2/18 5/2/18
f 7/2/18 26/2/18 19/2/18
f 19/2/18 26/2/18 27/2/18
f 19/2/18 27/2/18 31/2/18
f 31/2/18 27/2/18 32/2/18
f 31/2/18 33/2/18 19/2/18
f 33/2/18 31/2/18 34/2/18
f 30/3/19 7/2/8 18/2/8
f 7/2/8 30/3/19 8/3/19
f 31/2/20 24/1/21 22/1/20
f 24/1/21 31/2/20 32/2/21
f 6/3/3 30/3/17 29/3/17
f 30/3/17 6/3/3 8/3/3
f 2/2/22 15/1/22 1/1/22
f 15/1/22 2/2/22 17/2/22
f 5/2/15 29/3/23 28/2/15
f 29/3/23 5/2/15 6/3/23
f 13/1/12 9/4/24 3/1/12
f 9/4/24 13/1/12 11/4/24
f 24/1/21 27/2/14 23/1/14
f 27/2/14 24/1/21 32/2/21
f 20/1/26 31/2/25 22/1/25
f 31/2/25 20/1/26 34/2/26
f 20/1/26 33/2/27 34/2/26
f 33/2/27 20/1/26 21/1/27
f 19/2/28 21/1/27 16/1/28
f 21/1/27 19/2/28 33/2/27
f 4/2/9 17/2/18 2/2/18
f 17/2/18 4/2/9 18/2/18
f 18/2/18 4/2/9 14/2/9
f 18/2/18 14/2/9 28/2/18
f 4/2/29 9/4/4 10/5/4
f 9/4/4 4/2/29 3/1/29

