# Created by Kenney (www.kenney.nl)

mtllib rock-c.mtl

g rock-c

v -0.2412233 5.416102E-16 -0.203004 1 1 1
v -0.2412233 5.416102E-16 -0.1556943 1 1 1
v 0.02145883 5.416102E-16 -0.2883546 1 1 1
v -0.1123969 5.416102E-16 0.257452 1 1 1
v -0.02869774 5.416102E-16 0.14225 1 1 1
v 0.02145883 5.416102E-16 0.1585469 1 1 1
v 0.06264772 4.51283E-16 -0.2316629 1 1 1
v 0.06376942 4.51283E-16 0.1003113 1 1 1
v 0.2400633 3.609557E-16 -0.2893087 1 1 1
v 0.2400633 3.609557E-16 0.1575927 1 1 1
v 0.4024098 3.609557E-16 -0.06585803 1 1 1
v -0.2778866 5.416102E-16 0.2036811 1 1 1
v -0.2778866 5.416102E-16 0.1409041 1 1 1
v -0.3813047 5.416102E-16 0.1073015 1 1 1
v -0.3813047 5.416102E-16 -0.110179 1 1 1
v -0.2575809 0.51 0.08715095 1 1 1
v -0.3503479 0.255 0.08718455 1 1 1
v -0.3193911 0.51 0.002076521 1 1 1
v -0.3813047 5.416102E-16 -0.110179 1 1 1
v -0.2412232 5.416102E-16 -0.1556943 1 1 1
v -0.3193911 0.51 -0.06994514 1 1 1
v -0.1815159 0.2459131 -0.1459942 1 1 1
v -0.1890843 0.51 -0.1122844 1 1 1
v -0.08595173 0.32385 -0.001438769 1 1 1
v -0.1085502 0.51 -0.001438769 1 1 1
v -0.162593 0.32385 -0.1069264 1 1 1
v -0.1803039 0.2036204 0.1485152 1 1 1
v -0.2283495 0.2036204 0.1329042 1 1 1
v -0.1890843 0.51 0.1094069 1 1 1
v -0.3813047 5.416102E-16 0.1073015 1 1 1
v -0.1193412 0.2036204 0.06460731 1 1 1
v -0.1144242 0.32385 0.03775022 1 1 1
v -0.04526246 0.32385 -0.1900299 1 1 1
v 0.01831777 0.05480149 -0.2743641 1 1 1
v 0.03266075 0.32385 -0.1647111 1 1 1
v 0.03266075 0.32385 0.03490344 1 1 1
v 0.01377965 0.1339775 0.1243433 1 1 1
v -0.04526246 0.32385 0.06022222 1 1 1
v -0.162593 0.32385 -0.1069264 1 1 1
v -0.181516 0.2459131 -0.1459942 1 1 1
v -0.162593 0.32385 -0.1519069 1 1 1
v 0.105175 0.32385 -0.06490386 1 1 1
v 0.1444901 0.161925 -0.06490386 1 1 1
v 0.07589224 0.161925 -0.1593208 1 1 1
v 0.02145882 5.416102E-16 -0.2883546 1 1 1
v 0.02145882 5.416102E-16 0.1585469 1 1 1
v -0.03447527 0.1001172 0.1166781 1 1 1
v -0.09073406 0.2036204 0.07390235 1 1 1
v -0.1144242 0.32385 0.03775022 1 1 1
v -0.1193412 0.2036204 0.06460732 1 1 1
v 0.06376942 4.51283E-16 0.1003113 1 1 1
v 0.07701394 0.161925 0.02796917 1 1 1
v -0.08595174 0.32385 -0.001438767 1 1 1
v 0.02776559 4.511946E-17 0.2663452 1 1 1
v 0.01750582 4.511946E-17 0.1920503 1 1 1
v -0.04652934 4.511946E-17 0.276605 1 1 1
v -0.05678911 4.511946E-17 0.2023101 1 1 1
v -0.03532319 0.025875 0.2618079 1 1 1
v -0.04199204 0.025875 0.2135162 1 1 1
v 0.01296852 0.025875 0.2551391 1 1 1
v 0.006299672 0.025875 0.2068474 1 1 1
v -0.04827553 0.32385 0.02553796 1 1 1
v 0.02503805 0.32385 0.009722749 1 1 1
v -0.06409074 0.32385 -0.04777562 1 1 1
v 0.009222833 0.32385 -0.06359083 1 1 1
v -0.04849321 0.349725 -0.0377134 1 1 1
v -0.0008393805 0.349725 -0.04799329 1 1 1
v -0.03821332 0.349725 0.009940425 1 1 1
v 0.00944051 0.349725 -0.0003394652 1 1 1
v 0.3757983 0.05480149 -0.06585802 1 1 1
v 0.250572 0.161925 0.03490345 1 1 1
v 0.2926208 0.161925 -0.1087442 1 1 1
v 0.4024097 3.609557E-16 -0.06585802 1 1 1
v 0.2400633 3.609557E-16 -0.2893087 1 1 1
v 0.2215012 0.161925 -0.206632 1 1 1
v 0.07701392 0.161925 0.02796917 1 1 1
v 0.1444901 0.161925 -0.06490385 1 1 1
v 0.2215012 0.161925 0.07491593 1 1 1
v 0.07589222 0.161925 -0.1593208 1 1 1
v 0.2400633 3.609557E-16 0.1575927 1 1 1
v 0.06376942 4.51283E-16 0.1003114 1 1 1
v -0.03447527 0.1001172 0.116678 1 1 1
v -0.0596557 0.2036204 0.116678 1 1 1
v -0.09073406 0.2036204 0.07390234 1 1 1
v -0.2283495 0.2036204 0.17149 1 1 1
v -0.2283495 0.2036204 0.1329042 1 1 1
v -0.124091 0.2036204 0.2053656 1 1 1
v -0.1803039 0.2036204 0.1485152 1 1 1
v -0.1123969 5.416102E-16 0.257452 1 1 1
v -0.02869774 5.416102E-16 0.14225 1 1 1
v -0.2778866 5.416102E-16 0.2036811 1 1 1
v -0.2778866 5.416102E-16 0.1409041 1 1 1

vn 0 -1 0
vn -0.7760854 0.2824081 0.5638591
vn -0.3070784 0.1118372 -0.9450901
vn 0.8051431 0.09774375 -0.5849708
vn -0.3070784 0.1118372 0.9450901
vn 0 1 0
vn 0.8051431 0.09774375 0.5849708
vn -0.9927117 0.1205144 3.931853E-14
vn 0.2897079 0.3479466 -0.8916292
vn 0.2851855 0.3850884 0.8777108
vn -0.9717667 0.2359435 3.848896E-14
vn 0.793847 0.1927448 -0.5767636
vn -0.3014744 0.2195926 0.9278428
vn -0.3014744 0.2195926 -0.9278428
vn 0.793847 0.1927448 0.5767636
vn 0.1219992 0.4523762 0.8834432
vn -0.8834432 0.4523762 0.1219992
vn 0.8834432 0.4523762 -0.1219992
vn -0.1219992 0.4523762 -0.8834432
vn -0.871774 0.4523762 0.1880592
vn -0.1880592 0.4523762 -0.871774
vn 0.1880592 0.4523762 0.871774
vn 0.871774 0.4523762 -0.1880592
vn 0.728492 0.651019 0.2132455
vn 0.752994 0.3656516 -0.5470822
vn 0.752994 0.3656516 0.5470822
vn -0.281781 0.4104959 -0.8672327
vn -0.281781 0.4104959 0.8672327
vn 0.7937883 0.193114 -0.576721
vn 0.7937883 0.193114 0.576721
vn -0.3014455 0.2200083 0.9277537
vn -0.9716591 0.2363867 3.84847E-14

vt 0.84375 0.225
vt 0.84375 0.125
vt 0.84375 0.025
vt 0.21875 0.225
vt 0.21875 0.125
vt 0.21875 0.025
vt 0.21875 0.1214365
vt 0.21875 0.152
vt 0.21875 0.1048511
vt 0.21875 0.05884375
vt 0.21875 0.1077404
vt 0.21875 0.1768685
vt 0.21875 0.08682934
vt 0.21875 0.1507498
vt 0.21875 0.07416853

usemtl colormap

f 3/1/1 2/1/1 1/1/1
f 2/1/1 3/1/1 4/1/1
f 4/1/1 3/1/1 5/1/1
f 5/1/1 3/1/1 6/1/1
f 6/1/1 3/1/1 7/2/1
f 6/1/1 7/2/1 8/2/1
f 8/2/1 7/2/1 9/3/1
f 8/2/1 9/3/1 10/3/1
f 10/3/1 9/3/1 11/3/1
f 12/1/1 2/1/1 4/1/1
f 13/1/1 2/1/1 12/1/1
f 14/1/1 2/1/1 13/1/1
f 2/1/1 14/1/1 15/1/1
f 18/4/2 17/5/2 16/4/2
f 21/4/3 20/6/3 19/6/3
f 20/6/3 21/4/3 22/7/3
f 22/7/3 21/4/3 23/4/3
f 26/8/4 25/4/4 24/8/4
f 25/4/4 26/8/4 23/4/4
f 23/4/4 26/8/4 22/7/4
f 29/4/5 28/9/5 27/9/5
f 28/9/5 29/4/5 17/5/5
f 17/5/5 29/4/5 16/4/5
f 30/6/5 28/9/5 17/5/5
f 28/9/5 30/6/5 13/6/5
f 18/4/6 23/4/6 21/4/6
f 23/4/6 18/4/6 16/4/6
f 23/4/6 16/4/6 29/4/6
f 23/4/6 29/4/6 25/4/6
f 31/9/7 29/4/7 27/9/7
f 29/4/7 31/9/7 25/4/7
f 25/4/7 31/9/7 32/8/7
f 25/4/7 32/8/7 24/8/7
f 17/5/8 19/6/8 30/6/8
f 19/6/8 17/5/8 18/4/8
f 19/6/8 18/4/8 21/4/8
f 35/4/9 34/10/9 33/4/9
f 38/4/10 37/11/10 36/4/10
f 41/4/11 40/12/11 39/4/11
f 40/12/11 41/4/11 2/6/11
f 2/6/11 41/4/11 1/6/11
f 43/5/12 35/4/12 42/4/12
f 35/4/12 43/5/12 44/5/12
f 35/4/12 44/5/12 7/6/12
f 35/4/12 7/6/12 34/10/12
f 34/10/12 7/6/12 45/6/12
f 37/11/13 5/6/13 46/6/13
f 5/6/13 37/11/13 47/13/13
f 47/13/13 37/11/13 48/14/13
f 48/14/13 37/11/13 38/4/13
f 49/4/13 48/14/13 38/4/13
f 48/14/13 49/4/13 50/14/13
f 41/4/14 45/6/14 1/6/14
f 45/6/14 41/4/14 34/10/14
f 34/10/14 41/4/14 33/4/14
f 51/6/15 37/11/15 46/6/15
f 37/11/15 51/6/15 36/4/15
f 36/4/15 51/6/15 52/5/15
f 36/4/15 52/5/15 42/4/15
f 42/4/15 52/5/15 43/5/15
f 38/4/6 53/4/6 49/4/6
f 53/4/6 38/4/6 33/4/6
f 33/4/6 39/4/6 53/4/6
f 39/4/6 33/4/6 41/4/6
f 33/4/6 38/4/6 35/4/6
f 35/4/6 38/4/6 36/4/6
f 35/4/6 36/4/6 42/4/6
f 56/6/1 55/6/1 54/6/1
f 55/6/1 56/6/1 57/6/1
f 60/4/6 59/4/6 58/4/6
f 59/4/6 60/4/6 61/4/6
f 60/4/16 56/6/16 54/6/16
f 56/6/16 60/4/16 58/4/16
f 58/4/17 57/6/17 56/6/17
f 57/6/17 58/4/17 59/4/17
f 61/4/18 54/6/18 55/6/18
f 54/6/18 61/4/18 60/4/18
f 57/6/19 61/4/19 55/6/19
f 61/4/19 57/6/19 59/4/19
f 64/6/1 63/6/1 62/6/1
f 63/6/1 64/6/1 65/6/1
f 68/4/6 67/4/6 66/4/6
f 67/4/6 68/4/6 69/4/6
f 68/4/20 64/6/20 62/6/20
f 64/6/20 68/4/20 66/4/20
f 66/4/21 65/6/21 64/6/21
f 65/6/21 66/4/21 67/4/21
f 69/4/22 62/6/22 63/6/22
f 62/6/22 69/4/22 68/4/22
f 65/6/23 69/4/23 63/6/23
f 69/4/23 65/6/23 67/4/23
f 72/5/24 71/5/24 70/10/24
f 73/6/25 72/5/25 70/10/25
f 72/5/25 73/6/25 74/6/25
f 72/5/25 74/6/25 75/5/25
f 78/5/6 77/5/6 76/5/6
f 77/5/6 78/5/6 75/5/6
f 75/5/6 79/5/6 77/5/6
f 75/5/6 78/5/6 72/5/6
f 72/5/6 78/5/6 71/5/6
f 73/6/26 78/5/26 80/6/26
f 78/5/26 73/6/26 71/5/26
f 71/5/26 73/6/26 70/10/26
f 7/6/27 75/5/27 74/6/27
f 75/5/27 7/6/27 79/5/27
f 78/5/28 81/6/28 80/6/28
f 81/6/28 78/5/28 76/5/28
f 84/5/29 83/5/29 82/15/29
f 87/5/6 86/5/6 85/5/6
f 86/5/6 87/5/6 88/5/6
f 88/5/6 87/5/6 31/5/6
f 31/5/6 87/5/6 83/5/6
f 31/5/6 83/5/6 84/5/6
f 90/6/30 87/5/30 89/6/30
f 87/5/30 90/6/30 83/5/30
f 83/5/30 90/6/30 82/15/30
f 87/5/31 91/6/31 89/6/31
f 91/6/31 87/5/31 85/5/31
f 85/5/32 92/6/32 91/6/32
f 92/6/32 85/5/32 86/5/32

g rock-c




usemtl colormap

f 3/1/1 2/1/1 1/1/1
f 2/1/1 3/1/1 4/1/1
f 4/1/1 3/1/1 5/1/1
f 5/1/1 3/1/1 6/1/1
f 6/1/1 3/1/1 7/2/1
f 6/1/1 7/2/1 8/2/1
f 8/2/1 7/2/1 9/3/1
f 8/2/1 9/3/1 10/3/1
f 10/3/1 9/3/1 11/3/1
f 12/1/1 2/1/1 4/1/1
f 13/1/1 2/1/1 12/1/1
f 14/1/1 2/1/1 13/1/1
f 2/1/1 14/1/1 15/1/1
f 18/4/2 17/5/2 16/4/2
f 21/4/3 20/6/3 19/6/3
f 20/6/3 21/4/3 22/7/3
f 22/7/3 21/4/3 23/4/3
f 26/8/4 25/4/4 24/8/4
f 25/4/4 26/8/4 23/4/4
f 23/4/4 26/8/4 22/7/4
f 29/4/5 28/9/5 27/9/5
f 28/9/5 29/4/5 17/5/5
f 17/5/5 29/4/5 16/4/5
f 30/6/5 28/9/5 17/5/5
f 28/9/5 30/6/5 13/6/5
f 18/4/6 23/4/6 21/4/6
f 23/4/6 18/4/6 16/4/6
f 23/4/6 16/4/6 29/4/6
f 23/4/6 29/4/6 25/4/6
f 31/9/7 29/4/7 27/9/7
f 29/4/7 31/9/7 25/4/7
f 25/4/7 31/9/7 32/8/7
f 25/4/7 32/8/7 24/8/7
f 17/5/8 19/6/8 30/6/8
f 19/6/8 17/5/8 18/4/8
f 19/6/8 18/4/8 21/4/8
f 35/4/9 34/10/9 33/4/9
f 38/4/10 37/11/10 36/4/10
f 41/4/11 40/12/11 39/4/11
f 40/12/11 41/4/11 2/6/11
f 2/6/11 41/4/11 1/6/11
f 43/5/12 35/4/12 42/4/12
f 35/4/12 43/5/12 44/5/12
f 35/4/12 44/5/12 7/6/12
f 35/4/12 7/6/12 34/10/12
f 34/10/12 7/6/12 45/6/12
f 37/11/13 5/6/13 46/6/13
f 5/6/13 37/11/13 47/13/13
f 47/13/13 37/11/13 48/14/13
f 48/14/13 37/11/13 38/4/13
f 49/4/13 48/14/13 38/4/13
f 48/14/13 49/4/13 50/14/13
f 41/4/14 45/6/14 1/6/14
f 45/6/14 41/4/14 34/10/14
f 34/10/14 41/4/14 33/4/14
f 51/6/15 37/11/15 46/6/15
f 37/11/15 51/6/15 36/4/15
f 36/4/15 51/6/15 52/5/15
f 36/4/15 52/5/15 42/4/15
f 42/4/15 52/5/15 43/5/15
f 38/4/6 53/4/6 49/4/6
f 53/4/6 38/4/6 33/4/6
f 33/4/6 39/4/6 53/4/6
f 39/4/6 33/4/6 41/4/6
f 33/4/6 38/4/6 35/4/6
f 35/4/6 38/4/6 36/4/6
f 35/4/6 36/4/6 42/4/6
f 56/6/1 55/6/1 54/6/1
f 55/6/1 56/6/1 57/6/1
f 60/4/6 59/4/6 58/4/6
f 59/4/6 60/4/6 61/4/6
f 60/4/16 56/6/16 54/6/16
f 56/6/16 60/4/16 58/4/16
f 58/4/17 57/6/17 56/6/17
f 57/6/17 58/4/17 59/4/17
f 61/4/18 54/6/18 55/6/18
f 54/6/18 61/4/18 60/4/18
f 57/6/19 61/4/19 55/6/19
f 61/4/19 57/6/19 59/4/19
f 64/6/1 63/6/1 62/6/1
f 63/6/1 64/6/1 65/6/1
f 68/4/6 67/4/6 66/4/6
f 67/4/6 68/4/6 69/4/6
f 68/4/20 64/6/20 62/6/20
f 64/6/20 68/4/20 66/4/20
f 66/4/21 65/6/21 64/6/21
f 65/6/21 66/4/21 67/4/21
f 69/4/22 62/6/22 63/6/22
f 62/6/22 69/4/22 68/4/22
f 65/6/23 69/4/23 63/6/23
f 69/4/23 65/6/23 67/4/23
f 72/5/24 71/5/24 70/10/24
f 73/6/25 72/5/25 70/10/25
f 72/5/25 73/6/25 74/6/25
f 72/5/25 74/6/25 75/5/25
f 78/5/6 77/5/6 76/5/6
f 77/5/6 78/5/6 75/5/6
f 75/5/6 79/5/6 77/5/6
f 75/5/6 78/5/6 72/5/6
f 72/5/6 78/5/6 71/5/6
f 73/6/26 78/5/26 80/6/26
f 78/5/26 73/6/26 71/5/26
f 71/5/26 73/6/26 70/10/26
f 7/6/27 75/5/27 74/6/27
f 75/5/27 7/6/27 79/5/27
f 78/5/28 81/6/28 80/6/28
f 81/6/28 78/5/28 76/5/28
f 84/5/29 83/5/29 82/15/29
f 87/5/6 86/5/6 85/5/6
f 86/5/6 87/5/6 88/5/6
f 88/5/6 87/5/6 31/5/6
f 31/5/6 87/5/6 83/5/6
f 31/5/6 83/5/6 84/5/6
f 90/6/30 87/5/30 89/6/30
f 87/5/30 90/6/30 83/5/30
f 83/5/30 90/6/30 82/15/30
f 87/5/31 91/6/31 89/6/31
f 91/6/31 87/5/31 85/5/31
f 85/5/32 92/6/32 91/6/32
f 92/6/32 85/5/32 86/5/32

