# Created by Kenney (www.kenney.nl)

mtllib rock-sand-c.mtl

g rock-sand-c

v -0.04526246 0.32385 -0.1900299 1 1 1
v 0.01831777 0.05480149 -0.2743641 1 1 1
v 0.03266075 0.32385 -0.1647111 1 1 1
v 0.03266075 0.32385 0.03490344 1 1 1
v 0.01377965 0.1339775 0.1243433 1 1 1
v -0.04526246 0.32385 0.06022222 1 1 1
v -0.162593 0.32385 -0.1069264 1 1 1
v -0.181516 0.2459131 -0.1459942 1 1 1
v -0.162593 0.32385 -0.1519069 1 1 1
v -0.2412233 5.416102E-16 -0.1556943 1 1 1
v -0.2412233 5.416102E-16 -0.203004 1 1 1
v 0.105175 0.32385 -0.06490386 1 1 1
v 0.1444901 0.161925 -0.06490386 1 1 1
v 0.07589224 0.161925 -0.1593208 1 1 1
v 0.06264772 4.51283E-16 -0.2316629 1 1 1
v 0.02145882 5.416102E-16 -0.2883546 1 1 1
v 0.02145882 5.416102E-16 0.1585469 1 1 1
v -0.02869774 5.416102E-16 0.14225 1 1 1
v -0.03447527 0.1001172 0.1166781 1 1 1
v -0.09073406 0.2036204 0.07390235 1 1 1
v -0.1144242 0.32385 0.03775022 1 1 1
v -0.1193412 0.2036204 0.06460732 1 1 1
v 0.06376942 4.51283E-16 0.1003113 1 1 1
v 0.07701394 0.161925 0.02796917 1 1 1
v -0.08595174 0.32385 -0.001438767 1 1 1
v -0.2575809 0.51 0.08715095 1 1 1
v -0.3503479 0.255 0.08718455 1 1 1
v -0.3193911 0.51 0.002076521 1 1 1
v -0.3813047 5.416102E-16 -0.110179 1 1 1
v -0.2412232 5.416102E-16 -0.1556943 1 1 1
v -0.3193911 0.51 -0.06994514 1 1 1
v -0.1815159 0.2459131 -0.1459942 1 1 1
v -0.1890843 0.51 -0.1122844 1 1 1
v -0.08595173 0.32385 -0.001438769 1 1 1
v -0.1085502 0.51 -0.001438769 1 1 1
v -0.162593 0.32385 -0.1069264 1 1 1
v -0.1803039 0.2036204 0.1485152 1 1 1
v -0.2283495 0.2036204 0.1329042 1 1 1
v -0.1890843 0.51 0.1094069 1 1 1
v -0.3813047 5.416102E-16 0.1073015 1 1 1
v -0.2778866 5.416102E-16 0.1409041 1 1 1
v -0.1193412 0.2036204 0.06460731 1 1 1
v -0.1144242 0.32385 0.03775022 1 1 1
v 0.02145883 5.416102E-16 -0.2883546 1 1 1
v -0.1123969 5.416102E-16 0.257452 1 1 1
v 0.02145883 5.416102E-16 0.1585469 1 1 1
v 0.06376942 4.51283E-16 0.1003113 1 1 1
v 0.2400633 3.609557E-16 -0.2893087 1 1 1
v 0.2400633 3.609557E-16 0.1575927 1 1 1
v 0.4024098 3.609557E-16 -0.06585803 1 1 1
v -0.2778866 5.416102E-16 0.2036811 1 1 1
v -0.3813047 5.416102E-16 0.1073015 1 1 1
v -0.3813047 5.416102E-16 -0.110179 1 1 1
v -0.04492579 4.511946E-17 0.2187633 1 1 1
v -0.01998752 4.511946E-17 0.2621002 1 1 1
v -0.001588936 4.511946E-17 0.1938251 1 1 1
v 0.02334934 4.511946E-17 0.2371619 1 1 1
v -0.01676776 0.03 0.250152 1 1 1
v -0.03297764 0.03 0.2219831 1 1 1
v 0.01140119 0.03 0.2339422 1 1 1
v -0.004808687 0.03 0.2057732 1 1 1
v 0.1801475 0.161925 0.02336305 1 1 1
v 0.2084504 0.161925 -0.01785522 1 1 1
v 0.1389292 0.161925 -0.004939847 1 1 1
v 0.1672321 0.161925 -0.04615812 1 1 1
v 0.1962842 0.191925 -0.01559503 1 1 1
v 0.1778873 0.191925 0.01119684 1 1 1
v 0.1694923 0.191925 -0.03399191 1 1 1
v 0.1510954 0.191925 -0.007200037 1 1 1
v -0.102114 0.32385 -0.0774076 1 1 1
v -0.06427483 0.32385 -0.1100909 1 1 1
v -0.1347973 0.32385 -0.1152467 1 1 1
v -0.09695815 0.32385 -0.1479301 1 1 1
v -0.07661626 0.35385 -0.1109932 1 1 1
v -0.1012117 0.35385 -0.08974902 1 1 1
v -0.09786043 0.35385 -0.1355886 1 1 1
v -0.1224559 0.35385 -0.1143445 1 1 1
v -0.3303555 -1.353584E-16 -0.2786767 1 1 1
v -0.3020489 -1.353584E-16 -0.237461 1 1 1
v -0.2891398 -1.353584E-16 -0.3069833 1 1 1
v -0.2608332 -1.353584E-16 -0.2657676 1 1 1
v -0.2997898 0.03 -0.2496274 1 1 1
v -0.3181891 0.03 -0.2764176 1 1 1
v -0.2729996 0.03 -0.2680267 1 1 1
v -0.2913989 0.03 -0.2948169 1 1 1
v 0.3757983 0.05480149 -0.06585802 1 1 1
v 0.250572 0.161925 0.03490345 1 1 1
v 0.2926208 0.161925 -0.1087442 1 1 1
v 0.4024097 3.609557E-16 -0.06585802 1 1 1
v 0.2400633 3.609557E-16 -0.2893087 1 1 1
v 0.2215012 0.161925 -0.206632 1 1 1
v 0.07701392 0.161925 0.02796917 1 1 1
v 0.1444901 0.161925 -0.06490385 1 1 1
v 0.2215012 0.161925 0.07491593 1 1 1
v 0.07589222 0.161925 -0.1593208 1 1 1
v 0.2400633 3.609557E-16 0.1575927 1 1 1
v 0.06376942 4.51283E-16 0.1003114 1 1 1
v -0.03447527 0.1001172 0.116678 1 1 1
v -0.0596557 0.2036204 0.116678 1 1 1
v -0.09073406 0.2036204 0.07390234 1 1 1
v -0.2283495 0.2036204 0.17149 1 1 1
v -0.2283495 0.2036204 0.1329042 1 1 1
v -0.124091 0.2036204 0.2053656 1 1 1
v -0.1803039 0.2036204 0.1485152 1 1 1
v -0.1123969 5.416102E-16 0.257452 1 1 1
v -0.02869774 5.416102E-16 0.14225 1 1 1
v -0.2778866 5.416102E-16 0.2036811 1 1 1
v -0.2778866 5.416102E-16 0.1409041 1 1 1

vn 0.2897079 0.3479466 -0.8916292
vn 0.2851855 0.3850884 0.8777108
vn -0.9717667 0.2359435 -3.937904E-15
vn 0.793847 0.1927448 -0.5767636
vn -0.3014744 0.2195926 0.9278428
vn -0.3014744 0.2195926 -0.9278428
vn 0.793847 0.1927448 0.5767636
vn 0 1 0
vn -0.7760854 0.2824081 0.5638591
vn -0.3070784 0.1118372 -0.9450901
vn 0.8051431 0.09774375 -0.5849708
vn -0.3070784 0.1118372 0.9450901
vn 0.8051431 0.09774375 0.5849708
vn -0.9927117 0.1205144 -4.022779E-15
vn 0 -1 0
vn -0.8320675 0.28 0.4788148
vn -0.4788148 0.28 -0.8320675
vn 0.4788148 0.28 0.8320675
vn 0.8320675 0.28 -0.4788148
vn 0.7913908 0.28 0.5434156
vn -0.5434156 0.28 0.7913908
vn 0.5434156 0.28 -0.7913908
vn -0.7913908 0.28 -0.5434156
vn 0.6275198 0.28 0.7265115
vn -0.7265115 0.28 0.6275198
vn 0.7265115 0.28 -0.6275198
vn -0.6275198 0.28 -0.7265115
vn -0.7913417 0.28 0.5434872
vn -0.5434872 0.28 -0.7913417
vn 0.5434872 0.28 0.7913417
vn 0.7913417 0.28 -0.5434872
vn 0.728492 0.651019 0.2132455
vn 0.752994 0.3656516 -0.5470822
vn 0.752994 0.3656516 0.5470822
vn -0.281781 0.4104959 -0.8672327
vn -0.281781 0.4104959 0.8672327
vn 0.7937883 0.193114 -0.576721
vn 0.7937883 0.193114 0.576721
vn -0.3014455 0.2200083 0.9277537
vn -0.9716591 0.2363867 -3.937468E-15

vt 0.84375 0.225
vt 0.84375 0.05884375
vt 0.84375 0.1077404
vt 0.84375 0.1768685
vt 0.84375 0.025
vt 0.84375 0.125
vt 0.84375 0.08682934
vt 0.84375 0.1507498
vt 0.84375 0.1214365
vt 0.84375 0.152
vt 0.84375 0.1048511
vt 0.84375 0.07416853

usemtl colormap

f 3/1/1 2/2/1 1/1/1
f 6/1/2 5/3/2 4/1/2
f 9/1/3 8/4/3 7/1/3
f 8/4/3 9/1/3 10/5/3
f 10/5/3 9/1/3 11/5/3
f 13/6/4 3/1/4 12/1/4
f 3/1/4 13/6/4 14/6/4
f 3/1/4 14/6/4 15/5/4
f 3/1/4 15/5/4 2/2/4
f 2/2/4 15/5/4 16/5/4
f 5/3/5 18/5/5 17/5/5
f 18/5/5 5/3/5 19/7/5
f 19/7/5 5/3/5 20/8/5
f 20/8/5 5/3/5 6/1/5
f 21/1/5 20/8/5 6/1/5
f 20/8/5 21/1/5 22/8/5
f 9/1/6 16/5/6 11/5/6
f 16/5/6 9/1/6 2/2/6
f 2/2/6 9/1/6 1/1/6
f 23/5/7 5/3/7 17/5/7
f 5/3/7 23/5/7 4/1/7
f 4/1/7 23/5/7 24/6/7
f 4/1/7 24/6/7 12/1/7
f 12/1/7 24/6/7 13/6/7
f 6/1/8 25/1/8 21/1/8
f 25/1/8 6/1/8 1/1/8
f 1/1/8 7/1/8 25/1/8
f 7/1/8 1/1/8 9/1/8
f 1/1/8 6/1/8 3/1/8
f 3/1/8 6/1/8 4/1/8
f 3/1/8 4/1/8 12/1/8
f 28/1/9 27/6/9 26/1/9
f 31/1/10 30/5/10 29/5/10
f 30/5/10 31/1/10 32/9/10
f 32/9/10 31/1/10 33/1/10
f 36/10/11 35/1/11 34/10/11
f 35/1/11 36/10/11 33/1/11
f 33/1/11 36/10/11 32/9/11
f 39/1/12 38/11/12 37/11/12
f 38/11/12 39/1/12 27/6/12
f 27/6/12 39/1/12 26/1/12
f 40/5/12 38/11/12 27/6/12
f 38/11/12 40/5/12 41/5/12
f 28/1/8 33/1/8 31/1/8
f 33/1/8 28/1/8 26/1/8
f 33/1/8 26/1/8 39/1/8
f 33/1/8 39/1/8 35/1/8
f 42/11/13 39/1/13 37/11/13
f 39/1/13 42/11/13 35/1/13
f 35/1/13 42/11/13 43/10/13
f 35/1/13 43/10/13 34/10/13
f 27/6/14 29/5/14 40/5/14
f 29/5/14 27/6/14 28/1/14
f 29/5/14 28/1/14 31/1/14
f 44/1/15 10/1/15 11/1/15
f 10/1/15 44/1/15 45/1/15
f 45/1/15 44/1/15 18/1/15
f 18/1/15 44/1/15 46/1/15
f 46/1/15 44/1/15 15/6/15
f 46/1/15 15/6/15 47/6/15
f 47/6/15 15/6/15 48/5/15
f 47/6/15 48/5/15 49/5/15
f 49/5/15 48/5/15 50/5/15
f 51/1/15 10/1/15 45/1/15
f 41/1/15 10/1/15 51/1/15
f 52/1/15 10/1/15 41/1/15
f 10/1/15 52/1/15 53/1/15
f 56/5/15 55/5/15 54/5/15
f 55/5/15 56/5/15 57/5/15
f 60/1/8 59/1/8 58/1/8
f 59/1/8 60/1/8 61/1/8
f 58/1/16 54/5/16 55/5/16
f 54/5/16 58/1/16 59/1/16
f 59/1/17 56/5/17 54/5/17
f 56/5/17 59/1/17 61/1/17
f 60/1/18 55/5/18 57/5/18
f 55/5/18 60/1/18 58/1/18
f 56/5/19 60/1/19 57/5/19
f 60/1/19 56/5/19 61/1/19
f 64/5/15 63/5/15 62/5/15
f 63/5/15 64/5/15 65/5/15
f 68/1/8 67/1/8 66/1/8
f 67/1/8 68/1/8 69/1/8
f 66/1/20 62/5/20 63/5/20
f 62/5/20 66/1/20 67/1/20
f 67/1/21 64/5/21 62/5/21
f 64/5/21 67/1/21 69/1/21
f 68/1/22 63/5/22 65/5/22
f 63/5/22 68/1/22 66/1/22
f 64/5/23 68/1/23 65/5/23
f 68/1/23 64/5/23 69/1/23
f 72/5/15 71/5/15 70/5/15
f 71/5/15 72/5/15 73/5/15
f 76/1/8 75/1/8 74/1/8
f 75/1/8 76/1/8 77/1/8
f 74/1/24 70/5/24 71/5/24
f 70/5/24 74/1/24 75/1/24
f 75/1/25 72/5/25 70/5/25
f 72/5/25 75/1/25 77/1/25
f 76/1/26 71/5/26 73/5/26
f 71/5/26 76/1/26 74/1/26
f 72/5/27 76/1/27 73/5/27
f 76/1/27 72/5/27 77/1/27
f 80/5/15 79/5/15 78/5/15
f 79/5/15 80/5/15 81/5/15
f 84/1/8 83/1/8 82/1/8
f 83/1/8 84/1/8 85/1/8
f 82/1/28 78/5/28 79/5/28
f 78/5/28 82/1/28 83/1/28
f 83/1/29 80/5/29 78/5/29
f 80/5/29 83/1/29 85/1/29
f 84/1/30 79/5/30 81/5/30
f 79/5/30 84/1/30 82/1/30
f 80/5/31 84/1/31 81/5/31
f 84/1/31 80/5/31 85/1/31
f 88/6/32 87/6/32 86/2/32
f 89/5/33 88/6/33 86/2/33
f 88/6/33 89/5/33 90/5/33
f 88/6/33 90/5/33 91/6/33
f 94/6/8 93/6/8 92/6/8
f 93/6/8 94/6/8 91/6/8
f 91/6/8 95/6/8 93/6/8
f 91/6/8 94/6/8 88/6/8
f 88/6/8 94/6/8 87/6/8
f 89/5/34 94/6/34 96/5/34
f 94/6/34 89/5/34 87/6/34
f 87/6/34 89/5/34 86/2/34
f 15/5/35 91/6/35 90/5/35
f 91/6/35 15/5/35 95/6/35
f 94/6/36 97/5/36 96/5/36
f 97/5/36 94/6/36 92/6/36
f 100/6/37 99/6/37 98/12/37
f 103/6/8 102/6/8 101/6/8
f 102/6/8 103/6/8 104/6/8
f 104/6/8 103/6/8 42/6/8
f 42/6/8 103/6/8 99/6/8
f 42/6/8 99/6/8 100/6/8
f 106/5/38 103/6/38 105/5/38
f 103/6/38 106/5/38 99/6/38
f 99/6/38 106/5/38 98/12/38
f 103/6/39 107/5/39 105/5/39
f 107/5/39 103/6/39 101/6/39
f 101/6/40 108/5/40 107/5/40
f 108/5/40 101/6/40 102/6/40

g rock-sand-c




usemtl colormap

f 3/1/1 2/2/1 1/1/1
f 6/1/2 5/3/2 4/1/2
f 9/1/3 8/4/3 7/1/3
f 8/4/3 9/1/3 10/5/3
f 10/5/3 9/1/3 11/5/3
f 13/6/4 3/1/4 12/1/4
f 3/1/4 13/6/4 14/6/4
f 3/1/4 14/6/4 15/5/4
f 3/1/4 15/5/4 2/2/4
f 2/2/4 15/5/4 16/5/4
f 5/3/5 18/5/5 17/5/5
f 18/5/5 5/3/5 19/7/5
f 19/7/5 5/3/5 20/8/5
f 20/8/5 5/3/5 6/1/5
f 21/1/5 20/8/5 6/1/5
f 20/8/5 21/1/5 22/8/5
f 9/1/6 16/5/6 11/5/6
f 16/5/6 9/1/6 2/2/6
f 2/2/6 9/1/6 1/1/6
f 23/5/7 5/3/7 17/5/7
f 5/3/7 23/5/7 4/1/7
f 4/1/7 23/5/7 24/6/7
f 4/1/7 24/6/7 12/1/7
f 12/1/7 24/6/7 13/6/7
f 6/1/8 25/1/8 21/1/8
f 25/1/8 6/1/8 1/1/8
f 1/1/8 7/1/8 25/1/8
f 7/1/8 1/1/8 9/1/8
f 1/1/8 6/1/8 3/1/8
f 3/1/8 6/1/8 4/1/8
f 3/1/8 4/1/8 12/1/8
f 28/1/9 27/6/9 26/1/9
f 31/1/10 30/5/10 29/5/10
f 30/5/10 31/1/10 32/9/10
f 32/9/10 31/1/10 33/1/10
f 36/10/11 35/1/11 34/10/11
f 35/1/11 36/10/11 33/1/11
f 33/1/11 36/10/11 32/9/11
f 39/1/12 38/11/12 37/11/12
f 38/11/12 39/1/12 27/6/12
f 27/6/12 39/1/12 26/1/12
f 40/5/12 38/11/12 27/6/12
f 38/11/12 40/5/12 41/5/12
f 28/1/8 33/1/8 31/1/8
f 33/1/8 28/1/8 26/1/8
f 33/1/8 26/1/8 39/1/8
f 33/1/8 39/1/8 35/1/8
f 42/11/13 39/1/13 37/11/13
f 39/1/13 42/11/13 35/1/13
f 35/1/13 42/11/13 43/10/13
f 35/1/13 43/10/13 34/10/13
f 27/6/14 29/5/14 40/5/14
f 29/5/14 27/6/14 28/1/14
f 29/5/14 28/1/14 31/1/14
f 44/1/15 10/1/15 11/1/15
f 10/1/15 44/1/15 45/1/15
f 45/1/15 44/1/15 18/1/15
f 18/1/15 44/1/15 46/1/15
f 46/1/15 44/1/15 15/6/15
f 46/1/15 15/6/15 47/6/15
f 47/6/15 15/6/15 48/5/15
f 47/6/15 48/5/15 49/5/15
f 49/5/15 48/5/15 50/5/15
f 51/1/15 10/1/15 45/1/15
f 41/1/15 10/1/15 51/1/15
f 52/1/15 10/1/15 41/1/15
f 10/1/15 52/1/15 53/1/15
f 56/5/15 55/5/15 54/5/15
f 55/5/15 56/5/15 57/5/15
f 60/1/8 59/1/8 58/1/8
f 59/1/8 60/1/8 61/1/8
f 58/1/16 54/5/16 55/5/16
f 54/5/16 58/1/16 59/1/16
f 59/1/17 56/5/17 54/5/17
f 56/5/17 59/1/17 61/1/17
f 60/1/18 55/5/18 57/5/18
f 55/5/18 60/1/18 58/1/18
f 56/5/19 60/1/19 57/5/19
f 60/1/19 56/5/19 61/1/19
f 64/5/15 63/5/15 62/5/15
f 63/5/15 64/5/15 65/5/15
f 68/1/8 67/1/8 66/1/8
f 67/1/8 68/1/8 69/1/8
f 66/1/20 62/5/20 63/5/20
f 62/5/20 66/1/20 67/1/20
f 67/1/21 64/5/21 62/5/21
f 64/5/21 67/1/21 69/1/21
f 68/1/22 63/5/22 65/5/22
f 63/5/22 68/1/22 66/1/22
f 64/5/23 68/1/23 65/5/23
f 68/1/23 64/5/23 69/1/23
f 72/5/15 71/5/15 70/5/15
f 71/5/15 72/5/15 73/5/15
f 76/1/8 75/1/8 74/1/8
f 75/1/8 76/1/8 77/1/8
f 74/1/24 70/5/24 71/5/24
f 70/5/24 74/1/24 75/1/24
f 75/1/25 72/5/25 70/5/25
f 72/5/25 75/1/25 77/1/25
f 76/1/26 71/5/26 73/5/26
f 71/5/26 76/1/26 74/1/26
f 72/5/27 76/1/27 73/5/27
f 76/1/27 72/5/27 77/1/27
f 80/5/15 79/5/15 78/5/15
f 79/5/15 80/5/15 81/5/15
f 84/1/8 83/1/8 82/1/8
f 83/1/8 84/1/8 85/1/8
f 82/1/28 78/5/28 79/5/28
f 78/5/28 82/1/28 83/1/28
f 83/1/29 80/5/29 78/5/29
f 80/5/29 83/1/29 85/1/29
f 84/1/30 79/5/30 81/5/30
f 79/5/30 84/1/30 82/1/30
f 80/5/31 84/1/31 81/5/31
f 84/1/31 80/5/31 85/1/31
f 88/6/32 87/6/32 86/2/32
f 89/5/33 88/6/33 86/2/33
f 88/6/33 89/5/33 90/5/33
f 88/6/33 90/5/33 91/6/33
f 94/6/8 93/6/8 92/6/8
f 93/6/8 94/6/8 91/6/8
f 91/6/8 95/6/8 93/6/8
f 91/6/8 94/6/8 88/6/8
f 88/6/8 94/6/8 87/6/8
f 89/5/34 94/6/34 96/5/34
f 94/6/34 89/5/34 87/6/34
f 87/6/34 89/5/34 86/2/34
f 15/5/35 91/6/35 90/5/35
f 91/6/35 15/5/35 95/6/35
f 94/6/36 97/5/36 96/5/36
f 97/5/36 94/6/36 92/6/36
f 100/6/37 99/6/37 98/12/37
f 103/6/8 102/6/8 101/6/8
f 102/6/8 103/6/8 104/6/8
f 104/6/8 103/6/8 42/6/8
f 42/6/8 103/6/8 99/6/8
f 42/6/8 99/6/8 100/6/8
f 106/5/38 103/6/38 105/5/38
f 103/6/38 106/5/38 99/6/38
f 99/6/38 106/5/38 98/12/38
f 103/6/39 107/5/39 105/5/39
f 107/5/39 103/6/39 101/6/39
f 101/6/40 108/5/40 107/5/40
f 108/5/40 101/6/40 102/6/40

