# Created by Kenney (www.kenney.nl)

mtllib rock-a.mtl

g rock-a

v -0.02297104 0.3927 -0.0416736 1 1 1
v -0.08923161 0.3927 -0.1299517 1 1 1
v -0.03745695 0.1385755 -0.169859 1 1 1
v -0.1864127 0.3927 0.03606477 1 1 1
v -0.2761463 0.1334053 0.02297993 1 1 1
v -0.2163985 0.3927 -0.04205086 1 1 1
v -0.1170549 0.0791666 0.1357476 1 1 1
v -0.2126801 0.0791666 0.07364783 1 1 1
v -0.1148742 0.3927 0.08252242 1 1 1
v -0.3 0 0.03073847 1 1 1
v -0.2683789 0 0.05127344 1 1 1
v -0.2437119 0 -0.1793316 1 1 1
v -0.1943212 0.3927 -0.1244442 1 1 1
v -0.008395299 0.3927 -0.003702495 1 1 1
v -0.0265294 0 -0.1907136 1 1 1
v 0.02487065 0.1742606 0.005211089 1 1 1
v -0.01924266 0.1742606 -0.109708 1 1 1
v -0.01967782 0 -0.1728647 1 1 1
v -0.04625426 0.1742606 0.0628069 1 1 1
v -0.0636922 0.0791666 0.09253538 1 1 1
v -0.03209615 4.652944E-17 -0.2265358 1 1 1
v 0.03848389 4.652944E-17 -0.2011693 1 1 1
v -0.006729651 4.652944E-17 -0.2971159 1 1 1
v 0.06385039 4.652944E-17 -0.2717493 1 1 1
v 0.001182718 0.025875 -0.2803252 1 1 1
v 0.04705974 0.025875 -0.263837 1 1 1
v -0.01530551 0.025875 -0.2344482 1 1 1
v 0.03057152 0.025875 -0.21796 1 1 1
v -0.06244155 4.652944E-17 0.2643823 1 1 1
v -0.01754979 4.652944E-17 0.3244634 1 1 1
v -0.002360508 4.652944E-17 0.2194906 1 1 1
v 0.04253124 4.652944E-17 0.2795716 1 1 1
v -0.005018635 0.025875 0.2378608 1 1 1
v 0.02416101 0.025875 0.2769135 1 1 1
v -0.04407131 0.025875 0.2670405 1 1 1
v -0.01489167 0.025875 0.3060931 1 1 1
v 0.0655072 0.1742606 -0.0586642 1 1 1
v 0.02897603 0.1742606 0.006837514 1 1 1
v 0.1310089 0.1742606 -0.02213302 1 1 1
v 0.09447774 0.1742606 0.04336869 1 1 1
v 0.1131532 0.2001356 -0.01706317 1 1 1
v 0.0894079 0.2001356 0.02551294 1 1 1
v 0.07057705 0.2001356 -0.04080844 1 1 1
v 0.04683178 0.2001356 0.001767671 1 1 1
v -0.1131432 0.02390136 0.2247015 1 1 1
v -0.1502768 0.0791666 0.1630626 1 1 1
v -0.07708512 0.0791666 0.1602829 1 1 1
v -0.001470566 0 0.1630021 1 1 1
v -0.1133004 0 0.2416981 1 1 1
v -0.01881014 0.0791666 0.119274 1 1 1
v -0.2910315 0 0.135814 1 1 1
v -0.2247504 0.0791666 0.1186947 1 1 1
v -0.1170549 0.0791666 0.1357476 1 1 1
v -0.0636922 0.0791666 0.09253536 1 1 1
v -0.2683789 0 0.05127343 1 1 1
v 0.1162085 0.1742606 0.07614516 1 1 1
v 0.0515876 0.07051308 0.1648644 1 1 1
v 0.02016454 0.1742606 0.1023762 1 1 1
v 0.02487066 0.1742606 0.005211088 1 1 1
v 0.1143886 0.1742606 -0.1115379 1 1 1
v 0.1804268 0.1742606 0.03095392 1 1 1
v 0.2551817 0 0.05098444 1 1 1
v 0.1503592 0 -0.1751931 1 1 1
v 0.05131402 0 0.1944487 1 1 1
v -0.001470558 0 0.1630021 1 1 1
v -0.01881014 0.0791666 0.119274 1 1 1
v -0.0636922 0.0791666 0.09253537 1 1 1
v -0.01967782 0 -0.1728647 1 1 1
v -0.3 0 0.03073847 1 1 1
v -0.2437119 0 -0.1793316 1 1 1
v -0.2910315 0 0.135814 1 1 1
v -0.0265294 0 -0.1907136 1 1 1
v -0.01967782 0 -0.1728647 1 1 1
v 0.2551817 0 0.05098445 1 1 1

vn 0.8797188 0.1732202 -0.4428199
vn 0.7745621 0.2491057 -0.5813776
vn 0.9116577 0.1424685 -0.3854646
vn -0.8929701 0.2917306 0.3427791
vn -0.5389131 0.1446235 0.8298534
vn -0.9541401 0.1557376 -0.255661
vn 0 1 0
vn -0.05178574 0.1446235 -0.9881307
vn 0.9260776 0.1265256 -0.3554879
vn 0.6242628 0.1265256 0.7709003
vn 0 -1 0
vn -0.8392693 0.4523762 -0.3016338
vn 0.3016338 0.4523762 -0.8392693
vn -0.3016338 0.4523762 0.8392693
vn 0.8392693 0.4523762 0.3016338
vn -0.5338092 0.4523762 -0.7144254
vn 0.7144254 0.4523762 -0.5338092
vn -0.7144254 0.4523762 0.5338092
vn 0.5338092 0.4523762 0.7144254
vn 0.4343933 0.4523762 -0.7788827
vn 0.7788827 0.4523762 0.4343933
vn -0.7788827 0.4523762 -0.4343933
vn -0.4343933 0.4523762 0.7788827
vn 0.02502645 0.7517663 0.6589545
vn 0.4983062 0.5002703 0.7081105
vn -0.4361026 0.523416 0.7320179
vn -0.7717245 0.6014 -0.206783
vn 0.2198068 0.5513238 0.8048149
vn 0.8587734 0.3226512 -0.3980005
vn 0.5447193 0.3226512 0.7740653
vn -0.4811834 0.3407383 0.807688
vn -0.01287306 0.3407383 -0.94007

vt 0.21875 0.225
vt 0.21875 0.09557577
vt 0.21875 0.09294258
vt 0.21875 0.06531913
vt 0.21875 0.025
vt 0.21875 0.11375
vt 0.21875 0.1551912
vt 0.21875 0.125
vt 0.21875 0.06546415
vt 0.21875 0.07043
vt 0.84375 0.025

usemtl colormap

f 3/2/3 2/1/2 1/1/1
f 6/1/4 5/3/4 4/1/4
f 9/1/5 8/4/5 7/4/5
f 8/4/5 9/1/5 5/3/5
f 5/3/5 9/1/5 4/1/5
f 10/5/5 8/4/5 5/3/5
f 8/4/5 10/5/5 11/5/5
f 5/3/6 12/5/6 10/5/6
f 12/5/6 5/3/6 6/1/6
f 12/5/6 6/1/6 13/1/6
f 4/1/7 13/1/7 6/1/7
f 13/1/7 4/1/7 2/1/7
f 2/1/7 4/1/7 9/1/7
f 2/1/7 9/1/7 14/1/7
f 2/1/7 14/1/7 1/1/7
f 13/1/8 15/5/8 12/5/8
f 15/5/8 13/1/8 3/2/8
f 3/2/8 13/1/8 2/1/8
f 17/6/9 14/1/9 16/6/9
f 14/1/9 17/6/9 1/1/1
f 1/1/1 17/6/9 3/2/3
f 3/2/3 17/6/9 18/5/9
f 3/2/3 18/5/9 15/5/9
f 14/1/10 19/6/10 16/6/10
f 9/1/10 19/6/10 14/1/10
f 9/1/10 20/4/10 19/6/10
f 20/4/10 9/1/10 7/4/10
f 23/5/11 22/5/11 21/5/11
f 22/5/11 23/5/11 24/5/11
f 27/1/7 26/1/7 25/1/7
f 26/1/7 27/1/7 28/1/7
f 27/1/12 23/5/12 21/5/12
f 23/5/12 27/1/12 25/1/12
f 25/1/13 24/5/13 23/5/13
f 24/5/13 25/1/13 26/1/13
f 28/1/14 21/5/14 22/5/14
f 21/5/14 28/1/14 27/1/14
f 24/5/15 28/1/15 22/5/15
f 28/1/15 24/5/15 26/1/15
f 31/5/11 30/5/11 29/5/11
f 30/5/11 31/5/11 32/5/11
f 35/1/7 34/1/7 33/1/7
f 34/1/7 35/1/7 36/1/7
f 35/1/16 31/5/16 29/5/16
f 31/5/16 35/1/16 33/1/16
f 33/1/17 32/5/17 31/5/17
f 32/5/17 33/1/17 34/1/17
f 36/1/18 29/5/18 30/5/18
f 29/5/18 36/1/18 35/1/18
f 32/5/19 36/1/19 30/5/19
f 36/1/19 32/5/19 34/1/19
f 39/5/11 38/5/11 37/5/11
f 38/5/11 39/5/11 40/5/11
f 43/1/7 42/1/7 41/1/7
f 42/1/7 43/1/7 44/1/7
f 43/1/20 39/5/20 37/5/20
f 39/5/20 43/1/20 41/1/20
f 41/1/21 40/5/21 39/5/21
f 40/5/21 41/1/21 42/1/21
f 44/1/22 37/5/22 38/5/22
f 37/5/22 44/1/22 43/1/22
f 40/5/23 44/1/23 38/5/23
f 44/1/23 40/5/23 42/1/23
f 47/1/24 46/1/24 45/7/24
f 50/1/25 49/8/25 48/8/25
f 49/8/25 50/1/25 45/7/25
f 45/7/25 50/1/25 47/1/25
f 45/7/26 51/8/26 49/8/26
f 51/8/26 45/7/26 52/1/26
f 52/1/26 45/7/26 46/1/26
f 46/1/7 8/1/7 52/1/7
f 8/1/7 46/1/7 53/1/7
f 53/1/7 46/1/7 47/1/7
f 53/1/7 47/1/7 54/1/7
f 54/1/7 47/1/7 50/1/7
f 52/1/27 55/8/27 51/8/27
f 55/8/27 52/1/27 8/1/27
f 58/8/28 57/9/28 56/8/28
f 58/8/7 59/8/7 19/8/7
f 59/8/7 58/8/7 56/8/7
f 59/8/7 56/8/7 60/8/7
f 60/8/7 56/8/7 61/8/7
f 60/8/7 17/8/7 59/8/7
f 63/5/29 61/8/29 62/5/29
f 61/8/29 63/5/29 60/8/29
f 61/8/30 64/5/30 62/5/30
f 64/5/30 61/8/30 57/9/30
f 57/9/30 61/8/30 56/8/30
f 57/9/31 65/5/31 64/5/31
f 65/5/31 57/9/31 66/10/31
f 66/10/31 57/9/31 58/8/31
f 66/10/31 58/8/31 67/10/31
f 67/10/31 58/8/31 19/8/31
f 17/8/32 63/5/32 68/5/32
f 63/5/32 17/8/32 60/8/32
f 70/11/11 11/11/11 69/11/11
f 49/11/11 11/11/11 70/11/11
f 11/11/11 49/11/11 71/11/11
f 49/11/11 70/11/11 72/11/11
f 49/11/11 72/11/11 65/11/11
f 65/11/11 72/11/11 73/11/11
f 65/11/11 73/11/11 63/11/11
f 65/11/11 63/11/11 64/11/11
f 64/11/11 63/11/11 74/11/11

g rock-a




usemtl colormap

f 3/2/3 2/1/2 1/1/1
f 6/1/4 5/3/4 4/1/4
f 9/1/5 8/4/5 7/4/5
f 8/4/5 9/1/5 5/3/5
f 5/3/5 9/1/5 4/1/5
f 10/5/5 8/4/5 5/3/5
f 8/4/5 10/5/5 11/5/5
f 5/3/6 12/5/6 10/5/6
f 12/5/6 5/3/6 6/1/6
f 12/5/6 6/1/6 13/1/6
f 4/1/7 13/1/7 6/1/7
f 13/1/7 4/1/7 2/1/7
f 2/1/7 4/1/7 9/1/7
f 2/1/7 9/1/7 14/1/7
f 2/1/7 14/1/7 1/1/7
f 13/1/8 15/5/8 12/5/8
f 15/5/8 13/1/8 3/2/8
f 3/2/8 13/1/8 2/1/8
f 17/6/9 14/1/9 16/6/9
f 14/1/9 17/6/9 1/1/1
f 1/1/1 17/6/9 3/2/3
f 3/2/3 17/6/9 18/5/9
f 3/2/3 18/5/9 15/5/9
f 14/1/10 19/6/10 16/6/10
f 9/1/10 19/6/10 14/1/10
f 9/1/10 20/4/10 19/6/10
f 20/4/10 9/1/10 7/4/10
f 23/5/11 22/5/11 21/5/11
f 22/5/11 23/5/11 24/5/11
f 27/1/7 26/1/7 25/1/7
f 26/1/7 27/1/7 28/1/7
f 27/1/12 23/5/12 21/5/12
f 23/5/12 27/1/12 25/1/12
f 25/1/13 24/5/13 23/5/13
f 24/5/13 25/1/13 26/1/13
f 28/1/14 21/5/14 22/5/14
f 21/5/14 28/1/14 27/1/14
f 24/5/15 28/1/15 22/5/15
f 28/1/15 24/5/15 26/1/15
f 31/5/11 30/5/11 29/5/11
f 30/5/11 31/5/11 32/5/11
f 35/1/7 34/1/7 33/1/7
f 34/1/7 35/1/7 36/1/7
f 35/1/16 31/5/16 29/5/16
f 31/5/16 35/1/16 33/1/16
f 33/1/17 32/5/17 31/5/17
f 32/5/17 33/1/17 34/1/17
f 36/1/18 29/5/18 30/5/18
f 29/5/18 36/1/18 35/1/18
f 32/5/19 36/1/19 30/5/19
f 36/1/19 32/5/19 34/1/19
f 39/5/11 38/5/11 37/5/11
f 38/5/11 39/5/11 40/5/11
f 43/1/7 42/1/7 41/1/7
f 42/1/7 43/1/7 44/1/7
f 43/1/20 39/5/20 37/5/20
f 39/5/20 43/1/20 41/1/20
f 41/1/21 40/5/21 39/5/21
f 40/5/21 41/1/21 42/1/21
f 44/1/22 37/5/22 38/5/22
f 37/5/22 44/1/22 43/1/22
f 40/5/23 44/1/23 38/5/23
f 44/1/23 40/5/23 42/1/23
f 47/1/24 46/1/24 45/7/24
f 50/1/25 49/8/25 48/8/25
f 49/8/25 50/1/25 45/7/25
f 45/7/25 50/1/25 47/1/25
f 45/7/26 51/8/26 49/8/26
f 51/8/26 45/7/26 52/1/26
f 52/1/26 45/7/26 46/1/26
f 46/1/7 8/1/7 52/1/7
f 8/1/7 46/1/7 53/1/7
f 53/1/7 46/1/7 47/1/7
f 53/1/7 47/1/7 54/1/7
f 54/1/7 47/1/7 50/1/7
f 52/1/27 55/8/27 51/8/27
f 55/8/27 52/1/27 8/1/27
f 58/8/28 57/9/28 56/8/28
f 58/8/7 59/8/7 19/8/7
f 59/8/7 58/8/7 56/8/7
f 59/8/7 56/8/7 60/8/7
f 60/8/7 56/8/7 61/8/7
f 60/8/7 17/8/7 59/8/7
f 63/5/29 61/8/29 62/5/29
f 61/8/29 63/5/29 60/8/29
f 61/8/30 64/5/30 62/5/30
f 64/5/30 61/8/30 57/9/30
f 57/9/30 61/8/30 56/8/30
f 57/9/31 65/5/31 64/5/31
f 65/5/31 57/9/31 66/10/31
f 66/10/31 57/9/31 58/8/31
f 66/10/31 58/8/31 67/10/31
f 67/10/31 58/8/31 19/8/31
f 17/8/32 63/5/32 68/5/32
f 63/5/32 17/8/32 60/8/32
f 70/11/11 11/11/11 69/11/11
f 49/11/11 11/11/11 70/11/11
f 11/11/11 49/11/11 71/11/11
f 49/11/11 70/11/11 72/11/11
f 49/11/11 72/11/11 65/11/11
f 65/11/11 72/11/11 73/11/11
f 65/11/11 73/11/11 63/11/11
f 65/11/11 63/11/11 64/11/11
f 64/11/11 63/11/11 74/11/11

