# Created by Kenney (www.kenney.nl)

mtllib rock-flat.mtl

g rock-flat

v 0.5612576 0.0825 -0.5175282 1 1 1
v 0.5505606 0.0825 -0.4990005 1 1 1
v 0.5438223 1.917577E-16 -0.547727 1 1 1
v 0.6720268 0.0825 -0.3827923 1 1 1
v 0.7026768 0.0825 -0.4358798 1 1 1
v 0.7128125 1.917577E-16 -0.3930378 1 1 1
v 0.7375473 1.917577E-16 -0.4358798 1 1 1
v 0.6657561 0.0825 -0.4467455 1 1 1
v 0.6555371 0.0825 -0.5175282 1 1 1
v 0.6729723 1.917577E-16 -0.547727 1 1 1
v 0.7372993 1.804779E-16 -0.143302 1 1 1
v 0.6720267 0.0825 -0.3827923 1 1 1
v 0.7128124 1.917577E-16 -0.3930378 1 1 1
v 0.6267069 0.165 -0.418789 1 1 1
v 0.665756 0.0825 -0.4467455 1 1 1
v 0.7039444 0.0825 -0.05727082 1 1 1
v 0.6724684 0.165 0.04792291 1 1 1
v 0.716204 0.0825 0.06776224 1 1 1
v -0.7296336 0.165 -0.3192414 1 1 1
v -0.323511 0.165 -0.5537164 1 1 1
v -0.7296336 0.165 0.1497086 1 1 1
v -0.323511 0.165 0.3841836 1 1 1
v -0.07936993 0.165 -0.4127615 1 1 1
v 0.008315619 0.165 0.1926034 1 1 1
v 0.1996418 0.165 -0.6125143 1 1 1
v 0.2911648 0.165 0.3209095 1 1 1
v 0.3834951 9.023893E-17 0.3571093 1 1 1
v 0.3379276 0.0825 0.3385816 1 1 1
v 0.4031059 1.353584E-16 0.3430693 1 1 1
v 0.4409545 0.0825 0.2648215 1 1 1
v 0.2958513 0.0825 0.3687052 1 1 1
v 0.190269 1.917577E-16 -0.7081059 1 1 1
v 0.5438223 1.917577E-16 -0.547727 1 1 1
v 0.5505605 0.0825 -0.4990005 1 1 1
v -0.323511 0.0825 -0.6017414 1 1 1
v -0.1963087 0.0825 -0.5283011 1 1 1
v -0.08420406 1.804779E-16 -0.5116025 1 1 1
v -0.1340007 1.69198E-16 -0.5403526 1 1 1
v -0.7712245 0.0825 -0.3432539 1 1 1
v -0.6545278 0.0825 -0.4106288 1 1 1
v -0.4547982 0.0825 -0.5259427 1 1 1
v -0.5171062 1.69198E-16 -0.5379942 1 1 1
v -0.6546845 1.69198E-16 -0.4585633 1 1 1
v -0.323511 0.0825 0.4322086 1 1 1
v -0.5647032 0.0825 0.2929562 1 1 1
v -0.8128154 1.69198E-16 0.1977336 1 1 1
v -0.6477674 1.69198E-16 0.2930241 1 1 1
v -0.8128154 1.69198E-16 -0.1362653 1 1 1
v -0.7712245 0.0825 -0.1600968 1 1 1
v -0.1530046 1.69198E-16 0.3817917 1 1 1
v -0.2360688 0.0825 0.3817238 1 1 1
v 0.01288424 1.804779E-16 0.2860157 1 1 1
v 0.2061004 0.0825 0.3279925 1 1 1
v 0.1575719 9.023893E-17 0.3516489 1 1 1
v -0.5312343 1.69198E-16 -0.5624648 1 1 1
v -0.5171062 1.69198E-16 -0.5379941 1 1 1
v -0.4287342 1.69198E-16 -0.74 1 1 1
v -0.272261 1.69198E-16 0.7078393 1 1 1
v -0.2237343 1.69198E-16 -0.74 1 1 1
v -0.579761 1.69198E-16 0.7078393 1 1 1
v -0.733511 1.69198E-16 0.4415364 1 1 1
v -0.6546845 1.69198E-16 -0.4585633 1 1 1
v -0.7938942 1.69198E-16 -0.4585633 1 1 1
v -0.8128154 1.69198E-16 0.1977336 1 1 1
v -0.8963943 1.69198E-16 -0.2810281 1 1 1
v -0.1530046 1.720567E-16 0.3817917 1 1 1
v -0.118511 1.69198E-16 0.4415364 1 1 1
v -0.1340007 1.736643E-16 -0.5403526 1 1 1
v -0.1212343 1.69198E-16 -0.5624648 1 1 1
v 0.01288424 1.804779E-16 0.2860157 1 1 1
v -0.08420406 1.804779E-16 -0.5116025 1 1 1
v 0.190269 1.917577E-16 -0.7081059 1 1 1
v 0.1575719 9.307577E-17 0.3516489 1 1 1
v 0.2043822 0 0.4942654 1 1 1
v 0.1398072 0 0.3824182 1 1 1
v 0.3335322 0 0.4942654 1 1 1
v 0.3834951 9.587886E-17 0.3571094 1 1 1
v 0.3981072 0 0.3824182 1 1 1
v 0.4031059 1.350358E-16 0.3430694 1 1 1
v 0.42875 1.69198E-16 0.3874862 1 1 1
v 0.73625 1.69198E-16 0.3874862 1 1 1
v 0.7128124 1.903679E-16 -0.3930378 1 1 1
v 0.7375473 1.917577E-16 -0.4358798 1 1 1
v 0.7372993 1.804779E-16 -0.143302 1 1 1
v 0.89 1.69198E-16 0.1211834 1 1 1
v -0.8410442 0.0825 -0.2810281 1 1 1
v -0.7712245 0.0825 -0.1600968 1 1 1
v -0.7662193 0.0825 -0.4106288 1 1 1
v -0.8128154 1.69198E-16 -0.1362653 1 1 1
v -0.7938942 1.69198E-16 -0.4585633 1 1 1
v -0.6546845 1.69198E-16 -0.4585633 1 1 1
v 0.3632367 0.0825 0.3824182 1 1 1
v 0.3981072 0 0.3824182 1 1 1
v 0.3335322 0 0.4942654 1 1 1
v 0.2043822 0 0.4942654 1 1 1
v 0.316097 0.0825 0.4640667 1 1 1
v 0.2218174 0.0825 0.4640667 1 1 1
v 0.1746777 0.0825 0.3824182 1 1 1
v 0.2061004 0.0825 0.3279925 1 1 1
v 0.2958513 0.0825 0.3687053 1 1 1
v 0.1398072 0 0.3824182 1 1 1
v 0.1575719 9.587886E-17 0.3516489 1 1 1
v 0.4820115 2.255973E-16 0.4883485 1 1 1
v 0.4646734 2.255973E-16 0.4414509 1 1 1
v 0.4351139 2.255973E-16 0.5056867 1 1 1
v 0.4177758 2.255973E-16 0.4587891 1 1 1
v 0.4595005 0.03 0.4526922 1 1 1
v 0.4707702 0.03 0.4831756 1 1 1
v 0.429017 0.03 0.463962 1 1 1
v 0.4402868 0.03 0.4944454 1 1 1
v 0.5810608 0.0825 0.28764 1 1 1
v 0.613233 0.0825 0.2493655 1 1 1
v 0.5427862 0.0825 0.2554678 1 1 1
v 0.5749584 0.0825 0.2171932 1 1 1
v 0.6009048 0.1125 0.2504334 1 1 1
v 0.5799928 0.1125 0.2753118 1 1 1
v 0.5760264 0.1125 0.2295214 1 1 1
v 0.5551144 0.1125 0.2543999 1 1 1
v 0.2245262 0.165 -0.4838801 1 1 1
v 0.232888 0.165 -0.5331759 1 1 1
v 0.1752304 0.165 -0.4922419 1 1 1
v 0.1835922 0.165 -0.5415378 1 1 1
v 0.2227979 0.195 -0.5260124 1 1 1
v 0.2173627 0.195 -0.4939702 1 1 1
v 0.1907557 0.195 -0.5314476 1 1 1
v 0.1853205 0.195 -0.4994054 1 1 1
v -0.5055018 0.0825 0.3778914 1 1 1
v -0.5515054 0.0825 0.3583041 1 1 1
v -0.5250891 0.0825 0.423895 1 1 1
v -0.5710928 0.0825 0.4043077 1 1 1
v -0.5468826 0.1125 0.3697825 1 1 1
v -0.5169802 0.1125 0.3825142 1 1 1
v -0.5596144 0.1125 0.3996848 1 1 1
v -0.529712 0.1125 0.4124166 1 1 1
v -0.6015471 4.511946E-17 -0.5220199 1 1 1
v -0.5984585 4.511946E-17 -0.5719244 1 1 1
v -0.6514516 4.511946E-17 -0.5251085 1 1 1
v -0.6483631 4.511946E-17 -0.575013 1 1 1
v -0.6077324 0.03 -0.5637317 1 1 1
v -0.6097398 0.03 -0.5312937 1 1 1
v -0.6401703 0.03 -0.5657392 1 1 1
v -0.6421778 0.03 -0.5333012 1 1 1
v -0.5312343 1.69198E-16 -0.5624648 1 1 1
v -0.4287343 1.69198E-16 -0.74 1 1 1
v -0.4758843 0.0825 -0.5624648 1 1 1
v -0.4010593 0.0825 -0.6920655 1 1 1
v -0.1765843 0.0825 -0.5624648 1 1 1
v -0.1340007 1.748379E-16 -0.5403526 1 1 1
v -0.1212343 1.69198E-16 -0.5624648 1 1 1
v -0.2514093 0.0825 -0.6920655 1 1 1
v -0.2237343 1.69198E-16 -0.74 1 1 1
v -0.733511 1.69198E-16 0.4415364 1 1 1
v -0.650486 0.0825 0.4415364 1 1 1
v -0.5647032 0.0825 0.2929562 1 1 1
v -0.272261 1.69198E-16 0.7078392 1 1 1
v -0.579761 1.69198E-16 0.7078392 1 1 1
v -0.3137735 0.0825 0.6359375 1 1 1
v -0.5382485 0.0825 0.6359375 1 1 1
v -0.201536 0.0825 0.4415364 1 1 1
v -0.118511 1.69198E-16 0.4415364 1 1 1
v -0.2360688 0.0825 0.3817238 1 1 1
v -0.1530046 1.748379E-16 0.3817917 1 1 1
v -0.323511 0.0825 0.4322085 1 1 1
v 0.4031059 1.353584E-16 0.3430694 1 1 1
v 0.4409545 0.0825 0.2648215 1 1 1
v 0.42875 1.69198E-16 0.3874862 1 1 1
v 0.4702625 0.0825 0.3155845 1 1 1
v 0.73625 1.69198E-16 0.3874862 1 1 1
v 0.6947375 0.0825 0.3155845 1 1 1
v 0.7039444 0.0825 -0.05727082 1 1 1
v 0.7372993 1.804779E-16 -0.143302 1 1 1
v 0.806975 0.0825 0.1211834 1 1 1
v 0.89 1.69198E-16 0.1211834 1 1 1
v 0.716204 0.0825 0.06776223 1 1 1

vn -0.8132539 0.3437403 -0.4695324
vn 0.8132539 0.3437403 0.4695324
vn 0 1 0
vn 0.8132539 0.3437403 -0.4695324
vn 1.399304E-08 0.3437403 -0.9390647
vn 0.8886849 0.4501627 -0.08713634
vn -0.8886849 -0.4501627 0.08713634
vn 0 -1 0
vn 0.5198047 0.4501627 0.7260555
vn -0.5198047 -0.4501627 -0.7260555
vn 0.3688802 0.4501627 -0.8131918
vn -0.3688802 -0.4501627 0.8131918
vn 0.4464732 0.4501627 -0.7733144
vn -0.4464732 -0.4501627 0.7733144
vn -0.5198047 0.4501627 -0.7260555
vn 0.5198047 -0.4501627 0.7260555
vn -0.4464732 0.4501627 -0.7733144
vn 0.4464732 -0.4501627 0.7733144
vn -0.4464732 0.4501627 0.7733144
vn 0.4464732 -0.4501627 -0.7733144
vn -0.8929466 0.4501628 -1.330583E-08
vn 0.8929466 -0.4501628 1.330583E-08
vn 0.4464732 0.4501627 0.7733144
vn -0.4464732 -0.4501627 -0.7733144
vn -0.3688802 0.4501627 0.8131918
vn 0.3688802 -0.4501627 -0.8131918
vn -0.7488059 0.5023807 0.4323233
vn -0.7488059 0.5023807 -0.4323233
vn 1.288413E-08 0.5023807 -0.8646466
vn -1.399304E-08 0.3437403 0.9390647
vn -0.8132539 0.3437403 0.4695324
vn 0.9004349 0.28 -0.3328921
vn 0.3328921 0.28 0.9004349
vn -0.3328921 0.28 -0.9004349
vn -0.9004349 0.28 0.3328921
vn 0.734872 0.28 0.617708
vn -0.617708 0.28 0.734872
vn 0.617708 0.28 -0.734872
vn -0.734872 0.28 -0.617708
vn 0.9464801 0.28 0.1605474
vn -0.1605474 0.28 0.9464801
vn 0.1605474 0.28 -0.9464801
vn -0.9464801 0.28 -0.1605474
vn 0.3760765 0.28 -0.8832704
vn 0.8832704 0.28 0.3760765
vn -0.8832704 0.28 -0.3760765
vn -0.3760765 0.28 0.8832704
vn 0.9581668 0.28 0.0592991
vn -0.0592991 0.28 0.9581668
vn 0.0592991 0.28 -0.9581668
vn -0.9581668 0.28 -0.0592991
vn 0.7488059 0.5023807 0.4323233
vn 0.7488059 0.5023807 -0.4323233
vn -0.6528699 0.6570245 -0.3769346
vn -1.123343E-08 0.6570245 0.7538692
vn -0.6528699 0.6570245 0.3769346
vn 0.6528699 0.6570245 0.3769346
vn 0.6528699 0.6570245 -0.3769346

vt 0.84375 0.225
vt 0.84375 0.025
vt 0.84375 0.125
vt 0.84375 0.2014706
vt 0.84375 0.2044521
vt 0.84375 0.2061289
vt 0.84375 0.2132353
vt 0.84375 0.1220764
vt 0.84375 0.16584
vt 0.84375 0.2235504

usemtl colormap

f 3/2/1 2/1/1 1/1/1
f 6/2/2 5/1/2 4/1/2
f 5/1/2 6/2/2 7/2/2
f 8/1/3 1/1/3 2/1/3
f 1/1/3 8/1/3 9/1/3
f 9/1/3 8/1/3 5/1/3
f 5/1/3 8/1/3 4/1/3
f 7/2/4 9/1/4 5/1/4
f 9/1/4 7/2/4 10/2/4
f 1/1/5 10/2/5 3/2/5
f 10/2/5 1/1/5 9/1/5
f 13/2/6 12/3/6 11/2/6
f 14/1/6 11/2/6 12/3/6
f 14/1/6 12/3/6 15/3/6
f 14/1/6 16/3/6 11/2/6
f 17/1/6 16/3/6 14/1/6
f 16/3/6 17/1/6 18/3/6
f 11/2/7 12/3/7 13/2/7
f 12/3/7 11/2/7 14/1/7
f 15/3/7 12/3/7 14/1/7
f 11/2/7 16/3/7 14/1/7
f 14/1/7 16/3/7 17/1/7
f 18/3/7 17/1/7 16/3/7
f 21/1/3 20/1/3 19/1/3
f 20/1/3 21/1/3 22/1/3
f 20/1/3 22/1/3 23/1/3
f 23/1/3 22/1/3 24/1/3
f 23/1/3 24/1/3 25/1/3
f 25/1/3 24/1/3 26/1/3
f 25/1/3 26/1/3 14/1/3
f 14/1/3 26/1/3 17/1/3
f 19/1/8 20/1/8 21/1/8
f 22/1/8 21/1/8 20/1/8
f 23/1/8 22/1/8 20/1/8
f 24/1/8 22/1/8 23/1/8
f 25/1/8 24/1/8 23/1/8
f 26/1/8 24/1/8 25/1/8
f 14/1/8 26/1/8 25/1/8
f 17/1/8 26/1/8 14/1/8
f 29/2/9 28/3/9 27/2/9
f 28/3/9 29/2/9 30/3/9
f 26/1/9 28/3/9 30/3/9
f 28/3/9 26/1/9 31/3/9
f 26/1/9 30/3/9 17/1/9
f 17/1/9 30/3/9 18/3/9
f 27/2/10 28/3/10 29/2/10
f 30/3/10 29/2/10 28/3/10
f 30/3/10 28/3/10 26/1/10
f 31/3/10 26/1/10 28/3/10
f 17/1/10 30/3/10 26/1/10
f 18/3/10 30/3/10 17/1/10
f 25/1/11 33/2/11 32/2/11
f 33/2/11 25/1/11 34/3/11
f 14/1/11 34/3/11 25/1/11
f 34/3/11 14/1/11 15/3/11
f 32/2/12 33/2/12 25/1/12
f 34/3/12 25/1/12 33/2/12
f 25/1/12 34/3/12 14/1/12
f 15/3/12 14/1/12 34/3/12
f 20/1/13 36/3/13 35/3/13
f 23/1/13 36/3/13 20/1/13
f 37/2/13 36/3/13 23/1/13
f 36/3/13 37/2/13 38/2/13
f 35/3/14 36/3/14 20/1/14
f 20/1/14 36/3/14 23/1/14
f 23/1/14 36/3/14 37/2/14
f 38/2/14 37/2/14 36/3/14
f 23/1/15 32/2/15 37/2/15
f 32/2/15 23/1/15 25/1/15
f 37/2/16 32/2/16 23/1/16
f 25/1/16 23/1/16 32/2/16
f 19/1/17 40/3/17 39/3/17
f 40/3/17 19/1/17 41/3/17
f 20/1/17 41/3/17 19/1/17
f 41/3/17 20/1/17 35/3/17
f 42/2/17 40/3/17 41/3/17
f 40/3/17 42/2/17 43/2/17
f 39/3/18 40/3/18 19/1/18
f 41/3/18 19/1/18 40/3/18
f 19/1/18 41/3/18 20/1/18
f 35/3/18 20/1/18 41/3/18
f 41/3/18 40/3/18 42/2/18
f 43/2/18 42/2/18 40/3/18
f 22/1/19 45/3/19 44/3/19
f 21/1/19 45/3/19 22/1/19
f 46/2/19 45/3/19 21/1/19
f 45/3/19 46/2/19 47/2/19
f 44/3/20 45/3/20 22/1/20
f 22/1/20 45/3/20 21/1/20
f 21/1/20 45/3/20 46/2/20
f 47/2/20 46/2/20 45/3/20
f 21/1/21 48/2/21 46/2/21
f 48/2/21 21/1/21 49/3/21
f 49/3/21 21/1/21 19/1/21
f 49/3/21 19/1/21 39/3/21
f 46/2/22 48/2/22 21/1/22
f 49/3/22 21/1/22 48/2/22
f 19/1/22 21/1/22 49/3/22
f 39/3/22 19/1/22 49/3/22
f 52/2/23 51/3/23 50/2/23
f 51/3/23 52/2/23 24/1/23
f 51/3/23 24/1/23 44/3/23
f 44/3/23 24/1/23 22/1/23
f 50/2/24 51/3/24 52/2/24
f 24/1/24 52/2/24 51/3/24
f 44/3/24 24/1/24 51/3/24
f 22/1/24 24/1/24 44/3/24
f 26/1/25 53/3/25 31/3/25
f 24/1/25 53/3/25 26/1/25
f 52/2/25 53/3/25 24/1/25
f 53/3/25 52/2/25 54/2/25
f 31/3/26 53/3/26 26/1/26
f 26/1/26 53/3/26 24/1/26
f 24/1/26 53/3/26 52/2/26
f 54/2/26 52/2/26 53/3/26
f 57/4/8 56/4/8 55/4/8
f 58/4/8 56/4/8 57/4/8
f 58/4/8 57/4/8 59/4/8
f 60/4/8 56/4/8 58/4/8
f 47/4/8 56/4/8 60/4/8
f 60/4/8 61/4/8 47/4/8
f 47/4/8 62/4/8 56/4/8
f 47/4/8 63/4/8 62/4/8
f 64/4/8 63/4/8 47/4/8
f 48/4/8 63/4/8 64/4/8
f 63/4/8 48/4/8 65/4/8
f 58/4/8 59/4/8 66/5/8
f 58/4/8 66/5/8 67/4/8
f 59/4/8 68/6/8 66/5/8
f 68/6/8 59/4/8 69/4/8
f 68/6/8 70/7/8 66/5/8
f 70/7/8 68/6/8 71/7/8
f 70/7/8 71/7/8 72/1/8
f 70/7/8 72/1/8 73/8/8
f 74/2/8 73/8/8 72/1/8
f 73/8/8 74/2/8 75/2/8
f 74/2/8 72/1/8 33/1/8
f 74/2/8 33/1/8 76/2/8
f 76/2/8 33/1/8 77/3/8
f 78/2/8 76/2/8 77/3/8
f 77/3/8 33/1/8 79/9/8
f 79/9/8 33/1/8 80/4/8
f 80/4/8 33/1/8 81/4/8
f 81/4/8 33/1/8 10/1/8
f 81/4/8 10/1/8 82/10/8
f 83/1/8 82/10/8 10/1/8
f 81/4/8 82/10/8 84/7/8
f 81/4/8 84/7/8 85/4/8
f 87/1/3 39/1/3 86/1/3
f 39/1/3 88/1/3 86/1/3
f 88/1/3 39/1/3 40/1/3
f 87/1/27 65/2/27 89/2/27
f 65/2/27 87/1/27 86/1/27
f 86/1/28 90/2/28 65/2/28
f 90/2/28 86/1/28 88/1/28
f 88/1/29 91/2/29 90/2/29
f 91/2/29 88/1/29 40/1/29
f 93/2/4 28/1/4 92/1/4
f 28/1/4 93/2/4 77/2/4
f 96/1/30 95/2/30 94/2/30
f 95/2/30 96/1/30 97/1/30
f 93/2/2 96/1/2 94/2/2
f 96/1/2 93/2/2 92/1/2
f 97/1/3 99/1/3 98/1/3
f 99/1/3 97/1/3 100/1/3
f 100/1/3 97/1/3 96/1/3
f 100/1/3 96/1/3 28/1/3
f 28/1/3 96/1/3 92/1/3
f 98/1/1 102/2/1 101/2/1
f 102/2/1 98/1/1 99/1/1
f 97/1/31 101/2/31 95/2/31
f 101/2/31 97/1/31 98/1/31
f 105/2/8 104/2/8 103/2/8
f 104/2/8 105/2/8 106/2/8
f 109/1/3 108/1/3 107/1/3
f 108/1/3 109/1/3 110/1/3
f 107/1/32 103/2/32 104/2/32
f 103/2/32 107/1/32 108/1/32
f 108/1/33 105/2/33 103/2/33
f 105/2/33 108/1/33 110/1/33
f 109/1/34 104/2/34 106/2/34
f 104/2/34 109/1/34 107/1/34
f 105/2/35 109/1/35 106/2/35
f 109/1/35 105/2/35 110/1/35
f 113/2/8 112/2/8 111/2/8
f 112/2/8 113/2/8 114/2/8
f 117/1/3 116/1/3 115/1/3
f 116/1/3 117/1/3 118/1/3
f 115/1/36 111/2/36 112/2/36
f 111/2/36 115/1/36 116/1/36
f 116/1/37 113/2/37 111/2/37
f 113/2/37 116/1/37 118/1/37
f 117/1/38 112/2/38 114/2/38
f 112/2/38 117/1/38 115/1/38
f 113/2/39 117/1/39 114/2/39
f 117/1/39 113/2/39 118/1/39
f 121/2/8 120/2/8 119/2/8
f 120/2/8 121/2/8 122/2/8
f 125/1/3 124/1/3 123/1/3
f 124/1/3 125/1/3 126/1/3
f 123/1/40 119/2/40 120/2/40
f 119/2/40 123/1/40 124/1/40
f 124/1/41 121/2/41 119/2/41
f 121/2/41 124/1/41 126/1/41
f 125/1/42 120/2/42 122/2/42
f 120/2/42 125/1/42 123/1/42
f 121/2/43 125/1/43 122/2/43
f 125/1/43 121/2/43 126/1/43
f 129/2/8 128/2/8 127/2/8
f 128/2/8 129/2/8 130/2/8
f 133/1/3 132/1/3 131/1/3
f 132/1/3 133/1/3 134/1/3
f 131/1/44 127/2/44 128/2/44
f 127/2/44 131/1/44 132/1/44
f 132/1/45 129/2/45 127/2/45
f 129/2/45 132/1/45 134/1/45
f 133/1/46 128/2/46 130/2/46
f 128/2/46 133/1/46 131/1/46
f 129/2/47 133/1/47 130/2/47
f 133/1/47 129/2/47 134/1/47
f 137/2/8 136/2/8 135/2/8
f 136/2/8 137/2/8 138/2/8
f 141/1/3 140/1/3 139/1/3
f 140/1/3 141/1/3 142/1/3
f 139/1/48 135/2/48 136/2/48
f 135/2/48 139/1/48 140/1/48
f 140/1/49 137/2/49 135/2/49
f 137/2/49 140/1/49 142/1/49
f 141/1/50 136/2/50 138/2/50
f 136/2/50 141/1/50 139/1/50
f 137/2/51 141/1/51 138/2/51
f 141/1/51 137/2/51 142/1/51
f 145/3/28 144/2/28 143/2/28
f 144/2/28 145/3/28 146/3/28
f 148/2/52 147/3/52 36/3/52
f 147/3/52 148/2/52 149/2/52
f 41/3/3 146/3/3 145/3/3
f 146/3/3 41/3/3 35/3/3
f 146/3/3 35/3/3 150/3/3
f 150/3/3 35/3/3 36/3/3
f 150/3/3 36/3/3 147/3/3
f 145/3/27 42/2/27 41/3/27
f 42/2/27 145/3/27 143/2/27
f 146/3/29 151/2/29 144/2/29
f 151/2/29 146/3/29 150/3/29
f 149/2/53 150/3/53 147/3/53
f 150/3/53 149/2/53 151/2/53
f 153/3/54 47/2/54 152/2/54
f 47/2/54 153/3/54 154/3/54
f 157/3/55 156/2/55 155/2/55
f 156/2/55 157/3/55 158/3/55
f 156/2/56 153/3/56 152/2/56
f 153/3/56 156/2/56 158/3/56
f 155/2/57 159/3/57 157/3/57
f 159/3/57 155/2/57 160/2/57
f 159/3/58 162/2/58 161/3/58
f 162/2/58 159/3/58 160/2/58
f 158/3/3 154/3/3 153/3/3
f 154/3/3 158/3/3 163/3/3
f 163/3/3 158/3/3 157/3/3
f 163/3/3 157/3/3 161/3/3
f 161/3/3 157/3/3 159/3/3
f 166/2/56 165/3/56 164/2/56
f 165/3/56 166/2/56 167/3/56
f 169/3/55 166/2/55 168/2/55
f 166/2/55 169/3/55 167/3/55
f 172/3/58 171/2/58 170/3/58
f 171/2/58 172/3/58 173/2/58
f 167/3/3 174/3/3 165/3/3
f 174/3/3 167/3/3 169/3/3
f 174/3/3 169/3/3 172/3/3
f 172/3/3 170/3/3 174/3/3
f 168/2/57 172/3/57 169/3/57
f 172/3/57 168/2/57 173/2/57

g rock-flat




usemtl colormap

f 3/2/1 2/1/1 1/1/1
f 6/2/2 5/1/2 4/1/2
f 5/1/2 6/2/2 7/2/2
f 8/1/3 1/1/3 2/1/3
f 1/1/3 8/1/3 9/1/3
f 9/1/3 8/1/3 5/1/3
f 5/1/3 8/1/3 4/1/3
f 7/2/4 9/1/4 5/1/4
f 9/1/4 7/2/4 10/2/4
f 1/1/5 10/2/5 3/2/5
f 10/2/5 1/1/5 9/1/5
f 13/2/6 12/3/6 11/2/6
f 14/1/6 11/2/6 12/3/6
f 14/1/6 12/3/6 15/3/6
f 14/1/6 16/3/6 11/2/6
f 17/1/6 16/3/6 14/1/6
f 16/3/6 17/1/6 18/3/6
f 11/2/7 12/3/7 13/2/7
f 12/3/7 11/2/7 14/1/7
f 15/3/7 12/3/7 14/1/7
f 11/2/7 16/3/7 14/1/7
f 14/1/7 16/3/7 17/1/7
f 18/3/7 17/1/7 16/3/7
f 21/1/3 20/1/3 19/1/3
f 20/1/3 21/1/3 22/1/3
f 20/1/3 22/1/3 23/1/3
f 23/1/3 22/1/3 24/1/3
f 23/1/3 24/1/3 25/1/3
f 25/1/3 24/1/3 26/1/3
f 25/1/3 26/1/3 14/1/3
f 14/1/3 26/1/3 17/1/3
f 19/1/8 20/1/8 21/1/8
f 22/1/8 21/1/8 20/1/8
f 23/1/8 22/1/8 20/1/8
f 24/1/8 22/1/8 23/1/8
f 25/1/8 24/1/8 23/1/8
f 26/1/8 24/1/8 25/1/8
f 14/1/8 26/1/8 25/1/8
f 17/1/8 26/1/8 14/1/8
f 29/2/9 28/3/9 27/2/9
f 28/3/9 29/2/9 30/3/9
f 26/1/9 28/3/9 30/3/9
f 28/3/9 26/1/9 31/3/9
f 26/1/9 30/3/9 17/1/9
f 17/1/9 30/3/9 18/3/9
f 27/2/10 28/3/10 29/2/10
f 30/3/10 29/2/10 28/3/10
f 30/3/10 28/3/10 26/1/10
f 31/3/10 26/1/10 28/3/10
f 17/1/10 30/3/10 26/1/10
f 18/3/10 30/3/10 17/1/10
f 25/1/11 33/2/11 32/2/11
f 33/2/11 25/1/11 34/3/11
f 14/1/11 34/3/11 25/1/11
f 34/3/11 14/1/11 15/3/11
f 32/2/12 33/2/12 25/1/12
f 34/3/12 25/1/12 33/2/12
f 25/1/12 34/3/12 14/1/12
f 15/3/12 14/1/12 34/3/12
f 20/1/13 36/3/13 35/3/13
f 23/1/13 36/3/13 20/1/13
f 37/2/13 36/3/13 23/1/13
f 36/3/13 37/2/13 38/2/13
f 35/3/14 36/3/14 20/1/14
f 20/1/14 36/3/14 23/1/14
f 23/1/14 36/3/14 37/2/14
f 38/2/14 37/2/14 36/3/14
f 23/1/15 32/2/15 37/2/15
f 32/2/15 23/1/15 25/1/15
f 37/2/16 32/2/16 23/1/16
f 25/1/16 23/1/16 32/2/16
f 19/1/17 40/3/17 39/3/17
f 40/3/17 19/1/17 41/3/17
f 20/1/17 41/3/17 19/1/17
f 41/3/17 20/1/17 35/3/17
f 42/2/17 40/3/17 41/3/17
f 40/3/17 42/2/17 43/2/17
f 39/3/18 40/3/18 19/1/18
f 41/3/18 19/1/18 40/3/18
f 19/1/18 41/3/18 20/1/18
f 35/3/18 20/1/18 41/3/18
f 41/3/18 40/3/18 42/2/18
f 43/2/18 42/2/18 40/3/18
f 22/1/19 45/3/19 44/3/19
f 21/1/19 45/3/19 22/1/19
f 46/2/19 45/3/19 21/1/19
f 45/3/19 46/2/19 47/2/19
f 44/3/20 45/3/20 22/1/20
f 22/1/20 45/3/20 21/1/20
f 21/1/20 45/3/20 46/2/20
f 47/2/20 46/2/20 45/3/20
f 21/1/21 48/2/21 46/2/21
f 48/2/21 21/1/21 49/3/21
f 49/3/21 21/1/21 19/1/21
f 49/3/21 19/1/21 39/3/21
f 46/2/22 48/2/22 21/1/22
f 49/3/22 21/1/22 48/2/22
f 19/1/22 21/1/22 49/3/22
f 39/3/22 19/1/22 49/3/22
f 52/2/23 51/3/23 50/2/23
f 51/3/23 52/2/23 24/1/23
f 51/3/23 24/1/23 44/3/23
f 44/3/23 24/1/23 22/1/23
f 50/2/24 51/3/24 52/2/24
f 24/1/24 52/2/24 51/3/24
f 44/3/24 24/1/24 51/3/24
f 22/1/24 24/1/24 44/3/24
f 26/1/25 53/3/25 31/3/25
f 24/1/25 53/3/25 26/1/25
f 52/2/25 53/3/25 24/1/25
f 53/3/25 52/2/25 54/2/25
f 31/3/26 53/3/26 26/1/26
f 26/1/26 53/3/26 24/1/26
f 24/1/26 53/3/26 52/2/26
f 54/2/26 52/2/26 53/3/26
f 57/4/8 56/4/8 55/4/8
f 58/4/8 56/4/8 57/4/8
f 58/4/8 57/4/8 59/4/8
f 60/4/8 56/4/8 58/4/8
f 47/4/8 56/4/8 60/4/8
f 60/4/8 61/4/8 47/4/8
f 47/4/8 62/4/8 56/4/8
f 47/4/8 63/4/8 62/4/8
f 64/4/8 63/4/8 47/4/8
f 48/4/8 63/4/8 64/4/8
f 63/4/8 48/4/8 65/4/8
f 58/4/8 59/4/8 66/5/8
f 58/4/8 66/5/8 67/4/8
f 59/4/8 68/6/8 66/5/8
f 68/6/8 59/4/8 69/4/8
f 68/6/8 70/7/8 66/5/8
f 70/7/8 68/6/8 71/7/8
f 70/7/8 71/7/8 72/1/8
f 70/7/8 72/1/8 73/8/8
f 74/2/8 73/8/8 72/1/8
f 73/8/8 74/2/8 75/2/8
f 74/2/8 72/1/8 33/1/8
f 74/2/8 33/1/8 76/2/8
f 76/2/8 33/1/8 77/3/8
f 78/2/8 76/2/8 77/3/8
f 77/3/8 33/1/8 79/9/8
f 79/9/8 33/1/8 80/4/8
f 80/4/8 33/1/8 81/4/8
f 81/4/8 33/1/8 10/1/8
f 81/4/8 10/1/8 82/10/8
f 83/1/8 82/10/8 10/1/8
f 81/4/8 82/10/8 84/7/8
f 81/4/8 84/7/8 85/4/8
f 87/1/3 39/1/3 86/1/3
f 39/1/3 88/1/3 86/1/3
f 88/1/3 39/1/3 40/1/3
f 87/1/27 65/2/27 89/2/27
f 65/2/27 87/1/27 86/1/27
f 86/1/28 90/2/28 65/2/28
f 90/2/28 86/1/28 88/1/28
f 88/1/29 91/2/29 90/2/29
f 91/2/29 88/1/29 40/1/29
f 93/2/4 28/1/4 92/1/4
f 28/1/4 93/2/4 77/2/4
f 96/1/30 95/2/30 94/2/30
f 95/2/30 96/1/30 97/1/30
f 93/2/2 96/1/2 94/2/2
f 96/1/2 93/2/2 92/1/2
f 97/1/3 99/1/3 98/1/3
f 99/1/3 97/1/3 100/1/3
f 100/1/3 97/1/3 96/1/3
f 100/1/3 96/1/3 28/1/3
f 28/1/3 96/1/3 92/1/3
f 98/1/1 102/2/1 101/2/1
f 102/2/1 98/1/1 99/1/1
f 97/1/31 101/2/31 95/2/31
f 101/2/31 97/1/31 98/1/31
f 105/2/8 104/2/8 103/2/8
f 104/2/8 105/2/8 106/2/8
f 109/1/3 108/1/3 107/1/3
f 108/1/3 109/1/3 110/1/3
f 107/1/32 103/2/32 104/2/32
f 103/2/32 107/1/32 108/1/32
f 108/1/33 105/2/33 103/2/33
f 105/2/33 108/1/33 110/1/33
f 109/1/34 104/2/34 106/2/34
f 104/2/34 109/1/34 107/1/34
f 105/2/35 109/1/35 106/2/35
f 109/1/35 105/2/35 110/1/35
f 113/2/8 112/2/8 111/2/8
f 112/2/8 113/2/8 114/2/8
f 117/1/3 116/1/3 115/1/3
f 116/1/3 117/1/3 118/1/3
f 115/1/36 111/2/36 112/2/36
f 111/2/36 115/1/36 116/1/36
f 116/1/37 113/2/37 111/2/37
f 113/2/37 116/1/37 118/1/37
f 117/1/38 112/2/38 114/2/38
f 112/2/38 117/1/38 115/1/38
f 113/2/39 117/1/39 114/2/39
f 117/1/39 113/2/39 118/1/39
f 121/2/8 120/2/8 119/2/8
f 120/2/8 121/2/8 122/2/8
f 125/1/3 124/1/3 123/1/3
f 124/1/3 125/1/3 126/1/3
f 123/1/40 119/2/40 120/2/40
f 119/2/40 123/1/40 124/1/40
f 124/1/41 121/2/41 119/2/41
f 121/2/41 124/1/41 126/1/41
f 125/1/42 120/2/42 122/2/42
f 120/2/42 125/1/42 123/1/42
f 121/2/43 125/1/43 122/2/43
f 125/1/43 121/2/43 126/1/43
f 129/2/8 128/2/8 127/2/8
f 128/2/8 129/2/8 130/2/8
f 133/1/3 132/1/3 131/1/3
f 132/1/3 133/1/3 134/1/3
f 131/1/44 127/2/44 128/2/44
f 127/2/44 131/1/44 132/1/44
f 132/1/45 129/2/45 127/2/45
f 129/2/45 132/1/45 134/1/45
f 133/1/46 128/2/46 130/2/46
f 128/2/46 133/1/46 131/1/46
f 129/2/47 133/1/47 130/2/47
f 133/1/47 129/2/47 134/1/47
f 137/2/8 136/2/8 135/2/8
f 136/2/8 137/2/8 138/2/8
f 141/1/3 140/1/3 139/1/3
f 140/1/3 141/1/3 142/1/3
f 139/1/48 135/2/48 136/2/48
f 135/2/48 139/1/48 140/1/48
f 140/1/49 137/2/49 135/2/49
f 137/2/49 140/1/49 142/1/49
f 141/1/50 136/2/50 138/2/50
f 136/2/50 141/1/50 139/1/50
f 137/2/51 141/1/51 138/2/51
f 141/1/51 137/2/51 142/1/51
f 145/3/28 144/2/28 143/2/28
f 144/2/28 145/3/28 146/3/28
f 148/2/52 147/3/52 36/3/52
f 147/3/52 148/2/52 149/2/52
f 41/3/3 146/3/3 145/3/3
f 146/3/3 41/3/3 35/3/3
f 146/3/3 35/3/3 150/3/3
f 150/3/3 35/3/3 36/3/3
f 150/3/3 36/3/3 147/3/3
f 145/3/27 42/2/27 41/3/27
f 42/2/27 145/3/27 143/2/27
f 146/3/29 151/2/29 144/2/29
f 151/2/29 146/3/29 150/3/29
f 149/2/53 150/3/53 147/3/53
f 150/3/53 149/2/53 151/2/53
f 153/3/54 47/2/54 152/2/54
f 47/2/54 153/3/54 154/3/54
f 157/3/55 156/2/55 155/2/55
f 156/2/55 157/3/55 158/3/55
f 156/2/56 153/3/56 152/2/56
f 153/3/56 156/2/56 158/3/56
f 155/2/57 159/3/57 157/3/57
f 159/3/57 155/2/57 160/2/57
f 159/3/58 162/2/58 161/3/58
f 162/2/58 159/3/58 160/2/58
f 158/3/3 154/3/3 153/3/3
f 154/3/3 158/3/3 163/3/3
f 163/3/3 158/3/3 157/3/3
f 163/3/3 157/3/3 161/3/3
f 161/3/3 157/3/3 159/3/3
f 166/2/56 165/3/56 164/2/56
f 165/3/56 166/2/56 167/3/56
f 169/3/55 166/2/55 168/2/55
f 166/2/55 169/3/55 167/3/55
f 172/3/58 171/2/58 170/3/58
f 171/2/58 172/3/58 173/2/58
f 167/3/3 174/3/3 165/3/3
f 174/3/3 167/3/3 169/3/3
f 174/3/3 169/3/3 172/3/3
f 172/3/3 170/3/3 174/3/3
f 168/2/57 172/3/57 169/3/57
f 172/3/57 168/2/57 173/2/57

