# Created by Kenney (www.kenney.nl)

mtllib rock-sand-a.mtl

g rock-sand-a

v -0.3 0 0.03073847 1 1 1
v -0.2683789 0 0.05127344 1 1 1
v -0.2437119 0 -0.1793316 1 1 1
v -0.1133004 0 0.2416981 1 1 1
v -0.2910315 0 0.135814 1 1 1
v -0.0265294 0 -0.1907136 1 1 1
v -0.001470558 0 0.1630021 1 1 1
v -0.01967782 0 -0.1728647 1 1 1
v 0.1503592 0 -0.1751931 1 1 1
v 0.05131402 0 0.1944487 1 1 1
v 0.2551817 0 0.05098445 1 1 1
v -0.02297104 0.3927 -0.0416736 1 1 1
v -0.08923161 0.3927 -0.1299517 1 1 1
v -0.03745695 0.1385755 -0.169859 1 1 1
v -0.1864127 0.3927 0.03606477 1 1 1
v -0.2761463 0.1334053 0.02297993 1 1 1
v -0.2163985 0.3927 -0.04205086 1 1 1
v -0.1170549 0.0791666 0.1357476 1 1 1
v -0.2126801 0.0791666 0.07364783 1 1 1
v -0.1148742 0.3927 0.08252242 1 1 1
v -0.3 0 0.03073847 1 1 1
v -0.2437119 0 -0.1793316 1 1 1
v -0.1943212 0.3927 -0.1244442 1 1 1
v -0.008395299 0.3927 -0.003702495 1 1 1
v -0.0265294 0 -0.1907136 1 1 1
v 0.02487065 0.1742606 0.005211089 1 1 1
v -0.01924266 0.1742606 -0.109708 1 1 1
v -0.01967782 0 -0.1728647 1 1 1
v -0.04625426 0.1742606 0.0628069 1 1 1
v -0.0636922 0.0791666 0.09253538 1 1 1
v 0.03711084 4.511946E-17 0.2772492 1 1 1
v 0.02060845 4.511946E-17 0.230051 1 1 1
v -0.01008737 4.511946E-17 0.2937516 1 1 1
v -0.02658976 4.511946E-17 0.2465534 1 1 1
v 0.01523668 0.03 0.2411986 1 1 1
v 0.02596323 0.03 0.2718774 1 1 1
v -0.01544215 0.03 0.2519251 1 1 1
v -0.004715602 0.03 0.282604 1 1 1
v 0.02426192 0.1742606 -0.04944959 1 1 1
v 0.05969913 0.1742606 -0.0141763 1 1 1
v 0.05953521 0.1742606 -0.0848868 1 1 1
v 0.09497242 0.1742606 -0.04961351 1 1 1
v 0.05967044 0.2042606 -0.02655064 1 1 1
v 0.03663626 0.2042606 -0.04947827 1 1 1
v 0.08259808 0.2042606 -0.04958482 1 1 1
v 0.05956389 0.2042606 -0.07251246 1 1 1
v -0.1131432 0.02390136 0.2247015 1 1 1
v -0.1502768 0.0791666 0.1630626 1 1 1
v -0.07708512 0.0791666 0.1602829 1 1 1
v -0.001470566 0 0.1630021 1 1 1
v -0.01881014 0.0791666 0.119274 1 1 1
v -0.2910315 0 0.135814 1 1 1
v -0.2247504 0.0791666 0.1186947 1 1 1
v -0.1170549 0.0791666 0.1357476 1 1 1
v -0.0636922 0.0791666 0.09253536 1 1 1
v -0.2683789 0 0.05127343 1 1 1
v 0.1162085 0.1742606 0.07614516 1 1 1
v 0.0515876 0.07051308 0.1648644 1 1 1
v 0.02016454 0.1742606 0.1023762 1 1 1
v 0.02487066 0.1742606 0.005211088 1 1 1
v 0.1143886 0.1742606 -0.1115379 1 1 1
v 0.1804268 0.1742606 0.03095392 1 1 1
v 0.2551817 0 0.05098444 1 1 1
v -0.01881014 0.0791666 0.119274 1 1 1
v -0.0636922 0.0791666 0.09253537 1 1 1
v -0.01967782 0 -0.1728647 1 1 1

vn 0 -1 0
vn 0.8797188 0.1732202 -0.4428199
vn 0.7745621 0.2491057 -0.5813776
vn 0.9116577 0.1424685 -0.3854646
vn -0.8929701 0.2917306 0.3427791
vn -0.5389131 0.1446235 0.8298534
vn -0.9541401 0.1557376 -0.255661
vn 0 1 0
vn -0.05178574 0.1446235 -0.9881307
vn 0.9260776 0.1265256 -0.3554879
vn 0.6242628 0.1265256 0.7709003
vn 0.9062057 0.28 -0.3168459
vn 0.3168459 0.28 0.9062057
vn -0.3168459 0.28 -0.9062057
vn -0.9062057 0.28 0.3168459
vn -0.677247 0.28 0.6803945
vn -0.6803945 0.28 -0.677247
vn 0.6803945 0.28 0.677247
vn 0.677247 0.28 -0.6803945
vn 0.02502645 0.7517663 0.6589545
vn 0.4983062 0.5002703 0.7081105
vn -0.4361026 0.523416 0.7320179
vn -0.7717245 0.6014 -0.206783
vn 0.2198068 0.5513238 0.8048149
vn 0.8587734 0.3226512 -0.3980005
vn 0.5447193 0.3226512 0.7740653
vn -0.4811834 0.3407383 0.807688
vn -0.01287306 0.3407383 -0.94007

vt 0.84375 0.025
vt 0.84375 0.225
vt 0.84375 0.09557577
vt 0.84375 0.09294258
vt 0.84375 0.06531913
vt 0.84375 0.11375
vt 0.84375 0.1551912
vt 0.84375 0.125
vt 0.84375 0.06546415
vt 0.84375 0.07043

usemtl colormap

f 3/1/1 2/1/1 1/1/1
f 4/1/1 2/1/1 3/1/1
f 2/1/1 4/1/1 5/1/1
f 4/1/1 3/1/1 6/1/1
f 4/1/1 6/1/1 7/1/1
f 7/1/1 6/1/1 8/1/1
f 7/1/1 8/1/1 9/1/1
f 7/1/1 9/1/1 10/1/1
f 10/1/1 9/1/1 11/1/1
f 14/3/4 13/2/3 12/2/2
f 17/2/5 16/4/5 15/2/5
f 20/2/6 19/5/6 18/5/6
f 19/5/6 20/2/6 16/4/6
f 16/4/6 20/2/6 15/2/6
f 21/1/6 19/5/6 16/4/6
f 19/5/6 21/1/6 2/1/6
f 16/4/7 22/1/7 21/1/7
f 22/1/7 16/4/7 17/2/7
f 22/1/7 17/2/7 23/2/7
f 15/2/8 23/2/8 17/2/8
f 23/2/8 15/2/8 13/2/8
f 13/2/8 15/2/8 20/2/8
f 13/2/8 20/2/8 24/2/8
f 13/2/8 24/2/8 12/2/8
f 23/2/9 25/1/9 22/1/9
f 25/1/9 23/2/9 14/3/9
f 14/3/9 23/2/9 13/2/9
f 27/6/10 24/2/10 26/6/10
f 24/2/10 27/6/10 12/2/2
f 12/2/2 27/6/10 14/3/4
f 14/3/4 27/6/10 28/1/10
f 14/3/4 28/1/10 25/1/10
f 24/2/11 29/6/11 26/6/11
f 20/2/11 29/6/11 24/2/11
f 20/2/11 30/5/11 29/6/11
f 30/5/11 20/2/11 18/5/11
f 33/1/1 32/1/1 31/1/1
f 32/1/1 33/1/1 34/1/1
f 37/2/8 36/2/8 35/2/8
f 36/2/8 37/2/8 38/2/8
f 35/2/12 31/1/12 32/1/12
f 31/1/12 35/2/12 36/2/12
f 36/2/13 33/1/13 31/1/13
f 33/1/13 36/2/13 38/2/13
f 37/2/14 32/1/14 34/1/14
f 32/1/14 37/2/14 35/2/14
f 33/1/15 37/2/15 34/1/15
f 37/2/15 33/1/15 38/2/15
f 41/1/1 40/1/1 39/1/1
f 40/1/1 41/1/1 42/1/1
f 45/2/8 44/2/8 43/2/8
f 44/2/8 45/2/8 46/2/8
f 43/2/16 39/1/16 40/1/16
f 39/1/16 43/2/16 44/2/16
f 44/2/17 41/1/17 39/1/17
f 41/1/17 44/2/17 46/2/17
f 45/2/18 40/1/18 42/1/18
f 40/1/18 45/2/18 43/2/18
f 41/1/19 45/2/19 42/1/19
f 45/2/19 41/1/19 46/2/19
f 49/2/20 48/2/20 47/7/20
f 51/2/21 4/8/21 50/8/21
f 4/8/21 51/2/21 47/7/21
f 47/7/21 51/2/21 49/2/21
f 47/7/22 52/8/22 4/8/22
f 52/8/22 47/7/22 53/2/22
f 53/2/22 47/7/22 48/2/22
f 48/2/8 19/2/8 53/2/8
f 19/2/8 48/2/8 54/2/8
f 54/2/8 48/2/8 49/2/8
f 54/2/8 49/2/8 55/2/8
f 55/2/8 49/2/8 51/2/8
f 53/2/23 56/8/23 52/8/23
f 56/8/23 53/2/23 19/2/23
f 59/8/24 58/9/24 57/8/24
f 59/8/8 60/8/8 29/8/8
f 60/8/8 59/8/8 57/8/8
f 60/8/8 57/8/8 61/8/8
f 61/8/8 57/8/8 62/8/8
f 61/8/8 27/8/8 60/8/8
f 9/1/25 62/8/25 63/1/25
f 62/8/25 9/1/25 61/8/25
f 62/8/26 10/1/26 63/1/26
f 10/1/26 62/8/26 58/9/26
f 58/9/26 62/8/26 57/8/26
f 58/9/27 7/1/27 10/1/27
f 7/1/27 58/9/27 64/10/27
f 64/10/27 58/9/27 59/8/27
f 64/10/27 59/8/27 65/10/27
f 65/10/27 59/8/27 29/8/27
f 27/8/28 9/1/28 66/1/28
f 9/1/28 27/8/28 61/8/28

g rock-sand-a




usemtl colormap

f 3/1/1 2/1/1 1/1/1
f 4/1/1 2/1/1 3/1/1
f 2/1/1 4/1/1 5/1/1
f 4/1/1 3/1/1 6/1/1
f 4/1/1 6/1/1 7/1/1
f 7/1/1 6/1/1 8/1/1
f 7/1/1 8/1/1 9/1/1
f 7/1/1 9/1/1 10/1/1
f 10/1/1 9/1/1 11/1/1
f 14/3/4 13/2/3 12/2/2
f 17/2/5 16/4/5 15/2/5
f 20/2/6 19/5/6 18/5/6
f 19/5/6 20/2/6 16/4/6
f 16/4/6 20/2/6 15/2/6
f 21/1/6 19/5/6 16/4/6
f 19/5/6 21/1/6 2/1/6
f 16/4/7 22/1/7 21/1/7
f 22/1/7 16/4/7 17/2/7
f 22/1/7 17/2/7 23/2/7
f 15/2/8 23/2/8 17/2/8
f 23/2/8 15/2/8 13/2/8
f 13/2/8 15/2/8 20/2/8
f 13/2/8 20/2/8 24/2/8
f 13/2/8 24/2/8 12/2/8
f 23/2/9 25/1/9 22/1/9
f 25/1/9 23/2/9 14/3/9
f 14/3/9 23/2/9 13/2/9
f 27/6/10 24/2/10 26/6/10
f 24/2/10 27/6/10 12/2/2
f 12/2/2 27/6/10 14/3/4
f 14/3/4 27/6/10 28/1/10
f 14/3/4 28/1/10 25/1/10
f 24/2/11 29/6/11 26/6/11
f 20/2/11 29/6/11 24/2/11
f 20/2/11 30/5/11 29/6/11
f 30/5/11 20/2/11 18/5/11
f 33/1/1 32/1/1 31/1/1
f 32/1/1 33/1/1 34/1/1
f 37/2/8 36/2/8 35/2/8
f 36/2/8 37/2/8 38/2/8
f 35/2/12 31/1/12 32/1/12
f 31/1/12 35/2/12 36/2/12
f 36/2/13 33/1/13 31/1/13
f 33/1/13 36/2/13 38/2/13
f 37/2/14 32/1/14 34/1/14
f 32/1/14 37/2/14 35/2/14
f 33/1/15 37/2/15 34/1/15
f 37/2/15 33/1/15 38/2/15
f 41/1/1 40/1/1 39/1/1
f 40/1/1 41/1/1 42/1/1
f 45/2/8 44/2/8 43/2/8
f 44/2/8 45/2/8 46/2/8
f 43/2/16 39/1/16 40/1/16
f 39/1/16 43/2/16 44/2/16
f 44/2/17 41/1/17 39/1/17
f 41/1/17 44/2/17 46/2/17
f 45/2/18 40/1/18 42/1/18
f 40/1/18 45/2/18 43/2/18
f 41/1/19 45/2/19 42/1/19
f 45/2/19 41/1/19 46/2/19
f 49/2/20 48/2/20 47/7/20
f 51/2/21 4/8/21 50/8/21
f 4/8/21 51/2/21 47/7/21
f 47/7/21 51/2/21 49/2/21
f 47/7/22 52/8/22 4/8/22
f 52/8/22 47/7/22 53/2/22
f 53/2/22 47/7/22 48/2/22
f 48/2/8 19/2/8 53/2/8
f 19/2/8 48/2/8 54/2/8
f 54/2/8 48/2/8 49/2/8
f 54/2/8 49/2/8 55/2/8
f 55/2/8 49/2/8 51/2/8
f 53/2/23 56/8/23 52/8/23
f 56/8/23 53/2/23 19/2/23
f 59/8/24 58/9/24 57/8/24
f 59/8/8 60/8/8 29/8/8
f 60/8/8 59/8/8 57/8/8
f 60/8/8 57/8/8 61/8/8
f 61/8/8 57/8/8 62/8/8
f 61/8/8 27/8/8 60/8/8
f 9/1/25 62/8/25 63/1/25
f 62/8/25 9/1/25 61/8/25
f 62/8/26 10/1/26 63/1/26
f 10/1/26 62/8/26 58/9/26
f 58/9/26 62/8/26 57/8/26
f 58/9/27 7/1/27 10/1/27
f 7/1/27 58/9/27 64/10/27
f 64/10/27 58/9/27 59/8/27
f 64/10/27 59/8/27 65/10/27
f 65/10/27 59/8/27 29/8/27
f 27/8/28 9/1/28 66/1/28
f 9/1/28 27/8/28 61/8/28

