# Created by Kenney (www.kenney.nl)

mtllib signpost.mtl

g signpost

v 0.018 0 -0.018 1 1 1
v 0.018 0 0.018 1 1 1
v 0.01152 0.46008 -0.01152 1 1 1
v 0.01152 0.46008 0.01152 1 1 1
v -0.018 0 -0.018 1 1 1
v -0.01152 0.46008 -0.01152 1 1 1
v -0.018 0 0.018 1 1 1
v -0.01152 0.46008 0.01152 1 1 1
v 0.05139168 0.2155882 0.0249778 1 1 1
v -0.1076441 0.2362433 0.0249778 1 1 1
v 0.1018446 0.2544422 0.0249778 1 1 1
v -0.09604515 0.3255503 0.0249778 1 1 1
v 0.06299062 0.3048951 0.0249778 1 1 1
v 0.1018446 0.2544422 0 1 1 1
v 0.05139168 0.2155882 0 1 1 1
v -0.1076441 0.2362433 0 1 1 1
v -0.09604515 0.3255503 0 1 1 1
v 0.06299062 0.3048951 0 1 1 1
v 0.08819628 0.3335183 0.0249778 1 1 1
v -0.07151519 0.3480532 0.0249778 1 1 1
v 0.09635839 0.4232047 0.0249778 1 1 1
v -0.1122773 0.3969774 0.0249778 1 1 1
v -0.06335308 0.4377396 0.0249778 1 1 1
v 0.09635839 0.4232047 0 1 1 1
v -0.06335308 0.4377396 0 1 1 1
v 0.08819628 0.3335183 0 1 1 1
v -0.07151519 0.3480532 0 1 1 1
v -0.1122773 0.3969774 0 1 1 1

vn 0.9999008 0.01408311 0
vn 0 0.01408311 -0.9999008
vn -0.9999008 0.01408311 0
vn 0 0.01408311 0.9999008
vn 0 1 0
vn 0 -1 0
vn 0 0 1
vn 0.6101452 -0.7922896 0
vn -0.1287956 -0.9916712 0
vn -0.9916712 0.1287956 0
vn 0.1287956 0.9916712 0
vn 0.7922896 0.6101452 0
vn 0 0 -1
vn 0.09063257 0.9958844 0
vn 0.9958844 -0.09063257 0
vn -0.09063257 -0.9958844 0
vn -0.7682835 -0.6401097 0
vn -0.6401097 0.7682835 0

vt 0.59375 0.225
vt 0.59375 0.025
vt 0.59375 0.075
vt 0.59375 0.09378387
vt 0.59375 0.110334
vt 0.59375 0.175
vt 0.59375 0.1562161
vt 0.59375 0.08894617
vt 0.59375 0.1610538
vt 0.59375 0.1358888

usemtl colormap

f 3/2/1 2/1/1 1/1/1
f 2/1/1 3/2/1 4/2/1
f 6/2/2 1/1/2 5/1/2
f 1/1/2 6/2/2 3/2/2
f 7/1/3 6/2/3 5/1/3
f 6/2/3 7/1/3 8/2/3
f 4/2/4 7/1/4 2/1/4
f 7/1/4 4/2/4 8/2/4
f 6/2/5 4/2/5 3/2/5
f 4/2/5 6/2/5 8/2/5
f 7/1/6 1/1/6 2/1/6
f 1/1/6 7/1/6 5/1/6
f 11/5/7 10/4/7 9/3/7
f 10/4/7 11/5/7 12/6/7
f 12/6/7 11/5/7 13/7/7
f 9/3/8 14/5/8 11/5/8
f 14/5/8 9/3/8 15/3/8
f 10/4/9 15/3/9 9/3/9
f 15/3/9 10/4/9 16/4/9
f 10/4/10 17/6/10 16/4/10
f 17/6/10 10/4/10 12/6/10
f 17/6/11 13/7/11 18/7/11
f 13/7/11 17/6/11 12/6/11
f 13/7/12 14/5/12 18/7/12
f 14/5/12 13/7/12 11/5/12
f 16/4/13 14/5/13 15/3/13
f 14/5/13 16/4/13 17/6/13
f 14/5/13 17/6/13 18/7/13
f 21/9/7 20/8/7 19/3/7
f 20/8/7 21/9/7 22/10/7
f 22/10/7 21/9/7 23/6/7
f 25/6/14 21/9/14 24/9/14
f 21/9/14 25/6/14 23/6/14
f 21/9/15 26/3/15 24/9/15
f 26/3/15 21/9/15 19/3/15
f 20/8/16 26/3/16 19/3/16
f 26/3/16 20/8/16 27/8/16
f 20/8/17 28/10/17 27/8/17
f 28/10/17 20/8/17 22/10/17
f 28/10/18 23/6/18 25/6/18
f 23/6/18 28/10/18 22/10/18
f 27/8/13 24/9/13 26/3/13
f 24/9/13 27/8/13 28/10/13
f 24/9/13 28/10/13 25/6/13

g signpost




usemtl colormap

f 3/2/1 2/1/1 1/1/1
f 2/1/1 3/2/1 4/2/1
f 6/2/2 1/1/2 5/1/2
f 1/1/2 6/2/2 3/2/2
f 7/1/3 6/2/3 5/1/3
f 6/2/3 7/1/3 8/2/3
f 4/2/4 7/1/4 2/1/4
f 7/1/4 4/2/4 8/2/4
f 6/2/5 4/2/5 3/2/5
f 4/2/5 6/2/5 8/2/5
f 7/1/6 1/1/6 2/1/6
f 1/1/6 7/1/6 5/1/6
f 11/5/7 10/4/7 9/3/7
f 10/4/7 11/5/7 12/6/7
f 12/6/7 11/5/7 13/7/7
f 9/3/8 14/5/8 11/5/8
f 14/5/8 9/3/8 15/3/8
f 10/4/9 15/3/9 9/3/9
f 15/3/9 10/4/9 16/4/9
f 10/4/10 17/6/10 16/4/10
f 17/6/10 10/4/10 12/6/10
f 17/6/11 13/7/11 18/7/11
f 13/7/11 17/6/11 12/6/11
f 13/7/12 14/5/12 18/7/12
f 14/5/12 13/7/12 11/5/12
f 16/4/13 14/5/13 15/3/13
f 14/5/13 16/4/13 17/6/13
f 14/5/13 17/6/13 18/7/13
f 21/9/7 20/8/7 19/3/7
f 20/8/7 21/9/7 22/10/7
f 22/10/7 21/9/7 23/6/7
f 25/6/14 21/9/14 24/9/14
f 21/9/14 25/6/14 23/6/14
f 21/9/15 26/3/15 24/9/15
f 26/3/15 21/9/15 19/3/15
f 20/8/16 26/3/16 19/3/16
f 26/3/16 20/8/16 27/8/16
f 20/8/17 28/10/17 27/8/17
f 28/10/17 20/8/17 22/10/17
f 28/10/18 23/6/18 25/6/18
f 23/6/18 28/10/18 22/10/18
f 27/8/13 24/9/13 26/3/13
f 24/9/13 27/8/13 28/10/13
f 24/9/13 28/10/13 25/6/13

