# Created by Kenney (www.kenney.nl)

mtllib structure-metal.mtl

g structure-metal

v 0.2526737 9.023893E-17 -0.2636738 1 1 1
v 0.2636738 9.023893E-17 -0.2526737 1 1 1
v 0.2556149 0.2 -0.2677149 1 1 1
v 0.2677149 0.2 -0.2556149 1 1 1
v 0.1788101 0.2 -0.2556149 1 1 1
v 0.1788101 0.2 -0.1909101 1 1 1
v 0.1828513 9.023893E-17 -0.2526737 1 1 1
v 0.1828513 9.023893E-17 -0.1938513 1 1 1
v 0.1938513 9.023893E-17 -0.2636738 1 1 1
v 0.1909101 0.2 -0.2677149 1 1 1
v 0.2677149 0.2 -0.1909101 1 1 1
v 0.2636738 9.023893E-17 -0.1938513 1 1 1
v 0.2526737 9.023893E-17 -0.1828513 1 1 1
v 0.1938513 9.023893E-17 -0.1828513 1 1 1
v 0.2556149 0.2 -0.1788101 1 1 1
v 0.1909101 0.2 -0.1788101 1 1 1
v 0.2526737 1.804779E-16 0.1828513 1 1 1
v 0.2636738 1.804779E-16 0.1938513 1 1 1
v 0.2556149 0.2 0.1788101 1 1 1
v 0.2677149 0.2 0.1909101 1 1 1
v 0.1788101 0.2 0.1909101 1 1 1
v 0.1788101 0.2 0.2556149 1 1 1
v 0.1828513 1.804779E-16 0.1938513 1 1 1
v 0.1828513 1.804779E-16 0.2526737 1 1 1
v 0.1938513 1.804779E-16 0.1828513 1 1 1
v 0.1909101 0.2 0.1788101 1 1 1
v 0.2677149 0.2 0.2556149 1 1 1
v 0.2636738 1.804779E-16 0.2526737 1 1 1
v 0.2526737 1.804779E-16 0.2636738 1 1 1
v 0.1938513 1.804779E-16 0.2636738 1 1 1
v 0.2556149 0.2 0.2677149 1 1 1
v 0.1909101 0.2 0.2677149 1 1 1
v -0.1938513 -9.023893E-17 -0.2636738 1 1 1
v -0.1828513 -9.023893E-17 -0.2526737 1 1 1
v -0.1909101 0.2 -0.2677149 1 1 1
v -0.1788101 0.2 -0.2556149 1 1 1
v -0.2677149 0.2 -0.2556149 1 1 1
v -0.2677149 0.2 -0.1909101 1 1 1
v -0.2636738 -9.023893E-17 -0.2526737 1 1 1
v -0.2636738 -9.023893E-17 -0.1938513 1 1 1
v -0.2526737 -9.023893E-17 -0.2636738 1 1 1
v -0.2556149 0.2 -0.2677149 1 1 1
v -0.1788101 0.2 -0.1909101 1 1 1
v -0.1828513 -9.023893E-17 -0.1938513 1 1 1
v -0.1938513 -9.023893E-17 -0.1828513 1 1 1
v -0.2526737 -9.023893E-17 -0.1828513 1 1 1
v -0.1909101 0.2 -0.1788101 1 1 1
v -0.2556149 0.2 -0.1788101 1 1 1
v -0.1938513 0 0.1828513 1 1 1
v -0.1828513 0 0.1938513 1 1 1
v -0.1909101 0.2 0.1788101 1 1 1
v -0.1788101 0.2 0.1909101 1 1 1
v -0.2677149 0.2 0.1909101 1 1 1
v -0.2677149 0.2 0.2556149 1 1 1
v -0.2636738 0 0.1938513 1 1 1
v -0.2636738 0 0.2526737 1 1 1
v -0.2526737 0 0.1828513 1 1 1
v -0.2556149 0.2 0.1788101 1 1 1
v -0.1788101 0.2 0.2556149 1 1 1
v -0.1828513 0 0.2526737 1 1 1
v -0.1938513 0 0.2636738 1 1 1
v -0.2526737 0 0.2636738 1 1 1
v -0.1909101 0.2 0.2677149 1 1 1
v -0.2556149 0.2 0.2677149 1 1 1
v 0.196525 0.2 -0.25 1 1 1
v 0.25 0.2 -0.25 1 1 1
v 0.2032094 0.5 -0.2433156 1 1 1
v 0.2433156 0.5 -0.2433156 1 1 1
v 0.196525 0.2 -0.196525 1 1 1
v 0.2032094 0.5 -0.2032094 1 1 1
v 0.2433156 0.5 -0.2032094 1 1 1
v 0.25 0.2 -0.196525 1 1 1
v 0.196525 0.2 0.196525 1 1 1
v 0.2032094 0.5 0.2032094 1 1 1
v 0.196525 0.2 0.25 1 1 1
v 0.2032094 0.5 0.2433156 1 1 1
v 0.25 0.2 0.25 1 1 1
v 0.2433156 0.5 0.2433156 1 1 1
v 0.25 0.2 0.196525 1 1 1
v 0.2433156 0.5 0.2032094 1 1 1
v -0.196525 0.2 -0.196525 1 1 1
v -0.25 0.2 -0.196525 1 1 1
v -0.2032094 0.5 -0.2032094 1 1 1
v -0.2433156 0.5 -0.2032094 1 1 1
v -0.25 0.2 -0.25 1 1 1
v -0.2433156 0.5 -0.2433156 1 1 1
v -0.196525 0.2 -0.25 1 1 1
v -0.2032094 0.5 -0.2433156 1 1 1
v -0.25 0.2 0.196525 1 1 1
v -0.2433156 0.5 0.2032094 1 1 1
v -0.25 0.2 0.25 1 1 1
v -0.2433156 0.5 0.2433156 1 1 1
v -0.196525 0.2 0.196525 1 1 1
v -0.196525 0.2 0.25 1 1 1
v -0.2032094 0.5 0.2032094 1 1 1
v -0.2032094 0.5 0.2433156 1 1 1
v 0.2032094 0.4535 0.2116375 1 1 1
v 0.2032094 0.4535 0.2348875 1 1 1
v -0.2032094 0.4535 0.2116375 1 1 1
v -0.2032094 0.4535 0.2348875 1 1 1
v 0.2032094 0.407 0.2116375 1 1 1
v -0.2032094 0.407 0.2116375 1 1 1
v 0.2032094 0.407 0.2348875 1 1 1
v -0.2032094 0.407 0.2348875 1 1 1
v 0.2348875 0.4535 0.2032094 1 1 1
v 0.2116375 0.4535 0.2032094 1 1 1
v 0.2348875 0.4535 -0.2032094 1 1 1
v 0.2116375 0.4535 -0.2032094 1 1 1
v 0.2348875 0.407 0.2032094 1 1 1
v 0.2348875 0.407 -0.2032094 1 1 1
v 0.2116375 0.407 0.2032094 1 1 1
v 0.2116375 0.407 -0.2032094 1 1 1
v -0.2116375 0.4535 0.2032094 1 1 1
v -0.2348875 0.4535 0.2032094 1 1 1
v -0.2116375 0.4535 -0.2032094 1 1 1
v -0.2348875 0.4535 -0.2032094 1 1 1
v -0.2116375 0.407 0.2032094 1 1 1
v -0.2116375 0.407 -0.2032094 1 1 1
v -0.2348875 0.407 0.2032094 1 1 1
v -0.2348875 0.407 -0.2032094 1 1 1
v 0.2032094 0.4535 -0.2348875 1 1 1
v 0.2032094 0.4535 -0.2116375 1 1 1
v -0.2032094 0.4535 -0.2348875 1 1 1
v -0.2032094 0.4535 -0.2116375 1 1 1
v 0.2032094 0.407 -0.2348875 1 1 1
v -0.2032094 0.407 -0.2348875 1 1 1
v 0.2032094 0.407 -0.2116375 1 1 1
v -0.2032094 0.407 -0.2116375 1 1 1

vn 0.3812419 -0.02427956 -0.9241565
vn 0.9241565 -0.02427956 -0.3812419
vn 0.3838755 -0.02429624 -0.9230651
vn 0.9230651 -0.02429624 -0.3838755
vn -0.9230651 -0.02429624 -0.3838755
vn -0.9230651 -0.02429624 0.3838755
vn -0.9241565 -0.02427956 -0.3812419
vn -0.9241565 -0.02427956 0.3812419
vn -0.3812419 -0.02427956 -0.9241565
vn -0.3838755 -0.02429624 -0.9230651
vn 0.9230651 -0.02429624 0.3838755
vn 0.9241565 -0.02427956 0.3812419
vn 0.3812419 -0.02427956 0.9241565
vn -0.3812419 -0.02427956 0.9241565
vn 0.3838755 -0.02429624 0.9230651
vn -0.3838755 -0.02429624 0.9230651
vn 0 1 0
vn 0 -1 0
vn 0 0.02227572 -0.9997519
vn -0.9997519 0.02227572 0
vn 0 0.02227572 0.9997519
vn 0.9997519 0.02227572 0
vn 0 0 -1
vn 0 0 1
vn 1 0 1.192093E-07
vn -1 0 -1.192093E-07

vt 0.21875 0.025
vt 0.21875 0.225
vt 0.21875 0.075
vt 0.21875 0.175
vt 0.34375 0.175
vt 0.34375 0.075

usemtl colormap

f 3/2/3 2/1/2 1/1/1
f 2/1/2 3/2/3 4/2/4
f 7/1/7 6/2/6 5/2/5
f 6/2/6 7/1/7 8/1/8
f 5/2/5 9/1/9 7/1/7
f 9/1/9 5/2/5 10/2/10
f 11/2/11 2/1/2 4/2/4
f 2/1/2 11/2/11 12/1/12
f 10/2/10 1/1/1 9/1/9
f 1/1/1 10/2/10 3/2/3
f 15/2/15 14/1/14 13/1/13
f 14/1/14 15/2/15 16/2/16
f 11/2/11 13/1/13 12/1/12
f 13/1/13 11/2/11 15/2/15
f 16/2/16 8/1/8 14/1/14
f 8/1/8 16/2/16 6/2/6
f 3/2/17 11/2/17 4/2/17
f 11/2/17 3/2/17 15/2/17
f 15/2/17 3/2/17 10/2/17
f 15/2/17 10/2/17 16/2/17
f 16/2/17 10/2/17 5/2/17
f 16/2/17 5/2/17 6/2/17
f 13/1/18 2/1/18 12/1/18
f 2/1/18 13/1/18 1/1/18
f 1/1/18 13/1/18 14/1/18
f 1/1/18 14/1/18 9/1/18
f 9/1/18 14/1/18 8/1/18
f 9/1/18 8/1/18 7/1/18
f 19/2/3 18/1/2 17/1/1
f 18/1/2 19/2/3 20/2/4
f 23/1/7 22/2/6 21/2/5
f 22/2/6 23/1/7 24/1/8
f 21/2/5 25/1/9 23/1/7
f 25/1/9 21/2/5 26/2/10
f 27/2/11 18/1/2 20/2/4
f 18/1/2 27/2/11 28/1/12
f 26/2/10 17/1/1 25/1/9
f 17/1/1 26/2/10 19/2/3
f 31/2/15 30/1/14 29/1/13
f 30/1/14 31/2/15 32/2/16
f 27/2/11 29/1/13 28/1/12
f 29/1/13 27/2/11 31/2/15
f 32/2/16 24/1/8 30/1/14
f 24/1/8 32/2/16 22/2/6
f 19/2/17 27/2/17 20/2/17
f 27/2/17 19/2/17 31/2/17
f 31/2/17 19/2/17 26/2/17
f 31/2/17 26/2/17 32/2/17
f 32/2/17 26/2/17 21/2/17
f 32/2/17 21/2/17 22/2/17
f 29/1/18 18/1/18 28/1/18
f 18/1/18 29/1/18 17/1/18
f 17/1/18 29/1/18 30/1/18
f 17/1/18 30/1/18 25/1/18
f 25/1/18 30/1/18 24/1/18
f 25/1/18 24/1/18 23/1/18
f 35/2/3 34/1/2 33/1/1
f 34/1/2 35/2/3 36/2/4
f 39/1/7 38/2/6 37/2/5
f 38/2/6 39/1/7 40/1/8
f 37/2/5 41/1/9 39/1/7
f 41/1/9 37/2/5 42/2/10
f 43/2/11 34/1/2 36/2/4
f 34/1/2 43/2/11 44/1/12
f 42/2/10 33/1/1 41/1/9
f 33/1/1 42/2/10 35/2/3
f 47/2/15 46/1/14 45/1/13
f 46/1/14 47/2/15 48/2/16
f 43/2/11 45/1/13 44/1/12
f 45/1/13 43/2/11 47/2/15
f 48/2/16 40/1/8 46/1/14
f 40/1/8 48/2/16 38/2/6
f 35/2/17 43/2/17 36/2/17
f 43/2/17 35/2/17 47/2/17
f 47/2/17 35/2/17 42/2/17
f 47/2/17 42/2/17 48/2/17
f 48/2/17 42/2/17 37/2/17
f 48/2/17 37/2/17 38/2/17
f 45/1/18 34/1/18 44/1/18
f 34/1/18 45/1/18 33/1/18
f 33/1/18 45/1/18 46/1/18
f 33/1/18 46/1/18 41/1/18
f 41/1/18 46/1/18 40/1/18
f 41/1/18 40/1/18 39/1/18
f 51/2/3 50/1/2 49/1/1
f 50/1/2 51/2/3 52/2/4
f 55/1/7 54/2/6 53/2/5
f 54/2/6 55/1/7 56/1/8
f 53/2/5 57/1/9 55/1/7
f 57/1/9 53/2/5 58/2/10
f 59/2/11 50/1/2 52/2/4
f 50/1/2 59/2/11 60/1/12
f 58/2/10 49/1/1 57/1/9
f 49/1/1 58/2/10 51/2/3
f 63/2/15 62/1/14 61/1/13
f 62/1/14 63/2/15 64/2/16
f 59/2/11 61/1/13 60/1/12
f 61/1/13 59/2/11 63/2/15
f 64/2/16 56/1/8 62/1/14
f 56/1/8 64/2/16 54/2/6
f 51/2/17 59/2/17 52/2/17
f 59/2/17 51/2/17 63/2/17
f 63/2/17 51/2/17 58/2/17
f 63/2/17 58/2/17 64/2/17
f 64/2/17 58/2/17 53/2/17
f 64/2/17 53/2/17 54/2/17
f 61/1/18 50/1/18 60/1/18
f 50/1/18 61/1/18 49/1/18
f 49/1/18 61/1/18 62/1/18
f 49/1/18 62/1/18 57/1/18
f 57/1/18 62/1/18 56/1/18
f 57/1/18 56/1/18 55/1/18
f 67/4/19 66/3/19 65/3/19
f 66/3/19 67/4/19 68/4/19
f 69/3/20 67/4/20 65/3/20
f 67/4/20 69/3/20 70/4/20
f 67/4/17 71/4/17 68/4/17
f 71/4/17 67/4/17 70/4/17
f 71/4/21 69/3/21 72/3/21
f 69/3/21 71/4/21 70/4/21
f 68/4/22 72/3/22 66/3/22
f 72/3/22 68/4/22 71/4/22
f 75/3/20 74/4/20 73/3/20
f 74/4/20 75/3/20 76/4/20
f 78/4/21 75/3/21 77/3/21
f 75/3/21 78/4/21 76/4/21
f 74/4/19 79/3/19 73/3/19
f 79/3/19 74/4/19 80/4/19
f 80/4/22 77/3/22 79/3/22
f 77/3/22 80/4/22 78/4/22
f 74/4/17 78/4/17 80/4/17
f 78/4/17 74/4/17 76/4/17
f 83/4/21 82/3/21 81/3/21
f 82/3/21 83/4/21 84/4/21
f 82/3/20 86/4/20 85/3/20
f 86/4/20 82/3/20 84/4/20
f 88/4/22 81/3/22 87/3/22
f 81/3/22 88/4/22 83/4/22
f 86/4/17 83/4/17 88/4/17
f 83/4/17 86/4/17 84/4/17
f 86/4/19 87/3/19 85/3/19
f 87/3/19 86/4/19 88/4/19
f 91/3/20 90/4/20 89/3/20
f 90/4/20 91/3/20 92/4/20
f 95/4/22 94/3/22 93/3/22
f 94/3/22 95/4/22 96/4/22
f 96/4/21 91/3/21 94/3/21
f 91/3/21 96/4/21 92/4/21
f 90/4/17 96/4/17 95/4/17
f 96/4/17 90/4/17 92/4/17
f 90/4/19 93/3/19 89/3/19
f 93/3/19 90/4/19 95/4/19
f 99/5/17 98/5/17 97/5/17
f 98/5/17 99/5/17 100/5/17
f 102/6/23 97/5/23 101/6/23
f 97/5/23 102/6/23 99/5/23
f 98/5/24 104/6/24 103/6/24
f 104/6/24 98/5/24 100/5/24
f 104/6/18 101/6/18 103/6/18
f 101/6/18 104/6/18 102/6/18
f 107/5/17 106/5/17 105/5/17
f 106/5/17 107/5/17 108/5/17
f 110/6/25 105/5/25 109/6/25
f 105/5/25 110/6/25 107/5/25
f 106/5/26 112/6/26 111/6/26
f 112/6/26 106/5/26 108/5/26
f 112/6/18 109/6/18 111/6/18
f 109/6/18 112/6/18 110/6/18
f 115/5/17 114/5/17 113/5/17
f 114/5/17 115/5/17 116/5/17
f 118/6/25 113/5/25 117/6/25
f 113/5/25 118/6/25 115/5/25
f 114/5/26 120/6/26 119/6/26
f 120/6/26 114/5/26 116/5/26
f 120/6/18 117/6/18 119/6/18
f 117/6/18 120/6/18 118/6/18
f 123/5/17 122/5/17 121/5/17
f 122/5/17 123/5/17 124/5/17
f 126/6/23 121/5/23 125/6/23
f 121/5/23 126/6/23 123/5/23
f 122/5/24 128/6/24 127/6/24
f 128/6/24 122/5/24 124/5/24
f 128/6/18 125/6/18 127/6/18
f 125/6/18 128/6/18 126/6/18

g structure-metal




usemtl colormap

f 3/2/3 2/1/2 1/1/1
f 2/1/2 3/2/3 4/2/4
f 7/1/7 6/2/6 5/2/5
f 6/2/6 7/1/7 8/1/8
f 5/2/5 9/1/9 7/1/7
f 9/1/9 5/2/5 10/2/10
f 11/2/11 2/1/2 4/2/4
f 2/1/2 11/2/11 12/1/12
f 10/2/10 1/1/1 9/1/9
f 1/1/1 10/2/10 3/2/3
f 15/2/15 14/1/14 13/1/13
f 14/1/14 15/2/15 16/2/16
f 11/2/11 13/1/13 12/1/12
f 13/1/13 11/2/11 15/2/15
f 16/2/16 8/1/8 14/1/14
f 8/1/8 16/2/16 6/2/6
f 3/2/17 11/2/17 4/2/17
f 11/2/17 3/2/17 15/2/17
f 15/2/17 3/2/17 10/2/17
f 15/2/17 10/2/17 16/2/17
f 16/2/17 10/2/17 5/2/17
f 16/2/17 5/2/17 6/2/17
f 13/1/18 2/1/18 12/1/18
f 2/1/18 13/1/18 1/1/18
f 1/1/18 13/1/18 14/1/18
f 1/1/18 14/1/18 9/1/18
f 9/1/18 14/1/18 8/1/18
f 9/1/18 8/1/18 7/1/18
f 19/2/3 18/1/2 17/1/1
f 18/1/2 19/2/3 20/2/4
f 23/1/7 22/2/6 21/2/5
f 22/2/6 23/1/7 24/1/8
f 21/2/5 25/1/9 23/1/7
f 25/1/9 21/2/5 26/2/10
f 27/2/11 18/1/2 20/2/4
f 18/1/2 27/2/11 28/1/12
f 26/2/10 17/1/1 25/1/9
f 17/1/1 26/2/10 19/2/3
f 31/2/15 30/1/14 29/1/13
f 30/1/14 31/2/15 32/2/16
f 27/2/11 29/1/13 28/1/12
f 29/1/13 27/2/11 31/2/15
f 32/2/16 24/1/8 30/1/14
f 24/1/8 32/2/16 22/2/6
f 19/2/17 27/2/17 20/2/17
f 27/2/17 19/2/17 31/2/17
f 31/2/17 19/2/17 26/2/17
f 31/2/17 26/2/17 32/2/17
f 32/2/17 26/2/17 21/2/17
f 32/2/17 21/2/17 22/2/17
f 29/1/18 18/1/18 28/1/18
f 18/1/18 29/1/18 17/1/18
f 17/1/18 29/1/18 30/1/18
f 17/1/18 30/1/18 25/1/18
f 25/1/18 30/1/18 24/1/18
f 25/1/18 24/1/18 23/1/18
f 35/2/3 34/1/2 33/1/1
f 34/1/2 35/2/3 36/2/4
f 39/1/7 38/2/6 37/2/5
f 38/2/6 39/1/7 40/1/8
f 37/2/5 41/1/9 39/1/7
f 41/1/9 37/2/5 42/2/10
f 43/2/11 34/1/2 36/2/4
f 34/1/2 43/2/11 44/1/12
f 42/2/10 33/1/1 41/1/9
f 33/1/1 42/2/10 35/2/3
f 47/2/15 46/1/14 45/1/13
f 46/1/14 47/2/15 48/2/16
f 43/2/11 45/1/13 44/1/12
f 45/1/13 43/2/11 47/2/15
f 48/2/16 40/1/8 46/1/14
f 40/1/8 48/2/16 38/2/6
f 35/2/17 43/2/17 36/2/17
f 43/2/17 35/2/17 47/2/17
f 47/2/17 35/2/17 42/2/17
f 47/2/17 42/2/17 48/2/17
f 48/2/17 42/2/17 37/2/17
f 48/2/17 37/2/17 38/2/17
f 45/1/18 34/1/18 44/1/18
f 34/1/18 45/1/18 33/1/18
f 33/1/18 45/1/18 46/1/18
f 33/1/18 46/1/18 41/1/18
f 41/1/18 46/1/18 40/1/18
f 41/1/18 40/1/18 39/1/18
f 51/2/3 50/1/2 49/1/1
f 50/1/2 51/2/3 52/2/4
f 55/1/7 54/2/6 53/2/5
f 54/2/6 55/1/7 56/1/8
f 53/2/5 57/1/9 55/1/7
f 57/1/9 53/2/5 58/2/10
f 59/2/11 50/1/2 52/2/4
f 50/1/2 59/2/11 60/1/12
f 58/2/10 49/1/1 57/1/9
f 49/1/1 58/2/10 51/2/3
f 63/2/15 62/1/14 61/1/13
f 62/1/14 63/2/15 64/2/16
f 59/2/11 61/1/13 60/1/12
f 61/1/13 59/2/11 63/2/15
f 64/2/16 56/1/8 62/1/14
f 56/1/8 64/2/16 54/2/6
f 51/2/17 59/2/17 52/2/17
f 59/2/17 51/2/17 63/2/17
f 63/2/17 51/2/17 58/2/17
f 63/2/17 58/2/17 64/2/17
f 64/2/17 58/2/17 53/2/17
f 64/2/17 53/2/17 54/2/17
f 61/1/18 50/1/18 60/1/18
f 50/1/18 61/1/18 49/1/18
f 49/1/18 61/1/18 62/1/18
f 49/1/18 62/1/18 57/1/18
f 57/1/18 62/1/18 56/1/18
f 57/1/18 56/1/18 55/1/18
f 67/4/19 66/3/19 65/3/19
f 66/3/19 67/4/19 68/4/19
f 69/3/20 67/4/20 65/3/20
f 67/4/20 69/3/20 70/4/20
f 67/4/17 71/4/17 68/4/17
f 71/4/17 67/4/17 70/4/17
f 71/4/21 69/3/21 72/3/21
f 69/3/21 71/4/21 70/4/21
f 68/4/22 72/3/22 66/3/22
f 72/3/22 68/4/22 71/4/22
f 75/3/20 74/4/20 73/3/20
f 74/4/20 75/3/20 76/4/20
f 78/4/21 75/3/21 77/3/21
f 75/3/21 78/4/21 76/4/21
f 74/4/19 79/3/19 73/3/19
f 79/3/19 74/4/19 80/4/19
f 80/4/22 77/3/22 79/3/22
f 77/3/22 80/4/22 78/4/22
f 74/4/17 78/4/17 80/4/17
f 78/4/17 74/4/17 76/4/17
f 83/4/21 82/3/21 81/3/21
f 82/3/21 83/4/21 84/4/21
f 82/3/20 86/4/20 85/3/20
f 86/4/20 82/3/20 84/4/20
f 88/4/22 81/3/22 87/3/22
f 81/3/22 88/4/22 83/4/22
f 86/4/17 83/4/17 88/4/17
f 83/4/17 86/4/17 84/4/17
f 86/4/19 87/3/19 85/3/19
f 87/3/19 86/4/19 88/4/19
f 91/3/20 90/4/20 89/3/20
f 90/4/20 91/3/20 92/4/20
f 95/4/22 94/3/22 93/3/22
f 94/3/22 95/4/22 96/4/22
f 96/4/21 91/3/21 94/3/21
f 91/3/21 96/4/21 92/4/21
f 90/4/17 96/4/17 95/4/17
f 96/4/17 90/4/17 92/4/17
f 90/4/19 93/3/19 89/3/19
f 93/3/19 90/4/19 95/4/19
f 99/5/17 98/5/17 97/5/17
f 98/5/17 99/5/17 100/5/17
f 102/6/23 97/5/23 101/6/23
f 97/5/23 102/6/23 99/5/23
f 98/5/24 104/6/24 103/6/24
f 104/6/24 98/5/24 100/5/24
f 104/6/18 101/6/18 103/6/18
f 101/6/18 104/6/18 102/6/18
f 107/5/17 106/5/17 105/5/17
f 106/5/17 107/5/17 108/5/17
f 110/6/25 105/5/25 109/6/25
f 105/5/25 110/6/25 107/5/25
f 106/5/26 112/6/26 111/6/26
f 112/6/26 106/5/26 108/5/26
f 112/6/18 109/6/18 111/6/18
f 109/6/18 112/6/18 110/6/18
f 115/5/17 114/5/17 113/5/17
f 114/5/17 115/5/17 116/5/17
f 118/6/25 113/5/25 117/6/25
f 113/5/25 118/6/25 115/5/25
f 114/5/26 120/6/26 119/6/26
f 120/6/26 114/5/26 116/5/26
f 120/6/18 117/6/18 119/6/18
f 117/6/18 120/6/18 118/6/18
f 123/5/17 122/5/17 121/5/17
f 122/5/17 123/5/17 124/5/17
f 126/6/23 121/5/23 125/6/23
f 121/5/23 126/6/23 123/5/23
f 122/5/24 128/6/24 127/6/24
f 128/6/24 122/5/24 124/5/24
f 128/6/18 125/6/18 127/6/18
f 125/6/18 128/6/18 126/6/18

