# Created by Kenney (www.kenney.nl)

mtllib structure-floor.mtl

g structure-floor

v 0.25 0 -0.196525 1 1 1
v 0.25 0 -0.25 1 1 1
v 0.196525 0 -0.196525 1 1 1
v 0.196525 0 -0.25 1 1 1
v 0.2032094 0.5174668 -0.2433156 1 1 1
v 0.2433156 0.5174668 -0.2433156 1 1 1
v 0.2433156 0.5174668 -0.2032094 1 1 1
v 0.2032094 0.5174668 -0.2032094 1 1 1
v 0.25 0 0.25 1 1 1
v 0.25 0 0.196525 1 1 1
v 0.196525 0 0.25 1 1 1
v 0.196525 0 0.196525 1 1 1
v 0.2032094 0.5174668 0.2032094 1 1 1
v 0.2433156 0.5174668 0.2032094 1 1 1
v 0.2433156 0.5174668 0.2433156 1 1 1
v 0.2032094 0.5174668 0.2433156 1 1 1
v -0.196525 0 -0.196525 1 1 1
v -0.196525 0 -0.25 1 1 1
v -0.25 0 -0.196525 1 1 1
v -0.25 0 -0.25 1 1 1
v -0.2433156 0.5174668 -0.2433156 1 1 1
v -0.2032094 0.5174668 -0.2433156 1 1 1
v -0.2032094 0.5174668 -0.2032094 1 1 1
v -0.2433156 0.5174668 -0.2032094 1 1 1
v -0.196525 0 0.25 1 1 1
v -0.196525 0 0.196525 1 1 1
v -0.25 0 0.25 1 1 1
v -0.25 0 0.196525 1 1 1
v -0.2433156 0.5174668 0.2032094 1 1 1
v -0.2032094 0.5174668 0.2032094 1 1 1
v -0.2032094 0.5174668 0.2433156 1 1 1
v -0.2433156 0.5174668 0.2433156 1 1 1
v 0.2348875 0.4674669 0.2032094 1 1 1
v 0.2116375 0.4674669 0.2032094 1 1 1
v 0.2348875 0.4674669 -0.2032094 1 1 1
v 0.2116375 0.4674669 -0.2032094 1 1 1
v 0.2348875 0.4209669 0.2032094 1 1 1
v 0.2348875 0.4209669 -0.2032094 1 1 1
v 0.2116375 0.4209669 0.2032094 1 1 1
v 0.2116375 0.4209669 -0.2032094 1 1 1
v -0.2116375 0.4674669 0.2032094 1 1 1
v -0.2348875 0.4674669 0.2032094 1 1 1
v -0.2116375 0.4674669 -0.2032094 1 1 1
v -0.2348875 0.4674669 -0.2032094 1 1 1
v -0.2116375 0.4209669 0.2032094 1 1 1
v -0.2116375 0.4209669 -0.2032094 1 1 1
v -0.2348875 0.4209669 0.2032094 1 1 1
v -0.2348875 0.4209669 -0.2032094 1 1 1
v 0.2032094 0.4674669 0.2116375 1 1 1
v 0.2032094 0.4674669 0.2348875 1 1 1
v -0.2032094 0.4674669 0.2116375 1 1 1
v -0.2032094 0.4674669 0.2348875 1 1 1
v 0.2032094 0.4209669 0.2116375 1 1 1
v -0.2032094 0.4209669 0.2116375 1 1 1
v 0.2032094 0.4209669 0.2348875 1 1 1
v -0.2032094 0.4209669 0.2348875 1 1 1
v 0.2032094 0.4674669 -0.2348875 1 1 1
v 0.2032094 0.4674669 -0.2116375 1 1 1
v -0.2032094 0.4674669 -0.2348875 1 1 1
v -0.2032094 0.4674669 -0.2116375 1 1 1
v 0.2032094 0.4209669 -0.2348875 1 1 1
v -0.2032094 0.4209669 -0.2348875 1 1 1
v 0.2032094 0.4209669 -0.2116375 1 1 1
v -0.2032094 0.4209669 -0.2116375 1 1 1

vn 0 -1 0
vn 0 0.01291642 -0.9999166
vn 0 0.01291642 0.9999166
vn 0.9999166 0.01291642 0
vn -0.9999166 0.01291642 0
vn 0 1 0
vn 1 0 1.192093E-07
vn -1 0 -1.192093E-07
vn 0 0 -1
vn 0 0 1

vt 0.59375 0.025
vt 0.59375 0.225
vt 0.59375 0.175
vt 0.59375 0.075

usemtl colormap

f 3/1/1 2/1/1 1/1/1
f 2/1/1 3/1/1 4/1/1
f 5/2/2 2/1/2 4/1/2
f 2/1/2 5/2/2 6/2/2
f 7/2/3 3/1/3 1/1/3
f 3/1/3 7/2/3 8/2/3
f 6/2/4 1/1/4 2/1/4
f 1/1/4 6/2/4 7/2/4
f 3/1/5 5/2/5 4/1/5
f 5/2/5 3/1/5 8/2/5
f 5/2/6 7/2/6 6/2/6
f 7/2/6 5/2/6 8/2/6
f 11/1/1 10/1/1 9/1/1
f 10/1/1 11/1/1 12/1/1
f 13/2/2 10/1/2 12/1/2
f 10/1/2 13/2/2 14/2/2
f 15/2/3 11/1/3 9/1/3
f 11/1/3 15/2/3 16/2/3
f 14/2/4 9/1/4 10/1/4
f 9/1/4 14/2/4 15/2/4
f 11/1/5 13/2/5 12/1/5
f 13/2/5 11/1/5 16/2/5
f 13/2/6 15/2/6 14/2/6
f 15/2/6 13/2/6 16/2/6
f 19/1/1 18/1/1 17/1/1
f 18/1/1 19/1/1 20/1/1
f 21/2/2 18/1/2 20/1/2
f 18/1/2 21/2/2 22/2/2
f 23/2/3 19/1/3 17/1/3
f 19/1/3 23/2/3 24/2/3
f 22/2/4 17/1/4 18/1/4
f 17/1/4 22/2/4 23/2/4
f 19/1/5 21/2/5 20/1/5
f 21/2/5 19/1/5 24/2/5
f 21/2/6 23/2/6 22/2/6
f 23/2/6 21/2/6 24/2/6
f 27/1/1 26/1/1 25/1/1
f 26/1/1 27/1/1 28/1/1
f 29/2/2 26/1/2 28/1/2
f 26/1/2 29/2/2 30/2/2
f 31/2/3 27/1/3 25/1/3
f 27/1/3 31/2/3 32/2/3
f 30/2/4 25/1/4 26/1/4
f 25/1/4 30/2/4 31/2/4
f 27/1/5 29/2/5 28/1/5
f 29/2/5 27/1/5 32/2/5
f 29/2/6 31/2/6 30/2/6
f 31/2/6 29/2/6 32/2/6
f 35/3/6 34/3/6 33/3/6
f 34/3/6 35/3/6 36/3/6
f 38/4/7 33/3/7 37/4/7
f 33/3/7 38/4/7 35/3/7
f 34/3/8 40/4/8 39/4/8
f 40/4/8 34/3/8 36/3/8
f 40/4/1 37/4/1 39/4/1
f 37/4/1 40/4/1 38/4/1
f 43/3/6 42/3/6 41/3/6
f 42/3/6 43/3/6 44/3/6
f 46/4/7 41/3/7 45/4/7
f 41/3/7 46/4/7 43/3/7
f 42/3/8 48/4/8 47/4/8
f 48/4/8 42/3/8 44/3/8
f 48/4/1 45/4/1 47/4/1
f 45/4/1 48/4/1 46/4/1
f 51/3/6 50/3/6 49/3/6
f 50/3/6 51/3/6 52/3/6
f 54/4/9 49/3/9 53/4/9
f 49/3/9 54/4/9 51/3/9
f 50/3/10 56/4/10 55/4/10
f 56/4/10 50/3/10 52/3/10
f 56/4/1 53/4/1 55/4/1
f 53/4/1 56/4/1 54/4/1
f 59/3/6 58/3/6 57/3/6
f 58/3/6 59/3/6 60/3/6
f 62/4/9 57/3/9 61/4/9
f 57/3/9 62/4/9 59/3/9
f 58/3/10 64/4/10 63/4/10
f 64/4/10 58/3/10 60/3/10
f 64/4/1 61/4/1 63/4/1
f 61/4/1 64/4/1 62/4/1

g structure-floor




usemtl colormap

f 3/1/1 2/1/1 1/1/1
f 2/1/1 3/1/1 4/1/1
f 5/2/2 2/1/2 4/1/2
f 2/1/2 5/2/2 6/2/2
f 7/2/3 3/1/3 1/1/3
f 3/1/3 7/2/3 8/2/3
f 6/2/4 1/1/4 2/1/4
f 1/1/4 6/2/4 7/2/4
f 3/1/5 5/2/5 4/1/5
f 5/2/5 3/1/5 8/2/5
f 5/2/6 7/2/6 6/2/6
f 7/2/6 5/2/6 8/2/6
f 11/1/1 10/1/1 9/1/1
f 10/1/1 11/1/1 12/1/1
f 13/2/2 10/1/2 12/1/2
f 10/1/2 13/2/2 14/2/2
f 15/2/3 11/1/3 9/1/3
f 11/1/3 15/2/3 16/2/3
f 14/2/4 9/1/4 10/1/4
f 9/1/4 14/2/4 15/2/4
f 11/1/5 13/2/5 12/1/5
f 13/2/5 11/1/5 16/2/5
f 13/2/6 15/2/6 14/2/6
f 15/2/6 13/2/6 16/2/6
f 19/1/1 18/1/1 17/1/1
f 18/1/1 19/1/1 20/1/1
f 21/2/2 18/1/2 20/1/2
f 18/1/2 21/2/2 22/2/2
f 23/2/3 19/1/3 17/1/3
f 19/1/3 23/2/3 24/2/3
f 22/2/4 17/1/4 18/1/4
f 17/1/4 22/2/4 23/2/4
f 19/1/5 21/2/5 20/1/5
f 21/2/5 19/1/5 24/2/5
f 21/2/6 23/2/6 22/2/6
f 23/2/6 21/2/6 24/2/6
f 27/1/1 26/1/1 25/1/1
f 26/1/1 27/1/1 28/1/1
f 29/2/2 26/1/2 28/1/2
f 26/1/2 29/2/2 30/2/2
f 31/2/3 27/1/3 25/1/3
f 27/1/3 31/2/3 32/2/3
f 30/2/4 25/1/4 26/1/4
f 25/1/4 30/2/4 31/2/4
f 27/1/5 29/2/5 28/1/5
f 29/2/5 27/1/5 32/2/5
f 29/2/6 31/2/6 30/2/6
f 31/2/6 29/2/6 32/2/6
f 35/3/6 34/3/6 33/3/6
f 34/3/6 35/3/6 36/3/6
f 38/4/7 33/3/7 37/4/7
f 33/3/7 38/4/7 35/3/7
f 34/3/8 40/4/8 39/4/8
f 40/4/8 34/3/8 36/3/8
f 40/4/1 37/4/1 39/4/1
f 37/4/1 40/4/1 38/4/1
f 43/3/6 42/3/6 41/3/6
f 42/3/6 43/3/6 44/3/6
f 46/4/7 41/3/7 45/4/7
f 41/3/7 46/4/7 43/3/7
f 42/3/8 48/4/8 47/4/8
f 48/4/8 42/3/8 44/3/8
f 48/4/1 45/4/1 47/4/1
f 45/4/1 48/4/1 46/4/1
f 51/3/6 50/3/6 49/3/6
f 50/3/6 51/3/6 52/3/6
f 54/4/9 49/3/9 53/4/9
f 49/3/9 54/4/9 51/3/9
f 50/3/10 56/4/10 55/4/10
f 56/4/10 50/3/10 52/3/10
f 56/4/1 53/4/1 55/4/1
f 53/4/1 56/4/1 54/4/1
f 59/3/6 58/3/6 57/3/6
f 58/3/6 59/3/6 60/3/6
f 62/4/9 57/3/9 61/4/9
f 57/3/9 62/4/9 59/3/9
f 58/3/10 64/4/10 63/4/10
f 64/4/10 58/3/10 60/3/10
f 64/4/1 61/4/1 63/4/1
f 61/4/1 64/4/1 62/4/1

g Group

v 0.2001941 0.5174669 -0.25 1 1 1
v 0.2001941 0.5486669 -0.25 1 1 1
v 0.2001941 0.5174669 0.25 1 1 1
v 0.2001941 0.5486669 0.25 1 1 1
v 0.25 0.5174669 -0.25 1 1 1
v 0.25 0.5486669 -0.25 1 1 1
v 0.25 0.5486669 0.25 1 1 1
v 0.25 0.5174669 0.25 1 1 1
v -0.2500001 0.5174669 -0.25 1 1 1
v -0.2500001 0.5486669 -0.25 1 1 1
v -0.2500001 0.5174669 0.25 1 1 1
v -0.2500001 0.5486669 0.25 1 1 1
v -0.2001942 0.5174669 -0.25 1 1 1
v -0.2001942 0.5486669 -0.25 1 1 1
v -0.2001942 0.5486669 0.25 1 1 1
v -0.2001942 0.5174669 0.25 1 1 1
v -0.1744824 0.5174669 -0.25 1 1 1
v -0.1744824 0.5486669 -0.25 1 1 1
v -0.1744824 0.5174669 0.25 1 1 1
v -0.1744824 0.5486669 0.25 1 1 1
v -0.07487062 0.5174669 -0.25 1 1 1
v -0.07487062 0.5486669 -0.25 1 1 1
v -0.07487062 0.5486669 0.25 1 1 1
v -0.07487062 0.5174669 0.25 1 1 1
v 0.07487062 0.5174669 -0.25 1 1 1
v 0.07487062 0.5486669 -0.25 1 1 1
v 0.07487062 0.5174669 0.25 1 1 1
v 0.07487062 0.5486669 0.25 1 1 1
v 0.1744824 0.5174669 -0.25 1 1 1
v 0.1744824 0.5486669 -0.25 1 1 1
v 0.1744824 0.5486669 0.25 1 1 1
v 0.1744824 0.5174669 0.25 1 1 1
v -0.04980588 0.5174669 -0.25 1 1 1
v -0.04980588 0.5486669 -0.25 1 1 1
v -0.04980588 0.5174669 0.25 1 1 1
v -0.04980588 0.5486669 0.25 1 1 1
v 0.04980588 0.5174669 -0.25 1 1 1
v 0.04980588 0.5486669 -0.25 1 1 1
v 0.04980588 0.5486669 0.25 1 1 1
v 0.04980588 0.5174669 0.25 1 1 1
v 0.25 0.4974669 -0.1484737 1 1 1
v 0.25 0.5174669 -0.1484737 1 1 1
v -0.25 0.4974669 -0.1484738 1 1 1
v -0.25 0.5174669 -0.1484738 1 1 1
v 0.25 0.4974669 -0.08078957 1 1 1
v 0.25 0.5174669 -0.08078957 1 1 1
v -0.25 0.5174669 -0.08078963 1 1 1
v -0.25 0.4974669 -0.08078963 1 1 1
v 0.25 0.4974669 0.08078957 1 1 1
v 0.25 0.5174669 0.08078957 1 1 1
v -0.25 0.4974669 0.08078951 1 1 1
v -0.25 0.5174669 0.08078951 1 1 1
v 0.25 0.4974669 0.1484737 1 1 1
v 0.25 0.5174669 0.1484737 1 1 1
v -0.25 0.5174669 0.1484737 1 1 1
v -0.25 0.4974669 0.1484737 1 1 1

vn -1 0 0
vn 1 0 0
vn 1.192093E-07 0 -1
vn 1 0 1.192093E-07
vn -1.192093E-07 0 1
vn -1 0 -1.192093E-07

vt 0.59375 0.125

usemtl colormap

f 67/1/11 66/2/11 65/1/11
f 66/2/11 67/1/11 68/2/11
f 66/2/9 69/1/9 65/1/9
f 69/1/9 66/2/9 70/2/9
f 71/2/12 69/1/12 70/2/12
f 69/1/12 71/2/12 72/1/12
f 67/1/1 69/1/1 72/1/1
f 69/1/1 67/1/1 65/1/1
f 66/2/6 71/2/6 70/2/6
f 71/2/6 66/2/6 68/2/6
f 71/2/10 67/1/10 72/1/10
f 67/1/10 71/2/10 68/2/10
f 75/1/11 74/2/11 73/1/11
f 74/2/11 75/1/11 76/2/11
f 74/2/9 77/1/9 73/1/9
f 77/1/9 74/2/9 78/2/9
f 79/2/12 77/1/12 78/2/12
f 77/1/12 79/2/12 80/1/12
f 75/1/1 77/1/1 80/1/1
f 77/1/1 75/1/1 73/1/1
f 74/2/6 79/2/6 78/2/6
f 79/2/6 74/2/6 76/2/6
f 79/2/10 75/1/10 80/1/10
f 75/1/10 79/2/10 76/2/10
f 83/1/11 82/2/11 81/1/11
f 82/2/11 83/1/11 84/2/11
f 82/2/9 85/1/9 81/1/9
f 85/1/9 82/2/9 86/2/9
f 87/2/12 85/1/12 86/2/12
f 85/1/12 87/2/12 88/1/12
f 83/1/1 85/1/1 88/1/1
f 85/1/1 83/1/1 81/1/1
f 82/2/6 87/2/6 86/2/6
f 87/2/6 82/2/6 84/2/6
f 87/2/10 83/1/10 88/1/10
f 83/1/10 87/2/10 84/2/10
f 91/1/11 90/2/11 89/1/11
f 90/2/11 91/1/11 92/2/11
f 90/2/9 93/1/9 89/1/9
f 93/1/9 90/2/9 94/2/9
f 95/2/12 93/1/12 94/2/12
f 93/1/12 95/2/12 96/1/12
f 91/1/1 93/1/1 96/1/1
f 93/1/1 91/1/1 89/1/1
f 90/2/6 95/2/6 94/2/6
f 95/2/6 90/2/6 92/2/6
f 95/2/10 91/1/10 96/1/10
f 91/1/10 95/2/10 92/2/10
f 99/1/11 98/2/11 97/1/11
f 98/2/11 99/1/11 100/2/11
f 98/2/9 101/1/9 97/1/9
f 101/1/9 98/2/9 102/2/9
f 103/2/12 101/1/12 102/2/12
f 101/1/12 103/2/12 104/1/12
f 99/1/1 101/1/1 104/1/1
f 101/1/1 99/1/1 97/1/1
f 98/2/6 103/2/6 102/2/6
f 103/2/6 98/2/6 100/2/6
f 103/2/10 99/1/10 104/1/10
f 99/1/10 103/2/10 100/2/10
f 107/1/13 106/5/13 105/1/13
f 106/5/13 107/1/13 108/5/13
f 106/5/14 109/1/14 105/1/14
f 109/1/14 106/5/14 110/5/14
f 111/5/15 109/1/15 110/5/15
f 109/1/15 111/5/15 112/1/15
f 107/1/1 109/1/1 112/1/1
f 109/1/1 107/1/1 105/1/1
f 106/5/6 111/5/6 110/5/6
f 111/5/6 106/5/6 108/5/6
f 111/5/16 107/1/16 112/1/16
f 107/1/16 111/5/16 108/5/16
f 115/1/13 114/5/13 113/1/13
f 114/5/13 115/1/13 116/5/13
f 114/5/14 117/1/14 113/1/14
f 117/1/14 114/5/14 118/5/14
f 119/5/15 117/1/15 118/5/15
f 117/1/15 119/5/15 120/1/15
f 115/1/1 117/1/1 120/1/1
f 117/1/1 115/1/1 113/1/1
f 114/5/6 119/5/6 118/5/6
f 119/5/6 114/5/6 116/5/6
f 119/5/16 115/1/16 120/1/16
f 115/1/16 119/5/16 116/5/16

