# Created by Kenney (www.kenney.nl)

mtllib tent.mtl

g tent

v 0.25 -1.862645E-09 -0.214 1 1 1
v 0.25 -1.862645E-09 -0.25 1 1 1
v 0.2803811 0.0193129 -0.214 1 1 1
v 0.2803811 0.0193129 -0.25 1 1 1
v -0.05234295 0.4672272 -0.2545 1 1 1
v -0.05234295 0.4672272 -0.2095 1 1 1
v -0.01436657 0.4913684 -0.2545 1 1 1
v -0.01436657 0.4913684 -0.2095 1 1 1
v 0.04889449 0.3834643 -0.25 1 1 1
v 0.04889449 0.3834643 -0.214 1 1 1
v 0.01851338 0.3641514 -0.214 1 1 1
v 0.01851338 0.3641514 -0.25 1 1 1
v -0.25 -1.862645E-09 0.25 1 1 1
v -0.25 -1.862645E-09 0.214 1 1 1
v -0.2803811 0.0193129 0.25 1 1 1
v -0.2803811 0.0193129 0.214 1 1 1
v 0.05234295 0.4672272 0.2095 1 1 1
v 0.05234295 0.4672272 0.2545 1 1 1
v 0.01436657 0.4913684 0.2095 1 1 1
v 0.01436657 0.4913684 0.2545 1 1 1
v -0.04889449 0.3834643 0.214 1 1 1
v -0.04889449 0.3834643 0.25 1 1 1
v -0.01851338 0.3641514 0.25 1 1 1
v -0.01851338 0.3641514 0.214 1 1 1
v -0.25 -1.862645E-09 -0.214 1 1 1
v -0.25 -1.862645E-09 -0.25 1 1 1
v -0.2803811 0.0193129 -0.214 1 1 1
v -0.2803811 0.0193129 -0.25 1 1 1
v 0.05234295 0.4672272 -0.2545 1 1 1
v 0.05234295 0.4672272 -0.2095 1 1 1
v 0.01436657 0.4913684 -0.2545 1 1 1
v 0.01436657 0.4913684 -0.2095 1 1 1
v -0.04889449 0.3834643 -0.25 1 1 1
v -0.04889449 0.3834643 -0.214 1 1 1
v -0.01851338 0.3641514 -0.214 1 1 1
v -0.01851338 0.3641514 -0.25 1 1 1
v 0.25 -1.862645E-09 0.25 1 1 1
v 0.25 -1.862645E-09 0.214 1 1 1
v 0.2803811 0.0193129 0.25 1 1 1
v 0.2803811 0.0193129 0.214 1 1 1
v -0.05234295 0.4672272 0.2095 1 1 1
v -0.05234295 0.4672272 0.2545 1 1 1
v -0.01436657 0.4913684 0.2095 1 1 1
v -0.01436657 0.4913684 0.2545 1 1 1
v 0.04889449 0.3834643 0.214 1 1 1
v 0.04889449 0.3834643 0.25 1 1 1
v 0.01851338 0.3641514 0.25 1 1 1
v 0.01851338 0.3641514 0.214 1 1 1
v 0.018 0.3960644 -0.275 1 1 1
v -0.018 0.3960644 -0.275 1 1 1
v 0.018 0.3960644 0.286 1 1 1
v -0.018 0.3960644 0.286 1 1 1
v 0.018 0.4320644 0.286 1 1 1
v 0.018 0.4320644 -0.275 1 1 1
v -0.018 0.4320644 0.286 1 1 1
v -0.018 0.4320644 -0.275 1 1 1
v -0.0988356 0.2881256 -0.214 1 1 1
v -0.0795227 0.3185067 -0.214 1 1 1
v -0.0988356 0.2881256 0.214 1 1 1
v -0.0795227 0.3185067 0.214 1 1 1
v -0.08364505 0.2784692 -0.214 1 1 1
v -0.08364505 0.2784692 0.214 1 1 1
v -0.06433214 0.3088503 -0.214 1 1 1
v -0.06433214 0.3088503 0.214 1 1 1
v -0.225273 0.05567439 -0.214 1 1 1
v -0.2404636 0.06533084 -0.214 1 1 1
v -0.225273 0.05567438 0.214 1 1 1
v -0.2404636 0.06533083 0.214 1 1 1
v -0.2211507 0.09571195 -0.214 1 1 1
v -0.2211507 0.09571195 0.214 1 1 1
v -0.2059601 0.08605549 -0.214 1 1 1
v -0.2059601 0.08605549 0.214 1 1 1
v 0.2404636 0.06533084 -0.214 1 1 1
v 0.2211507 0.09571195 -0.214 1 1 1
v 0.2404636 0.06533083 0.214 1 1 1
v 0.2211507 0.09571195 0.214 1 1 1
v 0.2059601 0.08605549 -0.214 1 1 1
v 0.2059601 0.08605549 0.214 1 1 1
v 0.225273 0.05567439 -0.214 1 1 1
v 0.225273 0.05567438 0.214 1 1 1
v 0.08364505 0.2784692 -0.214 1 1 1
v 0.0988356 0.2881256 -0.214 1 1 1
v 0.08364505 0.2784692 0.214 1 1 1
v 0.0988356 0.2881256 0.214 1 1 1
v 0.0795227 0.3185067 -0.214 1 1 1
v 0.0795227 0.3185067 0.214 1 1 1
v 0.06433214 0.3088503 -0.214 1 1 1
v 0.06433214 0.3088503 0.214 1 1 1

vn 0.5364695 -0.8439197 0
vn -0.5364695 0.8439197 0
vn 0.8626738 0.5057608 0
vn 0.8537016 0.5207627 0
vn 0 0 1
vn 0.009926268 -0.015615 0.9998288
vn 0.8439197 0.5364695 0
vn 0 0 -1
vn 0.009926268 -0.015615 -0.9998288
vn 0.0193004 -0.03036144 -0.9993526
vn 0.0193004 -0.03036144 0.9993526
vn -0.824073 -0.5664837 0
vn -0.833849 -0.5519927 0
vn -0.8439197 -0.5364695 0
vn -0.5364695 -0.8439197 0
vn 0.5364695 0.8439197 0
vn -0.8626738 0.5057608 0
vn -0.8537016 0.5207627 0
vn -0.009926268 -0.015615 0.9998288
vn -0.8439197 0.5364695 0
vn -0.009926268 -0.015615 -0.9998288
vn -0.0193004 -0.03036144 -0.9993526
vn -0.0193004 -0.03036144 0.9993526
vn 0.824073 -0.5664837 0
vn 0.833849 -0.5519927 0
vn 0.8439197 -0.5364695 0
vn 0 -1 -1.192093E-07
vn 1 0 0
vn 0 -1.192093E-07 1
vn -1 0 0
vn 0 1.192093E-07 -1
vn 0 1 1.192093E-07

vt 0.59375 0.025
vt 0.59375 0.225
vt 0.59375 0.1800764
vt 0.59375 0.125
vt 0.59375 0.113
vt 0.59375 0.025
vt 0.59375 0.037

usemtl colormap

f 1/1/14 11/3/13 2/1/14
f 12/3/13 2/1/14 11/3/13
f 11/3/13 6/2/12 12/3/13
f 5/2/12 12/3/13 6/2/12
f 8/2/11 6/2/11 10/3/6
f 11/3/6 10/3/6 6/2/11
f 7/2/10 9/3/9 5/2/10
f 12/3/9 5/2/10 9/3/9
f 12/3/9 9/3/9 2/1/8
f 4/1/8 2/1/8 9/3/9
f 3/1/7 4/1/7 10/3/4
f 9/3/4 10/3/4 4/1/7
f 11/3/6 1/1/5 10/3/6
f 3/1/5 10/3/6 1/1/5
f 10/3/4 9/3/4 8/2/3
f 7/2/3 8/2/3 9/3/4
f 8/2/2 7/2/2 6/2/2
f 5/2/2 6/2/2 7/2/2
f 4/1/1 3/1/1 2/1/1
f 1/1/1 2/1/1 3/1/1
f 15/1/15 14/1/15 13/1/15
f 14/1/15 15/1/15 16/1/15
f 19/2/16 18/2/16 17/2/16
f 18/2/16 19/2/16 20/2/16
f 21/3/18 20/2/17 19/2/17
f 20/2/17 21/3/18 22/3/18
f 13/1/5 22/3/19 15/1/5
f 22/3/19 13/1/5 23/3/19
f 16/1/20 22/3/18 21/3/18
f 22/3/18 16/1/20 15/1/20
f 21/3/21 14/1/8 16/1/8
f 14/1/8 21/3/21 24/3/21
f 21/3/21 17/2/22 24/3/21
f 17/2/22 21/3/21 19/2/22
f 18/2/23 22/3/19 23/3/19
f 22/3/19 18/2/23 20/2/23
f 18/2/24 24/3/25 17/2/24
f 24/3/25 18/2/24 23/3/25
f 23/3/25 14/1/26 24/3/25
f 14/1/26 23/3/25 13/1/26
f 27/1/15 26/1/15 25/1/15
f 26/1/15 27/1/15 28/1/15
f 31/2/16 30/2/16 29/2/16
f 30/2/16 31/2/16 32/2/16
f 33/3/18 32/2/17 31/2/17
f 32/2/17 33/3/18 34/3/18
f 25/1/5 34/3/19 27/1/5
f 34/3/19 25/1/5 35/3/19
f 28/1/20 34/3/18 33/3/18
f 34/3/18 28/1/20 27/1/20
f 33/3/21 26/1/8 28/1/8
f 26/1/8 33/3/21 36/3/21
f 33/3/21 29/2/22 36/3/21
f 29/2/22 33/3/21 31/2/22
f 30/2/23 34/3/19 35/3/19
f 34/3/19 30/2/23 32/2/23
f 30/2/24 36/3/25 29/2/24
f 36/3/25 30/2/24 35/3/25
f 35/3/25 26/1/26 36/3/25
f 26/1/26 35/3/25 25/1/26
f 37/1/14 47/3/13 38/1/14
f 48/3/13 38/1/14 47/3/13
f 47/3/13 42/2/12 48/3/13
f 41/2/12 48/3/13 42/2/12
f 44/2/11 42/2/11 46/3/6
f 47/3/6 46/3/6 42/2/11
f 43/2/10 45/3/9 41/2/10
f 48/3/9 41/2/10 45/3/9
f 48/3/9 45/3/9 38/1/8
f 40/1/8 38/1/8 45/3/9
f 39/1/7 40/1/7 46/3/4
f 45/3/4 46/3/4 40/1/7
f 47/3/6 37/1/5 46/3/6
f 39/1/5 46/3/6 37/1/5
f 46/3/4 45/3/4 44/2/3
f 43/2/3 44/2/3 45/3/4
f 44/2/2 43/2/2 42/2/2
f 41/2/2 42/2/2 43/2/2
f 40/1/1 39/1/1 38/1/1
f 37/1/1 38/1/1 39/1/1
f 51/4/27 50/1/27 49/1/27
f 50/1/27 51/4/27 52/4/27
f 51/4/28 54/1/28 53/4/28
f 54/1/28 51/4/28 49/1/28
f 55/4/29 51/4/29 53/4/29
f 51/4/29 55/4/29 52/4/29
f 50/1/30 55/4/30 56/1/30
f 55/4/30 50/1/30 52/4/30
f 50/1/31 54/1/31 49/1/31
f 54/1/31 50/1/31 56/1/31
f 55/4/32 54/1/32 56/1/32
f 54/1/32 55/4/32 53/4/32
f 59/5/20 58/4/20 57/5/20
f 58/4/20 59/5/20 60/4/20
f 62/5/15 57/5/15 61/5/15
f 57/5/15 62/5/15 59/5/15
f 58/4/16 64/4/16 63/4/16
f 64/4/16 58/4/16 60/4/16
f 63/4/26 62/5/26 61/5/26
f 62/5/26 63/4/26 64/4/26
f 67/1/15 66/6/15 65/6/15
f 66/6/15 67/1/15 68/1/15
f 68/1/20 69/7/20 66/6/20
f 69/7/20 68/1/20 70/7/20
f 69/7/16 72/7/16 71/7/16
f 72/7/16 69/7/16 70/7/16
f 71/7/26 67/1/26 65/6/26
f 67/1/26 71/7/26 72/7/26
f 88/4/14 87/4/14 83/5/14
f 81/5/14 83/5/14 87/4/14
f 86/4/2 85/4/2 88/4/2
f 87/4/2 88/4/2 85/4/2
f 86/4/7 84/5/7 85/4/7
f 82/5/7 85/4/7 84/5/7
f 84/5/1 83/5/1 82/5/1
f 81/5/1 82/5/1 83/5/1
f 78/7/14 77/7/14 80/1/14
f 79/6/14 80/1/14 77/7/14
f 75/1/1 80/1/1 73/6/1
f 79/6/1 73/6/1 80/1/1
f 76/7/2 74/7/2 78/7/2
f 77/7/2 78/7/2 74/7/2
f 76/7/7 75/1/7 74/7/7
f 73/6/7 74/7/7 75/1/7

g tent




usemtl colormap

f 1/1/14 11/3/13 2/1/14
f 12/3/13 2/1/14 11/3/13
f 11/3/13 6/2/12 12/3/13
f 5/2/12 12/3/13 6/2/12
f 8/2/11 6/2/11 10/3/6
f 11/3/6 10/3/6 6/2/11
f 7/2/10 9/3/9 5/2/10
f 12/3/9 5/2/10 9/3/9
f 12/3/9 9/3/9 2/1/8
f 4/1/8 2/1/8 9/3/9
f 3/1/7 4/1/7 10/3/4
f 9/3/4 10/3/4 4/1/7
f 11/3/6 1/1/5 10/3/6
f 3/1/5 10/3/6 1/1/5
f 10/3/4 9/3/4 8/2/3
f 7/2/3 8/2/3 9/3/4
f 8/2/2 7/2/2 6/2/2
f 5/2/2 6/2/2 7/2/2
f 4/1/1 3/1/1 2/1/1
f 1/1/1 2/1/1 3/1/1
f 15/1/15 14/1/15 13/1/15
f 14/1/15 15/1/15 16/1/15
f 19/2/16 18/2/16 17/2/16
f 18/2/16 19/2/16 20/2/16
f 21/3/18 20/2/17 19/2/17
f 20/2/17 21/3/18 22/3/18
f 13/1/5 22/3/19 15/1/5
f 22/3/19 13/1/5 23/3/19
f 16/1/20 22/3/18 21/3/18
f 22/3/18 16/1/20 15/1/20
f 21/3/21 14/1/8 16/1/8
f 14/1/8 21/3/21 24/3/21
f 21/3/21 17/2/22 24/3/21
f 17/2/22 21/3/21 19/2/22
f 18/2/23 22/3/19 23/3/19
f 22/3/19 18/2/23 20/2/23
f 18/2/24 24/3/25 17/2/24
f 24/3/25 18/2/24 23/3/25
f 23/3/25 14/1/26 24/3/25
f 14/1/26 23/3/25 13/1/26
f 27/1/15 26/1/15 25/1/15
f 26/1/15 27/1/15 28/1/15
f 31/2/16 30/2/16 29/2/16
f 30/2/16 31/2/16 32/2/16
f 33/3/18 32/2/17 31/2/17
f 32/2/17 33/3/18 34/3/18
f 25/1/5 34/3/19 27/1/5
f 34/3/19 25/1/5 35/3/19
f 28/1/20 34/3/18 33/3/18
f 34/3/18 28/1/20 27/1/20
f 33/3/21 26/1/8 28/1/8
f 26/1/8 33/3/21 36/3/21
f 33/3/21 29/2/22 36/3/21
f 29/2/22 33/3/21 31/2/22
f 30/2/23 34/3/19 35/3/19
f 34/3/19 30/2/23 32/2/23
f 30/2/24 36/3/25 29/2/24
f 36/3/25 30/2/24 35/3/25
f 35/3/25 26/1/26 36/3/25
f 26/1/26 35/3/25 25/1/26
f 37/1/14 47/3/13 38/1/14
f 48/3/13 38/1/14 47/3/13
f 47/3/13 42/2/12 48/3/13
f 41/2/12 48/3/13 42/2/12
f 44/2/11 42/2/11 46/3/6
f 47/3/6 46/3/6 42/2/11
f 43/2/10 45/3/9 41/2/10
f 48/3/9 41/2/10 45/3/9
f 48/3/9 45/3/9 38/1/8
f 40/1/8 38/1/8 45/3/9
f 39/1/7 40/1/7 46/3/4
f 45/3/4 46/3/4 40/1/7
f 47/3/6 37/1/5 46/3/6
f 39/1/5 46/3/6 37/1/5
f 46/3/4 45/3/4 44/2/3
f 43/2/3 44/2/3 45/3/4
f 44/2/2 43/2/2 42/2/2
f 41/2/2 42/2/2 43/2/2
f 40/1/1 39/1/1 38/1/1
f 37/1/1 38/1/1 39/1/1
f 51/4/27 50/1/27 49/1/27
f 50/1/27 51/4/27 52/4/27
f 51/4/28 54/1/28 53/4/28
f 54/1/28 51/4/28 49/1/28
f 55/4/29 51/4/29 53/4/29
f 51/4/29 55/4/29 52/4/29
f 50/1/30 55/4/30 56/1/30
f 55/4/30 50/1/30 52/4/30
f 50/1/31 54/1/31 49/1/31
f 54/1/31 50/1/31 56/1/31
f 55/4/32 54/1/32 56/1/32
f 54/1/32 55/4/32 53/4/32
f 59/5/20 58/4/20 57/5/20
f 58/4/20 59/5/20 60/4/20
f 62/5/15 57/5/15 61/5/15
f 57/5/15 62/5/15 59/5/15
f 58/4/16 64/4/16 63/4/16
f 64/4/16 58/4/16 60/4/16
f 63/4/26 62/5/26 61/5/26
f 62/5/26 63/4/26 64/4/26
f 67/1/15 66/6/15 65/6/15
f 66/6/15 67/1/15 68/1/15
f 68/1/20 69/7/20 66/6/20
f 69/7/20 68/1/20 70/7/20
f 69/7/16 72/7/16 71/7/16
f 72/7/16 69/7/16 70/7/16
f 71/7/26 67/1/26 65/6/26
f 67/1/26 71/7/26 72/7/26
f 88/4/14 87/4/14 83/5/14
f 81/5/14 83/5/14 87/4/14
f 86/4/2 85/4/2 88/4/2
f 87/4/2 88/4/2 85/4/2
f 86/4/7 84/5/7 85/4/7
f 82/5/7 85/4/7 84/5/7
f 84/5/1 83/5/1 82/5/1
f 81/5/1 82/5/1 83/5/1
f 78/7/14 77/7/14 80/1/14
f 79/6/14 80/1/14 77/7/14
f 75/1/1 80/1/1 73/6/1
f 79/6/1 73/6/1 80/1/1
f 76/7/2 74/7/2 78/7/2
f 77/7/2 78/7/2 74/7/2
f 76/7/7 75/1/7 74/7/7
f 73/6/7 74/7/7 75/1/7

