# Created by Kenney (www.kenney.nl)

mtllib tool-axe.mtl

g tool-axe

v -0.03438997 0.238 0.007200504 1 1 1
v -0.05331644 0.256 0.007200504 1 1 1
v -0.03438997 0.238 -0.007200504 1 1 1
v -0.05331644 0.256 -0.007200504 1 1 1
v 0.0154635 0.208263 -0.007200505 1 1 1
v 0.04116938 0.2186404 -0.007200505 1 1 1
v 0.0154635 0.231737 -0.007200505 1 1 1
v 0.04116938 0.231737 -0.007200505 1 1 1
v -0.05331644 0.184 -0.007200504 1 1 1
v -0.03438997 0.202 -0.007200504 1 1 1
v -0.06398842 0.1934669 -0.007200504 1 1 1
v -0.07091651 0.2059375 -0.007200504 1 1 1
v -0.0154635 0.20506 -0.007200505 1 1 1
v -0.0154635 0.23494 -0.007200505 1 1 1
v -0.07331644 0.22 -0.007200504 1 1 1
v -0.07091651 0.2340625 -0.007200504 1 1 1
v -0.06398842 0.2465331 -0.007200504 1 1 1
v -0.05331644 0.184 0.007200505 1 1 1
v -0.06398842 0.1934669 0.007200505 1 1 1
v -0.03438997 0.202 0.007200504 1 1 1
v -0.07091651 0.2059375 0.007200505 1 1 1
v -0.0154635 0.20506 0.007200503 1 1 1
v -0.0154635 0.23494 0.007200503 1 1 1
v -0.07331644 0.22 0.007200504 1 1 1
v -0.07091651 0.2340625 0.007200504 1 1 1
v -0.06398842 0.2465331 0.007200504 1 1 1
v 0.04116938 0.2186404 0.007200505 1 1 1
v 0.0154635 0.208263 0.007200505 1 1 1
v 0.0154635 0.2 0.0154635 1 1 1
v -0.0154635 0.2 0.0154635 1 1 1
v 0.0154635 0.24 0.0154635 1 1 1
v -0.0154635 0.24 0.0154635 1 1 1
v 0.0154635 0.231737 0.007200505 1 1 1
v 0.04116938 0.231737 0.007200505 1 1 1
v -0.0154635 0.2 -0.0154635 1 1 1
v 0.0154635 0.2 -0.0154635 1 1 1
v -0.0154635 0.24 -0.0154635 1 1 1
v 0.0154635 0.24 -0.0154635 1 1 1
v 0.0129 0 0.0129 1 1 1
v -0.0129 0 0.0129 1 1 1
v 0.00915 0.2 0.00915 1 1 1
v -0.00915 0.2 0.00915 1 1 1
v -0.0129 0 -0.0129 1 1 1
v -0.00915 0.2 -0.00915 1 1 1
v 0.0129 0 -0.0129 1 1 1
v 0.00915 0.2 -0.00915 1 1 1

vn 0.6891489 0.7246197 0
vn 0 0 -1
vn 0 0 1
vn 0.1596058 -0.9871809 0
vn 0.6891489 -0.7246197 0
vn 0.1596057 0.9871809 0
vn 0.3743463 -0.9272889 0
vn 0 1 0
vn 0 -1 0
vn 1 0 0
vn -0.6636085 -0.7480801 0
vn -0.7799995 -0.6257802 0
vn -0.943398 -0.3316629 0
vn -1 0 0
vn -0.943398 0.3316629 0
vn -0.7799995 0.6257802 0
vn -0.6636085 0.7480801 0
vn 0 0.01874671 0.9998243
vn -0.9998243 0.01874671 0
vn 0.9998243 0.01874671 0
vn 0 0.01874671 -0.9998243

vt 0.34375 0.175
vt 0.34375 0.225
vt 0.34375 0.09239721
vt 0.34375 0.1212235
vt 0.34375 0.1576028
vt 0.34375 0.025
vt 0.34375 0.075
vt 0.34375 0.05129701
vt 0.34375 0.08593748
vt 0.34375 0.0835
vt 0.34375 0.1665
vt 0.34375 0.125
vt 0.34375 0.1640625
vt 0.34375 0.198703
vt 0.34375 0.06944444
vt 0.34375 0.1805556
vt 0.59375 0.025
vt 0.59375 0.225

usemtl colormap

f 3/1/1 2/2/1 1/1/1
f 2/2/1 3/1/1 4/2/1
f 7/5/2 6/4/2 5/3/2
f 6/4/2 7/5/2 8/5/2
f 11/8/2 10/7/2 9/6/2
f 10/7/2 11/8/2 12/9/2
f 10/7/2 12/9/2 13/10/2
f 13/10/2 12/9/2 14/11/2
f 14/11/2 12/9/2 15/12/2
f 14/11/2 15/12/2 16/13/2
f 14/11/2 16/13/2 3/1/2
f 3/1/2 16/13/2 17/14/2
f 3/1/2 17/14/2 4/2/2
f 20/7/3 19/8/3 18/6/3
f 19/8/3 20/7/3 21/9/3
f 21/9/3 20/7/3 22/10/3
f 21/9/3 22/10/3 23/11/3
f 21/9/3 23/11/3 24/12/3
f 24/12/3 23/11/3 25/13/3
f 25/13/3 23/11/3 1/1/3
f 25/13/3 1/1/3 26/14/3
f 26/14/3 1/1/3 2/2/3
f 20/7/4 13/10/4 22/10/4
f 13/10/4 20/7/4 10/7/4
f 18/6/5 10/7/5 20/7/5
f 10/7/5 18/6/5 9/6/5
f 14/11/6 1/1/6 23/11/6
f 1/1/6 14/11/6 3/1/6
f 28/3/7 6/4/7 27/4/7
f 6/4/7 28/3/7 5/3/7
f 31/16/3 30/15/3 29/15/3
f 30/15/3 31/16/3 32/16/3
f 27/4/3 33/5/3 28/3/3
f 33/5/3 27/4/3 34/5/3
f 7/5/8 34/5/8 8/5/8
f 34/5/8 7/5/8 33/5/8
f 37/16/2 36/15/2 35/15/2
f 36/15/2 37/16/2 38/16/2
f 30/15/9 36/15/9 29/15/9
f 36/15/9 30/15/9 35/15/9
f 37/16/8 31/16/8 38/16/8
f 31/16/8 37/16/8 32/16/8
f 34/5/10 6/4/10 8/5/10
f 6/4/10 34/5/10 27/4/10
f 19/8/12 9/6/11 18/6/11
f 9/6/11 19/8/12 11/8/12
f 11/8/12 21/9/13 12/9/13
f 21/9/13 11/8/12 19/8/12
f 12/9/13 24/12/14 15/12/14
f 24/12/14 12/9/13 21/9/13
f 15/12/14 25/13/15 16/13/15
f 25/13/15 15/12/14 24/12/14
f 16/13/15 26/14/16 17/14/16
f 26/14/16 16/13/15 25/13/15
f 4/2/17 26/14/16 2/2/17
f 26/14/16 4/2/17 17/14/16
f 32/16/14 14/11/14 23/11/14
f 32/16/14 23/11/14 22/10/14
f 14/11/14 32/16/14 37/16/14
f 32/16/14 22/10/14 30/15/14
f 37/16/14 13/10/14 14/11/14
f 13/10/14 30/15/14 22/10/14
f 35/15/14 13/10/14 37/16/14
f 13/10/14 35/15/14 30/15/14
f 7/5/10 31/16/10 33/5/10
f 33/5/10 31/16/10 28/3/10
f 7/5/10 38/16/10 31/16/10
f 29/15/10 28/3/10 31/16/10
f 38/16/10 7/5/10 36/15/10
f 29/15/10 5/3/10 28/3/10
f 36/15/10 5/3/10 29/15/10
f 5/3/10 36/15/10 7/5/10
f 41/18/18 40/17/18 39/17/18
f 40/17/18 41/18/18 42/18/18
f 40/17/19 44/18/19 43/17/19
f 44/18/19 40/17/19 42/18/19
f 46/18/20 39/17/20 45/17/20
f 39/17/20 46/18/20 41/18/20
f 44/18/21 45/17/21 43/17/21
f 45/17/21 44/18/21 46/18/21
f 44/18/8 41/18/8 46/18/8
f 41/18/8 44/18/8 42/18/8
f 40/17/9 45/17/9 39/17/9
f 45/17/9 40/17/9 43/17/9

g tool-axe




usemtl colormap

f 3/1/1 2/2/1 1/1/1
f 2/2/1 3/1/1 4/2/1
f 7/5/2 6/4/2 5/3/2
f 6/4/2 7/5/2 8/5/2
f 11/8/2 10/7/2 9/6/2
f 10/7/2 11/8/2 12/9/2
f 10/7/2 12/9/2 13/10/2
f 13/10/2 12/9/2 14/11/2
f 14/11/2 12/9/2 15/12/2
f 14/11/2 15/12/2 16/13/2
f 14/11/2 16/13/2 3/1/2
f 3/1/2 16/13/2 17/14/2
f 3/1/2 17/14/2 4/2/2
f 20/7/3 19/8/3 18/6/3
f 19/8/3 20/7/3 21/9/3
f 21/9/3 20/7/3 22/10/3
f 21/9/3 22/10/3 23/11/3
f 21/9/3 23/11/3 24/12/3
f 24/12/3 23/11/3 25/13/3
f 25/13/3 23/11/3 1/1/3
f 25/13/3 1/1/3 26/14/3
f 26/14/3 1/1/3 2/2/3
f 20/7/4 13/10/4 22/10/4
f 13/10/4 20/7/4 10/7/4
f 18/6/5 10/7/5 20/7/5
f 10/7/5 18/6/5 9/6/5
f 14/11/6 1/1/6 23/11/6
f 1/1/6 14/11/6 3/1/6
f 28/3/7 6/4/7 27/4/7
f 6/4/7 28/3/7 5/3/7
f 31/16/3 30/15/3 29/15/3
f 30/15/3 31/16/3 32/16/3
f 27/4/3 33/5/3 28/3/3
f 33/5/3 27/4/3 34/5/3
f 7/5/8 34/5/8 8/5/8
f 34/5/8 7/5/8 33/5/8
f 37/16/2 36/15/2 35/15/2
f 36/15/2 37/16/2 38/16/2
f 30/15/9 36/15/9 29/15/9
f 36/15/9 30/15/9 35/15/9
f 37/16/8 31/16/8 38/16/8
f 31/16/8 37/16/8 32/16/8
f 34/5/10 6/4/10 8/5/10
f 6/4/10 34/5/10 27/4/10
f 19/8/12 9/6/11 18/6/11
f 9/6/11 19/8/12 11/8/12
f 11/8/12 21/9/13 12/9/13
f 21/9/13 11/8/12 19/8/12
f 12/9/13 24/12/14 15/12/14
f 24/12/14 12/9/13 21/9/13
f 15/12/14 25/13/15 16/13/15
f 25/13/15 15/12/14 24/12/14
f 16/13/15 26/14/16 17/14/16
f 26/14/16 16/13/15 25/13/15
f 4/2/17 26/14/16 2/2/17
f 26/14/16 4/2/17 17/14/16
f 32/16/14 14/11/14 23/11/14
f 32/16/14 23/11/14 22/10/14
f 14/11/14 32/16/14 37/16/14
f 32/16/14 22/10/14 30/15/14
f 37/16/14 13/10/14 14/11/14
f 13/10/14 30/15/14 22/10/14
f 35/15/14 13/10/14 37/16/14
f 13/10/14 35/15/14 30/15/14
f 7/5/10 31/16/10 33/5/10
f 33/5/10 31/16/10 28/3/10
f 7/5/10 38/16/10 31/16/10
f 29/15/10 28/3/10 31/16/10
f 38/16/10 7/5/10 36/15/10
f 29/15/10 5/3/10 28/3/10
f 36/15/10 5/3/10 29/15/10
f 5/3/10 36/15/10 7/5/10
f 41/18/18 40/17/18 39/17/18
f 40/17/18 41/18/18 42/18/18
f 40/17/19 44/18/19 43/17/19
f 44/18/19 40/17/19 42/18/19
f 46/18/20 39/17/20 45/17/20
f 39/17/20 46/18/20 41/18/20
f 44/18/21 45/17/21 43/17/21
f 45/17/21 44/18/21 46/18/21
f 44/18/8 41/18/8 46/18/8
f 41/18/8 44/18/8 42/18/8
f 40/17/9 45/17/9 39/17/9
f 45/17/9 40/17/9 43/17/9

