# Created by Kenney (www.kenney.nl)

mtllib tree-log-small.mtl

g tree-log-small

v -0.1026616 0.1056551 -0.125 1 1 1
v -0.1026616 0.1056551 0.125 1 1 1
v -0.05266161 0.01905256 -0.125 1 1 1
v -0.05266161 0.01905256 0.125 1 1 1
v 0.04733839 0.1922576 -0.125 1 1 1
v 0.09733839 0.1056551 -0.125 1 1 1
v 0.04733839 0.1922576 0.125 1 1 1
v 0.09733839 0.1056551 0.125 1 1 1
v 0.05833839 0.2113102 0.325 1 1 1
v 0.1193384 0.1056551 0.325 1 1 1
v -0.05266161 0.1922576 -0.125 1 1 1
v -0.05266161 0.1922576 0.125 1 1 1
v -0.06366161 0.2113102 0.325 1 1 1
v 0.04733839 0.01905256 0.125 1 1 1
v 0.04733839 0.01905256 -0.125 1 1 1
v -0.1246616 0.1056551 0.325 1 1 1
v -0.06366161 2.167313E-13 0.325 1 1 1
v 0.05833839 2.167313E-13 0.325 1 1 1
v 0.05833839 0 -0.325 1 1 1
v -0.06366161 0 -0.325 1 1 1
v 0.1193384 0.1056551 -0.325 1 1 1
v 0.05833839 0.2113102 -0.325 1 1 1
v -0.06366161 0.2113102 -0.325 1 1 1
v -0.1246616 0.1056551 -0.325 1 1 1
v -0.03768085 0.045 -0.325 1 1 1
v 0.03235762 0.045 -0.325 1 1 1
v -0.07270008 0.1056551 -0.325 1 1 1
v -0.03768085 0.1663102 -0.325 1 1 1
v 0.06737687 0.1056551 -0.325 1 1 1
v 0.03235762 0.1663102 -0.325 1 1 1
v 0.03524438 0.1713102 0.325 1 1 1
v 0.07315037 0.1056551 0.325 1 1 1
v -0.0405676 0.1713102 0.325 1 1 1
v -0.07847359 0.1056551 0.325 1 1 1
v -0.0405676 0.04 0.325 1 1 1
v 0.03524438 0.04 0.325 1 1 1
v 0.06794684 0.134105 0.08566684 1 1 1
v 0.06794684 0.134105 0.1522893 1 1 1
v 0.1247436 0.2551714 0.09701265 1 1 1
v 0.1247436 0.2551714 0.1409435 1 1 1
v 0.08669832 0.2771369 0.09701265 1 1 1
v 0.08669832 0.2771369 0.1409435 1 1 1
v 0.01025005 0.1674162 0.08566684 1 1 1
v 0.01025005 0.1674162 0.1522893 1 1 1
v -0.07760227 0.1377333 -0.09661952 1 1 1
v -0.1247436 0.2382185 -0.1060365 1 1 1
v -0.02971395 0.1653817 -0.09661952 1 1 1
v -0.09316602 0.2564498 -0.1060365 1 1 1
v -0.02971395 0.1653817 -0.1519162 1 1 1
v -0.09316602 0.2564498 -0.1424992 1 1 1
v -0.1247436 0.2382185 -0.1424992 1 1 1
v -0.07760227 0.1377333 -0.1519162 1 1 1
v -0.0405676 0.04 0.325 1 1 1
v 0.07315036 0.1056551 0.325 1 1 1
v -0.0405676 0.1713102 0.325 1 1 1
v 0.03235763 0.045 -0.325 1 1 1
v -0.07270009 0.1056551 -0.325 1 1 1
v 0.06737686 0.1056551 -0.325 1 1 1
v 0.03235763 0.1663102 -0.325 1 1 1

vn -0.9984459 0 0.05573028
vn -0.9984459 0 -0.05573028
vn -0.4992229 -0.8646795 0.05573027
vn -0.4992229 -0.8646795 -0.05573027
vn 0.4992229 0.8646795 0.05573027
vn 0.9984459 0 0.05573028
vn 0.4992229 0.8646795 -0.05573027
vn 0.9984459 0 -0.05573028
vn 0.4970022 0.860833 -0.1093405
vn 0.9940044 0 -0.1093405
vn -0.4992229 0.8646795 0.05573027
vn -0.4992229 0.8646795 -0.05573027
vn -0.4970022 0.860833 -0.1093405
vn 0.4992229 -0.8646795 -0.05573027
vn 0.4992229 -0.8646795 0.05573027
vn -0.9940044 0 -0.1093405
vn -0.4970022 -0.860833 -0.1093405
vn 0.4970022 -0.860833 -0.1093405
vn 0.4970022 -0.860833 0.1093405
vn -0.4970022 -0.860833 0.1093405
vn 0.9940044 0 0.1093405
vn 0.4970022 0.860833 0.1093405
vn -0.4970022 0.860833 0.1093405
vn -0.9940044 0 0.1093405
vn 0 0 -1
vn 0 0 1
vn 0.6677583 -0.2474784 -0.702035
vn 0.6677583 -0.2474784 0.702035
vn 0.5 0.8660254 0
vn -0.5482018 0.4545565 -0.702035
vn -0.5482018 0.4545565 0.702035
vn -0.6677583 -0.2474785 0.702035
vn 0.5482018 0.4545565 0.702035
vn 0.5482018 0.4545565 -0.702035
vn -0.5 0.8660254 0
vn -0.6677583 -0.2474785 -0.702035

vt 0.59375 0.125
vt 0.59375 0.04303278
vt 0.59375 0.2069672
vt 0.59375 0.225
vt 0.59375 0.025
vt 0.59375 0.06759141
vt 0.59375 0.1824086
vt 0.59375 0.187141
vt 0.59375 0.06285904
vt 0.59375 0.194286
vt 0.59375 0.07157877
vt 0.84375 0.025
vt 0.84375 0.125
vt 0.84375 0.225
vt 0.84375 0.03261555
vt 0.84375 0.2173844

usemtl colormap

f 3/2/3 2/1/2 1/1/1
f 2/1/2 3/2/3 4/2/4
f 7/3/7 6/1/6 5/3/5
f 6/1/6 7/3/7 8/1/8
f 9/4/9 8/1/8 7/3/7
f 8/1/8 9/4/9 10/1/10
f 11/3/11 7/3/7 5/3/5
f 7/3/7 11/3/11 12/3/12
f 7/3/7 13/4/13 9/4/9
f 13/4/13 7/3/7 12/3/12
f 4/2/4 15/2/15 14/2/14
f 15/2/15 4/2/4 3/2/3
f 8/1/8 15/2/15 6/1/6
f 15/2/15 8/1/8 14/2/14
f 2/1/2 13/4/13 12/3/12
f 13/4/13 2/1/2 16/1/16
f 4/2/4 16/1/16 2/1/2
f 16/1/16 4/2/4 17/5/17
f 10/1/10 14/2/14 8/1/8
f 14/2/14 10/1/10 18/5/18
f 15/2/15 20/5/20 19/5/19
f 20/5/20 15/2/15 3/2/3
f 6/1/6 19/5/19 21/1/21
f 19/5/19 6/1/6 15/2/15
f 23/4/23 5/3/5 22/4/22
f 5/3/5 23/4/23 11/3/11
f 20/5/20 1/1/1 24/1/24
f 1/1/1 20/5/20 3/2/3
f 17/5/17 14/2/14 18/5/18
f 14/2/14 17/5/17 4/2/4
f 1/1/1 12/3/12 11/3/11
f 12/3/12 1/1/1 2/1/2
f 5/3/5 21/1/21 22/4/22
f 21/1/21 5/3/5 6/1/6
f 24/1/24 11/3/11 23/4/23
f 11/3/11 24/1/24 1/1/1
f 20/5/25 25/6/25 19/5/25
f 25/6/25 20/5/25 24/1/25
f 26/6/25 19/5/25 25/6/25
f 25/6/25 24/1/25 27/1/25
f 27/1/25 24/1/25 28/7/25
f 28/7/25 24/1/25 23/4/25
f 19/5/25 26/6/25 21/1/25
f 21/1/25 26/6/25 29/1/25
f 28/7/25 23/4/25 30/7/25
f 21/1/25 29/1/25 30/7/25
f 22/4/25 30/7/25 23/4/25
f 21/1/25 30/7/25 22/4/25
f 32/1/26 9/4/26 31/8/26
f 31/8/26 9/4/26 33/8/26
f 32/1/26 10/1/26 9/4/26
f 13/4/26 33/8/26 9/4/26
f 13/4/26 34/1/26 33/8/26
f 16/1/26 34/1/26 13/4/26
f 16/1/26 35/9/26 34/1/26
f 35/9/26 16/1/26 17/5/26
f 36/9/26 10/1/26 32/1/26
f 17/5/26 36/9/26 35/9/26
f 36/9/26 18/5/26 10/1/26
f 18/5/26 36/9/26 17/5/26
f 39/10/27 38/5/28 37/5/27
f 38/5/28 39/10/27 40/10/28
f 41/4/29 40/10/29 39/10/29
f 40/10/29 41/4/29 42/4/29
f 43/11/30 39/10/27 37/5/27
f 39/10/27 43/11/30 41/4/30
f 40/10/28 44/11/31 38/5/28
f 44/11/31 40/10/28 42/4/31
f 44/11/31 41/4/30 43/11/30
f 41/4/30 44/11/31 42/4/31
f 47/11/33 46/10/32 45/5/32
f 46/10/32 47/11/33 48/4/33
f 50/4/34 47/11/33 49/11/34
f 47/11/33 50/4/34 48/4/33
f 51/10/35 48/4/35 50/4/35
f 48/4/35 51/10/35 46/10/35
f 51/10/36 49/11/34 52/5/36
f 49/11/34 51/10/36 50/4/34
f 45/5/32 51/10/36 52/5/36
f 51/10/36 45/5/32 46/10/32
f 36/12/26 34/13/26 53/12/26
f 34/13/26 36/12/26 54/13/26
f 34/13/26 54/13/26 55/14/26
f 55/14/26 54/13/26 31/14/26
f 57/13/25 56/15/25 25/15/25
f 56/15/25 57/13/25 58/13/25
f 58/13/25 57/13/25 28/16/25
f 58/13/25 28/16/25 59/16/25

g tree-log-small




usemtl colormap

f 3/2/3 2/1/2 1/1/1
f 2/1/2 3/2/3 4/2/4
f 7/3/7 6/1/6 5/3/5
f 6/1/6 7/3/7 8/1/8
f 9/4/9 8/1/8 7/3/7
f 8/1/8 9/4/9 10/1/10
f 11/3/11 7/3/7 5/3/5
f 7/3/7 11/3/11 12/3/12
f 7/3/7 13/4/13 9/4/9
f 13/4/13 7/3/7 12/3/12
f 4/2/4 15/2/15 14/2/14
f 15/2/15 4/2/4 3/2/3
f 8/1/8 15/2/15 6/1/6
f 15/2/15 8/1/8 14/2/14
f 2/1/2 13/4/13 12/3/12
f 13/4/13 2/1/2 16/1/16
f 4/2/4 16/1/16 2/1/2
f 16/1/16 4/2/4 17/5/17
f 10/1/10 14/2/14 8/1/8
f 14/2/14 10/1/10 18/5/18
f 15/2/15 20/5/20 19/5/19
f 20/5/20 15/2/15 3/2/3
f 6/1/6 19/5/19 21/1/21
f 19/5/19 6/1/6 15/2/15
f 23/4/23 5/3/5 22/4/22
f 5/3/5 23/4/23 11/3/11
f 20/5/20 1/1/1 24/1/24
f 1/1/1 20/5/20 3/2/3
f 17/5/17 14/2/14 18/5/18
f 14/2/14 17/5/17 4/2/4
f 1/1/1 12/3/12 11/3/11
f 12/3/12 1/1/1 2/1/2
f 5/3/5 21/1/21 22/4/22
f 21/1/21 5/3/5 6/1/6
f 24/1/24 11/3/11 23/4/23
f 11/3/11 24/1/24 1/1/1
f 20/5/25 25/6/25 19/5/25
f 25/6/25 20/5/25 24/1/25
f 26/6/25 19/5/25 25/6/25
f 25/6/25 24/1/25 27/1/25
f 27/1/25 24/1/25 28/7/25
f 28/7/25 24/1/25 23/4/25
f 19/5/25 26/6/25 21/1/25
f 21/1/25 26/6/25 29/1/25
f 28/7/25 23/4/25 30/7/25
f 21/1/25 29/1/25 30/7/25
f 22/4/25 30/7/25 23/4/25
f 21/1/25 30/7/25 22/4/25
f 32/1/26 9/4/26 31/8/26
f 31/8/26 9/4/26 33/8/26
f 32/1/26 10/1/26 9/4/26
f 13/4/26 33/8/26 9/4/26
f 13/4/26 34/1/26 33/8/26
f 16/1/26 34/1/26 13/4/26
f 16/1/26 35/9/26 34/1/26
f 35/9/26 16/1/26 17/5/26
f 36/9/26 10/1/26 32/1/26
f 17/5/26 36/9/26 35/9/26
f 36/9/26 18/5/26 10/1/26
f 18/5/26 36/9/26 17/5/26
f 39/10/27 38/5/28 37/5/27
f 38/5/28 39/10/27 40/10/28
f 41/4/29 40/10/29 39/10/29
f 40/10/29 41/4/29 42/4/29
f 43/11/30 39/10/27 37/5/27
f 39/10/27 43/11/30 41/4/30
f 40/10/28 44/11/31 38/5/28
f 44/11/31 40/10/28 42/4/31
f 44/11/31 41/4/30 43/11/30
f 41/4/30 44/11/31 42/4/31
f 47/11/33 46/10/32 45/5/32
f 46/10/32 47/11/33 48/4/33
f 50/4/34 47/11/33 49/11/34
f 47/11/33 50/4/34 48/4/33
f 51/10/35 48/4/35 50/4/35
f 48/4/35 51/10/35 46/10/35
f 51/10/36 49/11/34 52/5/36
f 49/11/34 51/10/36 50/4/34
f 45/5/32 51/10/36 52/5/36
f 51/10/36 45/5/32 46/10/32
f 36/12/26 34/13/26 53/12/26
f 34/13/26 36/12/26 54/13/26
f 34/13/26 54/13/26 55/14/26
f 55/14/26 54/13/26 31/14/26
f 57/13/25 56/15/25 25/15/25
f 56/15/25 57/13/25 58/13/25
f 58/13/25 57/13/25 28/16/25
f 58/13/25 28/16/25 59/16/25

