# Created by Kenney (www.kenney.nl)

mtllib tree-tall.mtl

g tree-tall

v 0.1 0 0.05 1 1 1
v 0.1 0 -0.05 1 1 1
v 0.05 0 0.1 1 1 1
v 0.05 0 -0.1 1 1 1
v -0.05 0 0.1 1 1 1
v -0.05 0 -0.1 1 1 1
v -0.1 0 0.05 1 1 1
v -0.1 0 -0.05 1 1 1
v 0.05 0.225788 -0.025 1 1 1
v 0.05 0.225788 0.025 1 1 1
v 0.025 0.225788 0.05 1 1 1
v 0.025 0.225788 -0.05 1 1 1
v -0.025 0.225788 -0.05 1 1 1
v -0.05 0.225788 -0.025 1 1 1
v -0.05 0.225788 0.025 1 1 1
v -0.025 0.225788 0.05 1 1 1
v -0.0625 0.7526604 -0.03125 1 1 1
v -0.0625 0.7526604 0.03125 1 1 1
v 0.03125 0.7526604 0.0625 1 1 1
v -0.03125 0.7526604 0.0625 1 1 1
v -0.03125 0.7526604 -0.0625 1 1 1
v 0.03125 0.7526604 -0.0625 1 1 1
v 0.0625 0.7526604 -0.03125 1 1 1
v 0.0625 0.7526604 0.03125 1 1 1
v 0.02868401 0.3149712 0.02628975 1 1 1
v 0.01366928 0.3149712 0.06253853 1 1 1
v 0.01366928 0.3149712 -0.009959031 1 1 1
v -0.02257951 0.3149712 -0.02497377 1 1 1
v -0.02257951 0.3149712 0.07755327 1 1 1
v -0.05882829 0.3149712 -0.009959031 1 1 1
v -0.05882829 0.3149712 0.06253853 1 1 1
v -0.07384302 0.3149712 0.02628975 1 1 1
v 0.05772049 0.2492712 0.02628975 1 1 1
v 0.03420117 0.2492712 -0.03049092 1 1 1
v 0.03420117 0.2492712 0.08307043 1 1 1
v -0.02257951 0.2492712 0.1065897 1 1 1
v -0.02257951 0.2492712 -0.05401024 1 1 1
v -0.07936018 0.2492712 0.08307043 1 1 1
v -0.07936018 0.2492712 -0.03049092 1 1 1
v -0.1028795 0.2492712 0.02628975 1 1 1
v 0.08868401 0.4949712 -0.02371025 1 1 1
v 0.07366928 0.4949712 0.01253854 1 1 1
v 0.07366928 0.4949712 -0.05995903 1 1 1
v 0.03742049 0.4949712 -0.07497376 1 1 1
v 0.03742049 0.4949712 0.02755327 1 1 1
v 0.001171708 0.4949712 -0.05995903 1 1 1
v 0.001171708 0.4949712 0.01253854 1 1 1
v -0.01384303 0.4949712 -0.02371025 1 1 1
v 0.1177205 0.4292712 -0.02371025 1 1 1
v 0.09420116 0.4292712 -0.08049092 1 1 1
v 0.09420116 0.4292712 0.03307043 1 1 1
v 0.03742049 0.4292712 0.05658975 1 1 1
v 0.03742049 0.4292712 -0.1040102 1 1 1
v -0.01936018 0.4292712 0.03307043 1 1 1
v -0.01936018 0.4292712 -0.08049092 1 1 1
v -0.0428795 0.4292712 -0.02371025 1 1 1
v 0.1196695 0.7526605 0.2156707 1 1 1
v -0.1293656 0.7526605 0.2156707 1 1 1
v 0.06861784 1.052018 0.1272466 1 1 1
v -0.07831387 1.052018 0.1272466 1 1 1
v 0.1196695 0.7526605 -0.2156707 1 1 1
v 0.2441871 0.7526605 -5.566778E-09 1 1 1
v 0.06861784 1.052018 -0.1272466 1 1 1
v 0.1420837 1.052018 -4.045106E-09 1 1 1
v -0.1293656 0.7526605 -0.2156707 1 1 1
v -0.07831387 1.052018 -0.1272466 1 1 1
v -0.1517797 1.052018 3.344117E-10 1 1 1
v -0.2538832 0.7526605 1.856083E-09 1 1 1
v 0.138746 1.373632 -2.747336E-09 1 1 1
v 0.06694899 1.373632 0.1243561 1 1 1
v 0.02815665 1.710972 -1.099283E-09 1 1 1
v 0.01165432 1.710972 0.02858287 1 1 1
v -0.03785268 1.710972 -1.155838E-10 1 1 1
v -0.02135035 1.710972 0.02858287 1 1 1
v -0.148442 1.373632 1.532468E-09 1 1 1
v -0.07664503 1.373632 0.1243561 1 1 1
v -0.07664503 1.373632 -0.1243561 1 1 1
v 0.06694899 1.373632 -0.1243561 1 1 1
v -0.02135035 1.710972 -0.02858288 1 1 1
v 0.01165431 1.710972 -0.02858288 1 1 1
v 0.170494 1.052018 -0.1012338 1 1 1
v 0.170494 1.052018 0.1012338 1 1 1
v 0.07549565 1.373632 -0.04638644 1 1 1
v 0.07549565 1.373632 0.04638644 1 1 1
v -0.00484802 1.052018 -0.2024676 1 1 1
v -0.004848018 1.373632 -0.09277288 1 1 1
v -0.004848014 1.052018 0.2024676 1 1 1
v -0.004848015 1.373632 0.09277288 1 1 1
v -0.1801901 1.052018 0.1012338 1 1 1
v -0.08519169 1.373632 0.04638644 1 1 1
v -0.1801901 1.052018 -0.1012338 1 1 1
v -0.0851917 1.373632 -0.04638644 1 1 1
v -0.004848015 0.6592723 0.2631183 1 1 1
v -0.1430625 0.7059664 0.2393945 1 1 1
v 0.1333665 0.7059664 0.2393945 1 1 1
v -0.1430625 0.7059664 -0.2393945 1 1 1
v -0.2327152 0.6592723 -0.1315591 1 1 1
v -0.281277 0.7059664 2.264341E-09 1 1 1
v -0.2327152 0.6592723 0.1315591 1 1 1
v 0.271581 0.7059664 -5.975035E-09 1 1 1
v 0.2230191 0.6592723 0.1315591 1 1 1
v -0.00484802 0.6592723 -0.2631183 1 1 1
v 0.1333665 0.7059664 -0.2393945 1 1 1
v 0.2230191 0.6592723 -0.1315591 1 1 1
v -0.1118067 0.9760923 -0.1852578 1 1 1
v -0.00484802 1.014055 -0.224739 1 1 1
v -0.1994777 1.014055 -0.1123695 1 1 1
v 0.1897817 1.014055 -0.1123695 1 1 1
v 0.2090693 0.9760923 -4.524326E-09 1 1 1
v 0.1897817 1.014055 0.1123695 1 1 1
v -0.1118067 0.9760923 0.1852578 1 1 1
v -0.1994777 1.014055 0.1123695 1 1 1
v -0.004848014 1.014055 0.224739 1 1 1
v -0.2187653 0.9760923 -1.179532E-09 1 1 1
v 0.1021107 0.9760923 0.1852578 1 1 1
v 0.1021106 0.9760923 -0.1852578 1 1 1
v -0.08454271 1.346708 -0.1380353 1 1 1
v -0.1362366 1.319784 -0.07585721 1 1 1
v -0.1642374 1.346708 1.767857E-09 1 1 1
v -0.1362366 1.319784 0.07585721 1 1 1
v -0.08454271 1.346708 0.1380353 1 1 1
v 0.07484667 1.346708 -0.1380353 1 1 1
v 0.1265405 1.319784 -0.07585721 1 1 1
v 0.1545414 1.346708 -2.982726E-09 1 1 1
v -0.004848015 1.319784 0.1517144 1 1 1
v 0.07484668 1.346708 0.1380353 1 1 1
v -0.004848018 1.319784 -0.1517144 1 1 1
v 0.1265405 1.319784 0.07585721 1 1 1

vn 0 -1 0
vn 0.8954914 0.2398185 -0.3749429
vn 0.8954914 0.2398185 0.3749429
vn 0.8986273 0.2396835 -0.3674516
vn 0.8986273 0.2396835 0.3674516
vn 0.3674516 0.2396835 0.8986273
vn 0.3749429 0.2398185 0.8954914
vn 0.3749429 0.2398185 -0.8954914
vn 0.3674516 0.2396835 -0.8986273
vn -0.3749429 0.2398185 -0.8954914
vn -0.3674516 0.2396835 -0.8986273
vn -0.8954914 0.2398185 -0.3749429
vn -0.8986273 0.2396835 -0.3674516
vn -0.8954914 0.2398185 0.3749429
vn -0.8986273 0.2396835 0.3674516
vn -0.3749429 0.2398185 0.8954914
vn -0.3674516 0.2396835 0.8986273
vn -0.9233826 -0.02645012 -0.3829685
vn -0.9233826 -0.02645012 0.3829685
vn -0.9237331 -0.02644839 -0.3821225
vn -0.9237331 -0.02644839 0.3821225
vn 0.3821225 -0.02644839 0.9237331
vn -0.3821225 -0.02644839 0.9237331
vn 0.3829685 -0.02645011 0.9233826
vn -0.3829685 -0.02645011 0.9233826
vn -0.3821225 -0.02644839 -0.9237331
vn 0.3821225 -0.02644839 -0.9237331
vn -0.3829685 -0.02645011 -0.9233826
vn 0.3829685 -0.02645011 -0.9233826
vn 0.9237331 -0.02644839 -0.3821225
vn 0.9233826 -0.02645012 -0.3829685
vn 0.9237331 -0.02644839 0.3821225
vn 0.9233826 -0.02645012 0.3829685
vn 0 1 0
vn 0.6467584 0.4042366 -0.6467584
vn 0.9146545 0.4042366 0
vn 0 0.4042366 0.9146545
vn -0.6467584 0.4042366 0.6467584
vn -0.9146545 0.4042366 0
vn 0 0.4042366 -0.9146545
vn 0.6467584 0.4042366 0.6467584
vn -0.6467584 0.4042366 -0.6467584
vn 0.4732311 0.3228149 0.8196602
vn -0.473231 0.3228149 0.8196602
vn 0.473231 0.3228149 -0.8196602
vn 0.9464621 0.3228149 0
vn -0.4732311 0.3228149 -0.8196602
vn -0.9464621 0.3228149 0
vn 0.950241 0.3115154 0
vn 0.4751206 0.3115155 0.822933
vn 0.6877321 0.7259646 0
vn 0.3438661 0.7259646 0.5955935
vn -0.6877321 0.7259646 0
vn -0.3438661 0.7259646 0.5955935
vn -0.950241 0.3115154 0
vn -0.4751205 0.3115154 0.822933
vn -0.4751206 0.3115155 -0.822933
vn 0.4751205 0.3115154 -0.822933
vn -0.3438661 0.7259646 -0.5955935
vn 0.3438661 0.7259646 -0.5955935
vn 0.8196602 0.3228149 -0.4732311
vn 0.8196602 0.3228149 0.473231
vn 0 0.3228149 -0.9464621
vn 0 0.3228149 0.9464621
vn -0.8196602 0.3228149 0.4732311
vn -0.8196602 0.3228149 -0.473231
vn 0 0.4529588 0.8915314
vn -0.4312624 0.5060146 0.7469685
vn 0.4312625 0.5060146 0.7469684
vn -0.4312625 -0.5060146 -0.7469684
vn 0.4312624 -0.5060146 -0.7469685
vn 0 -0.4529588 -0.8915314
vn -0.4312625 0.5060146 -0.7469685
vn -0.7720889 0.4529588 -0.4457657
vn -0.8625249 0.5060146 0
vn 0.7720889 -0.4529588 0.4457657
vn 0.4312625 -0.5060146 0.7469685
vn 0.8625249 -0.5060146 0
vn -0.7720889 0.4529589 0.4457657
vn 0.7720889 -0.4529589 -0.4457657
vn 0.8625249 0.5060146 0
vn 0.7720889 0.4529589 0.4457657
vn -0.8625249 -0.5060146 0
vn -0.7720889 -0.4529589 -0.4457657
vn 0 0.4529588 -0.8915314
vn 0.4312624 0.5060146 -0.7469685
vn -0.4312624 -0.5060146 0.7469685
vn 0 -0.4529588 0.8915314
vn 0.7720889 0.4529588 -0.4457657
vn -0.7720889 -0.4529588 0.4457657
vn -0.4457657 0.4529589 -0.7720889
vn 0 0.5060146 -0.8625249
vn -0.7469685 0.5060146 -0.4312624
vn 0.7469685 -0.5060146 0.4312624
vn 0 -0.5060146 0.8625249
vn 0.4457657 -0.4529589 0.7720889
vn 0.7469685 0.5060146 -0.4312625
vn 0.8915314 0.4529588 0
vn 0.7469685 0.5060146 0.4312624
vn -0.7469685 -0.5060146 0.4312625
vn -0.8915314 -0.4529588 0
vn -0.7469685 -0.5060146 -0.4312624
vn -0.4457657 0.4529589 0.7720889
vn -0.7469685 0.5060146 0.4312625
vn 0 0.5060146 0.8625249
vn 0 -0.5060146 -0.8625249
vn 0.7469685 -0.5060146 -0.4312625
vn 0.4457657 -0.4529589 -0.7720889
vn -0.8915315 0.4529588 0
vn 0.8915315 -0.4529588 0
vn 0.4457657 0.4529589 0.7720889
vn -0.4457657 -0.4529589 -0.7720889
vn 0.4457657 0.4529588 -0.7720889
vn -0.4457657 -0.4529588 0.7720889
vn -0.7720889 0.4529589 -0.4457657
vn 0.7720889 -0.4529589 0.4457657
vn -0.4312625 0.5060146 0.7469685
vn -0.7720889 0.4529588 0.4457657
vn 0.4312625 -0.5060146 -0.7469685
vn 0.7720889 -0.4529588 -0.4457657
vn 0.7720889 0.4529589 -0.4457657
vn 0.8625249 0.5060146 0
vn -0.7720889 -0.4529589 0.4457657
vn -0.8625249 -0.5060146 0
vn 0 0.4529588 -0.8915315
vn 0 -0.4529588 0.8915315

vt 0.59375 0.025
vt 0.59375 0.0849973
vt 0.59375 0.225
vt 0.09375 0.475
vt 0.09375 0.275
vt 0.09375 0.3487783
vt 0.09375 0.425
vt 0.09375 0.3387652
vt 0.09375 0.3440988
vt 0.09375 0.325
vt 0.09375 0.375

usemtl colormap

f 3/1/1 2/1/1 1/1/1
f 2/1/1 3/1/1 4/1/1
f 4/1/1 3/1/1 5/1/1
f 4/1/1 5/1/1 6/1/1
f 6/1/1 5/1/1 7/1/1
f 6/1/1 7/1/1 8/1/1
f 9/2/4 1/1/3 2/1/2
f 1/1/3 9/2/4 10/2/5
f 11/2/6 1/1/3 10/2/5
f 1/1/3 11/2/6 3/1/7
f 12/2/9 2/1/2 4/1/8
f 2/1/2 12/2/9 9/2/4
f 13/2/11 4/1/8 6/1/10
f 4/1/8 13/2/11 12/2/9
f 7/1/14 14/2/13 8/1/12
f 14/2/13 7/1/14 15/2/15
f 11/2/6 5/1/16 3/1/7
f 5/1/16 11/2/6 16/2/17
f 8/1/12 13/2/11 6/1/10
f 13/2/11 8/1/12 14/2/13
f 7/1/14 16/2/17 15/2/15
f 16/2/17 7/1/14 5/1/16
f 14/2/20 18/3/19 17/3/18
f 18/3/19 14/2/20 15/2/21
f 19/3/24 16/2/23 11/2/22
f 16/2/23 19/3/24 20/3/25
f 21/3/28 12/2/27 13/2/26
f 12/2/27 21/3/28 22/3/29
f 22/3/29 9/2/30 12/2/27
f 9/2/30 22/3/29 23/3/31
f 16/2/23 18/3/19 15/2/21
f 18/3/19 16/2/23 20/3/25
f 24/3/33 11/2/22 10/2/32
f 11/2/22 24/3/33 19/3/24
f 13/2/26 17/3/18 21/3/28
f 17/3/18 13/2/26 14/2/20
f 24/3/33 9/2/30 23/3/31
f 9/2/30 24/3/33 10/2/32
f 27/4/34 26/4/34 25/4/34
f 26/4/34 27/4/34 28/4/34
f 26/4/34 28/4/34 29/4/34
f 29/4/34 28/4/34 30/4/34
f 29/4/34 30/4/34 31/4/34
f 31/4/34 30/4/34 32/4/34
f 35/5/1 34/5/1 33/5/1
f 34/5/1 35/5/1 36/5/1
f 34/5/1 36/5/1 37/5/1
f 37/5/1 36/5/1 38/5/1
f 37/5/1 38/5/1 39/5/1
f 39/5/1 38/5/1 40/5/1
f 27/4/35 33/5/36 34/5/35
f 33/5/36 27/4/35 25/4/36
f 29/4/37 38/5/38 36/5/37
f 38/5/38 29/4/37 31/4/38
f 40/5/39 31/4/38 32/4/39
f 31/4/38 40/5/39 38/5/38
f 28/4/40 34/5/35 37/5/40
f 34/5/35 28/4/40 27/4/35
f 26/4/41 36/5/37 35/5/41
f 36/5/37 26/4/41 29/4/37
f 30/4/42 37/5/40 39/5/42
f 37/5/40 30/4/42 28/4/40
f 26/4/41 33/5/36 25/4/36
f 33/5/36 26/4/41 35/5/41
f 40/5/39 30/4/42 39/5/42
f 30/4/42 40/5/39 32/4/39
f 43/4/34 42/4/34 41/4/34
f 42/4/34 43/4/34 44/4/34
f 42/4/34 44/4/34 45/4/34
f 45/4/34 44/4/34 46/4/34
f 45/4/34 46/4/34 47/4/34
f 47/4/34 46/4/34 48/4/34
f 51/5/1 50/5/1 49/5/1
f 50/5/1 51/5/1 52/5/1
f 50/5/1 52/5/1 53/5/1
f 53/5/1 52/5/1 54/5/1
f 53/5/1 54/5/1 55/5/1
f 55/5/1 54/5/1 56/5/1
f 43/4/35 49/5/36 50/5/35
f 49/5/36 43/4/35 41/4/36
f 45/4/37 54/5/38 52/5/37
f 54/5/38 45/4/37 47/4/38
f 56/5/39 47/4/38 48/4/39
f 47/4/38 56/5/39 54/5/38
f 44/4/40 50/5/35 53/5/40
f 50/5/35 44/4/40 43/4/35
f 42/4/41 52/5/37 51/5/41
f 52/5/37 42/4/41 45/4/37
f 46/4/42 53/5/40 55/5/42
f 53/5/40 46/4/42 44/4/40
f 42/4/41 49/5/36 41/4/36
f 49/5/36 42/4/41 51/5/41
f 56/5/39 46/4/42 55/5/42
f 46/4/42 56/5/39 48/4/39
f 59/7/43 58/6/44 57/6/43
f 58/6/44 59/7/43 60/7/44
f 63/7/45 62/6/46 61/6/45
f 62/6/46 63/7/45 64/7/46
f 66/7/47 61/6/45 65/6/47
f 61/6/45 66/7/47 63/7/45
f 64/7/46 57/6/43 62/6/46
f 57/6/43 64/7/46 59/7/43
f 68/6/48 60/7/44 67/7/48
f 60/7/44 68/6/48 58/6/44
f 68/6/48 66/7/47 65/6/47
f 66/7/47 68/6/48 67/7/48
f 57/6/1 61/6/1 62/6/1
f 61/6/1 57/6/1 58/6/1
f 61/6/1 58/6/1 65/6/1
f 65/6/1 58/6/1 68/6/1
f 71/7/51 70/8/50 69/8/49
f 70/8/50 71/7/51 72/7/52
f 75/8/55 74/7/54 73/7/53
f 74/7/54 75/8/55 76/8/56
f 79/7/59 78/8/58 77/8/57
f 78/8/58 79/7/59 80/7/60
f 80/7/60 69/8/49 78/8/58
f 69/8/49 80/7/60 71/7/51
f 80/7/60 72/7/52 71/7/51
f 72/7/52 80/7/60 74/7/54
f 74/7/54 80/7/60 79/7/59
f 74/7/54 79/7/59 73/7/53
f 75/8/55 79/7/59 77/8/57
f 79/7/59 75/8/55 73/7/53
f 70/8/1 78/8/1 69/8/1
f 78/8/1 70/8/1 76/8/1
f 78/8/1 76/8/1 77/8/1
f 77/8/1 76/8/1 75/8/1
f 72/7/52 76/8/56 70/8/50
f 76/8/56 72/7/52 74/7/54
f 83/7/61 82/9/62 81/9/61
f 82/9/62 83/7/61 84/7/62
f 86/7/63 81/9/61 85/9/63
f 81/9/61 86/7/63 83/7/61
f 84/7/62 87/9/64 82/9/62
f 87/9/64 84/7/62 88/7/64
f 88/7/64 89/9/65 87/9/64
f 89/9/65 88/7/64 90/7/65
f 87/9/1 81/9/1 82/9/1
f 81/9/1 87/9/1 85/9/1
f 85/9/1 87/9/1 89/9/1
f 85/9/1 89/9/1 91/9/1
f 92/7/66 85/9/63 91/9/66
f 85/9/63 92/7/66 86/7/63
f 89/9/65 92/7/66 91/9/66
f 92/7/66 89/9/65 90/7/65
f 95/11/69 94/11/68 93/10/67
f 94/11/68 95/11/69 57/7/69
f 94/11/68 57/7/69 58/7/68
f 93/10/72 94/11/71 95/11/70
f 57/7/70 95/11/70 94/11/71
f 58/7/71 57/7/70 94/11/71
f 97/10/74 65/7/73 96/11/73
f 65/7/73 97/10/74 68/7/75
f 68/7/75 97/10/74 98/11/75
f 96/11/77 65/7/77 97/10/76
f 68/7/78 97/10/76 65/7/77
f 98/11/78 97/10/76 68/7/78
f 98/11/75 58/7/68 68/7/75
f 58/7/68 98/11/75 99/10/79
f 58/7/68 99/10/79 94/11/68
f 68/7/78 58/7/71 98/11/78
f 99/10/80 98/11/78 58/7/71
f 94/11/71 99/10/80 58/7/71
f 62/7/81 101/10/82 100/11/81
f 101/10/82 62/7/81 57/7/69
f 101/10/82 57/7/69 95/11/69
f 100/11/83 101/10/84 62/7/83
f 57/7/70 62/7/83 101/10/84
f 95/11/70 57/7/70 101/10/84
f 96/11/73 103/11/86 102/10/85
f 103/11/86 96/11/73 65/7/73
f 103/11/86 65/7/73 61/7/86
f 102/10/88 103/11/87 96/11/77
f 65/7/77 96/11/77 103/11/87
f 61/7/87 65/7/77 103/11/87
f 61/7/86 104/10/89 103/11/86
f 104/10/89 61/7/86 62/7/81
f 104/10/89 62/7/81 100/11/81
f 103/11/87 104/10/90 61/7/87
f 62/7/83 61/7/87 104/10/90
f 100/11/83 62/7/83 104/10/90
f 107/11/93 106/11/92 105/10/91
f 106/11/92 107/11/93 91/7/93
f 106/11/92 91/7/93 85/7/92
f 105/10/96 106/11/95 107/11/94
f 91/7/94 107/11/94 106/11/95
f 85/7/95 91/7/94 106/11/95
f 81/7/97 109/10/98 108/11/97
f 109/10/98 81/7/97 82/7/99
f 109/10/98 82/7/99 110/11/99
f 108/11/100 109/10/101 81/7/100
f 82/7/102 81/7/100 109/10/101
f 110/11/102 82/7/102 109/10/101
f 113/11/105 112/11/104 111/10/103
f 112/11/104 113/11/105 87/7/105
f 112/11/104 87/7/105 89/7/104
f 111/10/108 112/11/107 113/11/106
f 87/7/106 113/11/106 112/11/107
f 89/7/107 87/7/106 112/11/107
f 114/10/109 91/7/93 107/11/93
f 91/7/93 114/10/109 89/7/104
f 89/7/104 114/10/109 112/11/104
f 107/11/94 91/7/94 114/10/110
f 89/7/107 114/10/110 91/7/94
f 112/11/107 114/10/110 89/7/107
f 110/11/99 113/11/105 115/10/111
f 113/11/105 110/11/99 82/7/99
f 113/11/105 82/7/99 87/7/105
f 115/10/112 113/11/106 110/11/102
f 82/7/102 110/11/102 113/11/106
f 87/7/106 82/7/102 113/11/106
f 106/11/92 108/11/97 116/10/113
f 108/11/97 106/11/92 85/7/92
f 108/11/97 85/7/92 81/7/97
f 116/10/114 108/11/100 106/11/95
f 85/7/95 106/11/95 108/11/100
f 81/7/100 85/7/95 108/11/100
f 118/10/115 77/7/73 117/11/73
f 77/7/73 118/10/115 75/7/75
f 75/7/75 118/10/115 119/11/75
f 117/11/77 77/7/77 118/10/116
f 75/7/78 118/10/116 77/7/77
f 119/11/78 118/10/116 75/7/78
f 119/11/75 76/7/117 75/7/75
f 76/7/117 119/11/75 120/10/118
f 76/7/117 120/10/118 121/11/68
f 75/7/78 76/7/119 119/11/78
f 120/10/120 119/11/78 76/7/119
f 121/11/71 120/10/120 76/7/119
f 78/7/86 123/10/121 122/11/86
f 123/10/121 78/7/86 69/7/122
f 123/10/121 69/7/122 124/11/122
f 122/11/87 123/10/123 78/7/87
f 69/7/124 78/7/87 123/10/123
f 124/11/124 69/7/124 123/10/123
f 126/11/69 121/11/68 125/10/67
f 121/11/68 126/11/69 70/7/69
f 121/11/68 70/7/69 76/7/117
f 125/10/72 121/11/71 126/11/70
f 70/7/70 126/11/70 121/11/71
f 76/7/119 70/7/70 121/11/71
f 117/11/73 122/11/86 127/10/125
f 122/11/86 117/11/73 77/7/73
f 122/11/86 77/7/73 78/7/86
f 127/10/126 122/11/87 117/11/77
f 77/7/77 117/11/77 122/11/87
f 78/7/87 77/7/77 122/11/87
f 69/7/122 128/10/82 124/11/122
f 128/10/82 69/7/122 70/7/69
f 128/10/82 70/7/69 126/11/69
f 124/11/124 128/10/84 69/7/124
f 70/7/70 69/7/124 128/10/84
f 126/11/70 70/7/70 128/10/84

g tree-tall




usemtl colormap

f 3/1/1 2/1/1 1/1/1
f 2/1/1 3/1/1 4/1/1
f 4/1/1 3/1/1 5/1/1
f 4/1/1 5/1/1 6/1/1
f 6/1/1 5/1/1 7/1/1
f 6/1/1 7/1/1 8/1/1
f 9/2/4 1/1/3 2/1/2
f 1/1/3 9/2/4 10/2/5
f 11/2/6 1/1/3 10/2/5
f 1/1/3 11/2/6 3/1/7
f 12/2/9 2/1/2 4/1/8
f 2/1/2 12/2/9 9/2/4
f 13/2/11 4/1/8 6/1/10
f 4/1/8 13/2/11 12/2/9
f 7/1/14 14/2/13 8/1/12
f 14/2/13 7/1/14 15/2/15
f 11/2/6 5/1/16 3/1/7
f 5/1/16 11/2/6 16/2/17
f 8/1/12 13/2/11 6/1/10
f 13/2/11 8/1/12 14/2/13
f 7/1/14 16/2/17 15/2/15
f 16/2/17 7/1/14 5/1/16
f 14/2/20 18/3/19 17/3/18
f 18/3/19 14/2/20 15/2/21
f 19/3/24 16/2/23 11/2/22
f 16/2/23 19/3/24 20/3/25
f 21/3/28 12/2/27 13/2/26
f 12/2/27 21/3/28 22/3/29
f 22/3/29 9/2/30 12/2/27
f 9/2/30 22/3/29 23/3/31
f 16/2/23 18/3/19 15/2/21
f 18/3/19 16/2/23 20/3/25
f 24/3/33 11/2/22 10/2/32
f 11/2/22 24/3/33 19/3/24
f 13/2/26 17/3/18 21/3/28
f 17/3/18 13/2/26 14/2/20
f 24/3/33 9/2/30 23/3/31
f 9/2/30 24/3/33 10/2/32
f 27/4/34 26/4/34 25/4/34
f 26/4/34 27/4/34 28/4/34
f 26/4/34 28/4/34 29/4/34
f 29/4/34 28/4/34 30/4/34
f 29/4/34 30/4/34 31/4/34
f 31/4/34 30/4/34 32/4/34
f 35/5/1 34/5/1 33/5/1
f 34/5/1 35/5/1 36/5/1
f 34/5/1 36/5/1 37/5/1
f 37/5/1 36/5/1 38/5/1
f 37/5/1 38/5/1 39/5/1
f 39/5/1 38/5/1 40/5/1
f 27/4/35 33/5/36 34/5/35
f 33/5/36 27/4/35 25/4/36
f 29/4/37 38/5/38 36/5/37
f 38/5/38 29/4/37 31/4/38
f 40/5/39 31/4/38 32/4/39
f 31/4/38 40/5/39 38/5/38
f 28/4/40 34/5/35 37/5/40
f 34/5/35 28/4/40 27/4/35
f 26/4/41 36/5/37 35/5/41
f 36/5/37 26/4/41 29/4/37
f 30/4/42 37/5/40 39/5/42
f 37/5/40 30/4/42 28/4/40
f 26/4/41 33/5/36 25/4/36
f 33/5/36 26/4/41 35/5/41
f 40/5/39 30/4/42 39/5/42
f 30/4/42 40/5/39 32/4/39
f 43/4/34 42/4/34 41/4/34
f 42/4/34 43/4/34 44/4/34
f 42/4/34 44/4/34 45/4/34
f 45/4/34 44/4/34 46/4/34
f 45/4/34 46/4/34 47/4/34
f 47/4/34 46/4/34 48/4/34
f 51/5/1 50/5/1 49/5/1
f 50/5/1 51/5/1 52/5/1
f 50/5/1 52/5/1 53/5/1
f 53/5/1 52/5/1 54/5/1
f 53/5/1 54/5/1 55/5/1
f 55/5/1 54/5/1 56/5/1
f 43/4/35 49/5/36 50/5/35
f 49/5/36 43/4/35 41/4/36
f 45/4/37 54/5/38 52/5/37
f 54/5/38 45/4/37 47/4/38
f 56/5/39 47/4/38 48/4/39
f 47/4/38 56/5/39 54/5/38
f 44/4/40 50/5/35 53/5/40
f 50/5/35 44/4/40 43/4/35
f 42/4/41 52/5/37 51/5/41
f 52/5/37 42/4/41 45/4/37
f 46/4/42 53/5/40 55/5/42
f 53/5/40 46/4/42 44/4/40
f 42/4/41 49/5/36 41/4/36
f 49/5/36 42/4/41 51/5/41
f 56/5/39 46/4/42 55/5/42
f 46/4/42 56/5/39 48/4/39
f 59/7/43 58/6/44 57/6/43
f 58/6/44 59/7/43 60/7/44
f 63/7/45 62/6/46 61/6/45
f 62/6/46 63/7/45 64/7/46
f 66/7/47 61/6/45 65/6/47
f 61/6/45 66/7/47 63/7/45
f 64/7/46 57/6/43 62/6/46
f 57/6/43 64/7/46 59/7/43
f 68/6/48 60/7/44 67/7/48
f 60/7/44 68/6/48 58/6/44
f 68/6/48 66/7/47 65/6/47
f 66/7/47 68/6/48 67/7/48
f 57/6/1 61/6/1 62/6/1
f 61/6/1 57/6/1 58/6/1
f 61/6/1 58/6/1 65/6/1
f 65/6/1 58/6/1 68/6/1
f 71/7/51 70/8/50 69/8/49
f 70/8/50 71/7/51 72/7/52
f 75/8/55 74/7/54 73/7/53
f 74/7/54 75/8/55 76/8/56
f 79/7/59 78/8/58 77/8/57
f 78/8/58 79/7/59 80/7/60
f 80/7/60 69/8/49 78/8/58
f 69/8/49 80/7/60 71/7/51
f 80/7/60 72/7/52 71/7/51
f 72/7/52 80/7/60 74/7/54
f 74/7/54 80/7/60 79/7/59
f 74/7/54 79/7/59 73/7/53
f 75/8/55 79/7/59 77/8/57
f 79/7/59 75/8/55 73/7/53
f 70/8/1 78/8/1 69/8/1
f 78/8/1 70/8/1 76/8/1
f 78/8/1 76/8/1 77/8/1
f 77/8/1 76/8/1 75/8/1
f 72/7/52 76/8/56 70/8/50
f 76/8/56 72/7/52 74/7/54
f 83/7/61 82/9/62 81/9/61
f 82/9/62 83/7/61 84/7/62
f 86/7/63 81/9/61 85/9/63
f 81/9/61 86/7/63 83/7/61
f 84/7/62 87/9/64 82/9/62
f 87/9/64 84/7/62 88/7/64
f 88/7/64 89/9/65 87/9/64
f 89/9/65 88/7/64 90/7/65
f 87/9/1 81/9/1 82/9/1
f 81/9/1 87/9/1 85/9/1
f 85/9/1 87/9/1 89/9/1
f 85/9/1 89/9/1 91/9/1
f 92/7/66 85/9/63 91/9/66
f 85/9/63 92/7/66 86/7/63
f 89/9/65 92/7/66 91/9/66
f 92/7/66 89/9/65 90/7/65
f 95/11/69 94/11/68 93/10/67
f 94/11/68 95/11/69 57/7/69
f 94/11/68 57/7/69 58/7/68
f 93/10/72 94/11/71 95/11/70
f 57/7/70 95/11/70 94/11/71
f 58/7/71 57/7/70 94/11/71
f 97/10/74 65/7/73 96/11/73
f 65/7/73 97/10/74 68/7/75
f 68/7/75 97/10/74 98/11/75
f 96/11/77 65/7/77 97/10/76
f 68/7/78 97/10/76 65/7/77
f 98/11/78 97/10/76 68/7/78
f 98/11/75 58/7/68 68/7/75
f 58/7/68 98/11/75 99/10/79
f 58/7/68 99/10/79 94/11/68
f 68/7/78 58/7/71 98/11/78
f 99/10/80 98/11/78 58/7/71
f 94/11/71 99/10/80 58/7/71
f 62/7/81 101/10/82 100/11/81
f 101/10/82 62/7/81 57/7/69
f 101/10/82 57/7/69 95/11/69
f 100/11/83 101/10/84 62/7/83
f 57/7/70 62/7/83 101/10/84
f 95/11/70 57/7/70 101/10/84
f 96/11/73 103/11/86 102/10/85
f 103/11/86 96/11/73 65/7/73
f 103/11/86 65/7/73 61/7/86
f 102/10/88 103/11/87 96/11/77
f 65/7/77 96/11/77 103/11/87
f 61/7/87 65/7/77 103/11/87
f 61/7/86 104/10/89 103/11/86
f 104/10/89 61/7/86 62/7/81
f 104/10/89 62/7/81 100/11/81
f 103/11/87 104/10/90 61/7/87
f 62/7/83 61/7/87 104/10/90
f 100/11/83 62/7/83 104/10/90
f 107/11/93 106/11/92 105/10/91
f 106/11/92 107/11/93 91/7/93
f 106/11/92 91/7/93 85/7/92
f 105/10/96 106/11/95 107/11/94
f 91/7/94 107/11/94 106/11/95
f 85/7/95 91/7/94 106/11/95
f 81/7/97 109/10/98 108/11/97
f 109/10/98 81/7/97 82/7/99
f 109/10/98 82/7/99 110/11/99
f 108/11/100 109/10/101 81/7/100
f 82/7/102 81/7/100 109/10/101
f 110/11/102 82/7/102 109/10/101
f 113/11/105 112/11/104 111/10/103
f 112/11/104 113/11/105 87/7/105
f 112/11/104 87/7/105 89/7/104
f 111/10/108 112/11/107 113/11/106
f 87/7/106 113/11/106 112/11/107
f 89/7/107 87/7/106 112/11/107
f 114/10/109 91/7/93 107/11/93
f 91/7/93 114/10/109 89/7/104
f 89/7/104 114/10/109 112/11/104
f 107/11/94 91/7/94 114/10/110
f 89/7/107 114/10/110 91/7/94
f 112/11/107 114/10/110 89/7/107
f 110/11/99 113/11/105 115/10/111
f 113/11/105 110/11/99 82/7/99
f 113/11/105 82/7/99 87/7/105
f 115/10/112 113/11/106 110/11/102
f 82/7/102 110/11/102 113/11/106
f 87/7/106 82/7/102 113/11/106
f 106/11/92 108/11/97 116/10/113
f 108/11/97 106/11/92 85/7/92
f 108/11/97 85/7/92 81/7/97
f 116/10/114 108/11/100 106/11/95
f 85/7/95 106/11/95 108/11/100
f 81/7/100 85/7/95 108/11/100
f 118/10/115 77/7/73 117/11/73
f 77/7/73 118/10/115 75/7/75
f 75/7/75 118/10/115 119/11/75
f 117/11/77 77/7/77 118/10/116
f 75/7/78 118/10/116 77/7/77
f 119/11/78 118/10/116 75/7/78
f 119/11/75 76/7/117 75/7/75
f 76/7/117 119/11/75 120/10/118
f 76/7/117 120/10/118 121/11/68
f 75/7/78 76/7/119 119/11/78
f 120/10/120 119/11/78 76/7/119
f 121/11/71 120/10/120 76/7/119
f 78/7/86 123/10/121 122/11/86
f 123/10/121 78/7/86 69/7/122
f 123/10/121 69/7/122 124/11/122
f 122/11/87 123/10/123 78/7/87
f 69/7/124 78/7/87 123/10/123
f 124/11/124 69/7/124 123/10/123
f 126/11/69 121/11/68 125/10/67
f 121/11/68 126/11/69 70/7/69
f 121/11/68 70/7/69 76/7/117
f 125/10/72 121/11/71 126/11/70
f 70/7/70 126/11/70 121/11/71
f 76/7/119 70/7/70 121/11/71
f 117/11/73 122/11/86 127/10/125
f 122/11/86 117/11/73 77/7/73
f 122/11/86 77/7/73 78/7/86
f 127/10/126 122/11/87 117/11/77
f 77/7/77 117/11/77 122/11/87
f 78/7/87 77/7/77 122/11/87
f 69/7/122 128/10/82 124/11/122
f 128/10/82 69/7/122 70/7/69
f 128/10/82 70/7/69 126/11/69
f 124/11/124 128/10/84 69/7/124
f 70/7/70 69/7/124 128/10/84
f 126/11/70 70/7/70 128/10/84

