# Created by Kenney (www.kenney.nl)

mtllib tree-autumn-trunk.mtl

g tree-autumn-trunk

v -0.0625 0.2100291 -0.03125 1 1 1
v -0.0625 0.2300291 -1.443823E-15 1 1 1
v -0.0625 0.2100291 0.03125 1 1 1
v -0.03125 0.2100291 -0.0625 1 1 1
v 0.03125 0.2100291 -0.0625 1 1 1
v 1.082867E-15 0.2608291 -0.0625 1 1 1
v 0.03125 0.2100291 0.0625 1 1 1
v -0.03125 0.2100291 0.0625 1 1 1
v 3.609557E-16 0.2500291 0.0625 1 1 1
v 0.0625 0.2564291 -7.219114E-16 1 1 1
v 0.0625 0.2100291 -0.03125 1 1 1
v 0.0625 0.2100291 0.03125 1 1 1
v 0.0675 0.1173978 -0.03375 1 1 1
v 0.0675 0.1173978 0.03375 1 1 1
v 0.03375 0.1173978 0.0675 1 1 1
v -0.0675 0.1173978 -0.03375 1 1 1
v -0.03375 0.1173978 -0.0675 1 1 1
v -0.03375 0.1173978 0.0675 1 1 1
v 0.03375 0.1173978 -0.0675 1 1 1
v -0.0675 0.1173978 0.03375 1 1 1
v 0.1 0 0.05 1 1 1
v 0.1 0 -0.05 1 1 1
v 0.05 0 0.1 1 1 1
v 0.05 0 -0.1 1 1 1
v -0.05 0 0.1 1 1 1
v -0.05 0 -0.1 1 1 1
v -0.1 0 0.05 1 1 1
v -0.1 0 -0.05 1 1 1

vn -1 0 0
vn 1 0 0
vn 0 0 -1
vn 0 0 1
vn 0.9218204 0.06009232 -0.3829309
vn 0.9218204 0.06009232 0.3829309
vn 0.9226161 0.06008346 -0.3810114
vn 0.9226161 0.06008346 0.3810114
vn 0.3829309 0.06009232 0.9218204
vn 0.3810114 0.06008346 0.9226161
vn -0.9218204 0.06009232 -0.3829309
vn -0.3829309 0.06009232 -0.9218204
vn -0.9226161 0.06008346 -0.3810114
vn -0.3810114 0.06008346 -0.9226161
vn -0.3829309 0.06009232 0.9218204
vn -0.3810114 0.06008346 0.9226161
vn 0.3829309 0.06009232 -0.9218204
vn 0.3810114 0.06008346 -0.9226161
vn -0.9218204 0.06009232 0.3829309
vn -0.9226161 0.06008346 0.3810114
vn 0 -1 0
vn -0.8848723 0.2948813 0.3606191
vn -0.3606191 0.2948813 0.8848723
vn -0.8810423 0.2950805 0.3697189
vn -0.3697189 0.2950805 0.8810423
vn 0.3697189 0.2950805 -0.8810423
vn 0.8810423 0.2950805 -0.3697189
vn 0.3606191 0.2948813 -0.8848723
vn 0.8848723 0.2948813 -0.3606191
vn -0.8810423 0.2950805 -0.3697189
vn -0.8848723 0.2948813 -0.3606191
vn 0.8848723 0.2948813 0.3606191
vn 0.8810423 0.2950805 0.3697189
vn 0.3606191 0.2948813 0.8848723
vn 0.3697189 0.2950805 0.8810423
vn -0.3697189 0.2950805 -0.8810423
vn -0.3606191 0.2948813 -0.8848723
vn 0 1 0

vt 0.84375 0.2055236
vt 0.84375 0.2131915
vt 0.84375 0.225
vt 0.84375 0.2208593
vt 0.84375 0.2233131
vt 0.84375 0.1700095
vt 0.84375 0.125
vt 0.46875 0.2055236

usemtl colormap

f 3/1/1 2/2/1 1/1/1
f 1/1/2 2/2/2 3/1/2
f 6/3/3 5/1/3 4/1/3
f 4/1/4 5/1/4 6/3/4
f 9/4/4 8/1/4 7/1/4
f 7/1/3 8/1/3 9/4/3
f 12/1/2 11/1/2 10/5/2
f 10/5/1 11/1/1 12/1/1
f 11/1/7 14/6/6 13/6/5
f 14/6/6 11/1/7 12/1/8
f 12/1/8 15/6/9 14/6/6
f 15/6/9 12/1/8 7/1/10
f 1/1/13 17/6/12 16/6/11
f 17/6/12 1/1/13 4/1/14
f 7/1/10 18/6/15 15/6/9
f 18/6/15 7/1/10 8/1/16
f 5/1/18 13/6/5 19/6/17
f 13/6/5 5/1/18 11/1/7
f 8/1/16 20/6/19 18/6/15
f 20/6/19 8/1/16 3/1/20
f 20/6/19 1/1/13 16/6/11
f 1/1/13 20/6/19 3/1/20
f 4/1/14 19/6/17 17/6/12
f 19/6/17 4/1/14 5/1/18
f 23/7/21 22/7/21 21/7/21
f 22/7/21 23/7/21 24/7/21
f 24/7/21 23/7/21 25/7/21
f 24/7/21 25/7/21 26/7/21
f 26/7/21 25/7/21 27/7/21
f 26/7/21 27/7/21 28/7/21
f 27/7/24 18/6/23 20/6/22
f 18/6/23 27/7/24 25/7/25
f 19/6/28 22/7/27 24/7/26
f 22/7/27 19/6/28 13/6/29
f 27/7/24 16/6/31 28/7/30
f 16/6/31 27/7/24 20/6/22
f 15/6/34 21/7/33 14/6/32
f 21/7/33 15/6/34 23/7/35
f 15/6/34 25/7/25 23/7/35
f 25/7/25 15/6/34 18/6/23
f 28/7/30 17/6/37 26/7/36
f 17/6/37 28/7/30 16/6/31
f 13/6/29 21/7/33 22/7/27
f 21/7/33 13/6/29 14/6/32
f 17/6/37 24/7/26 26/7/36
f 24/7/26 17/6/37 19/6/28
f 5/8/38 12/8/38 11/8/38
f 12/8/38 5/8/38 7/8/38
f 7/8/38 5/8/38 4/8/38
f 7/8/38 4/8/38 8/8/38
f 8/8/38 4/8/38 1/8/38
f 8/8/38 1/8/38 3/8/38

g tree-autumn-trunk




usemtl colormap

f 3/1/1 2/2/1 1/1/1
f 1/1/2 2/2/2 3/1/2
f 6/3/3 5/1/3 4/1/3
f 4/1/4 5/1/4 6/3/4
f 9/4/4 8/1/4 7/1/4
f 7/1/3 8/1/3 9/4/3
f 12/1/2 11/1/2 10/5/2
f 10/5/1 11/1/1 12/1/1
f 11/1/7 14/6/6 13/6/5
f 14/6/6 11/1/7 12/1/8
f 12/1/8 15/6/9 14/6/6
f 15/6/9 12/1/8 7/1/10
f 1/1/13 17/6/12 16/6/11
f 17/6/12 1/1/13 4/1/14
f 7/1/10 18/6/15 15/6/9
f 18/6/15 7/1/10 8/1/16
f 5/1/18 13/6/5 19/6/17
f 13/6/5 5/1/18 11/1/7
f 8/1/16 20/6/19 18/6/15
f 20/6/19 8/1/16 3/1/20
f 20/6/19 1/1/13 16/6/11
f 1/1/13 20/6/19 3/1/20
f 4/1/14 19/6/17 17/6/12
f 19/6/17 4/1/14 5/1/18
f 23/7/21 22/7/21 21/7/21
f 22/7/21 23/7/21 24/7/21
f 24/7/21 23/7/21 25/7/21
f 24/7/21 25/7/21 26/7/21
f 26/7/21 25/7/21 27/7/21
f 26/7/21 27/7/21 28/7/21
f 27/7/24 18/6/23 20/6/22
f 18/6/23 27/7/24 25/7/25
f 19/6/28 22/7/27 24/7/26
f 22/7/27 19/6/28 13/6/29
f 27/7/24 16/6/31 28/7/30
f 16/6/31 27/7/24 20/6/22
f 15/6/34 21/7/33 14/6/32
f 21/7/33 15/6/34 23/7/35
f 15/6/34 25/7/25 23/7/35
f 25/7/25 15/6/34 18/6/23
f 28/7/30 17/6/37 26/7/36
f 17/6/37 28/7/30 16/6/31
f 13/6/29 21/7/33 22/7/27
f 21/7/33 13/6/29 14/6/32
f 17/6/37 24/7/26 26/7/36
f 24/7/26 17/6/37 19/6/28
f 5/8/38 12/8/38 11/8/38
f 12/8/38 5/8/38 7/8/38
f 7/8/38 5/8/38 4/8/38
f 7/8/38 4/8/38 8/8/38
f 8/8/38 4/8/38 1/8/38
f 8/8/38 1/8/38 3/8/38

