# Created by Kenney (www.kenney.nl)

mtllib workbench.mtl

g workbench

v 0.05863946 0.1953 0.1283749 1 1 1
v 0.05863946 0.23655 0.1283749 1 1 1
v 0.07189408 0.1953 0.1478262 1 1 1
v 0.07189408 0.23655 0.1478262 1 1 1
v 0.04538485 0.23655 0.1478262 1 1 1
v 0.04538485 0.1953 0.1478262 1 1 1
v -0.1203262 0.1953 0.1478262 1 1 1
v -0.1203262 0.23655 0.1478262 1 1 1
v -0.1478262 0.1953 -0.04601388 1 1 1
v -0.1283749 0.1953 -0.0592685 1 1 1
v -0.1478262 0.23655 -0.04601388 1 1 1
v -0.1283749 0.23655 -0.0592685 1 1 1
v -0.1478262 0.1953 -0.07252311 1 1 1
v -0.1478262 0.23655 -0.07252311 1 1 1
v -0.1478262 0.1953 -0.1203262 1 1 1
v -0.1478262 0.23655 -0.1203262 1 1 1
v 0.04214824 0.23655 -0.1478262 1 1 1
v 0.04214824 0.1953 -0.1478262 1 1 1
v 0.05540286 0.23655 -0.1283749 1 1 1
v 0.05540286 0.1953 -0.1283749 1 1 1
v 0.06865747 0.1953 -0.1478262 1 1 1
v 0.06865747 0.23655 -0.1478262 1 1 1
v 0.1203262 0.1953 -0.1478262 1 1 1
v 0.1203262 0.23655 -0.1478262 1 1 1
v -0.1478262 0.1953 0.1203262 1 1 1
v -0.1478262 0.23655 0.1203262 1 1 1
v 0.1203262 0.1953 0.1478262 1 1 1
v 0.1203262 0.23655 0.1478262 1 1 1
v -0.1340763 0.23655 0.1340763 1 1 1
v 0.1478262 0.23655 0.1203262 1 1 1
v 0.1478262 0.1953 0.1203262 1 1 1
v 0.1340763 0.23655 0.1340763 1 1 1
v 0.1478262 0.1953 -0.1203262 1 1 1
v -0.1203262 0.1953 -0.1478262 1 1 1
v 0.1478262 0.23655 -0.1203262 1 1 1
v 0.1340763 0.23655 -0.1340763 1 1 1
v -0.1203262 0.23655 -0.1478262 1 1 1
v -0.1340763 0.23655 -0.1340763 1 1 1
v -3.113243E-16 0.23655 -3.496758E-16 1 1 1
v 0.10695 0 0.10695 1 1 1
v 0.10695 0 -0.10695 1 1 1
v -0.10695 0 0.10695 1 1 1
v -0.10695 0 -0.10695 1 1 1
v -0.10695 0.1953 -0.10695 1 1 1
v 0.10695 0.1953 -0.10695 1 1 1
v 0.10695 0.1953 0.10695 1 1 1
v -0.10695 0.1953 0.10695 1 1 1
v 0.1243875 0.1953 0.0895125 1 1 1
v 0.1243875 0.1953 0.1243875 1 1 1
v 0.0895125 0.1953 0.0895125 1 1 1
v 0.0895125 0.1953 0.1243875 1 1 1
v 0.1302 0 0.1302 1 1 1
v 0.1302 0 0.0837 1 1 1
v 0.0837 0 0.1302 1 1 1
v 0.0837 0 0.0837 1 1 1
v 0.1302 0.05 0.0837 1 1 1
v 0.1302 0.05 0.1302 1 1 1
v 0.0837 0.05 0.1302 1 1 1
v 0.0837 0.05 0.0837 1 1 1
v -0.0895125 0.1953 -0.1243875 1 1 1
v -0.0895125 0.1953 -0.0895125 1 1 1
v -0.1243875 0.1953 -0.1243875 1 1 1
v -0.1243875 0.1953 -0.0895125 1 1 1
v -0.0837 0 -0.0837 1 1 1
v -0.0837 0 -0.1302 1 1 1
v -0.1302 0 -0.0837 1 1 1
v -0.1302 0 -0.1302 1 1 1
v -0.0837 0.05 -0.1302 1 1 1
v -0.0837 0.05 -0.0837 1 1 1
v -0.1302 0.05 -0.0837 1 1 1
v -0.1302 0.05 -0.1302 1 1 1
v 0.1243875 0.1953 -0.1243875 1 1 1
v 0.1243875 0.1953 -0.0895125 1 1 1
v 0.0895125 0.1953 -0.1243875 1 1 1
v 0.0895125 0.1953 -0.0895125 1 1 1
v 0.1302 0 -0.0837 1 1 1
v 0.1302 0 -0.1302 1 1 1
v 0.0837 0 -0.0837 1 1 1
v 0.0837 0 -0.1302 1 1 1
v 0.1302 0.05 -0.1302 1 1 1
v 0.1302 0.05 -0.0837 1 1 1
v 0.0837 0.05 -0.0837 1 1 1
v 0.0837 0.05 -0.1302 1 1 1
v -0.0895125 0.1953 0.0895125 1 1 1
v -0.0895125 0.1953 0.1243875 1 1 1
v -0.1243875 0.1953 0.0895125 1 1 1
v -0.1243875 0.1953 0.1243875 1 1 1
v -0.0837 0 0.1302 1 1 1
v -0.0837 0 0.0837 1 1 1
v -0.1302 0 0.1302 1 1 1
v -0.1302 0 0.0837 1 1 1
v -0.0837 0.05 0.0837 1 1 1
v -0.0837 0.05 0.1302 1 1 1
v -0.1302 0.05 0.1302 1 1 1
v -0.1302 0.05 0.0837 1 1 1

vn 0 0 1
vn -0.8263791 0 0.563114
vn 0.8263791 0 0.563114
vn -0.3826834 0 0.9238795
vn -0.563114 0 -0.8263791
vn -1 0 0
vn -0.563114 0 0.8263791
vn -0.9238795 0 -0.3826834
vn 0.8263791 0 -0.563114
vn 0 0 -1
vn -0.8263791 0 -0.563114
vn 0.3826834 0 -0.9238795
vn -0.9238795 0 0.3826834
vn 0.3826834 0 0.9238795
vn -0.7071068 0 0.7071068
vn 0.9238795 0 0.3826834
vn 0.7071068 0 0.7071068
vn 0 -1 0
vn 0.9238795 0 -0.3826834
vn 0.7071068 0 -0.7071068
vn -0.3826834 0 -0.9238795
vn -0.7071068 0 -0.7071068
vn 0 1 0
vn 1 0 0
vn 0.9998054 0.01973226 0
vn 0 0.01973226 0.9998054
vn -0.9998054 0.01973226 0
vn 0 0.01973226 -0.9998054
vn 0 0.03997147 -0.9992009
vn 0 0.03997147 0.9992009
vn 0.9992009 0.03997147 0
vn -0.9992009 0.03997147 0

vt 0.59375 0.025
vt 0.59375 0.225
vt 0.59375 0.125
vt 0.59375 0.09939836

usemtl colormap

f 3/1/2 2/2/1 1/1/1
f 2/2/1 3/1/2 4/2/2
f 5/2/3 1/1/1 2/2/1
f 1/1/1 5/2/3 6/1/3
f 5/2/1 7/1/4 6/1/1
f 7/1/4 5/2/1 8/2/4
f 11/2/5 10/1/6 9/1/5
f 10/1/6 11/2/5 12/2/6
f 12/2/6 13/1/7 10/1/6
f 13/1/7 12/2/6 14/2/7
f 13/1/6 16/2/8 15/1/8
f 16/2/8 13/1/6 14/2/6
f 19/2/10 18/1/9 17/2/9
f 18/1/9 19/2/10 20/1/10
f 20/1/10 22/2/11 21/1/11
f 22/2/11 20/1/10 19/2/10
f 22/2/10 23/1/12 21/1/10
f 23/1/12 22/2/10 24/2/12
f 25/1/13 11/2/6 9/1/6
f 11/2/6 25/1/13 26/2/13
f 28/2/14 3/1/1 27/1/14
f 3/1/1 28/2/14 4/2/1
f 8/2/4 25/1/13 7/1/4
f 25/1/13 8/2/4 26/2/13
f 26/2/13 8/2/4 29/2/15
f 32/2/17 31/1/16 30/2/16
f 31/1/16 32/2/17 27/1/14
f 27/1/14 32/2/17 28/2/14
f 27/1/18 33/1/18 31/1/18
f 33/1/18 27/1/18 23/1/18
f 23/1/18 27/1/18 3/1/18
f 23/1/18 3/1/18 21/1/18
f 21/1/18 3/1/18 1/1/18
f 21/1/18 1/1/18 20/1/18
f 20/1/18 1/1/18 6/1/18
f 20/1/18 6/1/18 18/1/18
f 18/1/18 6/1/18 7/1/18
f 18/1/18 7/1/18 34/1/18
f 34/1/18 7/1/18 10/1/18
f 10/1/18 7/1/18 25/1/18
f 10/1/18 25/1/18 9/1/18
f 10/1/18 15/1/18 34/1/18
f 15/1/18 10/1/18 13/1/18
f 30/2/16 33/1/19 35/2/19
f 33/1/19 30/2/16 31/1/16
f 36/2/20 23/1/12 24/2/12
f 23/1/12 36/2/20 33/1/19
f 33/1/19 36/2/20 35/2/19
f 37/2/21 18/1/10 34/1/21
f 18/1/10 37/2/21 17/2/10
f 15/1/8 37/2/21 34/1/21
f 37/2/21 15/1/8 38/2/22
f 38/2/22 15/1/8 16/2/8
f 36/2/23 30/2/23 35/2/23
f 30/2/23 36/2/23 32/2/23
f 32/2/23 36/2/23 39/2/23
f 39/2/23 28/2/23 32/2/23
f 24/2/23 39/2/23 36/2/23
f 28/2/23 39/2/23 4/2/23
f 39/2/23 24/2/23 22/2/23
f 4/2/23 39/2/23 2/2/23
f 39/2/23 22/2/23 19/2/23
f 2/2/23 39/2/23 5/2/23
f 39/2/23 19/2/23 17/2/23
f 5/2/23 39/2/23 8/2/23
f 39/2/23 17/2/23 37/2/23
f 8/2/23 39/2/23 29/2/23
f 39/2/23 37/2/23 38/2/23
f 12/2/23 29/2/23 39/2/23
f 38/2/23 12/2/23 39/2/23
f 29/2/23 12/2/23 11/2/23
f 29/2/23 11/2/23 26/2/23
f 12/2/23 38/2/23 14/2/23
f 14/2/23 38/2/23 16/2/23
f 42/2/18 41/2/18 40/2/18
f 41/2/18 42/2/18 43/2/18
f 44/1/10 41/2/10 43/2/10
f 41/2/10 44/1/10 45/1/10
f 46/1/24 41/2/24 45/1/24
f 41/2/24 46/1/24 40/2/24
f 46/1/1 42/2/1 40/2/1
f 42/2/1 46/1/1 47/1/1
f 42/2/6 44/1/6 43/2/6
f 44/1/6 42/2/6 47/1/6
f 50/1/23 49/1/23 48/1/23
f 49/1/23 50/1/23 51/1/23
f 54/3/18 53/3/18 52/3/18
f 53/3/18 54/3/18 55/3/18
f 57/4/25 53/3/24 56/4/25
f 53/3/24 57/4/25 52/3/24
f 57/4/26 54/3/1 52/3/1
f 54/3/1 57/4/26 58/4/26
f 54/3/6 59/4/27 55/3/6
f 59/4/27 54/3/6 58/4/27
f 59/4/28 53/3/10 55/3/10
f 53/3/10 59/4/28 56/4/28
f 50/1/29 56/4/28 59/4/28
f 56/4/28 50/1/29 48/1/29
f 49/1/30 58/4/26 57/4/26
f 58/4/26 49/1/30 51/1/30
f 48/1/31 57/4/25 56/4/25
f 57/4/25 48/1/31 49/1/31
f 58/4/27 50/1/32 59/4/27
f 50/1/32 58/4/27 51/1/32
f 62/1/23 61/1/23 60/1/23
f 61/1/23 62/1/23 63/1/23
f 66/3/18 65/3/18 64/3/18
f 65/3/18 66/3/18 67/3/18
f 69/4/25 65/3/24 68/4/25
f 65/3/24 69/4/25 64/3/24
f 69/4/26 66/3/1 64/3/1
f 66/3/1 69/4/26 70/4/26
f 66/3/6 71/4/27 67/3/6
f 71/4/27 66/3/6 70/4/27
f 71/4/28 65/3/10 67/3/10
f 65/3/10 71/4/28 68/4/28
f 62/1/29 68/4/28 71/4/28
f 68/4/28 62/1/29 60/1/29
f 61/1/30 70/4/26 69/4/26
f 70/4/26 61/1/30 63/1/30
f 60/1/31 69/4/25 68/4/25
f 69/4/25 60/1/31 61/1/31
f 70/4/27 62/1/32 71/4/27
f 62/1/32 70/4/27 63/1/32
f 74/1/23 73/1/23 72/1/23
f 73/1/23 74/1/23 75/1/23
f 78/3/18 77/3/18 76/3/18
f 77/3/18 78/3/18 79/3/18
f 81/4/25 77/3/24 80/4/25
f 77/3/24 81/4/25 76/3/24
f 81/4/26 78/3/1 76/3/1
f 78/3/1 81/4/26 82/4/26
f 78/3/6 83/4/27 79/3/6
f 83/4/27 78/3/6 82/4/27
f 83/4/28 77/3/10 79/3/10
f 77/3/10 83/4/28 80/4/28
f 74/1/29 80/4/28 83/4/28
f 80/4/28 74/1/29 72/1/29
f 73/1/30 82/4/26 81/4/26
f 82/4/26 73/1/30 75/1/30
f 72/1/31 81/4/25 80/4/25
f 81/4/25 72/1/31 73/1/31
f 82/4/27 74/1/32 83/4/27
f 74/1/32 82/4/27 75/1/32
f 86/1/23 85/1/23 84/1/23
f 85/1/23 86/1/23 87/1/23
f 90/3/18 89/3/18 88/3/18
f 89/3/18 90/3/18 91/3/18
f 93/4/25 89/3/24 92/4/25
f 89/3/24 93/4/25 88/3/24
f 93/4/26 90/3/1 88/3/1
f 90/3/1 93/4/26 94/4/26
f 90/3/6 95/4/27 91/3/6
f 95/4/27 90/3/6 94/4/27
f 95/4/28 89/3/10 91/3/10
f 89/3/10 95/4/28 92/4/28
f 86/1/29 92/4/28 95/4/28
f 92/4/28 86/1/29 84/1/29
f 85/1/30 94/4/26 93/4/26
f 94/4/26 85/1/30 87/1/30
f 84/1/31 93/4/25 92/4/25
f 93/4/25 84/1/31 85/1/31
f 94/4/27 86/1/32 95/4/27
f 86/1/32 94/4/27 87/1/32

g workbench




usemtl colormap

f 3/1/2 2/2/1 1/1/1
f 2/2/1 3/1/2 4/2/2
f 5/2/3 1/1/1 2/2/1
f 1/1/1 5/2/3 6/1/3
f 5/2/1 7/1/4 6/1/1
f 7/1/4 5/2/1 8/2/4
f 11/2/5 10/1/6 9/1/5
f 10/1/6 11/2/5 12/2/6
f 12/2/6 13/1/7 10/1/6
f 13/1/7 12/2/6 14/2/7
f 13/1/6 16/2/8 15/1/8
f 16/2/8 13/1/6 14/2/6
f 19/2/10 18/1/9 17/2/9
f 18/1/9 19/2/10 20/1/10
f 20/1/10 22/2/11 21/1/11
f 22/2/11 20/1/10 19/2/10
f 22/2/10 23/1/12 21/1/10
f 23/1/12 22/2/10 24/2/12
f 25/1/13 11/2/6 9/1/6
f 11/2/6 25/1/13 26/2/13
f 28/2/14 3/1/1 27/1/14
f 3/1/1 28/2/14 4/2/1
f 8/2/4 25/1/13 7/1/4
f 25/1/13 8/2/4 26/2/13
f 26/2/13 8/2/4 29/2/15
f 32/2/17 31/1/16 30/2/16
f 31/1/16 32/2/17 27/1/14
f 27/1/14 32/2/17 28/2/14
f 27/1/18 33/1/18 31/1/18
f 33/1/18 27/1/18 23/1/18
f 23/1/18 27/1/18 3/1/18
f 23/1/18 3/1/18 21/1/18
f 21/1/18 3/1/18 1/1/18
f 21/1/18 1/1/18 20/1/18
f 20/1/18 1/1/18 6/1/18
f 20/1/18 6/1/18 18/1/18
f 18/1/18 6/1/18 7/1/18
f 18/1/18 7/1/18 34/1/18
f 34/1/18 7/1/18 10/1/18
f 10/1/18 7/1/18 25/1/18
f 10/1/18 25/1/18 9/1/18
f 10/1/18 15/1/18 34/1/18
f 15/1/18 10/1/18 13/1/18
f 30/2/16 33/1/19 35/2/19
f 33/1/19 30/2/16 31/1/16
f 36/2/20 23/1/12 24/2/12
f 23/1/12 36/2/20 33/1/19
f 33/1/19 36/2/20 35/2/19
f 37/2/21 18/1/10 34/1/21
f 18/1/10 37/2/21 17/2/10
f 15/1/8 37/2/21 34/1/21
f 37/2/21 15/1/8 38/2/22
f 38/2/22 15/1/8 16/2/8
f 36/2/23 30/2/23 35/2/23
f 30/2/23 36/2/23 32/2/23
f 32/2/23 36/2/23 39/2/23
f 39/2/23 28/2/23 32/2/23
f 24/2/23 39/2/23 36/2/23
f 28/2/23 39/2/23 4/2/23
f 39/2/23 24/2/23 22/2/23
f 4/2/23 39/2/23 2/2/23
f 39/2/23 22/2/23 19/2/23
f 2/2/23 39/2/23 5/2/23
f 39/2/23 19/2/23 17/2/23
f 5/2/23 39/2/23 8/2/23
f 39/2/23 17/2/23 37/2/23
f 8/2/23 39/2/23 29/2/23
f 39/2/23 37/2/23 38/2/23
f 12/2/23 29/2/23 39/2/23
f 38/2/23 12/2/23 39/2/23
f 29/2/23 12/2/23 11/2/23
f 29/2/23 11/2/23 26/2/23
f 12/2/23 38/2/23 14/2/23
f 14/2/23 38/2/23 16/2/23
f 42/2/18 41/2/18 40/2/18
f 41/2/18 42/2/18 43/2/18
f 44/1/10 41/2/10 43/2/10
f 41/2/10 44/1/10 45/1/10
f 46/1/24 41/2/24 45/1/24
f 41/2/24 46/1/24 40/2/24
f 46/1/1 42/2/1 40/2/1
f 42/2/1 46/1/1 47/1/1
f 42/2/6 44/1/6 43/2/6
f 44/1/6 42/2/6 47/1/6
f 50/1/23 49/1/23 48/1/23
f 49/1/23 50/1/23 51/1/23
f 54/3/18 53/3/18 52/3/18
f 53/3/18 54/3/18 55/3/18
f 57/4/25 53/3/24 56/4/25
f 53/3/24 57/4/25 52/3/24
f 57/4/26 54/3/1 52/3/1
f 54/3/1 57/4/26 58/4/26
f 54/3/6 59/4/27 55/3/6
f 59/4/27 54/3/6 58/4/27
f 59/4/28 53/3/10 55/3/10
f 53/3/10 59/4/28 56/4/28
f 50/1/29 56/4/28 59/4/28
f 56/4/28 50/1/29 48/1/29
f 49/1/30 58/4/26 57/4/26
f 58/4/26 49/1/30 51/1/30
f 48/1/31 57/4/25 56/4/25
f 57/4/25 48/1/31 49/1/31
f 58/4/27 50/1/32 59/4/27
f 50/1/32 58/4/27 51/1/32
f 62/1/23 61/1/23 60/1/23
f 61/1/23 62/1/23 63/1/23
f 66/3/18 65/3/18 64/3/18
f 65/3/18 66/3/18 67/3/18
f 69/4/25 65/3/24 68/4/25
f 65/3/24 69/4/25 64/3/24
f 69/4/26 66/3/1 64/3/1
f 66/3/1 69/4/26 70/4/26
f 66/3/6 71/4/27 67/3/6
f 71/4/27 66/3/6 70/4/27
f 71/4/28 65/3/10 67/3/10
f 65/3/10 71/4/28 68/4/28
f 62/1/29 68/4/28 71/4/28
f 68/4/28 62/1/29 60/1/29
f 61/1/30 70/4/26 69/4/26
f 70/4/26 61/1/30 63/1/30
f 60/1/31 69/4/25 68/4/25
f 69/4/25 60/1/31 61/1/31
f 70/4/27 62/1/32 71/4/27
f 62/1/32 70/4/27 63/1/32
f 74/1/23 73/1/23 72/1/23
f 73/1/23 74/1/23 75/1/23
f 78/3/18 77/3/18 76/3/18
f 77/3/18 78/3/18 79/3/18
f 81/4/25 77/3/24 80/4/25
f 77/3/24 81/4/25 76/3/24
f 81/4/26 78/3/1 76/3/1
f 78/3/1 81/4/26 82/4/26
f 78/3/6 83/4/27 79/3/6
f 83/4/27 78/3/6 82/4/27
f 83/4/28 77/3/10 79/3/10
f 77/3/10 83/4/28 80/4/28
f 74/1/29 80/4/28 83/4/28
f 80/4/28 74/1/29 72/1/29
f 73/1/30 82/4/26 81/4/26
f 82/4/26 73/1/30 75/1/30
f 72/1/31 81/4/25 80/4/25
f 81/4/25 72/1/31 73/1/31
f 82/4/27 74/1/32 83/4/27
f 74/1/32 82/4/27 75/1/32
f 86/1/23 85/1/23 84/1/23
f 85/1/23 86/1/23 87/1/23
f 90/3/18 89/3/18 88/3/18
f 89/3/18 90/3/18 91/3/18
f 93/4/25 89/3/24 92/4/25
f 89/3/24 93/4/25 88/3/24
f 93/4/26 90/3/1 88/3/1
f 90/3/1 93/4/26 94/4/26
f 90/3/6 95/4/27 91/3/6
f 95/4/27 90/3/6 94/4/27
f 95/4/28 89/3/10 91/3/10
f 89/3/10 95/4/28 92/4/28
f 86/1/29 92/4/28 95/4/28
f 92/4/28 86/1/29 84/1/29
f 85/1/30 94/4/26 93/4/26
f 94/4/26 85/1/30 87/1/30
f 84/1/31 93/4/25 92/4/25
f 93/4/25 84/1/31 85/1/31
f 94/4/27 86/1/32 95/4/27
f 86/1/32 94/4/27 87/1/32

g paper

v 0.1285124 0.24655 -0.05799811 1 1 1
v 0.1778263 0.24655 0.06224151 1 1 1
v -0.001016967 0.24655 -0.004874259 1 1 1
v 0.04829689 0.24655 0.1153654 1 1 1
v -0.01176053 0.2582777 -0.03106976 1 1 1
v -0.0150541 0.2712678 -0.03910032 1 1 1
v 0.1177688 0.2582777 -0.08419361 1 1 1
v 0.1144753 0.2712678 -0.09222418 1 1 1
v -0.01621065 0.2865907 -0.04192029 1 1 1
v 0.1133187 0.2865907 -0.09504414 1 1 1
v 0.122698 0.2495979 -0.07217502 1 1 1
v -0.006831333 0.2495979 -0.01905116 1 1 1

vn 0.03719321 0.9951847 0.09068643
vn -0.03719321 -0.9951847 -0.09068643
vn 0.268316 0.7071068 0.6542221
vn 0.3505718 0.3826834 0.8547823
vn -0.268316 -0.7071068 -0.6542221
vn -0.3505718 -0.3826834 -0.8547823
vn 0.372165 0.1950903 0.9074321
vn -0.372165 -0.1950903 -0.9074321
vn 0.1452116 0.9238795 0.3540624
vn -0.1452116 -0.9238795 -0.3540624

vt 0.84375 0.1449837
vt 0.84375 0.16842
vt 0.84375 0.1943791
vt 0.84375 0.225
vt 0.84375 0.1510746
vt 0.84375 0.1510746

usemtl colormap

f 98/5/33 97/5/23 96/5/33
f 97/5/23 98/5/33 99/5/23
f 96/5/34 97/5/18 98/5/34
f 99/5/18 98/5/34 97/5/18
f 102/6/35 101/7/36 100/6/35
f 101/7/36 102/6/35 103/7/36
f 100/6/37 101/7/38 102/6/37
f 103/7/38 102/6/37 101/7/38
f 103/7/36 104/8/39 101/7/36
f 104/8/39 103/7/36 105/8/39
f 101/7/38 104/8/40 103/7/38
f 105/8/40 103/7/38 104/8/40
f 106/9/41 98/5/33 96/5/33
f 98/5/33 106/9/41 107/10/41
f 96/5/34 98/5/34 106/9/42
f 107/10/42 106/9/42 98/5/34
f 102/6/35 107/10/41 106/9/41
f 107/10/41 102/6/35 100/6/35
f 106/9/42 107/10/42 102/6/37
f 100/6/37 102/6/37 107/10/42

g hammer

v -0.1242008 0.26743 0.06819453 1 1 1
v -0.1234981 0.271606 0.04943726 1 1 1
v -0.1062732 0.26743 0.07299822 1 1 1
v -0.0975031 0.271606 0.0564026 1 1 1
v -0.1062732 0.24887 0.07299822 1 1 1
v -0.0975031 0.244694 0.0564026 1 1 1
v -0.08671817 0.24655 -0.08065623 1 1 1
v -0.06739965 0.24655 -0.07547984 1 1 1
v -0.08671817 0.26655 -0.08065623 1 1 1
v -0.06739965 0.26655 -0.07547984 1 1 1
v -0.1242008 0.24887 0.06819453 1 1 1
v -0.1234981 0.244694 0.04943726 1 1 1
v -0.05243808 0.2519049 0.003912485 1 1 1
v -0.06419405 0.27155 0.000762484 1 1 1
v -0.05114398 0.27655 -0.0009171451 1 1 1
v -0.1285116 0.27655 -0.05991063 1 1 1
v -0.1238423 0.27155 -0.07733678 1 1 1
v -0.1051015 0.27655 -0.06713883 1 1 1
v -0.1380773 0.23655 -0.02421086 1 1 1
v -0.05114398 0.23655 -0.0009171451 1 1 1
v -0.1251364 0.23655 -0.07250715 1 1 1
v -0.03820302 0.23655 -0.04921344 1 1 1
v -0.1393714 0.27155 -0.01938123 1 1 1
v -0.1393714 0.24155 -0.01938123 1 1 1
v -0.1380773 0.27655 -0.02421086 1 1 1
v -0.1238423 0.24155 -0.07733678 1 1 1
v -0.03690893 0.24155 -0.05404306 1 1 1
v -0.05243808 0.24155 0.003912485 1 1 1
v -0.03690893 0.27155 -0.05404306 1 1 1
v -0.03820302 0.27655 -0.04921344 1 1 1

vn -0.05758146 0.9749379 0.2148969
vn -0.02176711 0.9964572 0.08123597
vn -0.02202558 0.9963725 0.08220057
vn 0.8841362 0 0.4672293
vn 0.9407365 0 0.3391381
vn 0.9403963 0 0.3400808
vn 0.258819 0 -0.9659259
vn 0.009673582 0.9993013 -0.0361023
vn -0.258819 0 0.9659259
vn -0.02503432 -0.9953112 0.09342936
vn -0.02526907 -0.9952226 0.09430544
vn 0.00355321 -0.9999058 -0.01326076
vn -0.999299 0 -0.03743559
vn -0.9865803 0 -0.1632771
vn -0.9864311 0 -0.1641762
vn -0.05758146 -0.9749379 0.2148969
vn 0.9749246 0 0.2225359
vn -0.9622816 0 -0.2720554
vn 0.05365446 0.1893185 0.9804488
vn -0.09178925 0.9503683 -0.2972793
vn -0.09904577 -0.9238795 0.3696438
vn 0.09904577 -0.9238795 -0.3696438
vn -0.9659259 0 -0.258819
vn 0.2391177 -0.3826835 -0.8923992
vn -0.2391177 -0.3826835 0.8923992
vn 0.2566971 0.1277892 -0.9580065
vn 0.2391177 0.3826835 -0.8923992
vn 0.1033031 0.9168933 -0.3855323
vn 0.09904577 0.9238795 -0.3696438
vn -0.2391177 0.3826835 0.8923992
vn -0.234664 0.4218365 0.8757779
vn -0.09904577 0.9238795 0.3696438
vn -0.04869075 0.9821448 0.1817164
vn 0.9659259 0 0.258819

vt 0.59375 0.1939655
vt 0.59375 0.05603448
vt 0.59375 0.03879311
vt 0.59375 0.1874257
vt 0.34375 0.1017746
vt 0.34375 0.2
vt 0.34375 0.225
vt 0.34375 0.025
vt 0.34375 0.05

usemtl colormap

f 110/11/43 109/2/44 108/11/43
f 109/2/44 110/11/43 111/2/45
f 113/1/47 110/11/46 112/12/46
f 110/11/46 113/1/47 111/2/48
f 116/14/49 115/13/49 114/13/49
f 115/13/49 116/14/49 117/14/49
f 111/2/45 116/14/50 109/2/44
f 116/14/50 111/2/45 117/14/50
f 110/11/51 118/12/51 112/12/51
f 118/12/51 110/11/51 108/11/51
f 114/13/54 113/1/53 119/1/52
f 113/1/53 114/13/54 115/13/54
f 109/2/56 118/12/55 108/11/55
f 118/12/55 109/2/56 119/1/57
f 119/1/52 112/12/58 118/12/58
f 112/12/58 119/1/52 113/1/53
f 115/13/59 111/2/48 113/1/47
f 111/2/48 115/13/59 117/14/59
f 116/14/60 119/1/57 109/2/56
f 119/1/57 116/14/60 114/13/60
f 122/17/61 121/16/61 120/15/61
f 125/17/62 124/16/62 123/17/62
f 128/18/64 127/18/63 126/18/63
f 127/18/63 128/18/64 129/18/64
f 132/17/65 131/19/65 130/16/65
f 131/19/65 132/17/65 126/18/65
f 126/18/65 132/17/65 123/17/65
f 126/18/65 123/17/65 128/18/65
f 128/18/65 123/17/65 124/16/65
f 128/18/65 124/16/65 133/19/65
f 133/19/66 129/18/64 128/18/64
f 129/18/64 133/19/66 134/19/66
f 126/18/63 135/19/67 131/19/67
f 135/19/67 126/18/63 127/18/63
f 124/16/68 134/19/66 133/19/66
f 134/19/66 124/16/68 136/16/69
f 125/17/70 136/16/69 124/16/68
f 136/16/69 125/17/70 137/17/71
f 120/15/51 131/19/67 135/19/67
f 131/19/67 120/15/51 130/16/72
f 130/16/72 120/15/51 121/16/73
f 121/16/73 132/17/74 130/16/72
f 132/17/74 121/16/73 122/17/75
f 135/19/76 122/17/76 120/15/76
f 122/17/76 135/19/76 127/18/76
f 122/17/76 127/18/76 129/18/76
f 122/17/76 129/18/76 137/17/76
f 137/17/76 129/18/76 134/19/76
f 137/17/76 134/19/76 136/16/76
f 122/17/75 123/17/23 132/17/74
f 123/17/23 122/17/75 125/17/70
f 125/17/70 122/17/75 137/17/71

