# Blender v2.79 (sub 7) OBJ File: 'staffs.blend'
# www.blender.org
mtllib Staff_04.mtl
o Staff_04_Circle.011
v -0.016443 -1.377453 -0.185269
v -0.166247 -1.377453 -0.098779
v -0.166247 -1.377453 0.074200
v -0.016443 -1.377453 0.160690
v 0.133362 -1.377453 0.074200
v 0.133362 -1.377453 -0.098779
v -0.016443 -6.434474 -0.241362
v -0.214825 -6.434474 -0.126826
v -0.214825 -6.434474 0.102247
v -0.016443 -6.434474 0.216783
v 0.181940 -6.434474 0.102247
v 0.181940 -6.434474 -0.126826
v -0.016443 0.459724 -0.185269
v -0.166247 0.459724 -0.098779
v -0.166247 0.459724 0.074200
v -0.016443 0.459724 0.160690
v 0.133362 0.459724 0.074200
v 0.133362 0.459724 -0.098779
v -0.016443 0.962348 -0.267844
v -0.237759 0.962348 -0.140067
v -0.237759 0.962348 0.115487
v -0.016443 0.962348 0.243264
v 0.204874 0.962348 0.115487
v 0.204874 0.962348 -0.140067
v -0.016443 1.229684 -0.523155
v -0.458865 1.229684 -0.267722
v -0.458865 1.229684 0.243143
v -0.016443 1.229684 0.498576
v 0.425980 1.229684 0.243143
v 0.425980 1.229684 -0.267722
v -0.016443 1.572902 -0.351645
v -0.310333 1.572902 -0.181967
v -0.310333 1.572902 0.157388
v -0.016443 1.572902 0.327066
v 0.277448 1.572902 0.157388
v 0.277448 1.572902 -0.181967
v -0.016443 -6.665776 -0.420442
v -0.369913 -6.665776 -0.216366
v -0.369913 -6.665776 0.191786
v -0.016443 -6.665776 0.395862
v 0.337027 -6.665776 0.191786
v 0.337027 -6.665776 -0.216366
v -0.016443 -6.964729 -0.085179
v -0.079567 -6.964729 -0.048735
v -0.079567 -6.964729 0.024155
v -0.016443 -6.964729 0.060600
v 0.046682 -6.964729 0.024155
v 0.046682 -6.964729 -0.048735
v -0.150103 1.723375 0.006328
v -0.179032 2.105702 0.052057
v -0.306228 2.089353 0.101906
v -0.348826 2.018316 0.014238
v -0.292824 2.063937 -0.001800
v -0.217980 2.187770 -0.024032
v -0.337591 2.398335 0.161783
v -0.453579 2.472972 0.102404
v -0.477199 2.343228 -0.022779
v -0.303872 2.214734 -0.036519
v -0.321129 2.543368 0.006329
v -0.409283 2.865951 0.006329
v 0.470345 3.167323 0.006328
v 0.368602 2.788669 0.033618
v 0.470792 2.692336 0.135834
v 0.595620 2.748783 -0.041947
v 0.517595 2.744838 -0.109745
v 0.355243 2.660584 -0.063243
v 0.350913 2.343110 0.161783
v 0.479016 2.364259 0.102404
v 0.488418 2.473606 -0.089747
v 0.367380 2.552514 -0.095974
v 0.286152 2.363640 0.006329
v 0.312861 2.125685 0.006329
v -0.036896 1.903195 -0.012289
v 0.076043 2.917869 0.139214
v -0.127785 3.225034 0.303973
v -0.369116 3.492266 -0.012289
v -0.127785 3.203708 -0.116897
v 0.315359 3.590842 -0.233457
v 0.139420 4.172445 0.505891
v -0.388915 4.530872 0.307961
v -0.388915 4.209777 -0.332540
v 0.139420 3.985876 -0.353298
v 0.515909 4.648653 -0.012289
v -0.222784 5.373751 -0.012289
vn 1.0000 0.0000 0.0000
vn 1.0000 0.0096 0.0000
vn -0.5000 0.0096 0.8660
vn -0.5000 0.0096 -0.8660
vn 0.5000 0.0096 -0.8660
vn 0.5000 0.0096 0.8660
vn -1.0000 0.0096 0.0000
vn -0.9900 -0.1409 0.0000
vn -0.5000 0.0000 0.8660
vn -0.5000 0.0000 -0.8660
vn 0.5000 0.0000 -0.8660
vn 0.5000 0.0000 0.8660
vn -1.0000 0.0000 0.0000
vn 0.9900 -0.1409 0.0000
vn -0.4950 -0.1409 0.8574
vn -0.4950 -0.1409 -0.8574
vn 0.4950 -0.1409 -0.8574
vn 0.4950 -0.1409 0.8574
vn -0.8306 0.5569 0.0000
vn -0.7706 -0.6373 0.0000
vn 0.3853 -0.6373 0.6673
vn 0.3853 -0.6373 -0.6673
vn -0.3853 -0.6373 -0.6673
vn -0.3853 -0.6373 0.6673
vn 0.7706 -0.6373 0.0000
vn 0.9177 0.3972 0.0000
vn 0.0000 1.0000 -0.0000
vn -0.4589 0.3972 0.7948
vn -0.4589 0.3972 -0.7948
vn 0.4589 0.3972 -0.7948
vn 0.4589 0.3972 0.7948
vn -0.9177 0.3972 0.0000
vn 0.8306 0.5569 0.0000
vn -0.4153 0.5569 0.7193
vn -0.4153 0.5569 -0.7193
vn 0.4153 0.5569 -0.7193
vn 0.4153 0.5569 0.7193
vn 0.0000 -1.0000 0.0000
vn 0.3587 -0.6967 -0.6213
vn 0.3587 -0.6967 0.6212
vn -0.7174 -0.6967 0.0000
vn 0.7174 -0.6967 0.0000
vn -0.3587 -0.6967 0.6212
vn -0.3587 -0.6967 -0.6212
vn 0.3587 -0.6967 -0.6212
vn -0.3587 -0.6967 0.6213
vn -0.3587 -0.6967 -0.6213
vn 0.3728 -0.0823 0.9243
vn 0.9285 0.1126 -0.3539
vn -0.6195 -0.4349 0.6535
vn -0.1941 -0.1046 -0.9754
vn -0.1498 -0.0863 -0.9849
vn 0.9421 0.2879 -0.1717
vn 0.3768 -0.1392 0.9158
vn -0.7485 -0.2883 0.5973
vn -0.1428 -0.1676 -0.9755
vn 0.0728 -0.2187 -0.9731
vn 0.8627 0.3209 0.3908
vn -0.5501 -0.2124 0.8076
vn -0.8458 -0.2826 0.4525
vn -0.2484 -0.2346 -0.9398
vn 0.1844 0.1366 -0.9733
vn 0.9110 0.2490 0.3287
vn -0.3033 0.2584 0.9172
vn -0.9905 0.1255 0.0568
vn -0.0346 0.0600 -0.9976
vn 0.5037 0.1376 -0.8528
vn -0.5831 0.2132 0.7839
vn -0.9517 0.2421 -0.1889
vn 0.7819 0.1647 0.6013
vn 0.6235 0.2712 -0.7333
vn -0.3675 0.2079 -0.9065
vn -0.9723 0.1967 -0.1260
vn -0.5567 0.2500 0.7922
vn 0.8233 -0.0371 0.5663
vn 0.6543 -0.1254 -0.7457
vn -0.3763 0.2296 -0.8976
vn -0.9054 0.1502 0.3970
vn 0.4301 -0.0808 0.8991
vn 0.9301 -0.3369 -0.1462
vn 0.0032 -0.0739 -0.9973
vn -0.8394 0.0690 -0.5391
vn -0.9229 -0.1036 0.3708
vn 0.4203 -0.5753 0.7017
vn 0.8394 -0.4890 -0.2372
vn -0.0939 -0.2207 -0.9708
vn -0.7045 -0.0791 -0.7053
vn 0.4395 -0.1803 0.8799
vn 0.9336 -0.1523 0.3244
vn -0.8489 -0.1775 0.4978
vn -0.4977 -0.1040 -0.8611
vn -0.1780 -0.0913 -0.9798
vn 0.9523 -0.2239 0.2073
vn 0.3104 -0.2811 0.9081
vn -0.8476 -0.1710 0.5023
vn -0.6705 -0.3177 -0.6704
vn 0.0014 -0.2897 -0.9571
vn 0.8670 -0.1797 0.4648
vn -0.3982 -0.0824 0.9136
vn -0.9997 -0.0225 0.0113
vn -0.1404 -0.2422 -0.9600
vn 0.6274 0.0436 -0.7774
vn 0.4563 0.4649 0.7587
vn -0.0953 0.3699 0.9242
vn -0.9833 0.1628 -0.0816
vn 0.0703 0.2553 -0.9643
vn 0.2943 0.2998 -0.9075
usemtl Dark_blue
s off
f 6//1 17//1 5//1
f 11//2 6//2 5//2
f 9//3 4//3 3//3
f 7//4 2//4 1//4
f 6//5 7//5 1//5
f 10//6 5//6 4//6
f 8//7 3//7 2//7
f 15//8 20//8 14//8
f 4//9 15//9 3//9
f 2//10 13//10 1//10
f 1//11 18//11 6//11
f 5//12 16//12 4//12
f 3//13 14//13 2//13
f 18//14 23//14 17//14
f 16//15 21//15 15//15
f 13//16 20//16 19//16
f 13//17 24//17 18//17
f 17//18 22//18 16//18
f 6//1 18//1 17//1
f 11//2 12//2 6//2
f 9//3 10//3 4//3
f 7//4 8//4 2//4
f 6//5 12//5 7//5
f 10//6 11//6 5//6
f 8//7 9//7 3//7
f 15//8 21//8 20//8
f 4//9 16//9 15//9
f 2//10 14//10 13//10
f 1//11 13//11 18//11
f 5//12 17//12 16//12
f 3//13 15//13 14//13
f 18//14 24//14 23//14
f 16//15 22//15 21//15
f 13//16 14//16 20//16
f 13//17 19//17 24//17
f 17//18 23//18 22//18
usemtl Iron_staff_04
f 8//19 39//19 9//19
f 20//20 27//20 26//20
f 22//21 29//21 28//21
f 19//22 30//22 24//22
f 19//23 26//23 25//23
f 21//24 28//24 27//24
f 24//25 29//25 23//25
f 30//26 35//26 29//26
f 33//27 35//27 31//27
f 27//28 34//28 33//28
f 26//29 31//29 25//29
f 25//30 36//30 30//30
f 28//31 35//31 34//31
f 27//32 32//32 26//32
f 12//33 41//33 42//33
f 9//34 40//34 10//34
f 7//35 38//35 8//35
f 12//36 37//36 7//36
f 10//37 41//37 11//37
f 43//38 47//38 45//38
f 37//39 48//39 43//39
f 40//40 47//40 41//40
f 38//41 45//41 39//41
f 42//42 47//42 48//42
f 39//43 46//43 40//43
f 37//44 44//44 38//44
f 8//19 38//19 39//19
f 20//20 21//20 27//20
f 22//21 23//21 29//21
f 19//22 25//22 30//22
f 19//23 20//23 26//23
f 21//24 22//24 28//24
f 24//25 30//25 29//25
f 30//26 36//26 35//26
f 31//27 32//27 33//27
f 33//27 34//27 35//27
f 35//27 36//27 31//27
f 27//28 28//28 34//28
f 26//29 32//29 31//29
f 25//30 31//30 36//30
f 28//31 29//31 35//31
f 27//32 33//32 32//32
f 12//33 11//33 41//33
f 9//34 39//34 40//34
f 7//35 37//35 38//35
f 12//36 42//36 37//36
f 10//37 40//37 41//37
f 45//38 44//38 43//38
f 43//38 48//38 47//38
f 47//38 46//38 45//38
f 37//45 42//45 48//45
f 40//40 46//40 47//40
f 38//41 44//41 45//41
f 42//42 41//42 47//42
f 39//46 45//46 46//46
f 37//47 43//47 44//47
usemtl Cyrstal_staff_04
f 49//48 50//48 51//48
f 50//49 49//49 54//49
f 49//50 51//50 52//50
f 49//51 52//51 53//51
f 49//52 53//52 54//52
f 50//53 54//53 59//53
f 51//54 50//54 55//54
f 52//55 51//55 56//55
f 53//56 52//56 57//56
f 54//57 53//57 58//57
f 50//58 59//58 55//58
f 51//59 55//59 56//59
f 52//60 56//60 57//60
f 53//61 57//61 58//61
f 54//62 58//62 59//62
f 55//63 59//63 60//63
f 56//64 55//64 60//64
f 57//65 56//65 60//65
f 58//66 57//66 60//66
f 59//67 58//67 60//67
f 61//68 62//68 63//68
f 62//69 61//69 66//69
f 61//70 63//70 64//70
f 61//71 64//71 65//71
f 61//72 65//72 66//72
f 62//73 66//73 71//73
f 63//74 62//74 67//74
f 64//75 63//75 68//75
f 65//76 64//76 69//76
f 66//77 65//77 70//77
f 62//78 71//78 67//78
f 63//79 67//79 68//79
f 64//80 68//80 69//80
f 65//81 69//81 70//81
f 66//82 70//82 71//82
f 67//83 71//83 72//83
f 68//84 67//84 72//84
f 69//85 68//85 72//85
f 70//86 69//86 72//86
f 71//87 70//87 72//87
f 73//88 74//88 75//88
f 74//89 73//89 78//89
f 73//90 75//90 76//90
f 73//91 76//91 77//91
f 73//92 77//92 78//92
f 74//93 78//93 83//93
f 75//94 74//94 79//94
f 76//95 75//95 80//95
f 77//96 76//96 81//96
f 78//97 77//97 82//97
f 74//98 83//98 79//98
f 75//99 79//99 80//99
f 76//100 80//100 81//100
f 77//101 81//101 82//101
f 78//102 82//102 83//102
f 79//103 83//103 84//103
f 80//104 79//104 84//104
f 81//105 80//105 84//105
f 82//106 81//106 84//106
f 83//107 82//107 84//107
