# Blender v2.78 (sub 0) OBJ File: 'Arc.blend'
# www.blender.org
mtllib Arc.mtl
o BezierCircle_Mesh
v -1.000000 0.000000 0.000000
v -0.990868 0.000000 -0.135661
v -0.964268 0.000000 -0.265784
v -0.921393 0.000000 -0.389178
v -0.863436 0.000000 -0.504648
v -0.791590 0.000000 -0.611002
v -0.707047 0.000000 -0.707047
v -0.611003 0.000000 -0.791589
v -0.504649 0.000000 -0.863435
v -0.389178 0.000000 -0.921393
v -0.265784 0.000000 -0.964268
v -0.135661 0.000000 -0.990868
v 0.000000 0.000000 -1.000000
v 0.135645 0.000000 -0.990868
v 0.265727 0.000000 -0.964268
v 0.389061 0.000000 -0.921392
v 0.504464 0.000000 -0.863435
v 0.610750 0.000000 -0.791589
v 0.706735 0.000000 -0.707047
v 0.791235 0.000000 -0.611002
v 0.863066 0.000000 -0.504648
v 0.921042 0.000000 -0.389178
v 0.963979 0.000000 -0.265784
v 0.990694 0.000000 -0.135660
v 1.000000 0.000000 0.000000
v -0.943924 0.000000 0.001223
v -0.935304 0.000000 -0.126830
v -0.910196 0.000000 -0.249656
v -0.869725 0.000000 -0.366129
v -0.815018 0.000000 -0.475124
v -0.747201 0.000000 -0.575514
v -0.667400 0.000000 -0.666172
v -0.576742 0.000000 -0.745972
v -0.476352 0.000000 -0.813789
v -0.367358 0.000000 -0.868496
v -0.250884 0.000000 -0.908967
v -0.128058 0.000000 -0.934075
v -0.000006 0.000000 -0.942695
v 0.128032 0.000000 -0.934076
v 0.250818 0.000000 -0.908967
v 0.367236 0.000000 -0.868496
v 0.476167 0.000000 -0.813789
v 0.576492 0.000000 -0.745972
v 0.667095 0.000000 -0.666171
v 0.746856 0.000000 -0.575513
v 0.814658 0.000000 -0.475124
v 0.869383 0.000000 -0.366129
v 0.909912 0.000000 -0.249656
v 0.935128 0.000000 -0.126830
v 0.943912 0.000000 0.001223
v -1.000000 0.142605 0.000000
v -0.990868 0.142605 -0.135661
v -0.964268 0.142605 -0.265784
v -0.921393 0.142605 -0.389178
v -0.863436 0.142605 -0.504648
v -0.791590 0.142605 -0.611002
v -0.707047 0.142605 -0.707047
v -0.611003 0.142605 -0.791589
v -0.504649 0.142605 -0.863435
v -0.389178 0.142605 -0.921393
v -0.265784 0.142605 -0.964268
v -0.135661 0.142605 -0.990868
v 0.000000 0.142605 -1.000000
v 0.135645 0.142605 -0.990868
v 0.265727 0.142605 -0.964268
v 0.389061 0.142605 -0.921392
v 0.504464 0.142605 -0.863435
v 0.610750 0.142605 -0.791589
v 0.706735 0.142605 -0.707047
v 0.791235 0.142605 -0.611002
v 0.863066 0.142605 -0.504648
v 0.921042 0.142605 -0.389178
v 0.963979 0.142605 -0.265784
v 0.990694 0.142605 -0.135660
v 1.000000 0.142605 0.000000
v -0.943924 0.142605 0.001223
v -0.935304 0.142605 -0.126830
v -0.910196 0.142605 -0.249656
v -0.869725 0.142605 -0.366129
v -0.815018 0.142605 -0.475124
v -0.747201 0.142605 -0.575514
v -0.667400 0.142605 -0.666172
v -0.576742 0.142605 -0.745972
v -0.476352 0.142605 -0.813789
v -0.367358 0.142605 -0.868496
v -0.250884 0.142605 -0.908967
v -0.128058 0.142605 -0.934075
v -0.000006 0.142605 -0.942695
v 0.128032 0.142605 -0.934076
v 0.250818 0.142605 -0.908967
v 0.367236 0.142605 -0.868496
v 0.476167 0.142605 -0.813789
v 0.576492 0.142605 -0.745972
v 0.667095 0.142605 -0.666171
v 0.746856 0.142605 -0.575513
v 0.814658 0.142605 -0.475124
v 0.869383 0.142605 -0.366129
v 0.909912 0.142605 -0.249656
v 0.935128 0.142605 -0.126830
v 0.943912 0.142605 0.001223
vn 0.0000 -1.0000 0.0000
vn 0.0000 1.0000 0.0000
vn 0.5598 0.0000 0.8286
vn 0.7508 0.0000 -0.6605
vn -0.9445 0.0000 0.3286
vn -0.7506 0.0000 -0.6607
vn 0.4486 0.0000 0.8937
vn 0.8287 0.0000 -0.5597
vn -0.9796 0.0000 0.2011
vn -0.6607 0.0000 -0.7506
vn 0.3282 0.0000 0.9446
vn 0.8937 0.0000 -0.4487
vn -0.9977 0.0000 0.0684
vn -0.5598 0.0000 -0.8286
vn 0.2003 0.0000 0.9797
vn 0.9445 0.0000 -0.3286
vn 0.0218 0.0000 0.9998
vn -0.4486 0.0000 -0.8937
vn 0.0672 0.0000 0.9977
vn 0.9796 0.0000 -0.2011
vn -0.0218 0.0000 0.9998
vn -0.3282 0.0000 -0.9446
vn -0.0672 0.0000 0.9977
vn 0.9977 0.0000 -0.0684
vn -0.2003 0.0000 -0.9797
vn -0.2003 0.0000 0.9797
vn 0.9977 0.0000 0.0672
vn -0.0672 0.0000 -0.9977
vn -0.3284 0.0000 0.9446
vn 0.9797 0.0000 0.2003
vn 0.0672 0.0000 -0.9977
vn -0.4488 0.0000 0.8936
vn 0.9446 0.0000 0.3282
vn 0.2003 0.0000 -0.9797
vn -0.5600 0.0000 0.8285
vn -0.9977 0.0000 -0.0672
vn 0.8937 0.0000 0.4486
vn 0.3284 0.0000 -0.9446
vn -0.6610 0.0000 0.7504
vn -0.9797 0.0000 -0.2003
vn 0.8286 0.0000 0.5598
vn 0.4488 0.0000 -0.8936
vn -0.7508 0.0000 0.6605
vn -0.9446 0.0000 -0.3282
vn 0.7506 0.0000 0.6607
vn 0.5600 0.0000 -0.8285
vn -0.8287 0.0000 0.5597
vn -0.8937 0.0000 -0.4486
vn 0.6607 0.0000 0.7506
vn 0.6610 0.0000 -0.7504
vn -0.8937 0.0000 0.4487
vn -0.8286 0.0000 -0.5598
usemtl None
s off
f 2//1 3//1 4//1 5//1 6//1 7//1 8//1 9//1 10//1 11//1 12//1 13//1 14//1 15//1 16//1 17//1 18//1 19//1 20//1 21//1 22//1 23//1 24//1 25//1 50//1 49//1 48//1 47//1 46//1 45//1 44//1 43//1 42//1 41//1 40//1 39//1 38//1 37//1 36//1 35//1 34//1 33//1 32//1 31//1 30//1 29//1 28//1 27//1 26//1 1//1
f 52//2 51//2 76//2 77//2 78//2 79//2 80//2 81//2 82//2 83//2 84//2 85//2 86//2 87//2 88//2 89//2 90//2 91//2 92//2 93//2 94//2 95//2 96//2 97//2 98//2 99//2 100//2 75//2 74//2 73//2 72//2 71//2 70//2 69//2 68//2 67//2 66//2 65//2 64//2 63//2 62//2 61//2 60//2 59//2 58//2 57//2 56//2 55//2 54//2 53//2
f 34//3 84//3 83//3 33//3
f 19//4 69//4 70//4 20//4
f 48//5 98//5 97//5 47//5
f 6//6 56//6 57//6 7//6
f 35//7 85//7 84//7 34//7
f 20//8 70//8 71//8 21//8
f 49//9 99//9 98//9 48//9
f 7//10 57//10 58//10 8//10
f 36//11 86//11 85//11 35//11
f 21//12 71//12 72//12 22//12
f 50//13 100//13 99//13 49//13
f 8//14 58//14 59//14 9//14
f 37//15 87//15 86//15 36//15
f 22//16 72//16 73//16 23//16
f 25//17 75//17 100//17 50//17
f 9//18 59//18 60//18 10//18
f 38//19 88//19 87//19 37//19
f 23//20 73//20 74//20 24//20
f 26//21 76//21 51//21 1//21
f 10//22 60//22 61//22 11//22
f 39//23 89//23 88//23 38//23
f 24//24 74//24 75//24 25//24
f 11//25 61//25 62//25 12//25
f 40//26 90//26 89//26 39//26
f 27//27 77//27 76//27 26//27
f 12//28 62//28 63//28 13//28
f 41//29 91//29 90//29 40//29
f 28//30 78//30 77//30 27//30
f 13//31 63//31 64//31 14//31
f 42//32 92//32 91//32 41//32
f 29//33 79//33 78//33 28//33
f 14//34 64//34 65//34 15//34
f 43//35 93//35 92//35 42//35
f 1//36 51//36 52//36 2//36
f 30//37 80//37 79//37 29//37
f 15//38 65//38 66//38 16//38
f 44//39 94//39 93//39 43//39
f 2//40 52//40 53//40 3//40
f 31//41 81//41 80//41 30//41
f 16//42 66//42 67//42 17//42
f 45//43 95//43 94//43 44//43
f 3//44 53//44 54//44 4//44
f 32//45 82//45 81//45 31//45
f 17//46 67//46 68//46 18//46
f 46//47 96//47 95//47 45//47
f 4//48 54//48 55//48 5//48
f 33//49 83//49 82//49 32//49
f 18//50 68//50 69//50 19//50
f 47//51 97//51 96//51 46//51
f 5//52 55//52 56//52 6//52
