# Created by Kenney (www.kenney.nl)

mtllib debris-plate-small-a.mtl

g debris-plate-small-a

v -0.225 0 -0.175 1 1 1
v -0.175 0 -0.225 1 1 1
v -0.225 0.1 -0.175 1 1 1
v -0.175 0.1 -0.225 1 1 1
v 0.175 0 -0.225 1 1 1
v 0.175 0.1 -0.225 1 1 1
v 0.225 0 -0.175 1 1 1
v 0.225 0.1 -0.175 1 1 1
v 0.225 0.1 0.175 1 1 1
v 0.225 0 0.175 1 1 1
v 0.175 0.1 0.225 1 1 1
v 0.175 0 0.225 1 1 1
v -0.225 0 0.175 1 1 1
v -0.225 0.1 0.175 1 1 1
v -0.175 0 0.225 1 1 1
v -0.175 0.1 0.225 1 1 1

vn -0.9238795 0 -0.3826834
vn -0.3826834 0 -0.9238795
vn 0.3826834 0 -0.9238795
vn 0.9238795 0 -0.3826834
vn 0.9238795 0 0.3826834
vn 0.3826834 0 0.9238795
vn -0.9238795 0 0.3826834
vn -0.3826834 0 0.9238795
vn 0 -1 0
vn 0 1 0

vt 0.71875 0.275
vt 0.71875 0.475
vt 0.34375 0.275
vt 0.34375 0.475

usemtl colormap

f 3/2/1 2/1/2 1/1/1
f 2/1/2 3/2/1 4/2/2
f 4/2/2 5/1/3 2/1/2
f 5/1/3 4/2/2 6/2/3
f 6/2/3 7/1/4 5/1/3
f 7/1/4 6/2/3 8/2/4
f 11/2/6 10/1/5 9/2/5
f 10/1/5 11/2/6 12/1/6
f 13/1/7 3/2/1 1/1/1
f 3/2/1 13/1/7 14/2/7
f 11/2/6 15/1/8 12/1/6
f 15/1/8 11/2/6 16/2/8
f 15/1/8 14/2/7 13/1/7
f 14/2/7 15/1/8 16/2/8
f 9/2/5 7/1/4 8/2/4
f 7/1/4 9/2/5 10/1/5
f 12/3/9 7/3/9 10/3/9
f 7/3/9 12/3/9 5/3/9
f 5/3/9 12/3/9 15/3/9
f 5/3/9 15/3/9 2/3/9
f 2/3/9 15/3/9 13/3/9
f 2/3/9 13/3/9 1/3/9
f 6/4/10 9/4/10 8/4/10
f 9/4/10 6/4/10 11/4/10
f 11/4/10 6/4/10 4/4/10
f 11/4/10 4/4/10 16/4/10
f 16/4/10 4/4/10 3/4/10
f 16/4/10 3/4/10 14/4/10

g debris-plate-small-a




usemtl colormap

f 3/2/1 2/1/2 1/1/1
f 2/1/2 3/2/1 4/2/2
f 4/2/2 5/1/3 2/1/2
f 5/1/3 4/2/2 6/2/3
f 6/2/3 7/1/4 5/1/3
f 7/1/4 6/2/3 8/2/4
f 11/2/6 10/1/5 9/2/5
f 10/1/5 11/2/6 12/1/6
f 13/1/7 3/2/1 1/1/1
f 3/2/1 13/1/7 14/2/7
f 11/2/6 15/1/8 12/1/6
f 15/1/8 11/2/6 16/2/8
f 15/1/8 14/2/7 13/1/7
f 14/2/7 15/1/8 16/2/8
f 9/2/5 7/1/4 8/2/4
f 7/1/4 9/2/5 10/1/5
f 12/3/9 7/3/9 10/3/9
f 7/3/9 12/3/9 5/3/9
f 5/3/9 12/3/9 15/3/9
f 5/3/9 15/3/9 2/3/9
f 2/3/9 15/3/9 13/3/9
f 2/3/9 13/3/9 1/3/9
f 6/4/10 9/4/10 8/4/10
f 9/4/10 6/4/10 11/4/10
f 11/4/10 6/4/10 4/4/10
f 11/4/10 4/4/10 16/4/10
f 16/4/10 4/4/10 3/4/10
f 16/4/10 3/4/10 14/4/10

