# Created by Kenney (www.kenney.nl)

mtllib debris-door.mtl

g debris-door

v 0.044 0.3 0.4 1 1 1
v -0.094 0.3 0.4 1 1 1
v 0.044 0.5 0.4 1 1 1
v -0.094 0.5 0.4 1 1 1
v 0.044 0.9 -0.35 1 1 1
v 0.044 0.9 0.1 1 1 1
v -0.094 0.9 -0.35 1 1 1
v -0.094 0.9 0.1 1 1 1
v 0.044 1.83697E-17 0.1 1 1 1
v -0.094 1.83697E-17 0.1 1 1 1
v 0.044 0.15 0.1401924 1 1 1
v -0.094 0.15 0.1401924 1 1 1
v 0.044 0.2598076 0.25 1 1 1
v -0.094 0.2598076 0.25 1 1 1
v -0.094 0.05 -0.4 1 1 1
v 0.044 0.05 -0.4 1 1 1
v -0.094 0.85 -0.4 1 1 1
v 0.044 0.85 -0.4 1 1 1
v 0.044 1.83697E-18 -0.35 1 1 1
v -0.094 1.83697E-18 -0.35 1 1 1
v -0.094 0.5201772 0.2811976 1 1 1
v -0.025 0.5201772 0.2811976 1 1 1
v -0.094 0.8170645 0.05853222 1 1 1
v 0.044 0.5201772 0.2811976 1 1 1
v 0.044 0.8170645 0.05853222 1 1 1
v 0.044 0.5201772 -0.3170644 1 1 1
v -0.094 0.5201772 -0.3170644 1 1 1
v 0.044 0.8170645 -0.3170644 1 1 1
v -0.094 0.8170645 -0.3170644 1 1 1
v 0.094 0.4701773 -0.2670645 1 1 1
v 0.094 0.4701773 -0.1670644 1 1 1
v 0.044 0.4701773 -0.3170644 1 1 1
v 0.044 0.4701773 -0.1170644 1 1 1
v 0.094 0.3701773 -0.1670644 1 1 1
v 0.094 0.3701773 -0.2670645 1 1 1
v 0.044 0.3701773 -0.1170644 1 1 1
v 0.044 0.3701773 -0.3170644 1 1 1

vn 0 0 1
vn 0 0.3162278 0.9486833
vn 0 0.9238796 -0.3826835
vn 0 0.8944272 0.4472136
vn 0 -0.2588191 0.9659259
vn 0 -0.5 0.8660254
vn 0 -0.8660254 0.5
vn 0 -0.9659259 0.2588191
vn 0 -0.3826835 -0.9238796
vn 0 0.3826835 -0.9238796
vn 0 -1 0
vn 0 -0.9238796 -0.3826835
vn 0 -0.6 -0.8
vn 0 1 0
vn -1 0 0
vn 1 0 0
vn 0.7071068 0 -0.7071068
vn 0.9238795 0 -0.3826834
vn 0.9238795 0 0.3826834
vn 0.7071068 0 0.7071068

vt 0.71875 0.3416667
vt 0.71875 0.3861111
vt 0.71875 0.475
vt 0.71875 0.275
vt 0.71875 0.3083333
vt 0.71875 0.332735
vt 0.71875 0.2861111
vt 0.71875 0.4638889
vt 0.46875 0.390595
vt 0.46875 0.4565699
vt 0.46875 0.2861111
vt 0.46875 0.4638889
vt 0.46875 0.275
vt 0.46875 0.475
vt 0.46875 0.3083333
vt 0.46875 0.332735
vt 0.46875 0.3861111
vt 0.46875 0.3416667
vt 0.84375 0.7138889
vt 0.84375 0.5361111
vt 0.84375 0.725
vt 0.84375 0.525
vt 0.84375 0.7065699
vt 0.84375 0.640595
vt 0.84375 0.5583333
vt 0.84375 0.6361111
vt 0.84375 0.582735
vt 0.84375 0.5916667

usemtl colormap

f 3/2/2 2/1/1 1/1/1
f 2/1/1 3/2/2 4/2/2
f 7/3/3 6/3/4 5/3/3
f 6/3/4 7/3/3 8/3/4
f 6/3/4 4/2/2 3/2/2
f 4/2/2 6/3/4 8/3/4
f 11/5/6 10/4/5 9/4/5
f 10/4/5 11/5/6 12/5/6
f 14/6/7 11/5/6 13/6/7
f 11/5/6 14/6/7 12/5/6
f 2/1/8 13/6/7 1/1/8
f 13/6/7 2/1/8 14/6/7
f 17/8/10 16/7/9 15/7/9
f 16/7/9 17/8/10 18/8/10
f 17/8/10 5/3/3 18/8/10
f 5/3/3 17/8/10 7/3/3
f 10/4/11 19/4/12 9/4/11
f 19/4/12 10/4/11 20/4/12
f 20/4/12 16/7/9 19/4/12
f 16/7/9 20/4/12 15/7/9
f 23/10/13 22/9/13 21/9/13
f 22/9/13 23/10/13 24/9/13
f 24/9/13 23/10/13 25/10/13
f 27/9/14 24/9/14 26/9/14
f 24/9/14 27/9/14 22/9/14
f 22/9/14 27/9/14 21/9/14
f 28/10/1 27/9/1 26/9/1
f 27/9/1 28/10/1 29/10/1
f 23/10/11 28/10/11 25/10/11
f 28/10/11 23/10/11 29/10/11
f 20/13/15 17/12/15 15/11/15
f 17/12/15 20/13/15 7/14/15
f 7/14/15 20/13/15 27/9/15
f 27/9/15 20/13/15 10/13/15
f 27/9/15 10/13/15 12/15/15
f 29/10/15 7/14/15 27/9/15
f 27/9/15 12/15/15 21/9/15
f 7/14/15 29/10/15 8/14/15
f 8/14/15 29/10/15 23/10/15
f 8/14/15 23/10/15 21/9/15
f 21/9/15 12/15/15 14/16/15
f 8/14/15 21/9/15 4/17/15
f 21/9/15 14/16/15 2/18/15
f 4/17/15 21/9/15 2/18/15
f 5/21/16 16/20/16 18/19/16
f 16/20/16 5/21/16 19/22/16
f 19/22/16 5/21/16 28/23/16
f 28/23/16 5/21/16 6/21/16
f 28/23/16 6/21/16 25/23/16
f 26/24/16 19/22/16 28/23/16
f 19/22/16 26/24/16 9/22/16
f 9/22/16 26/24/16 11/25/16
f 25/23/16 6/21/16 24/24/16
f 11/25/16 26/24/16 24/24/16
f 24/24/16 6/21/16 3/26/16
f 11/25/16 24/24/16 13/27/16
f 1/28/16 24/24/16 3/26/16
f 13/27/16 24/24/16 1/28/16
f 32/21/14 31/21/14 30/21/14
f 31/21/14 32/21/14 33/21/14
f 36/22/11 35/22/11 34/22/11
f 35/22/11 36/22/11 37/22/11
f 30/21/18 37/22/17 32/21/17
f 37/22/17 30/21/18 35/22/18
f 33/21/20 34/22/19 31/21/19
f 34/22/19 33/21/20 36/22/20
f 31/21/19 35/22/18 30/21/18
f 35/22/18 31/21/19 34/22/19

g debris-door




usemtl colormap

f 3/2/2 2/1/1 1/1/1
f 2/1/1 3/2/2 4/2/2
f 7/3/3 6/3/4 5/3/3
f 6/3/4 7/3/3 8/3/4
f 6/3/4 4/2/2 3/2/2
f 4/2/2 6/3/4 8/3/4
f 11/5/6 10/4/5 9/4/5
f 10/4/5 11/5/6 12/5/6
f 14/6/7 11/5/6 13/6/7
f 11/5/6 14/6/7 12/5/6
f 2/1/8 13/6/7 1/1/8
f 13/6/7 2/1/8 14/6/7
f 17/8/10 16/7/9 15/7/9
f 16/7/9 17/8/10 18/8/10
f 17/8/10 5/3/3 18/8/10
f 5/3/3 17/8/10 7/3/3
f 10/4/11 19/4/12 9/4/11
f 19/4/12 10/4/11 20/4/12
f 20/4/12 16/7/9 19/4/12
f 16/7/9 20/4/12 15/7/9
f 23/10/13 22/9/13 21/9/13
f 22/9/13 23/10/13 24/9/13
f 24/9/13 23/10/13 25/10/13
f 27/9/14 24/9/14 26/9/14
f 24/9/14 27/9/14 22/9/14
f 22/9/14 27/9/14 21/9/14
f 28/10/1 27/9/1 26/9/1
f 27/9/1 28/10/1 29/10/1
f 23/10/11 28/10/11 25/10/11
f 28/10/11 23/10/11 29/10/11
f 20/13/15 17/12/15 15/11/15
f 17/12/15 20/13/15 7/14/15
f 7/14/15 20/13/15 27/9/15
f 27/9/15 20/13/15 10/13/15
f 27/9/15 10/13/15 12/15/15
f 29/10/15 7/14/15 27/9/15
f 27/9/15 12/15/15 21/9/15
f 7/14/15 29/10/15 8/14/15
f 8/14/15 29/10/15 23/10/15
f 8/14/15 23/10/15 21/9/15
f 21/9/15 12/15/15 14/16/15
f 8/14/15 21/9/15 4/17/15
f 21/9/15 14/16/15 2/18/15
f 4/17/15 21/9/15 2/18/15
f 5/21/16 16/20/16 18/19/16
f 16/20/16 5/21/16 19/22/16
f 19/22/16 5/21/16 28/23/16
f 28/23/16 5/21/16 6/21/16
f 28/23/16 6/21/16 25/23/16
f 26/24/16 19/22/16 28/23/16
f 19/22/16 26/24/16 9/22/16
f 9/22/16 26/24/16 11/25/16
f 25/23/16 6/21/16 24/24/16
f 11/25/16 26/24/16 24/24/16
f 24/24/16 6/21/16 3/26/16
f 11/25/16 24/24/16 13/27/16
f 1/28/16 24/24/16 3/26/16
f 13/27/16 24/24/16 1/28/16
f 32/21/14 31/21/14 30/21/14
f 31/21/14 32/21/14 33/21/14
f 36/22/11 35/22/11 34/22/11
f 35/22/11 36/22/11 37/22/11
f 30/21/18 37/22/17 32/21/17
f 37/22/17 30/21/18 35/22/18
f 33/21/20 34/22/19 31/21/19
f 34/22/19 33/21/20 36/22/20
f 31/21/19 35/22/18 30/21/18
f 35/22/18 31/21/19 34/22/19

