# Created by Kenney (www.kenney.nl)

mtllib debris-bolt.mtl

g debris-bolt

v 0.08660254 0 0.05 1 1 1
v 0.08660254 0 -0.05 1 1 1
v 0 0 0.1 1 1 1
v 0 0 -0.1 1 1 1
v -0.08660254 0 0.05 1 1 1
v -0.08660254 0 -0.05 1 1 1
v -0.08660254 0.1 -0.05 1 1 1
v -0.08660254 0.1 0.05 1 1 1
v 0.034 0.26 -0.034 1 1 1
v 0.034 0.26 0.034 1 1 1
v -0.034 0.26 -0.034 1 1 1
v -0.034 0.26 0.034 1 1 1
v 0 0.1 -0.1 1 1 1
v 0.08660254 0.1 -0.05 1 1 1
v 0.08660254 0.1 0.05 1 1 1
v 0 0.1 0.1 1 1 1
v -0.04 0.1 -0.04 1 1 1
v -0.04 0.1 0.04 1 1 1
v 0.04 0.1 0.04 1 1 1
v 0.04 0.1 -0.04 1 1 1

vn 0 -1 0
vn -1 0 0
vn 0 1 0
vn 0.5 0 -0.8660254
vn 0.5 0 0.8660254
vn -0.5 0 0.8660254
vn 1 0 0
vn -0.5 0 -0.8660254
vn -0.7061145 0.05295859 -0.7061145
vn -0.7061145 0.05295859 0.7061145
vn 0.7061145 0.05295859 0.7061145
vn 0.7061145 0.05295859 -0.7061145

vt 0.46875 0.275
vt 0.46875 0.3519231
vt 0.46875 0.475

usemtl colormap

f 3/1/1 2/1/1 1/1/1
f 2/1/1 3/1/1 4/1/1
f 4/1/1 3/1/1 5/1/1
f 4/1/1 5/1/1 6/1/1
f 5/1/2 7/2/2 6/1/2
f 7/2/2 5/1/2 8/2/2
f 11/3/3 10/3/3 9/3/3
f 10/3/3 11/3/3 12/3/3
f 13/2/4 2/1/4 4/1/4
f 2/1/4 13/2/4 14/2/4
f 15/2/5 3/1/5 1/1/5
f 3/1/5 15/2/5 16/2/5
f 16/2/6 5/1/6 3/1/6
f 5/1/6 16/2/6 8/2/6
f 15/2/7 2/1/7 14/2/7
f 2/1/7 15/2/7 1/1/7
f 7/2/8 4/1/8 6/1/8
f 4/1/8 7/2/8 13/2/8
f 18/2/10 11/3/9 17/2/9
f 11/3/9 18/2/10 12/3/10
f 10/3/11 18/2/10 19/2/11
f 18/2/10 10/3/11 12/3/10
f 9/3/12 19/2/11 20/2/12
f 19/2/11 9/3/12 10/3/11
f 11/3/9 20/2/12 17/2/9
f 20/2/12 11/3/9 9/3/12
f 16/2/3 18/2/3 8/2/3
f 8/2/3 18/2/3 7/2/3
f 16/2/3 19/2/3 18/2/3
f 17/2/3 7/2/3 18/2/3
f 15/2/3 19/2/3 16/2/3
f 17/2/3 13/2/3 7/2/3
f 19/2/3 15/2/3 20/2/3
f 20/2/3 13/2/3 17/2/3
f 14/2/3 20/2/3 15/2/3
f 20/2/3 14/2/3 13/2/3

g debris-bolt




usemtl colormap

f 3/1/1 2/1/1 1/1/1
f 2/1/1 3/1/1 4/1/1
f 4/1/1 3/1/1 5/1/1
f 4/1/1 5/1/1 6/1/1
f 5/1/2 7/2/2 6/1/2
f 7/2/2 5/1/2 8/2/2
f 11/3/3 10/3/3 9/3/3
f 10/3/3 11/3/3 12/3/3
f 13/2/4 2/1/4 4/1/4
f 2/1/4 13/2/4 14/2/4
f 15/2/5 3/1/5 1/1/5
f 3/1/5 15/2/5 16/2/5
f 16/2/6 5/1/6 3/1/6
f 5/1/6 16/2/6 8/2/6
f 15/2/7 2/1/7 14/2/7
f 2/1/7 15/2/7 1/1/7
f 7/2/8 4/1/8 6/1/8
f 4/1/8 7/2/8 13/2/8
f 18/2/10 11/3/9 17/2/9
f 11/3/9 18/2/10 12/3/10
f 10/3/11 18/2/10 19/2/11
f 18/2/10 10/3/11 12/3/10
f 9/3/12 19/2/11 20/2/12
f 19/2/11 9/3/12 10/3/11
f 11/3/9 20/2/12 17/2/9
f 20/2/12 11/3/9 9/3/12
f 16/2/3 18/2/3 8/2/3
f 8/2/3 18/2/3 7/2/3
f 16/2/3 19/2/3 18/2/3
f 17/2/3 7/2/3 18/2/3
f 15/2/3 19/2/3 16/2/3
f 17/2/3 13/2/3 7/2/3
f 19/2/3 15/2/3 20/2/3
f 20/2/3 13/2/3 17/2/3
f 14/2/3 20/2/3 15/2/3
f 20/2/3 14/2/3 13/2/3

