# Created by Kenney (www.kenney.nl)

mtllib debris-spoiler-a.mtl

g debris-spoiler-a

v -0.2127552 0.2 -0.0593431 1 1 1
v -0.2127552 0 -0.0593431 1 1 1
v -0.2127552 0.2 0.0593431 1 1 1
v -0.2127552 0 0.0593431 1 1 1
v -0.3126276 0 -0.0593431 1 1 1
v -0.3126276 0.2 -0.0593431 1 1 1
v -0.3126276 0 0.0593431 1 1 1
v -0.3126276 0.2 0.0593431 1 1 1
v 0.2127552 0 -0.0593431 1 1 1
v 0.3126276 0 -0.0593431 1 1 1
v 0.2127552 0.2 -0.0593431 1 1 1
v 0.3126276 0.2 -0.0593431 1 1 1
v 0.3126276 0 0.0593431 1 1 1
v 0.2127552 0 0.0593431 1 1 1
v 0.3126276 0.2 0.0593431 1 1 1
v 0.2127552 0.2 0.0593431 1 1 1
v 0.55 0.3 -0.1186862 1 1 1
v 0.55 0.2 -0.1186862 1 1 1
v 0.55 0.3 0 1 1 1
v 0.55 0.2 0.1186862 1 1 1
v 0.55 0.25 0.1186862 1 1 1
v -0.55 0.2 0.1186862 1 1 1
v -0.55 0.25 0.1186862 1 1 1
v -0.55 0.3 0 1 1 1
v -0.55 0.2 -0.1186862 1 1 1
v -0.55 0.3 -0.1186862 1 1 1

vn 1 0 0
vn 0 0 -1
vn 0 0 1
vn -1 0 0
vn 0 -1 0
vn 0 0.980194 0.1980394
vn 0 0.9215608 0.3882342
vn 0 1 0

vt 0.34375 0.4083333
vt 0.34375 0.275
vt 0.84375 0.725
vt 0.84375 0.6583333
vt 0.84375 0.6916667

usemtl colormap

f 3/1/1 2/2/1 1/1/1
f 2/2/1 3/1/1 4/2/1
f 6/1/2 2/2/2 5/2/2
f 2/2/2 6/1/2 1/1/2
f 3/1/3 7/2/3 4/2/3
f 7/2/3 3/1/3 8/1/3
f 11/1/2 10/2/2 9/2/2
f 10/2/2 11/1/2 12/1/2
f 15/1/3 14/2/3 13/2/3
f 14/2/3 15/1/3 16/1/3
f 7/2/4 6/1/4 5/2/4
f 6/1/4 7/2/4 8/1/4
f 15/1/1 10/2/1 12/1/1
f 10/2/1 15/1/1 13/2/1
f 7/2/5 2/2/5 4/2/5
f 2/2/5 7/2/5 5/2/5
f 14/2/4 11/1/4 9/2/4
f 11/1/4 14/2/4 16/1/4
f 14/2/5 10/2/5 13/2/5
f 10/2/5 14/2/5 9/2/5
f 19/3/1 18/4/1 17/3/1
f 18/4/1 19/3/1 20/4/1
f 20/4/1 19/3/1 21/5/1
f 21/5/3 22/4/3 20/4/3
f 22/4/3 21/5/3 23/5/3
f 24/3/6 21/5/7 19/3/6
f 21/5/7 24/3/6 23/5/7
f 22/4/4 26/3/4 25/4/4
f 26/3/4 22/4/4 24/3/4
f 24/3/4 22/4/4 23/5/4
f 26/3/2 18/4/2 25/4/2
f 18/4/2 26/3/2 17/3/2
f 17/3/8 24/3/6 19/3/6
f 24/3/6 17/3/8 26/3/8
f 20/4/5 15/4/5 18/4/5
f 15/4/5 20/4/5 22/4/5
f 12/4/5 18/4/5 15/4/5
f 18/4/5 12/4/5 25/4/5
f 15/4/5 22/4/5 16/4/5
f 25/4/5 12/4/5 11/4/5
f 16/4/5 3/4/5 11/4/5
f 16/4/5 22/4/5 3/4/5
f 1/4/5 11/4/5 3/4/5
f 25/4/5 11/4/5 1/4/5
f 3/4/5 22/4/5 8/4/5
f 25/4/5 1/4/5 6/4/5
f 8/4/5 22/4/5 6/4/5
f 25/4/5 6/4/5 22/4/5

g debris-spoiler-a




usemtl colormap

f 3/1/1 2/2/1 1/1/1
f 2/2/1 3/1/1 4/2/1
f 6/1/2 2/2/2 5/2/2
f 2/2/2 6/1/2 1/1/2
f 3/1/3 7/2/3 4/2/3
f 7/2/3 3/1/3 8/1/3
f 11/1/2 10/2/2 9/2/2
f 10/2/2 11/1/2 12/1/2
f 15/1/3 14/2/3 13/2/3
f 14/2/3 15/1/3 16/1/3
f 7/2/4 6/1/4 5/2/4
f 6/1/4 7/2/4 8/1/4
f 15/1/1 10/2/1 12/1/1
f 10/2/1 15/1/1 13/2/1
f 7/2/5 2/2/5 4/2/5
f 2/2/5 7/2/5 5/2/5
f 14/2/4 11/1/4 9/2/4
f 11/1/4 14/2/4 16/1/4
f 14/2/5 10/2/5 13/2/5
f 10/2/5 14/2/5 9/2/5
f 19/3/1 18/4/1 17/3/1
f 18/4/1 19/3/1 20/4/1
f 20/4/1 19/3/1 21/5/1
f 21/5/3 22/4/3 20/4/3
f 22/4/3 21/5/3 23/5/3
f 24/3/6 21/5/7 19/3/6
f 21/5/7 24/3/6 23/5/7
f 22/4/4 26/3/4 25/4/4
f 26/3/4 22/4/4 24/3/4
f 24/3/4 22/4/4 23/5/4
f 26/3/2 18/4/2 25/4/2
f 18/4/2 26/3/2 17/3/2
f 17/3/8 24/3/6 19/3/6
f 24/3/6 17/3/8 26/3/8
f 20/4/5 15/4/5 18/4/5
f 15/4/5 20/4/5 22/4/5
f 12/4/5 18/4/5 15/4/5
f 18/4/5 12/4/5 25/4/5
f 15/4/5 22/4/5 16/4/5
f 25/4/5 12/4/5 11/4/5
f 16/4/5 3/4/5 11/4/5
f 16/4/5 22/4/5 3/4/5
f 1/4/5 11/4/5 3/4/5
f 25/4/5 11/4/5 1/4/5
f 3/4/5 22/4/5 8/4/5
f 25/4/5 1/4/5 6/4/5
f 8/4/5 22/4/5 6/4/5
f 25/4/5 6/4/5 22/4/5

