# Created by Kenney (www.kenney.nl)

mtllib debris-nut.mtl

g debris-nut

v -0.08660254 0 -0.05 1 1 1
v -0.08660254 0.1 -0.05 1 1 1
v -0.08660254 0 0.05 1 1 1
v -0.08660254 0.1 0.05 1 1 1
v 0 0 -0.1 1 1 1
v 0.08660254 0 -0.05 1 1 1
v 0 0.1 -0.1 1 1 1
v 0.08660254 0.1 -0.05 1 1 1
v 0.08660254 0 0.05 1 1 1
v 0 0 0.1 1 1 1
v 0.08660254 0.1 0.05 1 1 1
v 0 0.1 0.1 1 1 1
v 0.04 0 -0.04 1 1 1
v 0.04 0.1 -0.04 1 1 1
v 0.04 0 0.04 1 1 1
v 0.04 0.1 0.04 1 1 1
v -0.04 0 -0.04 1 1 1
v -0.04 0.1 -0.04 1 1 1
v -0.04 0.1 0.04 1 1 1
v -0.04 0 0.04 1 1 1

vn -1 0 0
vn 0.5 0 -0.8660254
vn 0.5 0 0.8660254
vn -0.5 0 0.8660254
vn 1 0 0
vn -0.5 0 -0.8660254
vn -0.7071068 0 0.7071068
vn -0.7071068 0 -0.7071068
vn 0.7071068 0 0.7071068
vn 0.7071068 0 -0.7071068
vn 0 1 0
vn 0 -1 0

vt 0.46875 0.275
vt 0.46875 0.475

usemtl colormap

f 3/1/1 2/2/1 1/1/1
f 2/2/1 3/1/1 4/2/1
f 7/2/2 6/1/2 5/1/2
f 6/1/2 7/2/2 8/2/2
f 11/2/3 10/1/3 9/1/3
f 10/1/3 11/2/3 12/2/3
f 12/2/4 3/1/4 10/1/4
f 3/1/4 12/2/4 4/2/4
f 11/2/5 6/1/5 8/2/5
f 6/1/5 11/2/5 9/1/5
f 2/2/6 5/1/6 1/1/6
f 5/1/6 2/2/6 7/2/6
f 15/1/8 14/2/7 13/1/7
f 14/2/7 15/1/8 16/2/8
f 14/2/7 17/1/9 13/1/7
f 17/1/9 14/2/7 18/2/9
f 19/2/10 17/1/9 18/2/9
f 17/1/9 19/2/10 20/1/10
f 19/2/10 15/1/8 20/1/10
f 15/1/8 19/2/10 16/2/8
f 12/2/11 19/2/11 4/2/11
f 4/2/11 19/2/11 2/2/11
f 12/2/11 16/2/11 19/2/11
f 18/2/11 2/2/11 19/2/11
f 11/2/11 16/2/11 12/2/11
f 18/2/11 7/2/11 2/2/11
f 16/2/11 11/2/11 14/2/11
f 14/2/11 7/2/11 18/2/11
f 8/2/11 14/2/11 11/2/11
f 14/2/11 8/2/11 7/2/11
f 5/1/12 17/1/12 1/1/12
f 1/1/12 17/1/12 3/1/12
f 5/1/12 13/1/12 17/1/12
f 20/1/12 3/1/12 17/1/12
f 6/1/12 13/1/12 5/1/12
f 20/1/12 10/1/12 3/1/12
f 13/1/12 6/1/12 15/1/12
f 15/1/12 10/1/12 20/1/12
f 9/1/12 15/1/12 6/1/12
f 15/1/12 9/1/12 10/1/12

g debris-nut




usemtl colormap

f 3/1/1 2/2/1 1/1/1
f 2/2/1 3/1/1 4/2/1
f 7/2/2 6/1/2 5/1/2
f 6/1/2 7/2/2 8/2/2
f 11/2/3 10/1/3 9/1/3
f 10/1/3 11/2/3 12/2/3
f 12/2/4 3/1/4 10/1/4
f 3/1/4 12/2/4 4/2/4
f 11/2/5 6/1/5 8/2/5
f 6/1/5 11/2/5 9/1/5
f 2/2/6 5/1/6 1/1/6
f 5/1/6 2/2/6 7/2/6
f 15/1/8 14/2/7 13/1/7
f 14/2/7 15/1/8 16/2/8
f 14/2/7 17/1/9 13/1/7
f 17/1/9 14/2/7 18/2/9
f 19/2/10 17/1/9 18/2/9
f 17/1/9 19/2/10 20/1/10
f 19/2/10 15/1/8 20/1/10
f 15/1/8 19/2/10 16/2/8
f 12/2/11 19/2/11 4/2/11
f 4/2/11 19/2/11 2/2/11
f 12/2/11 16/2/11 19/2/11
f 18/2/11 2/2/11 19/2/11
f 11/2/11 16/2/11 12/2/11
f 18/2/11 7/2/11 2/2/11
f 16/2/11 11/2/11 14/2/11
f 14/2/11 7/2/11 18/2/11
f 8/2/11 14/2/11 11/2/11
f 14/2/11 8/2/11 7/2/11
f 5/1/12 17/1/12 1/1/12
f 1/1/12 17/1/12 3/1/12
f 5/1/12 13/1/12 17/1/12
f 20/1/12 3/1/12 17/1/12
f 6/1/12 13/1/12 5/1/12
f 20/1/12 10/1/12 3/1/12
f 13/1/12 6/1/12 15/1/12
f 15/1/12 10/1/12 20/1/12
f 9/1/12 15/1/12 6/1/12
f 15/1/12 9/1/12 10/1/12

