# Created by Kenney (www.kenney.nl)

mtllib debris-bumper.mtl

g debris-bumper

v 0.55 0.1 0.175 1 1 1
v -0.55 0.1 0.175 1 1 1
v 0.55 0.3 0.175 1 1 1
v -0.55 0.3 0.175 1 1 1
v -0.5 0.1 0.02499999 1 1 1
v 0.5 0.1 0.02500001 1 1 1
v -0.5 0.3 0.02499999 1 1 1
v 0.5 0.3 0.02500001 1 1 1
v -0.65 0.1 -0.225 1 1 1
v -0.65 0.3 -0.225 1 1 1
v -0.65 0.1 0.075 1 1 1
v -0.65 0.3 0.075 1 1 1
v -0.5 0.1 -0.225 1 1 1
v -0.5 0.3 -0.225 1 1 1
v 0.5 0.1 -0.225 1 1 1
v 0.65 0.1 -0.225 1 1 1
v 0.5 0.3 -0.225 1 1 1
v 0.65 0.3 -0.225 1 1 1
v 0.65 0.1 0.07500001 1 1 1
v 0.6207107 0.1 0.1457107 1 1 1
v -0.6207107 0.1 0.1457107 1 1 1
v -0.6207107 0.3 0.1457107 1 1 1
v 0.6207107 0.3 0.1457107 1 1 1
v 0.65 0.3 0.07500001 1 1 1
v -0.35 0.01464466 0.1396447 1 1 1
v -0.45 0.01464466 0.1396447 1 1 1
v -0.35 0 0.175 1 1 1
v -0.45 0 0.175 1 1 1
v -0.35 0.01464466 0.2103553 1 1 1
v -0.45 0.01464466 0.2103553 1 1 1
v -0.35 0.05 0.225 1 1 1
v -0.45 0.05 0.225 1 1 1
v -0.45 0.35 0.125 1 1 1
v -0.35 0.35 0.125 1 1 1
v -0.45 0.3853553 0.1396447 1 1 1
v -0.35 0.3853553 0.1396447 1 1 1
v -0.35 0.4 0.175 1 1 1
v -0.35 0.3853553 0.2103553 1 1 1
v -0.45 0.4 0.175 1 1 1
v -0.45 0.3853553 0.2103553 1 1 1
v -0.35 0.35 0.225 1 1 1
v -0.45 0.35 0.225 1 1 1
v -0.45 0.05 0.125 1 1 1
v -0.35 0.05 0.125 1 1 1
v 0.45 0.35 0.125 1 1 1
v 0.45 0.05 0.125 1 1 1
v 0.45 0.3853553 0.1396447 1 1 1
v 0.45 0.01464466 0.1396447 1 1 1
v 0.45 0.4 0.175 1 1 1
v 0.45 0 0.175 1 1 1
v 0.45 0.3853553 0.2103554 1 1 1
v 0.45 0.01464466 0.2103554 1 1 1
v 0.45 0.35 0.225 1 1 1
v 0.45 0.05 0.225 1 1 1
v 0.35 0.35 0.125 1 1 1
v 0.35 0.3853553 0.1396447 1 1 1
v 0.35 0.05 0.125 1 1 1
v 0.35 0.01464466 0.1396447 1 1 1
v 0.35 0 0.175 1 1 1
v 0.35 0.4 0.175 1 1 1
v 0.35 0.01464466 0.2103554 1 1 1
v 0.35 0.3853553 0.2103554 1 1 1
v 0.35 0.05 0.225 1 1 1
v 0.35 0.35 0.225 1 1 1

vn 0.1950903 0 0.9807853
vn -0.1950903 0 0.9807853
vn 0 0 -1
vn -1 0 0
vn -0.9807853 0 0.1950903
vn 1 0 0
vn 0 -1 0
vn 0 1 0
vn -0.7071068 0 0.7071068
vn 0.7071068 0 0.7071068
vn 0.9807853 0 0.1950903
vn 0 -0.7071068 -0.7071068
vn 0 -0.7071068 0.7071068
vn 0 -0.1950903 0.9807853
vn 0 0.1950903 -0.9807853
vn 0 0.7071068 -0.7071068
vn 0 0.7071068 0.7071068
vn 0 0.1950903 0.9807853
vn 0 -0.1950903 -0.9807853

vt 0.46875 0.3416667
vt 0.46875 0.475
vt 0.46875 0.2823223
vt 0.46875 0.275
vt 0.46875 0.3
vt 0.46875 0.45
vt 0.46875 0.4676777

usemtl colormap

f 3/2/1 2/1/2 1/1/1
f 2/1/2 3/2/1 4/2/2
f 7/2/3 6/1/3 5/1/3
f 6/1/3 7/2/3 8/2/3
f 11/1/5 10/2/4 9/1/4
f 10/2/4 11/1/5 12/2/5
f 10/2/3 13/1/3 9/1/3
f 13/1/3 10/2/3 14/2/3
f 7/2/6 13/1/6 14/2/6
f 13/1/6 7/2/6 5/1/6
f 17/2/3 16/1/3 15/1/3
f 16/1/3 17/2/3 18/2/3
f 19/1/7 15/1/7 16/1/7
f 15/1/7 19/1/7 20/1/7
f 15/1/7 20/1/7 1/1/7
f 15/1/7 1/1/7 6/1/7
f 6/1/7 1/1/7 2/1/7
f 6/1/7 2/1/7 5/1/7
f 9/1/7 5/1/7 2/1/7
f 5/1/7 9/1/7 13/1/7
f 9/1/7 2/1/7 21/1/7
f 9/1/7 21/1/7 11/1/7
f 10/2/8 7/2/8 14/2/8
f 7/2/8 10/2/8 4/2/8
f 4/2/8 8/2/8 7/2/8
f 4/2/8 10/2/8 22/2/8
f 22/2/8 10/2/8 12/2/8
f 3/2/8 8/2/8 4/2/8
f 3/2/8 17/2/8 8/2/8
f 23/2/8 17/2/8 3/2/8
f 24/2/8 17/2/8 23/2/8
f 17/2/8 24/2/8 18/2/8
f 4/2/2 21/1/9 2/1/2
f 21/1/9 4/2/2 22/2/9
f 23/2/10 1/1/1 20/1/10
f 1/1/1 23/2/10 3/2/1
f 6/1/4 17/2/4 15/1/4
f 17/2/4 6/1/4 8/2/4
f 24/2/11 16/1/6 18/2/6
f 16/1/6 24/2/11 19/1/11
f 21/1/9 12/2/5 11/1/5
f 12/2/5 21/1/9 22/2/9
f 23/2/10 19/1/11 24/2/11
f 19/1/11 23/2/10 20/1/10
f 27/4/7 26/3/12 25/3/12
f 26/3/12 27/4/7 28/4/7
f 31/5/14 30/3/13 29/3/13
f 30/3/13 31/5/14 32/5/14
f 35/7/16 34/6/15 33/6/15
f 34/6/15 35/7/16 36/7/16
f 39/2/8 38/7/17 37/2/8
f 38/7/17 39/2/8 40/7/17
f 29/3/13 28/4/7 27/4/7
f 28/4/7 29/3/13 30/3/13
f 38/7/17 42/6/18 41/6/18
f 42/6/18 38/7/17 40/7/17
f 41/6/18 32/5/14 31/5/14
f 32/5/14 41/6/18 42/6/18
f 33/6/15 44/5/19 43/5/19
f 44/5/19 33/6/15 34/6/15
f 35/7/16 37/2/8 36/7/16
f 37/2/8 35/7/16 39/2/8
f 26/3/4 33/6/4 43/5/4
f 33/6/4 26/3/4 35/7/4
f 35/7/4 26/3/4 28/4/4
f 35/7/4 28/4/4 39/2/4
f 39/2/4 28/4/4 30/3/4
f 39/2/4 30/3/4 40/7/4
f 40/7/4 30/3/4 32/5/4
f 40/7/4 32/5/4 42/6/4
f 36/7/6 44/5/6 34/6/6
f 44/5/6 36/7/6 25/3/6
f 25/3/6 36/7/6 37/2/6
f 25/3/6 37/2/6 27/4/6
f 27/4/6 37/2/6 38/7/6
f 27/4/6 38/7/6 29/3/6
f 29/3/6 38/7/6 41/6/6
f 29/3/6 41/6/6 31/5/6
f 43/5/19 25/3/12 26/3/12
f 25/3/12 43/5/19 44/5/19
f 47/7/6 46/5/6 45/6/6
f 46/5/6 47/7/6 48/3/6
f 48/3/6 47/7/6 49/2/6
f 48/3/6 49/2/6 50/4/6
f 50/4/6 49/2/6 51/7/6
f 50/4/6 51/7/6 52/3/6
f 52/3/6 51/7/6 53/6/6
f 52/3/6 53/6/6 54/5/6
f 56/7/16 45/6/15 55/6/15
f 45/6/15 56/7/16 47/7/16
f 58/3/4 55/6/4 57/5/4
f 55/6/4 58/3/4 56/7/4
f 56/7/4 58/3/4 59/4/4
f 56/7/4 59/4/4 60/2/4
f 60/2/4 59/4/4 61/3/4
f 60/2/4 61/3/4 62/7/4
f 62/7/4 61/3/4 63/5/4
f 62/7/4 63/5/4 64/6/4
f 50/4/7 58/3/12 48/3/12
f 58/3/12 50/4/7 59/4/7
f 60/2/8 51/7/17 49/2/8
f 51/7/17 60/2/8 62/7/17
f 51/7/17 64/6/18 53/6/18
f 64/6/18 51/7/17 62/7/17
f 55/6/15 46/5/19 57/5/19
f 46/5/19 55/6/15 45/6/15
f 56/7/16 49/2/8 47/7/16
f 49/2/8 56/7/16 60/2/8
f 53/6/18 63/5/14 54/5/14
f 63/5/14 53/6/18 64/6/18
f 54/5/14 61/3/13 52/3/13
f 61/3/13 54/5/14 63/5/14
f 52/3/13 59/4/7 50/4/7
f 59/4/7 52/3/13 61/3/13
f 57/5/19 48/3/12 58/3/12
f 48/3/12 57/5/19 46/5/19

g debris-bumper




usemtl colormap

f 3/2/1 2/1/2 1/1/1
f 2/1/2 3/2/1 4/2/2
f 7/2/3 6/1/3 5/1/3
f 6/1/3 7/2/3 8/2/3
f 11/1/5 10/2/4 9/1/4
f 10/2/4 11/1/5 12/2/5
f 10/2/3 13/1/3 9/1/3
f 13/1/3 10/2/3 14/2/3
f 7/2/6 13/1/6 14/2/6
f 13/1/6 7/2/6 5/1/6
f 17/2/3 16/1/3 15/1/3
f 16/1/3 17/2/3 18/2/3
f 19/1/7 15/1/7 16/1/7
f 15/1/7 19/1/7 20/1/7
f 15/1/7 20/1/7 1/1/7
f 15/1/7 1/1/7 6/1/7
f 6/1/7 1/1/7 2/1/7
f 6/1/7 2/1/7 5/1/7
f 9/1/7 5/1/7 2/1/7
f 5/1/7 9/1/7 13/1/7
f 9/1/7 2/1/7 21/1/7
f 9/1/7 21/1/7 11/1/7
f 10/2/8 7/2/8 14/2/8
f 7/2/8 10/2/8 4/2/8
f 4/2/8 8/2/8 7/2/8
f 4/2/8 10/2/8 22/2/8
f 22/2/8 10/2/8 12/2/8
f 3/2/8 8/2/8 4/2/8
f 3/2/8 17/2/8 8/2/8
f 23/2/8 17/2/8 3/2/8
f 24/2/8 17/2/8 23/2/8
f 17/2/8 24/2/8 18/2/8
f 4/2/2 21/1/9 2/1/2
f 21/1/9 4/2/2 22/2/9
f 23/2/10 1/1/1 20/1/10
f 1/1/1 23/2/10 3/2/1
f 6/1/4 17/2/4 15/1/4
f 17/2/4 6/1/4 8/2/4
f 24/2/11 16/1/6 18/2/6
f 16/1/6 24/2/11 19/1/11
f 21/1/9 12/2/5 11/1/5
f 12/2/5 21/1/9 22/2/9
f 23/2/10 19/1/11 24/2/11
f 19/1/11 23/2/10 20/1/10
f 27/4/7 26/3/12 25/3/12
f 26/3/12 27/4/7 28/4/7
f 31/5/14 30/3/13 29/3/13
f 30/3/13 31/5/14 32/5/14
f 35/7/16 34/6/15 33/6/15
f 34/6/15 35/7/16 36/7/16
f 39/2/8 38/7/17 37/2/8
f 38/7/17 39/2/8 40/7/17
f 29/3/13 28/4/7 27/4/7
f 28/4/7 29/3/13 30/3/13
f 38/7/17 42/6/18 41/6/18
f 42/6/18 38/7/17 40/7/17
f 41/6/18 32/5/14 31/5/14
f 32/5/14 41/6/18 42/6/18
f 33/6/15 44/5/19 43/5/19
f 44/5/19 33/6/15 34/6/15
f 35/7/16 37/2/8 36/7/16
f 37/2/8 35/7/16 39/2/8
f 26/3/4 33/6/4 43/5/4
f 33/6/4 26/3/4 35/7/4
f 35/7/4 26/3/4 28/4/4
f 35/7/4 28/4/4 39/2/4
f 39/2/4 28/4/4 30/3/4
f 39/2/4 30/3/4 40/7/4
f 40/7/4 30/3/4 32/5/4
f 40/7/4 32/5/4 42/6/4
f 36/7/6 44/5/6 34/6/6
f 44/5/6 36/7/6 25/3/6
f 25/3/6 36/7/6 37/2/6
f 25/3/6 37/2/6 27/4/6
f 27/4/6 37/2/6 38/7/6
f 27/4/6 38/7/6 29/3/6
f 29/3/6 38/7/6 41/6/6
f 29/3/6 41/6/6 31/5/6
f 43/5/19 25/3/12 26/3/12
f 25/3/12 43/5/19 44/5/19
f 47/7/6 46/5/6 45/6/6
f 46/5/6 47/7/6 48/3/6
f 48/3/6 47/7/6 49/2/6
f 48/3/6 49/2/6 50/4/6
f 50/4/6 49/2/6 51/7/6
f 50/4/6 51/7/6 52/3/6
f 52/3/6 51/7/6 53/6/6
f 52/3/6 53/6/6 54/5/6
f 56/7/16 45/6/15 55/6/15
f 45/6/15 56/7/16 47/7/16
f 58/3/4 55/6/4 57/5/4
f 55/6/4 58/3/4 56/7/4
f 56/7/4 58/3/4 59/4/4
f 56/7/4 59/4/4 60/2/4
f 60/2/4 59/4/4 61/3/4
f 60/2/4 61/3/4 62/7/4
f 62/7/4 61/3/4 63/5/4
f 62/7/4 63/5/4 64/6/4
f 50/4/7 58/3/12 48/3/12
f 58/3/12 50/4/7 59/4/7
f 60/2/8 51/7/17 49/2/8
f 51/7/17 60/2/8 62/7/17
f 51/7/17 64/6/18 53/6/18
f 64/6/18 51/7/17 62/7/17
f 55/6/15 46/5/19 57/5/19
f 46/5/19 55/6/15 45/6/15
f 56/7/16 49/2/8 47/7/16
f 49/2/8 56/7/16 60/2/8
f 53/6/18 63/5/14 54/5/14
f 63/5/14 53/6/18 64/6/18
f 54/5/14 61/3/13 52/3/13
f 61/3/13 54/5/14 63/5/14
f 52/3/13 59/4/7 50/4/7
f 59/4/7 52/3/13 61/3/13
f 57/5/19 48/3/12 58/3/12
f 48/3/12 57/5/19 46/5/19

